ISO-10303-21;
HEADER;
/* Generated by software containing ST-Developer
 * from STEP Tools, Inc. (www.steptools.com) 
 */

FILE_DESCRIPTION(
/* description */ (''),
/* implementation_level */ '2;1');

FILE_NAME(
/* name */ 'Boden.stp',
/* time_stamp */ '2026-07-14T09:57:43+02:00',
/* author */ ('PascalHelfenstein'),
/* organization */ (''),
/* preprocessor_version */ 'ST-DEVELOPER v20.1',
/* originating_system */ 'Autodesk Inventor 2027',
/* authorisation */ '');

FILE_SCHEMA (('AUTOMOTIVE_DESIGN { 1 0 10303 214 3 1 1 }'));
ENDSEC;

DATA;
#10=MECHANICAL_DESIGN_GEOMETRIC_PRESENTATION_REPRESENTATION('',(#13),#1750);
#11=SHAPE_REPRESENTATION_RELATIONSHIP('SRR','None',#1757,#12);
#12=ADVANCED_BREP_SHAPE_REPRESENTATION('',(#14),#1749);
#13=STYLED_ITEM('',(#1766),#14);
#14=MANIFOLD_SOLID_BREP('Volumenk\X\F6rper3',#957);
#15=TOROIDAL_SURFACE('',#1009,6.23205080756888,1.);
#16=TOROIDAL_SURFACE('',#1026,6.23205080756888,1.);
#17=TOROIDAL_SURFACE('',#1030,6.23205080756888,1.);
#18=TOROIDAL_SURFACE('',#1034,6.23205080756888,1.);
#19=TOROIDAL_SURFACE('',#1038,4.5,1.);
#20=TOROIDAL_SURFACE('',#1042,4.5,1.);
#21=TOROIDAL_SURFACE('',#1046,4.5,1.);
#22=TOROIDAL_SURFACE('',#1050,4.5,1.);
#23=TOROIDAL_SURFACE('',#1054,2.,1.);
#24=TOROIDAL_SURFACE('',#1061,2.,1.);
#25=TOROIDAL_SURFACE('',#1067,2.,1.);
#26=TOROIDAL_SURFACE('',#1072,2.,1.);
#27=TOROIDAL_SURFACE('',#1086,2.,1.);
#28=TOROIDAL_SURFACE('',#1092,2.,1.);
#29=TOROIDAL_SURFACE('',#1096,2.,1.);
#30=TOROIDAL_SURFACE('',#1100,2.,1.);
#31=CYLINDRICAL_SURFACE('',#995,2.15);
#32=CYLINDRICAL_SURFACE('',#999,2.15);
#33=CYLINDRICAL_SURFACE('',#1003,2.15);
#34=CYLINDRICAL_SURFACE('',#1007,2.15);
#35=CYLINDRICAL_SURFACE('',#1059,1.);
#36=CYLINDRICAL_SURFACE('',#1065,1.);
#37=CYLINDRICAL_SURFACE('',#1070,1.);
#38=CYLINDRICAL_SURFACE('',#1075,1.);
#39=CYLINDRICAL_SURFACE('',#1077,3.);
#40=CYLINDRICAL_SURFACE('',#1080,3.);
#41=CYLINDRICAL_SURFACE('',#1090,1.);
#42=CYLINDRICAL_SURFACE('',#1094,1.);
#43=CYLINDRICAL_SURFACE('',#1098,1.);
#44=CYLINDRICAL_SURFACE('',#1103,1.);
#45=CYLINDRICAL_SURFACE('',#1104,3.);
#46=CYLINDRICAL_SURFACE('',#1106,3.);
#47=CYLINDRICAL_SURFACE('',#1108,3.);
#48=CYLINDRICAL_SURFACE('',#1110,3.);
#49=CYLINDRICAL_SURFACE('',#1112,3.);
#50=CYLINDRICAL_SURFACE('',#1114,3.);
#51=CYLINDRICAL_SURFACE('',#1122,1.5);
#52=CYLINDRICAL_SURFACE('',#1123,1.5);
#53=CYLINDRICAL_SURFACE('',#1124,1.5);
#54=CYLINDRICAL_SURFACE('',#1125,1.5);
#55=FACE_BOUND('',#153,.T.);
#56=FACE_BOUND('',#154,.T.);
#57=FACE_BOUND('',#155,.T.);
#58=FACE_BOUND('',#156,.T.);
#59=FACE_BOUND('',#166,.T.);
#60=FACE_BOUND('',#167,.T.);
#61=FACE_BOUND('',#168,.T.);
#62=FACE_BOUND('',#169,.T.);
#63=FACE_BOUND('',#170,.T.);
#64=FACE_BOUND('',#171,.T.);
#65=FACE_BOUND('',#172,.T.);
#66=FACE_BOUND('',#173,.T.);
#67=FACE_BOUND('',#179,.T.);
#68=FACE_BOUND('',#182,.T.);
#69=FACE_BOUND('',#185,.T.);
#70=FACE_BOUND('',#188,.T.);
#71=FACE_BOUND('',#220,.T.);
#72=FACE_BOUND('',#222,.T.);
#73=FACE_BOUND('',#224,.T.);
#74=FACE_BOUND('',#230,.T.);
#75=PLANE('',#983);
#76=PLANE('',#1014);
#77=PLANE('',#1041);
#78=PLANE('',#1045);
#79=PLANE('',#1049);
#80=PLANE('',#1053);
#81=PLANE('',#1076);
#82=PLANE('',#1079);
#83=PLANE('',#1082);
#84=PLANE('',#1084);
#85=PLANE('',#1105);
#86=PLANE('',#1107);
#87=PLANE('',#1116);
#88=PLANE('',#1118);
#89=PLANE('',#1120);
#90=PLANE('',#1127);
#91=FACE_OUTER_BOUND('',#151,.T.);
#92=FACE_OUTER_BOUND('',#152,.T.);
#93=FACE_OUTER_BOUND('',#157,.T.);
#94=FACE_OUTER_BOUND('',#158,.T.);
#95=FACE_OUTER_BOUND('',#159,.T.);
#96=FACE_OUTER_BOUND('',#160,.T.);
#97=FACE_OUTER_BOUND('',#161,.T.);
#98=FACE_OUTER_BOUND('',#162,.T.);
#99=FACE_OUTER_BOUND('',#163,.T.);
#100=FACE_OUTER_BOUND('',#164,.T.);
#101=FACE_OUTER_BOUND('',#165,.T.);
#102=FACE_OUTER_BOUND('',#174,.T.);
#103=FACE_OUTER_BOUND('',#175,.T.);
#104=FACE_OUTER_BOUND('',#176,.T.);
#105=FACE_OUTER_BOUND('',#177,.T.);
#106=FACE_OUTER_BOUND('',#178,.T.);
#107=FACE_OUTER_BOUND('',#180,.T.);
#108=FACE_OUTER_BOUND('',#181,.T.);
#109=FACE_OUTER_BOUND('',#183,.T.);
#110=FACE_OUTER_BOUND('',#184,.T.);
#111=FACE_OUTER_BOUND('',#186,.T.);
#112=FACE_OUTER_BOUND('',#187,.T.);
#113=FACE_OUTER_BOUND('',#189,.T.);
#114=FACE_OUTER_BOUND('',#190,.T.);
#115=FACE_OUTER_BOUND('',#191,.T.);
#116=FACE_OUTER_BOUND('',#192,.T.);
#117=FACE_OUTER_BOUND('',#193,.T.);
#118=FACE_OUTER_BOUND('',#194,.T.);
#119=FACE_OUTER_BOUND('',#195,.T.);
#120=FACE_OUTER_BOUND('',#196,.T.);
#121=FACE_OUTER_BOUND('',#197,.T.);
#122=FACE_OUTER_BOUND('',#198,.T.);
#123=FACE_OUTER_BOUND('',#199,.T.);
#124=FACE_OUTER_BOUND('',#200,.T.);
#125=FACE_OUTER_BOUND('',#201,.T.);
#126=FACE_OUTER_BOUND('',#202,.T.);
#127=FACE_OUTER_BOUND('',#203,.T.);
#128=FACE_OUTER_BOUND('',#204,.T.);
#129=FACE_OUTER_BOUND('',#205,.T.);
#130=FACE_OUTER_BOUND('',#206,.T.);
#131=FACE_OUTER_BOUND('',#207,.T.);
#132=FACE_OUTER_BOUND('',#208,.T.);
#133=FACE_OUTER_BOUND('',#209,.T.);
#134=FACE_OUTER_BOUND('',#210,.T.);
#135=FACE_OUTER_BOUND('',#211,.T.);
#136=FACE_OUTER_BOUND('',#212,.T.);
#137=FACE_OUTER_BOUND('',#213,.T.);
#138=FACE_OUTER_BOUND('',#214,.T.);
#139=FACE_OUTER_BOUND('',#215,.T.);
#140=FACE_OUTER_BOUND('',#216,.T.);
#141=FACE_OUTER_BOUND('',#217,.T.);
#142=FACE_OUTER_BOUND('',#218,.T.);
#143=FACE_OUTER_BOUND('',#219,.T.);
#144=FACE_OUTER_BOUND('',#221,.T.);
#145=FACE_OUTER_BOUND('',#223,.T.);
#146=FACE_OUTER_BOUND('',#225,.T.);
#147=FACE_OUTER_BOUND('',#226,.T.);
#148=FACE_OUTER_BOUND('',#227,.T.);
#149=FACE_OUTER_BOUND('',#228,.T.);
#150=FACE_OUTER_BOUND('',#229,.T.);
#151=EDGE_LOOP('',(#625,#626,#627,#628));
#152=EDGE_LOOP('',(#629,#630,#631,#632,#633,#634,#635,#636,#637,#638,#639,
#640,#641,#642));
#153=EDGE_LOOP('',(#643));
#154=EDGE_LOOP('',(#644));
#155=EDGE_LOOP('',(#645));
#156=EDGE_LOOP('',(#646));
#157=EDGE_LOOP('',(#647,#648,#649,#650));
#158=EDGE_LOOP('',(#651,#652,#653,#654));
#159=EDGE_LOOP('',(#655,#656,#657,#658));
#160=EDGE_LOOP('',(#659,#660,#661,#662));
#161=EDGE_LOOP('',(#663,#664,#665,#666));
#162=EDGE_LOOP('',(#667,#668,#669,#670));
#163=EDGE_LOOP('',(#671,#672,#673,#674));
#164=EDGE_LOOP('',(#675,#676,#677,#678,#679));
#165=EDGE_LOOP('',(#680,#681,#682,#683,#684,#685,#686,#687));
#166=EDGE_LOOP('',(#688));
#167=EDGE_LOOP('',(#689));
#168=EDGE_LOOP('',(#690));
#169=EDGE_LOOP('',(#691));
#170=EDGE_LOOP('',(#692));
#171=EDGE_LOOP('',(#693));
#172=EDGE_LOOP('',(#694));
#173=EDGE_LOOP('',(#695));
#174=EDGE_LOOP('',(#696,#697,#698,#699,#700));
#175=EDGE_LOOP('',(#701,#702,#703,#704,#705));
#176=EDGE_LOOP('',(#706,#707,#708,#709,#710));
#177=EDGE_LOOP('',(#711,#712,#713,#714,#715));
#178=EDGE_LOOP('',(#716));
#179=EDGE_LOOP('',(#717));
#180=EDGE_LOOP('',(#718,#719,#720,#721,#722));
#181=EDGE_LOOP('',(#723));
#182=EDGE_LOOP('',(#724));
#183=EDGE_LOOP('',(#725,#726,#727,#728,#729));
#184=EDGE_LOOP('',(#730));
#185=EDGE_LOOP('',(#731));
#186=EDGE_LOOP('',(#732,#733,#734,#735,#736));
#187=EDGE_LOOP('',(#737));
#188=EDGE_LOOP('',(#738));
#189=EDGE_LOOP('',(#739,#740,#741,#742));
#190=EDGE_LOOP('',(#743,#744,#745,#746,#747,#748));
#191=EDGE_LOOP('',(#749,#750,#751,#752));
#192=EDGE_LOOP('',(#753,#754,#755,#756,#757,#758));
#193=EDGE_LOOP('',(#759,#760,#761,#762));
#194=EDGE_LOOP('',(#763,#764,#765,#766));
#195=EDGE_LOOP('',(#767,#768,#769,#770));
#196=EDGE_LOOP('',(#771,#772,#773,#774,#775,#776));
#197=EDGE_LOOP('',(#777,#778,#779,#780));
#198=EDGE_LOOP('',(#781,#782,#783,#784));
#199=EDGE_LOOP('',(#785,#786,#787,#788));
#200=EDGE_LOOP('',(#789,#790,#791,#792));
#201=EDGE_LOOP('',(#793,#794,#795,#796));
#202=EDGE_LOOP('',(#797,#798,#799,#800));
#203=EDGE_LOOP('',(#801,#802,#803,#804));
#204=EDGE_LOOP('',(#805,#806,#807,#808));
#205=EDGE_LOOP('',(#809,#810,#811,#812));
#206=EDGE_LOOP('',(#813,#814,#815,#816));
#207=EDGE_LOOP('',(#817,#818,#819,#820));
#208=EDGE_LOOP('',(#821,#822,#823,#824));
#209=EDGE_LOOP('',(#825,#826,#827,#828));
#210=EDGE_LOOP('',(#829,#830,#831,#832));
#211=EDGE_LOOP('',(#833,#834,#835,#836));
#212=EDGE_LOOP('',(#837,#838,#839,#840));
#213=EDGE_LOOP('',(#841,#842,#843,#844));
#214=EDGE_LOOP('',(#845,#846,#847,#848));
#215=EDGE_LOOP('',(#849,#850,#851,#852,#853));
#216=EDGE_LOOP('',(#854,#855,#856,#857));
#217=EDGE_LOOP('',(#858,#859,#860,#861,#862));
#218=EDGE_LOOP('',(#863,#864,#865,#866,#867,#868));
#219=EDGE_LOOP('',(#869));
#220=EDGE_LOOP('',(#870));
#221=EDGE_LOOP('',(#871));
#222=EDGE_LOOP('',(#872));
#223=EDGE_LOOP('',(#873));
#224=EDGE_LOOP('',(#874));
#225=EDGE_LOOP('',(#875,#876,#877,#878));
#226=EDGE_LOOP('',(#879,#880,#881,#882));
#227=EDGE_LOOP('',(#883,#884,#885,#886));
#228=EDGE_LOOP('',(#887,#888,#889,#890));
#229=EDGE_LOOP('',(#891));
#230=EDGE_LOOP('',(#892));
#231=LINE('',#1477,#277);
#232=LINE('',#1482,#278);
#233=LINE('',#1487,#279);
#234=LINE('',#1491,#280);
#235=LINE('',#1495,#281);
#236=LINE('',#1498,#282);
#237=LINE('',#1502,#283);
#238=LINE('',#1515,#284);
#239=LINE('',#1518,#285);
#240=LINE('',#1523,#286);
#241=LINE('',#1526,#287);
#242=LINE('',#1531,#288);
#243=LINE('',#1534,#289);
#244=LINE('',#1539,#290);
#245=LINE('',#1553,#291);
#246=LINE('',#1557,#292);
#247=LINE('',#1561,#293);
#248=LINE('',#1564,#294);
#249=LINE('',#1630,#295);
#250=LINE('',#1631,#296);
#251=LINE('',#1632,#297);
#252=LINE('',#1642,#298);
#253=LINE('',#1643,#299);
#254=LINE('',#1651,#300);
#255=LINE('',#1657,#301);
#256=LINE('',#1658,#302);
#257=LINE('',#1661,#303);
#258=LINE('',#1663,#304);
#259=LINE('',#1664,#305);
#260=LINE('',#1667,#306);
#261=LINE('',#1671,#307);
#262=LINE('',#1672,#308);
#263=LINE('',#1675,#309);
#264=LINE('',#1689,#310);
#265=LINE('',#1703,#311);
#266=LINE('',#1705,#312);
#267=LINE('',#1707,#313);
#268=LINE('',#1709,#314);
#269=LINE('',#1713,#315);
#270=LINE('',#1717,#316);
#271=LINE('',#1721,#317);
#272=LINE('',#1725,#318);
#273=LINE('',#1737,#319);
#274=LINE('',#1739,#320);
#275=LINE('',#1741,#321);
#276=LINE('',#1744,#322);
#277=VECTOR('',#1134,2.65);
#278=VECTOR('',#1139,10.);
#279=VECTOR('',#1144,10.);
#280=VECTOR('',#1147,10.);
#281=VECTOR('',#1150,10.);
#282=VECTOR('',#1153,10.);
#283=VECTOR('',#1156,10.);
#284=VECTOR('',#1171,2.15);
#285=VECTOR('',#1174,2.65);
#286=VECTOR('',#1181,2.15);
#287=VECTOR('',#1184,2.65);
#288=VECTOR('',#1191,2.15);
#289=VECTOR('',#1194,2.65);
#290=VECTOR('',#1201,2.15);
#291=VECTOR('',#1216,10.);
#292=VECTOR('',#1219,10.);
#293=VECTOR('',#1222,10.);
#294=VECTOR('',#1225,10.);
#295=VECTOR('',#1310,10.);
#296=VECTOR('',#1311,10.);
#297=VECTOR('',#1312,10.);
#298=VECTOR('',#1325,10.);
#299=VECTOR('',#1326,10.);
#300=VECTOR('',#1337,10.);
#301=VECTOR('',#1346,10.);
#302=VECTOR('',#1347,10.);
#303=VECTOR('',#1350,10.);
#304=VECTOR('',#1351,10.);
#305=VECTOR('',#1352,10.);
#306=VECTOR('',#1355,10.);
#307=VECTOR('',#1360,10.);
#308=VECTOR('',#1361,10.);
#309=VECTOR('',#1364,10.);
#310=VECTOR('',#1387,10.);
#311=VECTOR('',#1412,10.);
#312=VECTOR('',#1415,10.);
#313=VECTOR('',#1418,10.);
#314=VECTOR('',#1421,10.);
#315=VECTOR('',#1426,3.);
#316=VECTOR('',#1431,3.);
#317=VECTOR('',#1436,3.);
#318=VECTOR('',#1441,3.);
#319=VECTOR('',#1458,1.5);
#320=VECTOR('',#1461,1.5);
#321=VECTOR('',#1464,1.5);
#322=VECTOR('',#1467,1.5);
#323=CIRCLE('',#981,3.15);
#324=CIRCLE('',#982,2.15);
#325=CIRCLE('',#984,3.);
#326=CIRCLE('',#985,3.);
#327=CIRCLE('',#986,2.);
#328=CIRCLE('',#987,2.);
#329=CIRCLE('',#988,3.);
#330=CIRCLE('',#989,3.);
#331=CIRCLE('',#990,3.);
#332=CIRCLE('',#991,3.);
#333=CIRCLE('',#992,3.15);
#334=CIRCLE('',#993,3.15);
#335=CIRCLE('',#994,3.15);
#336=CIRCLE('',#996,2.15);
#337=CIRCLE('',#998,2.15);
#338=CIRCLE('',#1000,2.15);
#339=CIRCLE('',#1002,2.15);
#340=CIRCLE('',#1004,2.15);
#341=CIRCLE('',#1006,2.15);
#342=CIRCLE('',#1008,2.15);
#343=CIRCLE('',#1010,5.36602540378444);
#344=CIRCLE('',#1011,5.36602540378444);
#345=CIRCLE('',#1012,1.);
#346=CIRCLE('',#1013,6.23205080756888);
#347=CIRCLE('',#1015,2.);
#348=CIRCLE('',#1016,2.);
#349=CIRCLE('',#1017,2.);
#350=CIRCLE('',#1018,2.);
#351=CIRCLE('',#1019,6.23205080756888);
#352=CIRCLE('',#1020,6.23205080756888);
#353=CIRCLE('',#1021,1.5);
#354=CIRCLE('',#1022,1.5);
#355=CIRCLE('',#1023,1.5);
#356=CIRCLE('',#1024,1.5);
#357=CIRCLE('',#1025,6.23205080756888);
#358=CIRCLE('',#1027,5.36602540378444);
#359=CIRCLE('',#1028,5.36602540378444);
#360=CIRCLE('',#1029,1.);
#361=CIRCLE('',#1031,5.36602540378444);
#362=CIRCLE('',#1032,5.36602540378444);
#363=CIRCLE('',#1033,1.);
#364=CIRCLE('',#1035,5.36602540378444);
#365=CIRCLE('',#1036,5.36602540378444);
#366=CIRCLE('',#1037,1.);
#367=CIRCLE('',#1039,4.5);
#368=CIRCLE('',#1040,1.);
#369=CIRCLE('',#1043,4.5);
#370=CIRCLE('',#1044,1.);
#371=CIRCLE('',#1047,4.5);
#372=CIRCLE('',#1048,1.);
#373=CIRCLE('',#1051,4.5);
#374=CIRCLE('',#1052,1.);
#375=CIRCLE('',#1055,0.999999999999996);
#376=CIRCLE('',#1056,2.);
#377=CIRCLE('',#1057,1.);
#378=CIRCLE('',#1058,3.);
#379=CIRCLE('',#1060,1.);
#380=CIRCLE('',#1062,1.);
#381=CIRCLE('',#1063,3.);
#382=CIRCLE('',#1064,2.);
#383=CIRCLE('',#1066,1.);
#384=CIRCLE('',#1068,1.);
#385=CIRCLE('',#1069,3.);
#386=CIRCLE('',#1071,1.);
#387=CIRCLE('',#1073,1.);
#388=CIRCLE('',#1074,3.);
#389=CIRCLE('',#1078,3.);
#390=CIRCLE('',#1081,3.);
#391=CIRCLE('',#1083,3.);
#392=CIRCLE('',#1085,3.);
#393=CIRCLE('',#1087,1.);
#394=CIRCLE('',#1088,1.);
#395=CIRCLE('',#1089,3.);
#396=CIRCLE('',#1091,1.);
#397=CIRCLE('',#1093,1.);
#398=CIRCLE('',#1095,1.);
#399=CIRCLE('',#1097,1.);
#400=CIRCLE('',#1099,1.);
#401=CIRCLE('',#1101,1.);
#402=CIRCLE('',#1102,3.);
#403=CIRCLE('',#1109,3.);
#404=CIRCLE('',#1111,3.);
#405=CIRCLE('',#1113,3.);
#406=CIRCLE('',#1115,3.);
#407=CIRCLE('',#1117,1.5);
#408=CIRCLE('',#1119,1.5);
#409=CIRCLE('',#1121,1.5);
#410=CIRCLE('',#1126,1.5);
#411=VERTEX_POINT('',#1474);
#412=VERTEX_POINT('',#1476);
#413=VERTEX_POINT('',#1480);
#414=VERTEX_POINT('',#1481);
#415=VERTEX_POINT('',#1483);
#416=VERTEX_POINT('',#1486);
#417=VERTEX_POINT('',#1488);
#418=VERTEX_POINT('',#1490);
#419=VERTEX_POINT('',#1492);
#420=VERTEX_POINT('',#1494);
#421=VERTEX_POINT('',#1497);
#422=VERTEX_POINT('',#1499);
#423=VERTEX_POINT('',#1501);
#424=VERTEX_POINT('',#1503);
#425=VERTEX_POINT('',#1506);
#426=VERTEX_POINT('',#1508);
#427=VERTEX_POINT('',#1510);
#428=VERTEX_POINT('',#1513);
#429=VERTEX_POINT('',#1517);
#430=VERTEX_POINT('',#1521);
#431=VERTEX_POINT('',#1525);
#432=VERTEX_POINT('',#1529);
#433=VERTEX_POINT('',#1533);
#434=VERTEX_POINT('',#1537);
#435=VERTEX_POINT('',#1541);
#436=VERTEX_POINT('',#1542);
#437=VERTEX_POINT('',#1545);
#438=VERTEX_POINT('',#1549);
#439=VERTEX_POINT('',#1550);
#440=VERTEX_POINT('',#1552);
#441=VERTEX_POINT('',#1554);
#442=VERTEX_POINT('',#1556);
#443=VERTEX_POINT('',#1558);
#444=VERTEX_POINT('',#1560);
#445=VERTEX_POINT('',#1562);
#446=VERTEX_POINT('',#1565);
#447=VERTEX_POINT('',#1567);
#448=VERTEX_POINT('',#1569);
#449=VERTEX_POINT('',#1571);
#450=VERTEX_POINT('',#1573);
#451=VERTEX_POINT('',#1575);
#452=VERTEX_POINT('',#1577);
#453=VERTEX_POINT('',#1580);
#454=VERTEX_POINT('',#1581);
#455=VERTEX_POINT('',#1586);
#456=VERTEX_POINT('',#1587);
#457=VERTEX_POINT('',#1592);
#458=VERTEX_POINT('',#1593);
#459=VERTEX_POINT('',#1598);
#460=VERTEX_POINT('',#1603);
#461=VERTEX_POINT('',#1608);
#462=VERTEX_POINT('',#1613);
#463=VERTEX_POINT('',#1618);
#464=VERTEX_POINT('',#1619);
#465=VERTEX_POINT('',#1621);
#466=VERTEX_POINT('',#1623);
#467=VERTEX_POINT('',#1627);
#468=VERTEX_POINT('',#1628);
#469=VERTEX_POINT('',#1634);
#470=VERTEX_POINT('',#1635);
#471=VERTEX_POINT('',#1640);
#472=VERTEX_POINT('',#1645);
#473=VERTEX_POINT('',#1649);
#474=VERTEX_POINT('',#1653);
#475=VERTEX_POINT('',#1660);
#476=VERTEX_POINT('',#1662);
#477=VERTEX_POINT('',#1666);
#478=VERTEX_POINT('',#1670);
#479=VERTEX_POINT('',#1674);
#480=VERTEX_POINT('',#1682);
#481=VERTEX_POINT('',#1684);
#482=VERTEX_POINT('',#1699);
#483=VERTEX_POINT('',#1712);
#484=VERTEX_POINT('',#1716);
#485=VERTEX_POINT('',#1720);
#486=VERTEX_POINT('',#1724);
#487=VERTEX_POINT('',#1728);
#488=VERTEX_POINT('',#1731);
#489=VERTEX_POINT('',#1734);
#490=VERTEX_POINT('',#1743);
#491=EDGE_CURVE('',#411,#411,#323,.T.);
#492=EDGE_CURVE('',#411,#412,#231,.T.);
#493=EDGE_CURVE('',#412,#412,#324,.T.);
#494=EDGE_CURVE('',#413,#414,#232,.T.);
#495=EDGE_CURVE('',#413,#415,#325,.T.);
#496=EDGE_CURVE('',#415,#413,#326,.T.);
#497=EDGE_CURVE('',#416,#413,#233,.T.);
#498=EDGE_CURVE('',#417,#416,#327,.T.);
#499=EDGE_CURVE('',#418,#417,#234,.T.);
#500=EDGE_CURVE('',#419,#418,#328,.T.);
#501=EDGE_CURVE('',#420,#419,#235,.T.);
#502=EDGE_CURVE('',#420,#420,#329,.T.);
#503=EDGE_CURVE('',#421,#420,#236,.T.);
#504=EDGE_CURVE('',#421,#422,#330,.T.);
#505=EDGE_CURVE('',#423,#422,#237,.T.);
#506=EDGE_CURVE('',#423,#424,#331,.T.);
#507=EDGE_CURVE('',#424,#414,#332,.T.);
#508=EDGE_CURVE('',#425,#425,#333,.T.);
#509=EDGE_CURVE('',#426,#426,#334,.T.);
#510=EDGE_CURVE('',#427,#427,#335,.T.);
#511=EDGE_CURVE('',#428,#428,#336,.T.);
#512=EDGE_CURVE('',#428,#412,#238,.T.);
#513=EDGE_CURVE('',#425,#429,#239,.T.);
#514=EDGE_CURVE('',#429,#429,#337,.T.);
#515=EDGE_CURVE('',#430,#430,#338,.T.);
#516=EDGE_CURVE('',#430,#429,#240,.T.);
#517=EDGE_CURVE('',#427,#431,#241,.T.);
#518=EDGE_CURVE('',#431,#431,#339,.T.);
#519=EDGE_CURVE('',#432,#432,#340,.T.);
#520=EDGE_CURVE('',#432,#431,#242,.T.);
#521=EDGE_CURVE('',#426,#433,#243,.T.);
#522=EDGE_CURVE('',#433,#433,#341,.T.);
#523=EDGE_CURVE('',#434,#434,#342,.T.);
#524=EDGE_CURVE('',#434,#433,#244,.T.);
#525=EDGE_CURVE('',#435,#436,#343,.T.);
#526=EDGE_CURVE('',#436,#435,#344,.T.);
#527=EDGE_CURVE('',#435,#437,#345,.T.);
#528=EDGE_CURVE('',#437,#437,#346,.T.);
#529=EDGE_CURVE('',#438,#439,#347,.T.);
#530=EDGE_CURVE('',#440,#438,#245,.T.);
#531=EDGE_CURVE('',#441,#440,#348,.T.);
#532=EDGE_CURVE('',#442,#441,#246,.T.);
#533=EDGE_CURVE('',#443,#442,#349,.T.);
#534=EDGE_CURVE('',#444,#443,#247,.T.);
#535=EDGE_CURVE('',#445,#444,#350,.T.);
#536=EDGE_CURVE('',#439,#445,#248,.T.);
#537=EDGE_CURVE('',#446,#446,#351,.T.);
#538=EDGE_CURVE('',#447,#447,#352,.T.);
#539=EDGE_CURVE('',#448,#448,#353,.T.);
#540=EDGE_CURVE('',#449,#449,#354,.T.);
#541=EDGE_CURVE('',#450,#450,#355,.T.);
#542=EDGE_CURVE('',#451,#451,#356,.T.);
#543=EDGE_CURVE('',#452,#452,#357,.T.);
#544=EDGE_CURVE('',#453,#454,#358,.T.);
#545=EDGE_CURVE('',#454,#453,#359,.T.);
#546=EDGE_CURVE('',#453,#446,#360,.T.);
#547=EDGE_CURVE('',#455,#456,#361,.T.);
#548=EDGE_CURVE('',#456,#455,#362,.T.);
#549=EDGE_CURVE('',#455,#452,#363,.T.);
#550=EDGE_CURVE('',#457,#458,#364,.T.);
#551=EDGE_CURVE('',#458,#457,#365,.T.);
#552=EDGE_CURVE('',#457,#447,#366,.T.);
#553=EDGE_CURVE('',#459,#459,#367,.T.);
#554=EDGE_CURVE('',#459,#458,#368,.T.);
#555=EDGE_CURVE('',#460,#460,#369,.T.);
#556=EDGE_CURVE('',#460,#456,#370,.T.);
#557=EDGE_CURVE('',#461,#461,#371,.T.);
#558=EDGE_CURVE('',#461,#454,#372,.T.);
#559=EDGE_CURVE('',#462,#462,#373,.T.);
#560=EDGE_CURVE('',#462,#436,#374,.T.);
#561=EDGE_CURVE('',#463,#464,#375,.T.);
#562=EDGE_CURVE('',#464,#465,#376,.T.);
#563=EDGE_CURVE('',#465,#466,#377,.T.);
#564=EDGE_CURVE('',#466,#463,#378,.T.);
#565=EDGE_CURVE('',#467,#468,#379,.T.);
#566=EDGE_CURVE('',#468,#466,#249,.T.);
#567=EDGE_CURVE('',#465,#423,#250,.T.);
#568=EDGE_CURVE('',#422,#467,#251,.T.);
#569=EDGE_CURVE('',#469,#470,#380,.T.);
#570=EDGE_CURVE('',#470,#468,#381,.T.);
#571=EDGE_CURVE('',#467,#469,#382,.T.);
#572=EDGE_CURVE('',#419,#471,#383,.T.);
#573=EDGE_CURVE('',#471,#470,#252,.T.);
#574=EDGE_CURVE('',#469,#421,#253,.T.);
#575=EDGE_CURVE('',#418,#472,#384,.T.);
#576=EDGE_CURVE('',#472,#471,#385,.T.);
#577=EDGE_CURVE('',#417,#473,#386,.T.);
#578=EDGE_CURVE('',#473,#472,#254,.T.);
#579=EDGE_CURVE('',#416,#474,#387,.T.);
#580=EDGE_CURVE('',#474,#473,#388,.T.);
#581=EDGE_CURVE('',#414,#464,#255,.T.);
#582=EDGE_CURVE('',#463,#474,#256,.T.);
#583=EDGE_CURVE('',#475,#473,#257,.T.);
#584=EDGE_CURVE('',#476,#475,#258,.T.);
#585=EDGE_CURVE('',#472,#476,#259,.T.);
#586=EDGE_CURVE('',#474,#477,#260,.T.);
#587=EDGE_CURVE('',#475,#477,#389,.T.);
#588=EDGE_CURVE('',#478,#463,#261,.T.);
#589=EDGE_CURVE('',#477,#478,#262,.T.);
#590=EDGE_CURVE('',#466,#479,#263,.T.);
#591=EDGE_CURVE('',#478,#479,#390,.T.);
#592=EDGE_CURVE('',#422,#421,#391,.T.);
#593=EDGE_CURVE('',#414,#423,#392,.T.);
#594=EDGE_CURVE('',#480,#438,#393,.T.);
#595=EDGE_CURVE('',#439,#481,#394,.T.);
#596=EDGE_CURVE('',#481,#480,#395,.T.);
#597=EDGE_CURVE('',#445,#479,#396,.T.);
#598=EDGE_CURVE('',#479,#481,#264,.T.);
#599=EDGE_CURVE('',#444,#478,#397,.T.);
#600=EDGE_CURVE('',#443,#477,#398,.T.);
#601=EDGE_CURVE('',#442,#475,#399,.T.);
#602=EDGE_CURVE('',#441,#476,#400,.T.);
#603=EDGE_CURVE('',#440,#482,#401,.T.);
#604=EDGE_CURVE('',#482,#476,#402,.T.);
#605=EDGE_CURVE('',#480,#482,#265,.T.);
#606=EDGE_CURVE('',#482,#471,#266,.T.);
#607=EDGE_CURVE('',#470,#480,#267,.T.);
#608=EDGE_CURVE('',#481,#468,#268,.T.);
#609=EDGE_CURVE('',#415,#483,#269,.T.);
#610=EDGE_CURVE('',#483,#483,#403,.T.);
#611=EDGE_CURVE('',#420,#484,#270,.T.);
#612=EDGE_CURVE('',#484,#484,#404,.T.);
#613=EDGE_CURVE('',#421,#485,#271,.T.);
#614=EDGE_CURVE('',#485,#485,#405,.T.);
#615=EDGE_CURVE('',#424,#486,#272,.T.);
#616=EDGE_CURVE('',#486,#486,#406,.T.);
#617=EDGE_CURVE('',#487,#487,#407,.T.);
#618=EDGE_CURVE('',#488,#488,#408,.T.);
#619=EDGE_CURVE('',#489,#489,#409,.T.);
#620=EDGE_CURVE('',#448,#487,#273,.T.);
#621=EDGE_CURVE('',#449,#488,#274,.T.);
#622=EDGE_CURVE('',#450,#489,#275,.T.);
#623=EDGE_CURVE('',#451,#490,#276,.T.);
#624=EDGE_CURVE('',#490,#490,#410,.T.);
#625=ORIENTED_EDGE('',*,*,#491,.T.);
#626=ORIENTED_EDGE('',*,*,#492,.T.);
#627=ORIENTED_EDGE('',*,*,#493,.T.);
#628=ORIENTED_EDGE('',*,*,#492,.F.);
#629=ORIENTED_EDGE('',*,*,#494,.F.);
#630=ORIENTED_EDGE('',*,*,#495,.T.);
#631=ORIENTED_EDGE('',*,*,#496,.T.);
#632=ORIENTED_EDGE('',*,*,#497,.F.);
#633=ORIENTED_EDGE('',*,*,#498,.F.);
#634=ORIENTED_EDGE('',*,*,#499,.F.);
#635=ORIENTED_EDGE('',*,*,#500,.F.);
#636=ORIENTED_EDGE('',*,*,#501,.F.);
#637=ORIENTED_EDGE('',*,*,#502,.T.);
#638=ORIENTED_EDGE('',*,*,#503,.F.);
#639=ORIENTED_EDGE('',*,*,#504,.T.);
#640=ORIENTED_EDGE('',*,*,#505,.F.);
#641=ORIENTED_EDGE('',*,*,#506,.T.);
#642=ORIENTED_EDGE('',*,*,#507,.T.);
#643=ORIENTED_EDGE('',*,*,#508,.F.);
#644=ORIENTED_EDGE('',*,*,#509,.F.);
#645=ORIENTED_EDGE('',*,*,#510,.F.);
#646=ORIENTED_EDGE('',*,*,#491,.F.);
#647=ORIENTED_EDGE('',*,*,#511,.F.);
#648=ORIENTED_EDGE('',*,*,#512,.T.);
#649=ORIENTED_EDGE('',*,*,#493,.F.);
#650=ORIENTED_EDGE('',*,*,#512,.F.);
#651=ORIENTED_EDGE('',*,*,#508,.T.);
#652=ORIENTED_EDGE('',*,*,#513,.T.);
#653=ORIENTED_EDGE('',*,*,#514,.T.);
#654=ORIENTED_EDGE('',*,*,#513,.F.);
#655=ORIENTED_EDGE('',*,*,#515,.F.);
#656=ORIENTED_EDGE('',*,*,#516,.T.);
#657=ORIENTED_EDGE('',*,*,#514,.F.);
#658=ORIENTED_EDGE('',*,*,#516,.F.);
#659=ORIENTED_EDGE('',*,*,#510,.T.);
#660=ORIENTED_EDGE('',*,*,#517,.T.);
#661=ORIENTED_EDGE('',*,*,#518,.T.);
#662=ORIENTED_EDGE('',*,*,#517,.F.);
#663=ORIENTED_EDGE('',*,*,#519,.F.);
#664=ORIENTED_EDGE('',*,*,#520,.T.);
#665=ORIENTED_EDGE('',*,*,#518,.F.);
#666=ORIENTED_EDGE('',*,*,#520,.F.);
#667=ORIENTED_EDGE('',*,*,#509,.T.);
#668=ORIENTED_EDGE('',*,*,#521,.T.);
#669=ORIENTED_EDGE('',*,*,#522,.T.);
#670=ORIENTED_EDGE('',*,*,#521,.F.);
#671=ORIENTED_EDGE('',*,*,#523,.F.);
#672=ORIENTED_EDGE('',*,*,#524,.T.);
#673=ORIENTED_EDGE('',*,*,#522,.F.);
#674=ORIENTED_EDGE('',*,*,#524,.F.);
#675=ORIENTED_EDGE('',*,*,#525,.T.);
#676=ORIENTED_EDGE('',*,*,#526,.T.);
#677=ORIENTED_EDGE('',*,*,#527,.T.);
#678=ORIENTED_EDGE('',*,*,#528,.T.);
#679=ORIENTED_EDGE('',*,*,#527,.F.);
#680=ORIENTED_EDGE('',*,*,#529,.F.);
#681=ORIENTED_EDGE('',*,*,#530,.F.);
#682=ORIENTED_EDGE('',*,*,#531,.F.);
#683=ORIENTED_EDGE('',*,*,#532,.F.);
#684=ORIENTED_EDGE('',*,*,#533,.F.);
#685=ORIENTED_EDGE('',*,*,#534,.F.);
#686=ORIENTED_EDGE('',*,*,#535,.F.);
#687=ORIENTED_EDGE('',*,*,#536,.F.);
#688=ORIENTED_EDGE('',*,*,#537,.F.);
#689=ORIENTED_EDGE('',*,*,#538,.F.);
#690=ORIENTED_EDGE('',*,*,#539,.T.);
#691=ORIENTED_EDGE('',*,*,#540,.T.);
#692=ORIENTED_EDGE('',*,*,#541,.T.);
#693=ORIENTED_EDGE('',*,*,#542,.T.);
#694=ORIENTED_EDGE('',*,*,#543,.F.);
#695=ORIENTED_EDGE('',*,*,#528,.F.);
#696=ORIENTED_EDGE('',*,*,#544,.T.);
#697=ORIENTED_EDGE('',*,*,#545,.T.);
#698=ORIENTED_EDGE('',*,*,#546,.T.);
#699=ORIENTED_EDGE('',*,*,#537,.T.);
#700=ORIENTED_EDGE('',*,*,#546,.F.);
#701=ORIENTED_EDGE('',*,*,#547,.T.);
#702=ORIENTED_EDGE('',*,*,#548,.T.);
#703=ORIENTED_EDGE('',*,*,#549,.T.);
#704=ORIENTED_EDGE('',*,*,#543,.T.);
#705=ORIENTED_EDGE('',*,*,#549,.F.);
#706=ORIENTED_EDGE('',*,*,#550,.T.);
#707=ORIENTED_EDGE('',*,*,#551,.T.);
#708=ORIENTED_EDGE('',*,*,#552,.T.);
#709=ORIENTED_EDGE('',*,*,#538,.T.);
#710=ORIENTED_EDGE('',*,*,#552,.F.);
#711=ORIENTED_EDGE('',*,*,#553,.T.);
#712=ORIENTED_EDGE('',*,*,#554,.T.);
#713=ORIENTED_EDGE('',*,*,#550,.F.);
#714=ORIENTED_EDGE('',*,*,#551,.F.);
#715=ORIENTED_EDGE('',*,*,#554,.F.);
#716=ORIENTED_EDGE('',*,*,#553,.F.);
#717=ORIENTED_EDGE('',*,*,#519,.T.);
#718=ORIENTED_EDGE('',*,*,#555,.T.);
#719=ORIENTED_EDGE('',*,*,#556,.T.);
#720=ORIENTED_EDGE('',*,*,#547,.F.);
#721=ORIENTED_EDGE('',*,*,#548,.F.);
#722=ORIENTED_EDGE('',*,*,#556,.F.);
#723=ORIENTED_EDGE('',*,*,#555,.F.);
#724=ORIENTED_EDGE('',*,*,#515,.T.);
#725=ORIENTED_EDGE('',*,*,#557,.T.);
#726=ORIENTED_EDGE('',*,*,#558,.T.);
#727=ORIENTED_EDGE('',*,*,#544,.F.);
#728=ORIENTED_EDGE('',*,*,#545,.F.);
#729=ORIENTED_EDGE('',*,*,#558,.F.);
#730=ORIENTED_EDGE('',*,*,#557,.F.);
#731=ORIENTED_EDGE('',*,*,#511,.T.);
#732=ORIENTED_EDGE('',*,*,#559,.T.);
#733=ORIENTED_EDGE('',*,*,#560,.T.);
#734=ORIENTED_EDGE('',*,*,#525,.F.);
#735=ORIENTED_EDGE('',*,*,#526,.F.);
#736=ORIENTED_EDGE('',*,*,#560,.F.);
#737=ORIENTED_EDGE('',*,*,#559,.F.);
#738=ORIENTED_EDGE('',*,*,#523,.T.);
#739=ORIENTED_EDGE('',*,*,#561,.T.);
#740=ORIENTED_EDGE('',*,*,#562,.T.);
#741=ORIENTED_EDGE('',*,*,#563,.T.);
#742=ORIENTED_EDGE('',*,*,#564,.T.);
#743=ORIENTED_EDGE('',*,*,#565,.T.);
#744=ORIENTED_EDGE('',*,*,#566,.T.);
#745=ORIENTED_EDGE('',*,*,#563,.F.);
#746=ORIENTED_EDGE('',*,*,#567,.T.);
#747=ORIENTED_EDGE('',*,*,#505,.T.);
#748=ORIENTED_EDGE('',*,*,#568,.T.);
#749=ORIENTED_EDGE('',*,*,#569,.T.);
#750=ORIENTED_EDGE('',*,*,#570,.T.);
#751=ORIENTED_EDGE('',*,*,#565,.F.);
#752=ORIENTED_EDGE('',*,*,#571,.T.);
#753=ORIENTED_EDGE('',*,*,#572,.T.);
#754=ORIENTED_EDGE('',*,*,#573,.T.);
#755=ORIENTED_EDGE('',*,*,#569,.F.);
#756=ORIENTED_EDGE('',*,*,#574,.T.);
#757=ORIENTED_EDGE('',*,*,#503,.T.);
#758=ORIENTED_EDGE('',*,*,#501,.T.);
#759=ORIENTED_EDGE('',*,*,#575,.T.);
#760=ORIENTED_EDGE('',*,*,#576,.T.);
#761=ORIENTED_EDGE('',*,*,#572,.F.);
#762=ORIENTED_EDGE('',*,*,#500,.T.);
#763=ORIENTED_EDGE('',*,*,#577,.T.);
#764=ORIENTED_EDGE('',*,*,#578,.T.);
#765=ORIENTED_EDGE('',*,*,#575,.F.);
#766=ORIENTED_EDGE('',*,*,#499,.T.);
#767=ORIENTED_EDGE('',*,*,#579,.T.);
#768=ORIENTED_EDGE('',*,*,#580,.T.);
#769=ORIENTED_EDGE('',*,*,#577,.F.);
#770=ORIENTED_EDGE('',*,*,#498,.T.);
#771=ORIENTED_EDGE('',*,*,#579,.F.);
#772=ORIENTED_EDGE('',*,*,#497,.T.);
#773=ORIENTED_EDGE('',*,*,#494,.T.);
#774=ORIENTED_EDGE('',*,*,#581,.T.);
#775=ORIENTED_EDGE('',*,*,#561,.F.);
#776=ORIENTED_EDGE('',*,*,#582,.T.);
#777=ORIENTED_EDGE('',*,*,#578,.F.);
#778=ORIENTED_EDGE('',*,*,#583,.F.);
#779=ORIENTED_EDGE('',*,*,#584,.F.);
#780=ORIENTED_EDGE('',*,*,#585,.F.);
#781=ORIENTED_EDGE('',*,*,#580,.F.);
#782=ORIENTED_EDGE('',*,*,#586,.T.);
#783=ORIENTED_EDGE('',*,*,#587,.F.);
#784=ORIENTED_EDGE('',*,*,#583,.T.);
#785=ORIENTED_EDGE('',*,*,#582,.F.);
#786=ORIENTED_EDGE('',*,*,#588,.F.);
#787=ORIENTED_EDGE('',*,*,#589,.F.);
#788=ORIENTED_EDGE('',*,*,#586,.F.);
#789=ORIENTED_EDGE('',*,*,#564,.F.);
#790=ORIENTED_EDGE('',*,*,#590,.T.);
#791=ORIENTED_EDGE('',*,*,#591,.F.);
#792=ORIENTED_EDGE('',*,*,#588,.T.);
#793=ORIENTED_EDGE('',*,*,#568,.F.);
#794=ORIENTED_EDGE('',*,*,#592,.T.);
#795=ORIENTED_EDGE('',*,*,#574,.F.);
#796=ORIENTED_EDGE('',*,*,#571,.F.);
#797=ORIENTED_EDGE('',*,*,#581,.F.);
#798=ORIENTED_EDGE('',*,*,#593,.T.);
#799=ORIENTED_EDGE('',*,*,#567,.F.);
#800=ORIENTED_EDGE('',*,*,#562,.F.);
#801=ORIENTED_EDGE('',*,*,#594,.T.);
#802=ORIENTED_EDGE('',*,*,#529,.T.);
#803=ORIENTED_EDGE('',*,*,#595,.T.);
#804=ORIENTED_EDGE('',*,*,#596,.T.);
#805=ORIENTED_EDGE('',*,*,#597,.T.);
#806=ORIENTED_EDGE('',*,*,#598,.T.);
#807=ORIENTED_EDGE('',*,*,#595,.F.);
#808=ORIENTED_EDGE('',*,*,#536,.T.);
#809=ORIENTED_EDGE('',*,*,#599,.T.);
#810=ORIENTED_EDGE('',*,*,#591,.T.);
#811=ORIENTED_EDGE('',*,*,#597,.F.);
#812=ORIENTED_EDGE('',*,*,#535,.T.);
#813=ORIENTED_EDGE('',*,*,#600,.T.);
#814=ORIENTED_EDGE('',*,*,#589,.T.);
#815=ORIENTED_EDGE('',*,*,#599,.F.);
#816=ORIENTED_EDGE('',*,*,#534,.T.);
#817=ORIENTED_EDGE('',*,*,#601,.T.);
#818=ORIENTED_EDGE('',*,*,#587,.T.);
#819=ORIENTED_EDGE('',*,*,#600,.F.);
#820=ORIENTED_EDGE('',*,*,#533,.T.);
#821=ORIENTED_EDGE('',*,*,#602,.T.);
#822=ORIENTED_EDGE('',*,*,#584,.T.);
#823=ORIENTED_EDGE('',*,*,#601,.F.);
#824=ORIENTED_EDGE('',*,*,#532,.T.);
#825=ORIENTED_EDGE('',*,*,#603,.T.);
#826=ORIENTED_EDGE('',*,*,#604,.T.);
#827=ORIENTED_EDGE('',*,*,#602,.F.);
#828=ORIENTED_EDGE('',*,*,#531,.T.);
#829=ORIENTED_EDGE('',*,*,#603,.F.);
#830=ORIENTED_EDGE('',*,*,#530,.T.);
#831=ORIENTED_EDGE('',*,*,#594,.F.);
#832=ORIENTED_EDGE('',*,*,#605,.T.);
#833=ORIENTED_EDGE('',*,*,#576,.F.);
#834=ORIENTED_EDGE('',*,*,#585,.T.);
#835=ORIENTED_EDGE('',*,*,#604,.F.);
#836=ORIENTED_EDGE('',*,*,#606,.T.);
#837=ORIENTED_EDGE('',*,*,#573,.F.);
#838=ORIENTED_EDGE('',*,*,#606,.F.);
#839=ORIENTED_EDGE('',*,*,#605,.F.);
#840=ORIENTED_EDGE('',*,*,#607,.F.);
#841=ORIENTED_EDGE('',*,*,#570,.F.);
#842=ORIENTED_EDGE('',*,*,#607,.T.);
#843=ORIENTED_EDGE('',*,*,#596,.F.);
#844=ORIENTED_EDGE('',*,*,#608,.T.);
#845=ORIENTED_EDGE('',*,*,#566,.F.);
#846=ORIENTED_EDGE('',*,*,#608,.F.);
#847=ORIENTED_EDGE('',*,*,#598,.F.);
#848=ORIENTED_EDGE('',*,*,#590,.F.);
#849=ORIENTED_EDGE('',*,*,#495,.F.);
#850=ORIENTED_EDGE('',*,*,#496,.F.);
#851=ORIENTED_EDGE('',*,*,#609,.T.);
#852=ORIENTED_EDGE('',*,*,#610,.F.);
#853=ORIENTED_EDGE('',*,*,#609,.F.);
#854=ORIENTED_EDGE('',*,*,#502,.F.);
#855=ORIENTED_EDGE('',*,*,#611,.T.);
#856=ORIENTED_EDGE('',*,*,#612,.F.);
#857=ORIENTED_EDGE('',*,*,#611,.F.);
#858=ORIENTED_EDGE('',*,*,#504,.F.);
#859=ORIENTED_EDGE('',*,*,#613,.T.);
#860=ORIENTED_EDGE('',*,*,#614,.F.);
#861=ORIENTED_EDGE('',*,*,#613,.F.);
#862=ORIENTED_EDGE('',*,*,#592,.F.);
#863=ORIENTED_EDGE('',*,*,#506,.F.);
#864=ORIENTED_EDGE('',*,*,#593,.F.);
#865=ORIENTED_EDGE('',*,*,#507,.F.);
#866=ORIENTED_EDGE('',*,*,#615,.T.);
#867=ORIENTED_EDGE('',*,*,#616,.F.);
#868=ORIENTED_EDGE('',*,*,#615,.F.);
#869=ORIENTED_EDGE('',*,*,#616,.T.);
#870=ORIENTED_EDGE('',*,*,#617,.F.);
#871=ORIENTED_EDGE('',*,*,#614,.T.);
#872=ORIENTED_EDGE('',*,*,#618,.F.);
#873=ORIENTED_EDGE('',*,*,#612,.T.);
#874=ORIENTED_EDGE('',*,*,#619,.F.);
#875=ORIENTED_EDGE('',*,*,#539,.F.);
#876=ORIENTED_EDGE('',*,*,#620,.T.);
#877=ORIENTED_EDGE('',*,*,#617,.T.);
#878=ORIENTED_EDGE('',*,*,#620,.F.);
#879=ORIENTED_EDGE('',*,*,#540,.F.);
#880=ORIENTED_EDGE('',*,*,#621,.T.);
#881=ORIENTED_EDGE('',*,*,#618,.T.);
#882=ORIENTED_EDGE('',*,*,#621,.F.);
#883=ORIENTED_EDGE('',*,*,#541,.F.);
#884=ORIENTED_EDGE('',*,*,#622,.T.);
#885=ORIENTED_EDGE('',*,*,#619,.T.);
#886=ORIENTED_EDGE('',*,*,#622,.F.);
#887=ORIENTED_EDGE('',*,*,#542,.F.);
#888=ORIENTED_EDGE('',*,*,#623,.T.);
#889=ORIENTED_EDGE('',*,*,#624,.T.);
#890=ORIENTED_EDGE('',*,*,#623,.F.);
#891=ORIENTED_EDGE('',*,*,#610,.T.);
#892=ORIENTED_EDGE('',*,*,#624,.F.);
#893=CONICAL_SURFACE('',#980,2.65,0.785398163397449);
#894=CONICAL_SURFACE('',#997,2.65,0.785398163397449);
#895=CONICAL_SURFACE('',#1001,2.65,0.785398163397449);
#896=CONICAL_SURFACE('',#1005,2.65,0.785398163397449);
#897=ADVANCED_FACE('',(#91),#893,.F.);
#898=ADVANCED_FACE('',(#92,#55,#56,#57,#58),#75,.F.);
#899=ADVANCED_FACE('',(#93),#31,.F.);
#900=ADVANCED_FACE('',(#94),#894,.F.);
#901=ADVANCED_FACE('',(#95),#32,.F.);
#902=ADVANCED_FACE('',(#96),#895,.F.);
#903=ADVANCED_FACE('',(#97),#33,.F.);
#904=ADVANCED_FACE('',(#98),#896,.F.);
#905=ADVANCED_FACE('',(#99),#34,.F.);
#906=ADVANCED_FACE('',(#100),#15,.F.);
#907=ADVANCED_FACE('',(#101,#59,#60,#61,#62,#63,#64,#65,#66),#76,.T.);
#908=ADVANCED_FACE('',(#102),#16,.F.);
#909=ADVANCED_FACE('',(#103),#17,.F.);
#910=ADVANCED_FACE('',(#104),#18,.F.);
#911=ADVANCED_FACE('',(#105),#19,.T.);
#912=ADVANCED_FACE('',(#106,#67),#77,.T.);
#913=ADVANCED_FACE('',(#107),#20,.T.);
#914=ADVANCED_FACE('',(#108,#68),#78,.T.);
#915=ADVANCED_FACE('',(#109),#21,.T.);
#916=ADVANCED_FACE('',(#110,#69),#79,.T.);
#917=ADVANCED_FACE('',(#111),#22,.T.);
#918=ADVANCED_FACE('',(#112,#70),#80,.T.);
#919=ADVANCED_FACE('',(#113),#23,.T.);
#920=ADVANCED_FACE('',(#114),#35,.T.);
#921=ADVANCED_FACE('',(#115),#24,.T.);
#922=ADVANCED_FACE('',(#116),#36,.T.);
#923=ADVANCED_FACE('',(#117),#25,.T.);
#924=ADVANCED_FACE('',(#118),#37,.T.);
#925=ADVANCED_FACE('',(#119),#26,.T.);
#926=ADVANCED_FACE('',(#120),#38,.T.);
#927=ADVANCED_FACE('',(#121),#81,.T.);
#928=ADVANCED_FACE('',(#122),#39,.T.);
#929=ADVANCED_FACE('',(#123),#82,.T.);
#930=ADVANCED_FACE('',(#124),#40,.T.);
#931=ADVANCED_FACE('',(#125),#83,.F.);
#932=ADVANCED_FACE('',(#126),#84,.F.);
#933=ADVANCED_FACE('',(#127),#27,.T.);
#934=ADVANCED_FACE('',(#128),#41,.T.);
#935=ADVANCED_FACE('',(#129),#28,.T.);
#936=ADVANCED_FACE('',(#130),#42,.T.);
#937=ADVANCED_FACE('',(#131),#29,.T.);
#938=ADVANCED_FACE('',(#132),#43,.T.);
#939=ADVANCED_FACE('',(#133),#30,.T.);
#940=ADVANCED_FACE('',(#134),#44,.T.);
#941=ADVANCED_FACE('',(#135),#45,.T.);
#942=ADVANCED_FACE('',(#136),#85,.T.);
#943=ADVANCED_FACE('',(#137),#46,.T.);
#944=ADVANCED_FACE('',(#138),#86,.T.);
#945=ADVANCED_FACE('',(#139),#47,.F.);
#946=ADVANCED_FACE('',(#140),#48,.F.);
#947=ADVANCED_FACE('',(#141),#49,.F.);
#948=ADVANCED_FACE('',(#142),#50,.F.);
#949=ADVANCED_FACE('',(#143,#71),#87,.F.);
#950=ADVANCED_FACE('',(#144,#72),#88,.F.);
#951=ADVANCED_FACE('',(#145,#73),#89,.F.);
#952=ADVANCED_FACE('',(#146),#51,.F.);
#953=ADVANCED_FACE('',(#147),#52,.F.);
#954=ADVANCED_FACE('',(#148),#53,.F.);
#955=ADVANCED_FACE('',(#149),#54,.F.);
#956=ADVANCED_FACE('',(#150,#74),#90,.F.);
#957=CLOSED_SHELL('',(#897,#898,#899,#900,#901,#902,#903,#904,#905,#906,
#907,#908,#909,#910,#911,#912,#913,#914,#915,#916,#917,#918,#919,#920,#921,
#922,#923,#924,#925,#926,#927,#928,#929,#930,#931,#932,#933,#934,#935,#936,
#937,#938,#939,#940,#941,#942,#943,#944,#945,#946,#947,#948,#949,#950,#951,
#952,#953,#954,#955,#956));
#958=DERIVED_UNIT_ELEMENT(#961,1.);
#959=DERIVED_UNIT_ELEMENT(#1752,-3.);
#960=DIMENSIONAL_EXPONENTS(0.,1.,0.,0.,0.,0.,0.);
#961=(
CONVERSION_BASED_UNIT('gram',#963)
MASS_UNIT()
NAMED_UNIT(#960)
);
#962=(
MASS_UNIT()
NAMED_UNIT(*)
SI_UNIT(.KILO.,.GRAM.)
);
#963=MASS_MEASURE_WITH_UNIT(MASS_MEASURE(0.001),#962);
#964=DERIVED_UNIT((#958,#959));
#965=MEASURE_REPRESENTATION_ITEM('density measure',
POSITIVE_RATIO_MEASURE(0.93),#964);
#966=PROPERTY_DEFINITION_REPRESENTATION(#971,#968);
#967=PROPERTY_DEFINITION_REPRESENTATION(#972,#969);
#968=REPRESENTATION('material name',(#970),#1749);
#969=REPRESENTATION('density',(#965),#1749);
#970=DESCRIPTIVE_REPRESENTATION_ITEM('Gummi','Gummi');
#971=PROPERTY_DEFINITION('material property','material name',#1759);
#972=PROPERTY_DEFINITION('material property','density of part',#1759);
#973=DATE_TIME_ROLE('creation_date');
#974=APPLIED_DATE_AND_TIME_ASSIGNMENT(#975,#973,(#1759));
#975=DATE_AND_TIME(#976,#977);
#976=CALENDAR_DATE(2025,18,1);
#977=LOCAL_TIME(0,0,0.,#978);
#978=COORDINATED_UNIVERSAL_TIME_OFFSET(0,0,.BEHIND.);
#979=AXIS2_PLACEMENT_3D('',#1472,#1128,#1129);
#980=AXIS2_PLACEMENT_3D('',#1473,#1130,#1131);
#981=AXIS2_PLACEMENT_3D('',#1475,#1132,#1133);
#982=AXIS2_PLACEMENT_3D('',#1478,#1135,#1136);
#983=AXIS2_PLACEMENT_3D('',#1479,#1137,#1138);
#984=AXIS2_PLACEMENT_3D('',#1484,#1140,#1141);
#985=AXIS2_PLACEMENT_3D('',#1485,#1142,#1143);
#986=AXIS2_PLACEMENT_3D('',#1489,#1145,#1146);
#987=AXIS2_PLACEMENT_3D('',#1493,#1148,#1149);
#988=AXIS2_PLACEMENT_3D('',#1496,#1151,#1152);
#989=AXIS2_PLACEMENT_3D('',#1500,#1154,#1155);
#990=AXIS2_PLACEMENT_3D('',#1504,#1157,#1158);
#991=AXIS2_PLACEMENT_3D('',#1505,#1159,#1160);
#992=AXIS2_PLACEMENT_3D('',#1507,#1161,#1162);
#993=AXIS2_PLACEMENT_3D('',#1509,#1163,#1164);
#994=AXIS2_PLACEMENT_3D('',#1511,#1165,#1166);
#995=AXIS2_PLACEMENT_3D('',#1512,#1167,#1168);
#996=AXIS2_PLACEMENT_3D('',#1514,#1169,#1170);
#997=AXIS2_PLACEMENT_3D('',#1516,#1172,#1173);
#998=AXIS2_PLACEMENT_3D('',#1519,#1175,#1176);
#999=AXIS2_PLACEMENT_3D('',#1520,#1177,#1178);
#1000=AXIS2_PLACEMENT_3D('',#1522,#1179,#1180);
#1001=AXIS2_PLACEMENT_3D('',#1524,#1182,#1183);
#1002=AXIS2_PLACEMENT_3D('',#1527,#1185,#1186);
#1003=AXIS2_PLACEMENT_3D('',#1528,#1187,#1188);
#1004=AXIS2_PLACEMENT_3D('',#1530,#1189,#1190);
#1005=AXIS2_PLACEMENT_3D('',#1532,#1192,#1193);
#1006=AXIS2_PLACEMENT_3D('',#1535,#1195,#1196);
#1007=AXIS2_PLACEMENT_3D('',#1536,#1197,#1198);
#1008=AXIS2_PLACEMENT_3D('',#1538,#1199,#1200);
#1009=AXIS2_PLACEMENT_3D('',#1540,#1202,#1203);
#1010=AXIS2_PLACEMENT_3D('',#1543,#1204,#1205);
#1011=AXIS2_PLACEMENT_3D('',#1544,#1206,#1207);
#1012=AXIS2_PLACEMENT_3D('',#1546,#1208,#1209);
#1013=AXIS2_PLACEMENT_3D('',#1547,#1210,#1211);
#1014=AXIS2_PLACEMENT_3D('',#1548,#1212,#1213);
#1015=AXIS2_PLACEMENT_3D('',#1551,#1214,#1215);
#1016=AXIS2_PLACEMENT_3D('',#1555,#1217,#1218);
#1017=AXIS2_PLACEMENT_3D('',#1559,#1220,#1221);
#1018=AXIS2_PLACEMENT_3D('',#1563,#1223,#1224);
#1019=AXIS2_PLACEMENT_3D('',#1566,#1226,#1227);
#1020=AXIS2_PLACEMENT_3D('',#1568,#1228,#1229);
#1021=AXIS2_PLACEMENT_3D('',#1570,#1230,#1231);
#1022=AXIS2_PLACEMENT_3D('',#1572,#1232,#1233);
#1023=AXIS2_PLACEMENT_3D('',#1574,#1234,#1235);
#1024=AXIS2_PLACEMENT_3D('',#1576,#1236,#1237);
#1025=AXIS2_PLACEMENT_3D('',#1578,#1238,#1239);
#1026=AXIS2_PLACEMENT_3D('',#1579,#1240,#1241);
#1027=AXIS2_PLACEMENT_3D('',#1582,#1242,#1243);
#1028=AXIS2_PLACEMENT_3D('',#1583,#1244,#1245);
#1029=AXIS2_PLACEMENT_3D('',#1584,#1246,#1247);
#1030=AXIS2_PLACEMENT_3D('',#1585,#1248,#1249);
#1031=AXIS2_PLACEMENT_3D('',#1588,#1250,#1251);
#1032=AXIS2_PLACEMENT_3D('',#1589,#1252,#1253);
#1033=AXIS2_PLACEMENT_3D('',#1590,#1254,#1255);
#1034=AXIS2_PLACEMENT_3D('',#1591,#1256,#1257);
#1035=AXIS2_PLACEMENT_3D('',#1594,#1258,#1259);
#1036=AXIS2_PLACEMENT_3D('',#1595,#1260,#1261);
#1037=AXIS2_PLACEMENT_3D('',#1596,#1262,#1263);
#1038=AXIS2_PLACEMENT_3D('',#1597,#1264,#1265);
#1039=AXIS2_PLACEMENT_3D('',#1599,#1266,#1267);
#1040=AXIS2_PLACEMENT_3D('',#1600,#1268,#1269);
#1041=AXIS2_PLACEMENT_3D('',#1601,#1270,#1271);
#1042=AXIS2_PLACEMENT_3D('',#1602,#1272,#1273);
#1043=AXIS2_PLACEMENT_3D('',#1604,#1274,#1275);
#1044=AXIS2_PLACEMENT_3D('',#1605,#1276,#1277);
#1045=AXIS2_PLACEMENT_3D('',#1606,#1278,#1279);
#1046=AXIS2_PLACEMENT_3D('',#1607,#1280,#1281);
#1047=AXIS2_PLACEMENT_3D('',#1609,#1282,#1283);
#1048=AXIS2_PLACEMENT_3D('',#1610,#1284,#1285);
#1049=AXIS2_PLACEMENT_3D('',#1611,#1286,#1287);
#1050=AXIS2_PLACEMENT_3D('',#1612,#1288,#1289);
#1051=AXIS2_PLACEMENT_3D('',#1614,#1290,#1291);
#1052=AXIS2_PLACEMENT_3D('',#1615,#1292,#1293);
#1053=AXIS2_PLACEMENT_3D('',#1616,#1294,#1295);
#1054=AXIS2_PLACEMENT_3D('',#1617,#1296,#1297);
#1055=AXIS2_PLACEMENT_3D('',#1620,#1298,#1299);
#1056=AXIS2_PLACEMENT_3D('',#1622,#1300,#1301);
#1057=AXIS2_PLACEMENT_3D('',#1624,#1302,#1303);
#1058=AXIS2_PLACEMENT_3D('',#1625,#1304,#1305);
#1059=AXIS2_PLACEMENT_3D('',#1626,#1306,#1307);
#1060=AXIS2_PLACEMENT_3D('',#1629,#1308,#1309);
#1061=AXIS2_PLACEMENT_3D('',#1633,#1313,#1314);
#1062=AXIS2_PLACEMENT_3D('',#1636,#1315,#1316);
#1063=AXIS2_PLACEMENT_3D('',#1637,#1317,#1318);
#1064=AXIS2_PLACEMENT_3D('',#1638,#1319,#1320);
#1065=AXIS2_PLACEMENT_3D('',#1639,#1321,#1322);
#1066=AXIS2_PLACEMENT_3D('',#1641,#1323,#1324);
#1067=AXIS2_PLACEMENT_3D('',#1644,#1327,#1328);
#1068=AXIS2_PLACEMENT_3D('',#1646,#1329,#1330);
#1069=AXIS2_PLACEMENT_3D('',#1647,#1331,#1332);
#1070=AXIS2_PLACEMENT_3D('',#1648,#1333,#1334);
#1071=AXIS2_PLACEMENT_3D('',#1650,#1335,#1336);
#1072=AXIS2_PLACEMENT_3D('',#1652,#1338,#1339);
#1073=AXIS2_PLACEMENT_3D('',#1654,#1340,#1341);
#1074=AXIS2_PLACEMENT_3D('',#1655,#1342,#1343);
#1075=AXIS2_PLACEMENT_3D('',#1656,#1344,#1345);
#1076=AXIS2_PLACEMENT_3D('',#1659,#1348,#1349);
#1077=AXIS2_PLACEMENT_3D('',#1665,#1353,#1354);
#1078=AXIS2_PLACEMENT_3D('',#1668,#1356,#1357);
#1079=AXIS2_PLACEMENT_3D('',#1669,#1358,#1359);
#1080=AXIS2_PLACEMENT_3D('',#1673,#1362,#1363);
#1081=AXIS2_PLACEMENT_3D('',#1676,#1365,#1366);
#1082=AXIS2_PLACEMENT_3D('',#1677,#1367,#1368);
#1083=AXIS2_PLACEMENT_3D('',#1678,#1369,#1370);
#1084=AXIS2_PLACEMENT_3D('',#1679,#1371,#1372);
#1085=AXIS2_PLACEMENT_3D('',#1680,#1373,#1374);
#1086=AXIS2_PLACEMENT_3D('',#1681,#1375,#1376);
#1087=AXIS2_PLACEMENT_3D('',#1683,#1377,#1378);
#1088=AXIS2_PLACEMENT_3D('',#1685,#1379,#1380);
#1089=AXIS2_PLACEMENT_3D('',#1686,#1381,#1382);
#1090=AXIS2_PLACEMENT_3D('',#1687,#1383,#1384);
#1091=AXIS2_PLACEMENT_3D('',#1688,#1385,#1386);
#1092=AXIS2_PLACEMENT_3D('',#1690,#1388,#1389);
#1093=AXIS2_PLACEMENT_3D('',#1691,#1390,#1391);
#1094=AXIS2_PLACEMENT_3D('',#1692,#1392,#1393);
#1095=AXIS2_PLACEMENT_3D('',#1693,#1394,#1395);
#1096=AXIS2_PLACEMENT_3D('',#1694,#1396,#1397);
#1097=AXIS2_PLACEMENT_3D('',#1695,#1398,#1399);
#1098=AXIS2_PLACEMENT_3D('',#1696,#1400,#1401);
#1099=AXIS2_PLACEMENT_3D('',#1697,#1402,#1403);
#1100=AXIS2_PLACEMENT_3D('',#1698,#1404,#1405);
#1101=AXIS2_PLACEMENT_3D('',#1700,#1406,#1407);
#1102=AXIS2_PLACEMENT_3D('',#1701,#1408,#1409);
#1103=AXIS2_PLACEMENT_3D('',#1702,#1410,#1411);
#1104=AXIS2_PLACEMENT_3D('',#1704,#1413,#1414);
#1105=AXIS2_PLACEMENT_3D('',#1706,#1416,#1417);
#1106=AXIS2_PLACEMENT_3D('',#1708,#1419,#1420);
#1107=AXIS2_PLACEMENT_3D('',#1710,#1422,#1423);
#1108=AXIS2_PLACEMENT_3D('',#1711,#1424,#1425);
#1109=AXIS2_PLACEMENT_3D('',#1714,#1427,#1428);
#1110=AXIS2_PLACEMENT_3D('',#1715,#1429,#1430);
#1111=AXIS2_PLACEMENT_3D('',#1718,#1432,#1433);
#1112=AXIS2_PLACEMENT_3D('',#1719,#1434,#1435);
#1113=AXIS2_PLACEMENT_3D('',#1722,#1437,#1438);
#1114=AXIS2_PLACEMENT_3D('',#1723,#1439,#1440);
#1115=AXIS2_PLACEMENT_3D('',#1726,#1442,#1443);
#1116=AXIS2_PLACEMENT_3D('',#1727,#1444,#1445);
#1117=AXIS2_PLACEMENT_3D('',#1729,#1446,#1447);
#1118=AXIS2_PLACEMENT_3D('',#1730,#1448,#1449);
#1119=AXIS2_PLACEMENT_3D('',#1732,#1450,#1451);
#1120=AXIS2_PLACEMENT_3D('',#1733,#1452,#1453);
#1121=AXIS2_PLACEMENT_3D('',#1735,#1454,#1455);
#1122=AXIS2_PLACEMENT_3D('',#1736,#1456,#1457);
#1123=AXIS2_PLACEMENT_3D('',#1738,#1459,#1460);
#1124=AXIS2_PLACEMENT_3D('',#1740,#1462,#1463);
#1125=AXIS2_PLACEMENT_3D('',#1742,#1465,#1466);
#1126=AXIS2_PLACEMENT_3D('',#1745,#1468,#1469);
#1127=AXIS2_PLACEMENT_3D('',#1746,#1470,#1471);
#1128=DIRECTION('axis',(0.,0.,1.));
#1129=DIRECTION('refdir',(1.,0.,0.));
#1130=DIRECTION('center_axis',(0.,0.,-1.));
#1131=DIRECTION('ref_axis',(-1.,0.,0.));
#1132=DIRECTION('center_axis',(0.,0.,-1.));
#1133=DIRECTION('ref_axis',(-1.,0.,0.));
#1134=DIRECTION('',(-0.707106781186548,8.65956056235494E-17,0.707106781186547));
#1135=DIRECTION('center_axis',(0.,0.,1.));
#1136=DIRECTION('ref_axis',(-1.,0.,0.));
#1137=DIRECTION('center_axis',(0.,0.,1.));
#1138=DIRECTION('ref_axis',(1.,0.,0.));
#1139=DIRECTION('',(4.55476112666732E-16,-1.,0.));
#1140=DIRECTION('center_axis',(0.,0.,1.));
#1141=DIRECTION('ref_axis',(-1.,0.,0.));
#1142=DIRECTION('center_axis',(0.,0.,1.));
#1143=DIRECTION('ref_axis',(-1.,0.,0.));
#1144=DIRECTION('',(4.55476112666732E-16,-1.,0.));
#1145=DIRECTION('center_axis',(0.,0.,1.));
#1146=DIRECTION('ref_axis',(-0.707106781186547,0.707106781186548,0.));
#1147=DIRECTION('',(-1.,-1.55820775385987E-16,0.));
#1148=DIRECTION('center_axis',(0.,0.,1.));
#1149=DIRECTION('ref_axis',(0.707106781186547,0.707106781186548,0.));
#1150=DIRECTION('',(-4.03717463500057E-16,1.,0.));
#1151=DIRECTION('center_axis',(0.,0.,1.));
#1152=DIRECTION('ref_axis',(-1.,0.,0.));
#1153=DIRECTION('',(-4.03717463500057E-16,1.,0.));
#1154=DIRECTION('center_axis',(0.,0.,1.));
#1155=DIRECTION('ref_axis',(-1.,0.,0.));
#1156=DIRECTION('',(1.,7.79103876929934E-17,0.));
#1157=DIRECTION('center_axis',(0.,0.,1.));
#1158=DIRECTION('ref_axis',(-1.,0.,0.));
#1159=DIRECTION('center_axis',(0.,0.,1.));
#1160=DIRECTION('ref_axis',(-1.,0.,0.));
#1161=DIRECTION('center_axis',(0.,0.,-1.));
#1162=DIRECTION('ref_axis',(-1.,0.,0.));
#1163=DIRECTION('center_axis',(0.,0.,-1.));
#1164=DIRECTION('ref_axis',(-1.,0.,0.));
#1165=DIRECTION('center_axis',(0.,0.,-1.));
#1166=DIRECTION('ref_axis',(-1.,0.,0.));
#1167=DIRECTION('center_axis',(0.,0.,1.));
#1168=DIRECTION('ref_axis',(-1.,0.,0.));
#1169=DIRECTION('center_axis',(0.,0.,-1.));
#1170=DIRECTION('ref_axis',(-1.,0.,0.));
#1171=DIRECTION('',(0.,0.,-1.));
#1172=DIRECTION('center_axis',(0.,0.,-1.));
#1173=DIRECTION('ref_axis',(-1.,0.,0.));
#1174=DIRECTION('',(-0.707106781186548,8.65956056235494E-17,0.707106781186547));
#1175=DIRECTION('center_axis',(0.,0.,1.));
#1176=DIRECTION('ref_axis',(-1.,0.,0.));
#1177=DIRECTION('center_axis',(0.,0.,1.));
#1178=DIRECTION('ref_axis',(-1.,0.,0.));
#1179=DIRECTION('center_axis',(0.,0.,-1.));
#1180=DIRECTION('ref_axis',(-1.,0.,0.));
#1181=DIRECTION('',(0.,0.,-1.));
#1182=DIRECTION('center_axis',(0.,0.,-1.));
#1183=DIRECTION('ref_axis',(-1.,0.,0.));
#1184=DIRECTION('',(-0.707106781186548,8.65956056235494E-17,0.707106781186547));
#1185=DIRECTION('center_axis',(0.,0.,1.));
#1186=DIRECTION('ref_axis',(-1.,0.,0.));
#1187=DIRECTION('center_axis',(0.,0.,1.));
#1188=DIRECTION('ref_axis',(-1.,0.,0.));
#1189=DIRECTION('center_axis',(0.,0.,-1.));
#1190=DIRECTION('ref_axis',(-1.,0.,0.));
#1191=DIRECTION('',(0.,0.,-1.));
#1192=DIRECTION('center_axis',(0.,0.,-1.));
#1193=DIRECTION('ref_axis',(-1.,0.,0.));
#1194=DIRECTION('',(-0.707106781186548,8.65956056235494E-17,0.707106781186547));
#1195=DIRECTION('center_axis',(0.,0.,1.));
#1196=DIRECTION('ref_axis',(-1.,0.,0.));
#1197=DIRECTION('center_axis',(0.,0.,1.));
#1198=DIRECTION('ref_axis',(-1.,0.,0.));
#1199=DIRECTION('center_axis',(0.,0.,-1.));
#1200=DIRECTION('ref_axis',(-1.,0.,0.));
#1201=DIRECTION('',(0.,0.,-1.));
#1202=DIRECTION('center_axis',(0.,0.,-1.));
#1203=DIRECTION('ref_axis',(-1.,0.,0.));
#1204=DIRECTION('center_axis',(0.,0.,-1.));
#1205=DIRECTION('ref_axis',(-1.,0.,0.));
#1206=DIRECTION('center_axis',(0.,0.,-1.));
#1207=DIRECTION('ref_axis',(-1.,0.,0.));
#1208=DIRECTION('center_axis',(0.,-1.,0.));
#1209=DIRECTION('ref_axis',(1.,0.,0.));
#1210=DIRECTION('center_axis',(0.,0.,1.));
#1211=DIRECTION('ref_axis',(-1.,0.,0.));
#1212=DIRECTION('center_axis',(0.,0.,1.));
#1213=DIRECTION('ref_axis',(1.,0.,0.));
#1214=DIRECTION('center_axis',(0.,0.,-1.));
#1215=DIRECTION('ref_axis',(0.707106781186548,-0.707106781186548,0.));
#1216=DIRECTION('',(4.03717463500057E-16,-1.,0.));
#1217=DIRECTION('center_axis',(0.,0.,-1.));
#1218=DIRECTION('ref_axis',(0.707106781186547,0.707106781186548,0.));
#1219=DIRECTION('',(1.,1.55820775385987E-16,0.));
#1220=DIRECTION('center_axis',(0.,0.,-1.));
#1221=DIRECTION('ref_axis',(-0.707106781186547,0.707106781186548,0.));
#1222=DIRECTION('',(-4.55476112666732E-16,1.,0.));
#1223=DIRECTION('center_axis',(0.,0.,-1.));
#1224=DIRECTION('ref_axis',(-0.707106781186548,-0.707106781186548,0.));
#1225=DIRECTION('',(-1.,-7.79103876929934E-17,0.));
#1226=DIRECTION('center_axis',(0.,0.,1.));
#1227=DIRECTION('ref_axis',(-1.,0.,0.));
#1228=DIRECTION('center_axis',(0.,0.,1.));
#1229=DIRECTION('ref_axis',(-1.,0.,0.));
#1230=DIRECTION('center_axis',(0.,0.,-1.));
#1231=DIRECTION('ref_axis',(-1.,0.,0.));
#1232=DIRECTION('center_axis',(0.,0.,-1.));
#1233=DIRECTION('ref_axis',(-1.,0.,0.));
#1234=DIRECTION('center_axis',(0.,0.,-1.));
#1235=DIRECTION('ref_axis',(-1.,0.,0.));
#1236=DIRECTION('center_axis',(0.,0.,-1.));
#1237=DIRECTION('ref_axis',(-1.,0.,0.));
#1238=DIRECTION('center_axis',(0.,0.,1.));
#1239=DIRECTION('ref_axis',(-1.,0.,0.));
#1240=DIRECTION('center_axis',(0.,0.,-1.));
#1241=DIRECTION('ref_axis',(-1.,0.,0.));
#1242=DIRECTION('center_axis',(0.,0.,-1.));
#1243=DIRECTION('ref_axis',(-1.,0.,0.));
#1244=DIRECTION('center_axis',(0.,0.,-1.));
#1245=DIRECTION('ref_axis',(-1.,0.,0.));
#1246=DIRECTION('center_axis',(0.,-1.,0.));
#1247=DIRECTION('ref_axis',(1.,0.,0.));
#1248=DIRECTION('center_axis',(0.,0.,-1.));
#1249=DIRECTION('ref_axis',(-1.,0.,0.));
#1250=DIRECTION('center_axis',(0.,0.,-1.));
#1251=DIRECTION('ref_axis',(-1.,0.,0.));
#1252=DIRECTION('center_axis',(0.,0.,-1.));
#1253=DIRECTION('ref_axis',(-1.,0.,0.));
#1254=DIRECTION('center_axis',(0.,-1.,0.));
#1255=DIRECTION('ref_axis',(1.,0.,0.));
#1256=DIRECTION('center_axis',(0.,0.,-1.));
#1257=DIRECTION('ref_axis',(-1.,0.,0.));
#1258=DIRECTION('center_axis',(0.,0.,-1.));
#1259=DIRECTION('ref_axis',(-1.,0.,0.));
#1260=DIRECTION('center_axis',(0.,0.,-1.));
#1261=DIRECTION('ref_axis',(-1.,0.,0.));
#1262=DIRECTION('center_axis',(0.,-1.,0.));
#1263=DIRECTION('ref_axis',(1.,0.,0.));
#1264=DIRECTION('center_axis',(0.,0.,1.));
#1265=DIRECTION('ref_axis',(1.,0.,0.));
#1266=DIRECTION('center_axis',(0.,0.,-1.));
#1267=DIRECTION('ref_axis',(-1.,0.,0.));
#1268=DIRECTION('center_axis',(0.,-1.,0.));
#1269=DIRECTION('ref_axis',(-1.,0.,0.));
#1270=DIRECTION('center_axis',(0.,0.,1.));
#1271=DIRECTION('ref_axis',(1.,0.,0.));
#1272=DIRECTION('center_axis',(0.,0.,1.));
#1273=DIRECTION('ref_axis',(1.,0.,0.));
#1274=DIRECTION('center_axis',(0.,0.,-1.));
#1275=DIRECTION('ref_axis',(-1.,0.,0.));
#1276=DIRECTION('center_axis',(0.,-1.,0.));
#1277=DIRECTION('ref_axis',(-1.,0.,0.));
#1278=DIRECTION('center_axis',(0.,0.,1.));
#1279=DIRECTION('ref_axis',(1.,0.,0.));
#1280=DIRECTION('center_axis',(0.,0.,1.));
#1281=DIRECTION('ref_axis',(1.,0.,0.));
#1282=DIRECTION('center_axis',(0.,0.,-1.));
#1283=DIRECTION('ref_axis',(-1.,0.,0.));
#1284=DIRECTION('center_axis',(0.,-1.,0.));
#1285=DIRECTION('ref_axis',(-1.,0.,0.));
#1286=DIRECTION('center_axis',(0.,0.,1.));
#1287=DIRECTION('ref_axis',(1.,0.,0.));
#1288=DIRECTION('center_axis',(0.,0.,1.));
#1289=DIRECTION('ref_axis',(1.,0.,0.));
#1290=DIRECTION('center_axis',(0.,0.,-1.));
#1291=DIRECTION('ref_axis',(-1.,0.,0.));
#1292=DIRECTION('center_axis',(0.,-1.,0.));
#1293=DIRECTION('ref_axis',(-1.,0.,0.));
#1294=DIRECTION('center_axis',(0.,0.,1.));
#1295=DIRECTION('ref_axis',(1.,0.,0.));
#1296=DIRECTION('center_axis',(0.,0.,1.));
#1297=DIRECTION('ref_axis',(1.,0.,0.));
#1298=DIRECTION('center_axis',(0.,-1.,0.));
#1299=DIRECTION('ref_axis',(-1.,0.,0.));
#1300=DIRECTION('center_axis',(0.,0.,1.));
#1301=DIRECTION('ref_axis',(-0.707106781186548,-0.707106781186548,0.));
#1302=DIRECTION('center_axis',(-1.,0.,0.));
#1303=DIRECTION('ref_axis',(0.,0.,-1.));
#1304=DIRECTION('center_axis',(0.,0.,-1.));
#1305=DIRECTION('ref_axis',(-0.707106781186548,-0.707106781186548,0.));
#1306=DIRECTION('center_axis',(-1.,-7.79103876929934E-17,0.));
#1307=DIRECTION('ref_axis',(0.,-0.707106781186549,-0.707106781186546));
#1308=DIRECTION('center_axis',(-1.,0.,0.));
#1309=DIRECTION('ref_axis',(0.,0.,-1.));
#1310=DIRECTION('',(-1.,-7.79103876929934E-17,0.));
#1311=DIRECTION('',(1.,7.79103876929934E-17,0.));
#1312=DIRECTION('',(1.,7.79103876929934E-17,0.));
#1313=DIRECTION('center_axis',(0.,0.,1.));
#1314=DIRECTION('ref_axis',(1.,0.,0.));
#1315=DIRECTION('center_axis',(0.,-1.,0.));
#1316=DIRECTION('ref_axis',(0.,0.,-1.));
#1317=DIRECTION('center_axis',(0.,0.,-1.));
#1318=DIRECTION('ref_axis',(0.707106781186548,-0.707106781186548,0.));
#1319=DIRECTION('center_axis',(0.,0.,1.));
#1320=DIRECTION('ref_axis',(0.707106781186548,-0.707106781186548,0.));
#1321=DIRECTION('center_axis',(4.03717463500057E-16,-1.,0.));
#1322=DIRECTION('ref_axis',(0.707106781186546,0.,-0.707106781186549));
#1323=DIRECTION('center_axis',(0.,-1.,0.));
#1324=DIRECTION('ref_axis',(0.,0.,-1.));
#1325=DIRECTION('',(4.03717463500057E-16,-1.,0.));
#1326=DIRECTION('',(-4.03717463500057E-16,1.,0.));
#1327=DIRECTION('center_axis',(0.,0.,1.));
#1328=DIRECTION('ref_axis',(1.,0.,0.));
#1329=DIRECTION('center_axis',(1.,0.,0.));
#1330=DIRECTION('ref_axis',(0.,0.,-1.));
#1331=DIRECTION('center_axis',(0.,0.,-1.));
#1332=DIRECTION('ref_axis',(0.707106781186547,0.707106781186548,0.));
#1333=DIRECTION('center_axis',(1.,1.55820775385987E-16,0.));
#1334=DIRECTION('ref_axis',(0.,0.707106781186546,-0.707106781186549));
#1335=DIRECTION('center_axis',(1.,0.,0.));
#1336=DIRECTION('ref_axis',(0.,0.,-1.));
#1337=DIRECTION('',(1.,1.55820775385987E-16,0.));
#1338=DIRECTION('center_axis',(0.,0.,1.));
#1339=DIRECTION('ref_axis',(1.,0.,0.));
#1340=DIRECTION('center_axis',(0.,1.,0.));
#1341=DIRECTION('ref_axis',(0.,0.,-1.));
#1342=DIRECTION('center_axis',(0.,0.,-1.));
#1343=DIRECTION('ref_axis',(-0.707106781186547,0.707106781186548,0.));
#1344=DIRECTION('center_axis',(-4.55476112666732E-16,1.,0.));
#1345=DIRECTION('ref_axis',(-0.707106781186546,0.,-0.707106781186549));
#1346=DIRECTION('',(4.55476112666732E-16,-1.,0.));
#1347=DIRECTION('',(-4.55476112666732E-16,1.,0.));
#1348=DIRECTION('center_axis',(-1.55820775385987E-16,1.,0.));
#1349=DIRECTION('ref_axis',(-1.,-1.55820775385987E-16,0.));
#1350=DIRECTION('',(0.,0.,-1.));
#1351=DIRECTION('',(-1.,-1.55820775385987E-16,0.));
#1352=DIRECTION('',(0.,0.,1.));
#1353=DIRECTION('center_axis',(0.,0.,1.));
#1354=DIRECTION('ref_axis',(-0.70710678118655,0.707106781186545,0.));
#1355=DIRECTION('',(0.,0.,1.));
#1356=DIRECTION('center_axis',(0.,0.,1.));
#1357=DIRECTION('ref_axis',(-0.707106781186547,0.707106781186548,0.));
#1358=DIRECTION('center_axis',(-1.,-4.55476112666732E-16,0.));
#1359=DIRECTION('ref_axis',(4.55476112666732E-16,-1.,0.));
#1360=DIRECTION('',(0.,0.,-1.));
#1361=DIRECTION('',(4.55476112666732E-16,-1.,0.));
#1362=DIRECTION('center_axis',(0.,0.,1.));
#1363=DIRECTION('ref_axis',(-0.707106781186547,-0.707106781186547,0.));
#1364=DIRECTION('',(0.,0.,1.));
#1365=DIRECTION('center_axis',(0.,0.,1.));
#1366=DIRECTION('ref_axis',(-0.707106781186548,-0.707106781186548,0.));
#1367=DIRECTION('center_axis',(0.,0.,1.));
#1368=DIRECTION('ref_axis',(1.,0.,0.));
#1369=DIRECTION('center_axis',(0.,0.,1.));
#1370=DIRECTION('ref_axis',(-1.,0.,0.));
#1371=DIRECTION('center_axis',(0.,0.,1.));
#1372=DIRECTION('ref_axis',(1.,0.,0.));
#1373=DIRECTION('center_axis',(0.,0.,1.));
#1374=DIRECTION('ref_axis',(-1.,0.,0.));
#1375=DIRECTION('center_axis',(0.,0.,-1.));
#1376=DIRECTION('ref_axis',(-1.,0.,0.));
#1377=DIRECTION('center_axis',(0.,-1.,0.));
#1378=DIRECTION('ref_axis',(1.,0.,0.));
#1379=DIRECTION('center_axis',(1.,0.,0.));
#1380=DIRECTION('ref_axis',(0.,0.,1.));
#1381=DIRECTION('center_axis',(0.,0.,1.));
#1382=DIRECTION('ref_axis',(0.707106781186548,-0.707106781186548,0.));
#1383=DIRECTION('center_axis',(1.,7.79103876929934E-17,0.));
#1384=DIRECTION('ref_axis',(0.,-0.707106781186549,0.707106781186546));
#1385=DIRECTION('center_axis',(1.,0.,0.));
#1386=DIRECTION('ref_axis',(0.,0.,1.));
#1387=DIRECTION('',(1.,7.79103876929934E-17,0.));
#1388=DIRECTION('center_axis',(0.,0.,-1.));
#1389=DIRECTION('ref_axis',(-1.,0.,0.));
#1390=DIRECTION('center_axis',(0.,-1.,0.));
#1391=DIRECTION('ref_axis',(0.,0.,1.));
#1392=DIRECTION('center_axis',(4.55476112666732E-16,-1.,0.));
#1393=DIRECTION('ref_axis',(-0.707106781186546,0.,0.707106781186549));
#1394=DIRECTION('center_axis',(0.,-1.,0.));
#1395=DIRECTION('ref_axis',(0.,0.,1.));
#1396=DIRECTION('center_axis',(0.,0.,-1.));
#1397=DIRECTION('ref_axis',(-1.,0.,0.));
#1398=DIRECTION('center_axis',(-1.,0.,0.));
#1399=DIRECTION('ref_axis',(0.,0.,1.));
#1400=DIRECTION('center_axis',(-1.,-1.55820775385987E-16,0.));
#1401=DIRECTION('ref_axis',(0.,0.707106781186546,0.707106781186549));
#1402=DIRECTION('center_axis',(-1.,0.,0.));
#1403=DIRECTION('ref_axis',(0.,0.,1.));
#1404=DIRECTION('center_axis',(0.,0.,-1.));
#1405=DIRECTION('ref_axis',(-1.,0.,0.));
#1406=DIRECTION('center_axis',(0.,1.,0.));
#1407=DIRECTION('ref_axis',(0.,0.,1.));
#1408=DIRECTION('center_axis',(0.,0.,1.));
#1409=DIRECTION('ref_axis',(0.707106781186547,0.707106781186548,0.));
#1410=DIRECTION('center_axis',(-4.03717463500057E-16,1.,0.));
#1411=DIRECTION('ref_axis',(0.707106781186546,0.,0.707106781186549));
#1412=DIRECTION('',(-4.03717463500057E-16,1.,0.));
#1413=DIRECTION('center_axis',(0.,0.,-1.));
#1414=DIRECTION('ref_axis',(0.707106781186548,0.707106781186548,0.));
#1415=DIRECTION('',(0.,0.,-1.));
#1416=DIRECTION('center_axis',(1.,4.03717463500057E-16,0.));
#1417=DIRECTION('ref_axis',(-4.03717463500057E-16,1.,0.));
#1418=DIRECTION('',(0.,0.,1.));
#1419=DIRECTION('center_axis',(0.,0.,1.));
#1420=DIRECTION('ref_axis',(0.707106781186549,-0.707106781186546,0.));
#1421=DIRECTION('',(0.,0.,-1.));
#1422=DIRECTION('center_axis',(7.79103876929934E-17,-1.,0.));
#1423=DIRECTION('ref_axis',(1.,7.79103876929934E-17,0.));
#1424=DIRECTION('center_axis',(0.,0.,-1.));
#1425=DIRECTION('ref_axis',(-1.,0.,0.));
#1426=DIRECTION('',(0.,0.,1.));
#1427=DIRECTION('center_axis',(0.,0.,-1.));
#1428=DIRECTION('ref_axis',(-1.,0.,0.));
#1429=DIRECTION('center_axis',(0.,0.,-1.));
#1430=DIRECTION('ref_axis',(-1.,0.,0.));
#1431=DIRECTION('',(0.,0.,1.));
#1432=DIRECTION('center_axis',(0.,0.,-1.));
#1433=DIRECTION('ref_axis',(-1.,0.,0.));
#1434=DIRECTION('center_axis',(0.,0.,-1.));
#1435=DIRECTION('ref_axis',(-1.,0.,0.));
#1436=DIRECTION('',(0.,0.,1.));
#1437=DIRECTION('center_axis',(0.,0.,-1.));
#1438=DIRECTION('ref_axis',(-1.,0.,0.));
#1439=DIRECTION('center_axis',(0.,0.,-1.));
#1440=DIRECTION('ref_axis',(-1.,0.,0.));
#1441=DIRECTION('',(0.,0.,1.));
#1442=DIRECTION('center_axis',(0.,0.,-1.));
#1443=DIRECTION('ref_axis',(-1.,0.,0.));
#1444=DIRECTION('center_axis',(0.,0.,1.));
#1445=DIRECTION('ref_axis',(1.,0.,0.));
#1446=DIRECTION('center_axis',(0.,0.,-1.));
#1447=DIRECTION('ref_axis',(-1.,0.,0.));
#1448=DIRECTION('center_axis',(0.,0.,1.));
#1449=DIRECTION('ref_axis',(1.,0.,0.));
#1450=DIRECTION('center_axis',(0.,0.,-1.));
#1451=DIRECTION('ref_axis',(-1.,0.,0.));
#1452=DIRECTION('center_axis',(0.,0.,1.));
#1453=DIRECTION('ref_axis',(1.,0.,0.));
#1454=DIRECTION('center_axis',(0.,0.,-1.));
#1455=DIRECTION('ref_axis',(-1.,0.,0.));
#1456=DIRECTION('center_axis',(0.,0.,1.));
#1457=DIRECTION('ref_axis',(-1.,0.,0.));
#1458=DIRECTION('',(0.,0.,-1.));
#1459=DIRECTION('center_axis',(0.,0.,1.));
#1460=DIRECTION('ref_axis',(-1.,0.,0.));
#1461=DIRECTION('',(0.,0.,-1.));
#1462=DIRECTION('center_axis',(0.,0.,1.));
#1463=DIRECTION('ref_axis',(-1.,0.,0.));
#1464=DIRECTION('',(0.,0.,-1.));
#1465=DIRECTION('center_axis',(0.,0.,1.));
#1466=DIRECTION('ref_axis',(-1.,0.,0.));
#1467=DIRECTION('',(0.,0.,-1.));
#1468=DIRECTION('center_axis',(0.,0.,-1.));
#1469=DIRECTION('ref_axis',(-1.,0.,0.));
#1470=DIRECTION('center_axis',(0.,0.,1.));
#1471=DIRECTION('ref_axis',(1.,0.,0.));
#1472=CARTESIAN_POINT('',(0.,0.,0.));
#1473=CARTESIAN_POINT('Origin',(-15.,-20.,-2.5));
#1474=CARTESIAN_POINT('',(-11.85,-20.,-3.));
#1475=CARTESIAN_POINT('Origin',(-15.,-20.,-3.));
#1476=CARTESIAN_POINT('',(-12.85,-20.,-2.));
#1477=CARTESIAN_POINT('',(-12.35,-20.,-2.5));
#1478=CARTESIAN_POINT('Origin',(-15.,-20.,-2.));
#1479=CARTESIAN_POINT('Origin',(4.44089209850063E-15,9.75,-3.));
#1480=CARTESIAN_POINT('',(-27.5,29.,-3.));
#1481=CARTESIAN_POINT('',(-27.5,-29.,-3.));
#1482=CARTESIAN_POINT('',(-27.5,31.125,-3.));
#1483=CARTESIAN_POINT('',(-21.5,29.,-3.));
#1484=CARTESIAN_POINT('Origin',(-24.5,29.,-3.));
#1485=CARTESIAN_POINT('Origin',(-24.5,29.,-3.));
#1486=CARTESIAN_POINT('',(-27.5,49.5,-3.));
#1487=CARTESIAN_POINT('',(-27.5,31.125,-3.));
#1488=CARTESIAN_POINT('',(-25.5,51.5,-3.));
#1489=CARTESIAN_POINT('Origin',(-25.5,49.5,-3.));
#1490=CARTESIAN_POINT('',(25.5,51.5,-3.));
#1491=CARTESIAN_POINT('',(14.25,51.5,-3.));
#1492=CARTESIAN_POINT('',(27.5,49.5,-3.));
#1493=CARTESIAN_POINT('Origin',(25.5,49.5,-3.));
#1494=CARTESIAN_POINT('',(27.5,29.,-3.));
#1495=CARTESIAN_POINT('',(27.5,-11.625,-3.));
#1496=CARTESIAN_POINT('Origin',(24.5,29.,-3.));
#1497=CARTESIAN_POINT('',(27.5,-29.,-3.));
#1498=CARTESIAN_POINT('',(27.5,-11.625,-3.));
#1499=CARTESIAN_POINT('',(24.5,-32.,-3.));
#1500=CARTESIAN_POINT('Origin',(24.5,-29.,-3.));
#1501=CARTESIAN_POINT('',(-24.5,-32.,-3.));
#1502=CARTESIAN_POINT('',(-14.25,-32.,-3.));
#1503=CARTESIAN_POINT('',(-21.5,-29.,-3.));
#1504=CARTESIAN_POINT('Origin',(-24.5,-29.,-3.));
#1505=CARTESIAN_POINT('Origin',(-24.5,-29.,-3.));
#1506=CARTESIAN_POINT('',(-11.85,20.,-3.));
#1507=CARTESIAN_POINT('Origin',(-15.,20.,-3.));
#1508=CARTESIAN_POINT('',(18.15,-20.,-3.));
#1509=CARTESIAN_POINT('Origin',(15.,-20.,-3.));
#1510=CARTESIAN_POINT('',(18.15,20.,-3.));
#1511=CARTESIAN_POINT('Origin',(15.,20.,-3.));
#1512=CARTESIAN_POINT('Origin',(-15.,-20.,0.));
#1513=CARTESIAN_POINT('',(-12.85,-20.,3.));
#1514=CARTESIAN_POINT('Origin',(-15.,-20.,3.));
#1515=CARTESIAN_POINT('',(-12.85,-20.,0.));
#1516=CARTESIAN_POINT('Origin',(-15.,20.,-2.5));
#1517=CARTESIAN_POINT('',(-12.85,20.,-2.));
#1518=CARTESIAN_POINT('',(-12.35,20.,-2.5));
#1519=CARTESIAN_POINT('Origin',(-15.,20.,-2.));
#1520=CARTESIAN_POINT('Origin',(-15.,20.,0.));
#1521=CARTESIAN_POINT('',(-12.85,20.,3.));
#1522=CARTESIAN_POINT('Origin',(-15.,20.,3.));
#1523=CARTESIAN_POINT('',(-12.85,20.,0.));
#1524=CARTESIAN_POINT('Origin',(15.,20.,-2.5));
#1525=CARTESIAN_POINT('',(17.15,20.,-2.));
#1526=CARTESIAN_POINT('',(17.65,20.,-2.5));
#1527=CARTESIAN_POINT('Origin',(15.,20.,-2.));
#1528=CARTESIAN_POINT('Origin',(15.,20.,0.));
#1529=CARTESIAN_POINT('',(17.15,20.,3.));
#1530=CARTESIAN_POINT('Origin',(15.,20.,3.));
#1531=CARTESIAN_POINT('',(17.15,20.,0.));
#1532=CARTESIAN_POINT('Origin',(15.,-20.,-2.5));
#1533=CARTESIAN_POINT('',(17.15,-20.,-2.));
#1534=CARTESIAN_POINT('',(17.65,-20.,-2.5));
#1535=CARTESIAN_POINT('Origin',(15.,-20.,-2.));
#1536=CARTESIAN_POINT('Origin',(15.,-20.,0.));
#1537=CARTESIAN_POINT('',(17.15,-20.,3.));
#1538=CARTESIAN_POINT('Origin',(15.,-20.,3.));
#1539=CARTESIAN_POINT('',(17.15,-20.,0.));
#1540=CARTESIAN_POINT('Origin',(15.,-20.,3.));
#1541=CARTESIAN_POINT('',(20.3660254037844,-20.,2.5));
#1542=CARTESIAN_POINT('',(9.63397459621556,-20.,2.5));
#1543=CARTESIAN_POINT('Origin',(15.,-20.,2.5));
#1544=CARTESIAN_POINT('Origin',(15.,-20.,2.5));
#1545=CARTESIAN_POINT('',(21.2320508075689,-20.,2.));
#1546=CARTESIAN_POINT('Origin',(21.2320508075689,-20.,3.));
#1547=CARTESIAN_POINT('Origin',(15.,-20.,2.));
#1548=CARTESIAN_POINT('Origin',(4.44089209850063E-15,9.75,2.));
#1549=CARTESIAN_POINT('',(27.5,-30.,2.));
#1550=CARTESIAN_POINT('',(25.5,-32.,2.));
#1551=CARTESIAN_POINT('Origin',(25.5,-30.,2.));
#1552=CARTESIAN_POINT('',(27.5,49.5,2.));
#1553=CARTESIAN_POINT('',(27.5,-11.625,2.));
#1554=CARTESIAN_POINT('',(25.5,51.5,2.));
#1555=CARTESIAN_POINT('Origin',(25.5,49.5,2.));
#1556=CARTESIAN_POINT('',(-25.5,51.5,2.));
#1557=CARTESIAN_POINT('',(14.25,51.5,2.));
#1558=CARTESIAN_POINT('',(-27.5,49.5,2.));
#1559=CARTESIAN_POINT('Origin',(-25.5,49.5,2.));
#1560=CARTESIAN_POINT('',(-27.5,-30.,2.));
#1561=CARTESIAN_POINT('',(-27.5,31.125,2.));
#1562=CARTESIAN_POINT('',(-25.5,-32.,2.));
#1563=CARTESIAN_POINT('Origin',(-25.5,-30.,2.));
#1564=CARTESIAN_POINT('',(-14.25,-32.,2.));
#1565=CARTESIAN_POINT('',(-8.76794919243112,-20.,2.));
#1566=CARTESIAN_POINT('Origin',(-15.,-20.,2.));
#1567=CARTESIAN_POINT('',(21.2320508075689,20.,2.));
#1568=CARTESIAN_POINT('Origin',(15.,20.,2.));
#1569=CARTESIAN_POINT('',(-23.,-29.,2.));
#1570=CARTESIAN_POINT('Origin',(-24.5,-29.,2.));
#1571=CARTESIAN_POINT('',(26.,-29.,2.));
#1572=CARTESIAN_POINT('Origin',(24.5,-29.,2.));
#1573=CARTESIAN_POINT('',(26.,29.,2.));
#1574=CARTESIAN_POINT('Origin',(24.5,29.,2.));
#1575=CARTESIAN_POINT('',(-23.,29.,2.));
#1576=CARTESIAN_POINT('Origin',(-24.5,29.,2.));
#1577=CARTESIAN_POINT('',(-8.76794919243113,20.,2.));
#1578=CARTESIAN_POINT('Origin',(-15.,20.,2.));
#1579=CARTESIAN_POINT('Origin',(-15.,-20.,3.));
#1580=CARTESIAN_POINT('',(-9.63397459621556,-20.,2.5));
#1581=CARTESIAN_POINT('',(-20.3660254037844,-20.,2.5));
#1582=CARTESIAN_POINT('Origin',(-15.,-20.,2.5));
#1583=CARTESIAN_POINT('Origin',(-15.,-20.,2.5));
#1584=CARTESIAN_POINT('Origin',(-8.76794919243112,-20.,3.));
#1585=CARTESIAN_POINT('Origin',(-15.,20.,3.));
#1586=CARTESIAN_POINT('',(-9.63397459621557,20.,2.5));
#1587=CARTESIAN_POINT('',(-20.3660254037844,20.,2.5));
#1588=CARTESIAN_POINT('Origin',(-15.,20.,2.5));
#1589=CARTESIAN_POINT('Origin',(-15.,20.,2.5));
#1590=CARTESIAN_POINT('Origin',(-8.76794919243113,20.,3.));
#1591=CARTESIAN_POINT('Origin',(15.,20.,3.));
#1592=CARTESIAN_POINT('',(20.3660254037844,20.,2.5));
#1593=CARTESIAN_POINT('',(9.63397459621555,20.,2.5));
#1594=CARTESIAN_POINT('Origin',(15.,20.,2.5));
#1595=CARTESIAN_POINT('Origin',(15.,20.,2.5));
#1596=CARTESIAN_POINT('Origin',(21.2320508075689,20.,3.));
#1597=CARTESIAN_POINT('Origin',(15.,20.,2.));
#1598=CARTESIAN_POINT('',(10.5,20.,3.));
#1599=CARTESIAN_POINT('Origin',(15.,20.,3.));
#1600=CARTESIAN_POINT('Origin',(10.5,20.,2.));
#1601=CARTESIAN_POINT('Origin',(15.,20.,3.));
#1602=CARTESIAN_POINT('Origin',(-15.,20.,2.));
#1603=CARTESIAN_POINT('',(-19.5,20.,3.));
#1604=CARTESIAN_POINT('Origin',(-15.,20.,3.));
#1605=CARTESIAN_POINT('Origin',(-19.5,20.,2.));
#1606=CARTESIAN_POINT('Origin',(-15.,20.,3.));
#1607=CARTESIAN_POINT('Origin',(-15.,-20.,2.));
#1608=CARTESIAN_POINT('',(-19.5,-20.,3.));
#1609=CARTESIAN_POINT('Origin',(-15.,-20.,3.));
#1610=CARTESIAN_POINT('Origin',(-19.5,-20.,2.));
#1611=CARTESIAN_POINT('Origin',(-15.,-20.,3.));
#1612=CARTESIAN_POINT('Origin',(15.,-20.,2.));
#1613=CARTESIAN_POINT('',(10.5,-20.,3.));
#1614=CARTESIAN_POINT('Origin',(15.,-20.,3.));
#1615=CARTESIAN_POINT('Origin',(10.5,-20.,2.));
#1616=CARTESIAN_POINT('Origin',(15.,-20.,3.));
#1617=CARTESIAN_POINT('Origin',(-25.5,-30.,-2.));
#1618=CARTESIAN_POINT('',(-28.5,-30.,-2.));
#1619=CARTESIAN_POINT('',(-27.5,-30.,-3.));
#1620=CARTESIAN_POINT('Origin',(-27.5,-30.,-2.));
#1621=CARTESIAN_POINT('',(-25.5,-32.,-3.));
#1622=CARTESIAN_POINT('Origin',(-25.5,-30.,-3.));
#1623=CARTESIAN_POINT('',(-25.5,-33.,-2.));
#1624=CARTESIAN_POINT('Origin',(-25.5,-32.,-2.));
#1625=CARTESIAN_POINT('Origin',(-25.5,-30.,-2.));
#1626=CARTESIAN_POINT('Origin',(-14.25,-32.,-2.));
#1627=CARTESIAN_POINT('',(25.5,-32.,-3.));
#1628=CARTESIAN_POINT('',(25.5,-33.,-2.));
#1629=CARTESIAN_POINT('Origin',(25.5,-32.,-2.));
#1630=CARTESIAN_POINT('',(-14.25,-33.,-2.));
#1631=CARTESIAN_POINT('',(-14.25,-32.,-3.));
#1632=CARTESIAN_POINT('',(-14.25,-32.,-3.));
#1633=CARTESIAN_POINT('Origin',(25.5,-30.,-2.));
#1634=CARTESIAN_POINT('',(27.5,-30.,-3.));
#1635=CARTESIAN_POINT('',(28.5,-30.,-2.));
#1636=CARTESIAN_POINT('Origin',(27.5,-30.,-2.));
#1637=CARTESIAN_POINT('Origin',(25.5,-30.,-2.));
#1638=CARTESIAN_POINT('Origin',(25.5,-30.,-3.));
#1639=CARTESIAN_POINT('Origin',(27.5,-11.625,-2.));
#1640=CARTESIAN_POINT('',(28.5,49.5,-2.));
#1641=CARTESIAN_POINT('Origin',(27.5,49.5,-2.));
#1642=CARTESIAN_POINT('',(28.5,-11.625,-2.));
#1643=CARTESIAN_POINT('',(27.5,-11.625,-3.));
#1644=CARTESIAN_POINT('Origin',(25.5,49.5,-2.));
#1645=CARTESIAN_POINT('',(25.5,52.5,-2.));
#1646=CARTESIAN_POINT('Origin',(25.5,51.5,-2.));
#1647=CARTESIAN_POINT('Origin',(25.5,49.5,-2.));
#1648=CARTESIAN_POINT('Origin',(14.25,51.5,-2.));
#1649=CARTESIAN_POINT('',(-25.5,52.5,-2.));
#1650=CARTESIAN_POINT('Origin',(-25.5,51.5,-2.));
#1651=CARTESIAN_POINT('',(14.25,52.5,-2.));
#1652=CARTESIAN_POINT('Origin',(-25.5,49.5,-2.));
#1653=CARTESIAN_POINT('',(-28.5,49.5,-2.));
#1654=CARTESIAN_POINT('Origin',(-27.5,49.5,-2.));
#1655=CARTESIAN_POINT('Origin',(-25.5,49.5,-2.));
#1656=CARTESIAN_POINT('Origin',(-27.5,31.125,-2.));
#1657=CARTESIAN_POINT('',(-27.5,31.125,-3.));
#1658=CARTESIAN_POINT('',(-28.5,31.125,-2.));
#1659=CARTESIAN_POINT('Origin',(28.5,52.5,0.));
#1660=CARTESIAN_POINT('',(-25.5,52.5,1.));
#1661=CARTESIAN_POINT('',(-25.5,52.5,0.));
#1662=CARTESIAN_POINT('',(25.5,52.5,1.));
#1663=CARTESIAN_POINT('',(14.25,52.5,1.));
#1664=CARTESIAN_POINT('',(25.5,52.5,0.));
#1665=CARTESIAN_POINT('Origin',(-25.5,49.5,0.));
#1666=CARTESIAN_POINT('',(-28.5,49.5,1.));
#1667=CARTESIAN_POINT('',(-28.5,49.5,0.));
#1668=CARTESIAN_POINT('Origin',(-25.5,49.5,1.));
#1669=CARTESIAN_POINT('Origin',(-28.5,52.5,0.));
#1670=CARTESIAN_POINT('',(-28.5,-30.,1.));
#1671=CARTESIAN_POINT('',(-28.5,-30.,0.));
#1672=CARTESIAN_POINT('',(-28.5,31.125,1.));
#1673=CARTESIAN_POINT('Origin',(-25.5,-30.,0.));
#1674=CARTESIAN_POINT('',(-25.5,-33.,1.));
#1675=CARTESIAN_POINT('',(-25.5,-33.,0.));
#1676=CARTESIAN_POINT('Origin',(-25.5,-30.,1.));
#1677=CARTESIAN_POINT('Origin',(4.44089209850063E-15,9.75,-3.));
#1678=CARTESIAN_POINT('Origin',(24.5,-29.,-3.));
#1679=CARTESIAN_POINT('Origin',(4.44089209850063E-15,9.75,-3.));
#1680=CARTESIAN_POINT('Origin',(-24.5,-29.,-3.));
#1681=CARTESIAN_POINT('Origin',(25.5,-30.,1.));
#1682=CARTESIAN_POINT('',(28.5,-30.,1.));
#1683=CARTESIAN_POINT('Origin',(27.5,-30.,1.));
#1684=CARTESIAN_POINT('',(25.5,-33.,1.));
#1685=CARTESIAN_POINT('Origin',(25.5,-32.,1.));
#1686=CARTESIAN_POINT('Origin',(25.5,-30.,1.));
#1687=CARTESIAN_POINT('Origin',(-14.25,-32.,1.));
#1688=CARTESIAN_POINT('Origin',(-25.5,-32.,1.));
#1689=CARTESIAN_POINT('',(-14.25,-33.,1.));
#1690=CARTESIAN_POINT('Origin',(-25.5,-30.,1.));
#1691=CARTESIAN_POINT('Origin',(-27.5,-30.,1.));
#1692=CARTESIAN_POINT('Origin',(-27.5,31.125,1.));
#1693=CARTESIAN_POINT('Origin',(-27.5,49.5,1.));
#1694=CARTESIAN_POINT('Origin',(-25.5,49.5,1.));
#1695=CARTESIAN_POINT('Origin',(-25.5,51.5,1.));
#1696=CARTESIAN_POINT('Origin',(14.25,51.5,1.));
#1697=CARTESIAN_POINT('Origin',(25.5,51.5,1.));
#1698=CARTESIAN_POINT('Origin',(25.5,49.5,1.));
#1699=CARTESIAN_POINT('',(28.5,49.5,1.));
#1700=CARTESIAN_POINT('Origin',(27.5,49.5,1.));
#1701=CARTESIAN_POINT('Origin',(25.5,49.5,1.));
#1702=CARTESIAN_POINT('Origin',(27.5,-11.625,1.));
#1703=CARTESIAN_POINT('',(28.5,-11.625,1.));
#1704=CARTESIAN_POINT('Origin',(25.5,49.5,0.));
#1705=CARTESIAN_POINT('',(28.5,49.5,0.));
#1706=CARTESIAN_POINT('Origin',(28.5,-33.,0.));
#1707=CARTESIAN_POINT('',(28.5,-30.,0.));
#1708=CARTESIAN_POINT('Origin',(25.5,-30.,0.));
#1709=CARTESIAN_POINT('',(25.5,-33.,0.));
#1710=CARTESIAN_POINT('Origin',(-28.5,-33.,0.));
#1711=CARTESIAN_POINT('Origin',(-24.5,29.,0.));
#1712=CARTESIAN_POINT('',(-21.5,29.,0.));
#1713=CARTESIAN_POINT('',(-21.5,29.,0.));
#1714=CARTESIAN_POINT('Origin',(-24.5,29.,0.));
#1715=CARTESIAN_POINT('Origin',(24.5,29.,0.));
#1716=CARTESIAN_POINT('',(27.5,29.,0.));
#1717=CARTESIAN_POINT('',(27.5,29.,0.));
#1718=CARTESIAN_POINT('Origin',(24.5,29.,0.));
#1719=CARTESIAN_POINT('Origin',(24.5,-29.,0.));
#1720=CARTESIAN_POINT('',(27.5,-29.,0.));
#1721=CARTESIAN_POINT('',(27.5,-29.,0.));
#1722=CARTESIAN_POINT('Origin',(24.5,-29.,0.));
#1723=CARTESIAN_POINT('Origin',(-24.5,-29.,0.));
#1724=CARTESIAN_POINT('',(-21.5,-29.,0.));
#1725=CARTESIAN_POINT('',(-21.5,-29.,0.));
#1726=CARTESIAN_POINT('Origin',(-24.5,-29.,0.));
#1727=CARTESIAN_POINT('Origin',(4.44089209850063E-15,9.75,0.));
#1728=CARTESIAN_POINT('',(-23.,-29.,0.));
#1729=CARTESIAN_POINT('Origin',(-24.5,-29.,0.));
#1730=CARTESIAN_POINT('Origin',(4.44089209850063E-15,9.75,0.));
#1731=CARTESIAN_POINT('',(26.,-29.,0.));
#1732=CARTESIAN_POINT('Origin',(24.5,-29.,0.));
#1733=CARTESIAN_POINT('Origin',(4.44089209850063E-15,9.75,0.));
#1734=CARTESIAN_POINT('',(26.,29.,0.));
#1735=CARTESIAN_POINT('Origin',(24.5,29.,0.));
#1736=CARTESIAN_POINT('Origin',(-24.5,-29.,0.));
#1737=CARTESIAN_POINT('',(-23.,-29.,0.));
#1738=CARTESIAN_POINT('Origin',(24.5,-29.,0.));
#1739=CARTESIAN_POINT('',(26.,-29.,0.));
#1740=CARTESIAN_POINT('Origin',(24.5,29.,0.));
#1741=CARTESIAN_POINT('',(26.,29.,0.));
#1742=CARTESIAN_POINT('Origin',(-24.5,29.,0.));
#1743=CARTESIAN_POINT('',(-23.,29.,0.));
#1744=CARTESIAN_POINT('',(-23.,29.,0.));
#1745=CARTESIAN_POINT('Origin',(-24.5,29.,0.));
#1746=CARTESIAN_POINT('Origin',(4.44089209850063E-15,9.75,0.));
#1747=UNCERTAINTY_MEASURE_WITH_UNIT(LENGTH_MEASURE(0.01),#1751,
'DISTANCE_ACCURACY_VALUE',
'Maximum model space distance between geometric entities at asserted c
onnectivities');
#1748=UNCERTAINTY_MEASURE_WITH_UNIT(LENGTH_MEASURE(0.01),#1751,
'DISTANCE_ACCURACY_VALUE',
'Maximum model space distance between geometric entities at asserted c
onnectivities');
#1749=(
GEOMETRIC_REPRESENTATION_CONTEXT(3)
GLOBAL_UNCERTAINTY_ASSIGNED_CONTEXT((#1747))
GLOBAL_UNIT_ASSIGNED_CONTEXT((#1751,#1753,#1754))
REPRESENTATION_CONTEXT('','3D')
);
#1750=(
GEOMETRIC_REPRESENTATION_CONTEXT(3)
GLOBAL_UNCERTAINTY_ASSIGNED_CONTEXT((#1748))
GLOBAL_UNIT_ASSIGNED_CONTEXT((#1751,#1753,#1754))
REPRESENTATION_CONTEXT('','3D')
);
#1751=(
LENGTH_UNIT()
NAMED_UNIT(*)
SI_UNIT(.MILLI.,.METRE.)
);
#1752=(
LENGTH_UNIT()
NAMED_UNIT(*)
SI_UNIT(.CENTI.,.METRE.)
);
#1753=(
NAMED_UNIT(*)
PLANE_ANGLE_UNIT()
SI_UNIT($,.RADIAN.)
);
#1754=(
NAMED_UNIT(*)
SI_UNIT($,.STERADIAN.)
SOLID_ANGLE_UNIT()
);
#1755=SHAPE_DEFINITION_REPRESENTATION(#1756,#1757);
#1756=PRODUCT_DEFINITION_SHAPE('',$,#1759);
#1757=SHAPE_REPRESENTATION('',(#979),#1749);
#1758=PRODUCT_DEFINITION_CONTEXT('part definition',#1763,'design');
#1759=PRODUCT_DEFINITION('Boden_Motion_V3','Boden',#1760,#1758);
#1760=PRODUCT_DEFINITION_FORMATION('',$,#1765);
#1761=PRODUCT_RELATED_PRODUCT_CATEGORY('Boden','Boden',(#1765));
#1762=APPLICATION_PROTOCOL_DEFINITION('international standard',
'automotive_design',2009,#1763);
#1763=APPLICATION_CONTEXT(
'Core Data for Automotive Mechanical Design Process');
#1764=PRODUCT_CONTEXT('part definition',#1763,'mechanical');
#1765=PRODUCT('Boden_Motion_V3','Boden',$,(#1764));
#1766=PRESENTATION_STYLE_ASSIGNMENT((#1767));
#1767=SURFACE_STYLE_USAGE(.BOTH.,#1770);
#1768=SURFACE_STYLE_RENDERING_WITH_PROPERTIES($,#1774,(#1769));
#1769=SURFACE_STYLE_TRANSPARENT(0.);
#1770=SURFACE_SIDE_STYLE('',(#1771,#1768));
#1771=SURFACE_STYLE_FILL_AREA(#1772);
#1772=FILL_AREA_STYLE('',(#1773));
#1773=FILL_AREA_STYLE_COLOUR('',#1774);
#1774=COLOUR_RGB('',0.250980392156863,0.250980392156863,0.250980392156863);
ENDSEC;
END-ISO-10303-21;
