ISO-10303-21;
HEADER;
/* Generated by software containing ST-Developer
 * from STEP Tools, Inc. (www.steptools.com) 
 */

FILE_DESCRIPTION(
/* description */ (''),
/* implementation_level */ '2;1');

FILE_NAME(
/* name */ 'Halterung_PCB.stp',
/* time_stamp */ '2026-07-14T09:57:54+02:00',
/* author */ ('PascalHelfenstein'),
/* organization */ (''),
/* preprocessor_version */ 'ST-DEVELOPER v20.1',
/* originating_system */ 'Autodesk Inventor 2027',
/* authorisation */ '');

FILE_SCHEMA (('AUTOMOTIVE_DESIGN { 1 0 10303 214 3 1 1 }'));
ENDSEC;

DATA;
#10=MECHANICAL_DESIGN_GEOMETRIC_PRESENTATION_REPRESENTATION('',(#13),#1998);
#11=SHAPE_REPRESENTATION_RELATIONSHIP('SRR','None',#2005,#12);
#12=ADVANCED_BREP_SHAPE_REPRESENTATION('',(#14),#1997);
#13=STYLED_ITEM('',(#2014),#14);
#14=MANIFOLD_SOLID_BREP('Volumenk\X\F6rper1',#1141);
#15=FACE_BOUND('',#341,.T.);
#16=FACE_BOUND('',#342,.T.);
#17=FACE_BOUND('',#343,.T.);
#18=FACE_BOUND('',#344,.T.);
#19=FACE_BOUND('',#345,.T.);
#20=FACE_BOUND('',#356,.T.);
#21=FACE_BOUND('',#374,.T.);
#22=FACE_BOUND('',#375,.T.);
#23=FACE_BOUND('',#376,.T.);
#24=FACE_BOUND('',#377,.T.);
#25=FACE_BOUND('',#378,.T.);
#26=PLANE('',#1188);
#27=PLANE('',#1191);
#28=PLANE('',#1194);
#29=PLANE('',#1233);
#30=PLANE('',#1234);
#31=PLANE('',#1241);
#32=PLANE('',#1244);
#33=PLANE('',#1247);
#34=PLANE('',#1250);
#35=PLANE('',#1253);
#36=PLANE('',#1256);
#37=PLANE('',#1259);
#38=PLANE('',#1262);
#39=PLANE('',#1263);
#40=PLANE('',#1276);
#41=PLANE('',#1278);
#42=PLANE('',#1280);
#43=PLANE('',#1282);
#44=PLANE('',#1289);
#45=PLANE('',#1291);
#46=PLANE('',#1293);
#47=PLANE('',#1295);
#48=PLANE('',#1297);
#49=LINE('',#1677,#141);
#50=LINE('',#1678,#142);
#51=LINE('',#1689,#143);
#52=LINE('',#1690,#144);
#53=LINE('',#1701,#145);
#54=LINE('',#1702,#146);
#55=LINE('',#1710,#147);
#56=LINE('',#1711,#148);
#57=LINE('',#1714,#149);
#58=LINE('',#1716,#150);
#59=LINE('',#1717,#151);
#60=LINE('',#1720,#152);
#61=LINE('',#1724,#153);
#62=LINE('',#1725,#154);
#63=LINE('',#1728,#155);
#64=LINE('',#1733,#156);
#65=LINE('',#1737,#157);
#66=LINE('',#1741,#158);
#67=LINE('',#1745,#159);
#68=LINE('',#1749,#160);
#69=LINE('',#1753,#161);
#70=LINE('',#1757,#162);
#71=LINE('',#1761,#163);
#72=LINE('',#1765,#164);
#73=LINE('',#1769,#165);
#74=LINE('',#1773,#166);
#75=LINE('',#1777,#167);
#76=LINE('',#1796,#168);
#77=LINE('',#1805,#169);
#78=LINE('',#1806,#170);
#79=LINE('',#1817,#171);
#80=LINE('',#1818,#172);
#81=LINE('',#1825,#173);
#82=LINE('',#1827,#174);
#83=LINE('',#1831,#175);
#84=LINE('',#1835,#176);
#85=LINE('',#1839,#177);
#86=LINE('',#1843,#178);
#87=LINE('',#1849,#179);
#88=LINE('',#1850,#180);
#89=LINE('',#1853,#181);
#90=LINE('',#1854,#182);
#91=LINE('',#1859,#183);
#92=LINE('',#1860,#184);
#93=LINE('',#1863,#185);
#94=LINE('',#1864,#186);
#95=LINE('',#1868,#187);
#96=LINE('',#1871,#188);
#97=LINE('',#1872,#189);
#98=LINE('',#1877,#190);
#99=LINE('',#1878,#191);
#100=LINE('',#1881,#192);
#101=LINE('',#1882,#193);
#102=LINE('',#1886,#194);
#103=LINE('',#1889,#195);
#104=LINE('',#1890,#196);
#105=LINE('',#1895,#197);
#106=LINE('',#1896,#198);
#107=LINE('',#1899,#199);
#108=LINE('',#1900,#200);
#109=LINE('',#1905,#201);
#110=LINE('',#1906,#202);
#111=LINE('',#1908,#203);
#112=LINE('',#1912,#204);
#113=LINE('',#1915,#205);
#114=LINE('',#1916,#206);
#115=LINE('',#1922,#207);
#116=LINE('',#1926,#208);
#117=LINE('',#1930,#209);
#118=LINE('',#1933,#210);
#119=LINE('',#1935,#211);
#120=LINE('',#1938,#212);
#121=LINE('',#1941,#213);
#122=LINE('',#1944,#214);
#123=LINE('',#1955,#215);
#124=LINE('',#1958,#216);
#125=LINE('',#1961,#217);
#126=LINE('',#1964,#218);
#127=LINE('',#1967,#219);
#128=LINE('',#1969,#220);
#129=LINE('',#1971,#221);
#130=LINE('',#1973,#222);
#131=LINE('',#1975,#223);
#132=LINE('',#1976,#224);
#133=LINE('',#1978,#225);
#134=LINE('',#1980,#226);
#135=LINE('',#1982,#227);
#136=LINE('',#1984,#228);
#137=LINE('',#1986,#229);
#138=LINE('',#1988,#230);
#139=LINE('',#1991,#231);
#140=LINE('',#1993,#232);
#141=VECTOR('',#1315,10.);
#142=VECTOR('',#1316,10.);
#143=VECTOR('',#1329,10.);
#144=VECTOR('',#1330,10.);
#145=VECTOR('',#1343,10.);
#146=VECTOR('',#1344,10.);
#147=VECTOR('',#1355,10.);
#148=VECTOR('',#1356,10.);
#149=VECTOR('',#1359,10.);
#150=VECTOR('',#1360,10.);
#151=VECTOR('',#1361,10.);
#152=VECTOR('',#1364,10.);
#153=VECTOR('',#1369,10.);
#154=VECTOR('',#1370,10.);
#155=VECTOR('',#1373,10.);
#156=VECTOR('',#1378,10.);
#157=VECTOR('',#1381,10.);
#158=VECTOR('',#1384,10.);
#159=VECTOR('',#1387,10.);
#160=VECTOR('',#1390,10.);
#161=VECTOR('',#1393,10.);
#162=VECTOR('',#1396,10.);
#163=VECTOR('',#1399,10.);
#164=VECTOR('',#1402,10.);
#165=VECTOR('',#1405,10.);
#166=VECTOR('',#1408,10.);
#167=VECTOR('',#1411,10.);
#168=VECTOR('',#1434,10.);
#169=VECTOR('',#1445,10.);
#170=VECTOR('',#1446,10.);
#171=VECTOR('',#1459,10.);
#172=VECTOR('',#1460,10.);
#173=VECTOR('',#1471,10.);
#174=VECTOR('',#1474,10.);
#175=VECTOR('',#1477,10.);
#176=VECTOR('',#1480,10.);
#177=VECTOR('',#1483,10.);
#178=VECTOR('',#1486,10.);
#179=VECTOR('',#1493,10.);
#180=VECTOR('',#1494,10.);
#181=VECTOR('',#1497,10.);
#182=VECTOR('',#1498,10.);
#183=VECTOR('',#1503,10.);
#184=VECTOR('',#1504,10.);
#185=VECTOR('',#1507,10.);
#186=VECTOR('',#1508,10.);
#187=VECTOR('',#1513,10.);
#188=VECTOR('',#1516,10.);
#189=VECTOR('',#1517,10.);
#190=VECTOR('',#1522,10.);
#191=VECTOR('',#1523,10.);
#192=VECTOR('',#1526,10.);
#193=VECTOR('',#1527,10.);
#194=VECTOR('',#1532,10.);
#195=VECTOR('',#1535,10.);
#196=VECTOR('',#1536,10.);
#197=VECTOR('',#1541,10.);
#198=VECTOR('',#1542,10.);
#199=VECTOR('',#1545,10.);
#200=VECTOR('',#1546,10.);
#201=VECTOR('',#1551,10.);
#202=VECTOR('',#1552,10.);
#203=VECTOR('',#1555,10.);
#204=VECTOR('',#1560,10.);
#205=VECTOR('',#1563,10.);
#206=VECTOR('',#1564,10.);
#207=VECTOR('',#1569,10.);
#208=VECTOR('',#1572,10.);
#209=VECTOR('',#1575,10.);
#210=VECTOR('',#1578,10.);
#211=VECTOR('',#1579,10.);
#212=VECTOR('',#1582,10.);
#213=VECTOR('',#1585,10.);
#214=VECTOR('',#1588,10.);
#215=VECTOR('',#1601,10.);
#216=VECTOR('',#1606,10.);
#217=VECTOR('',#1611,10.);
#218=VECTOR('',#1616,10.);
#219=VECTOR('',#1621,1.65);
#220=VECTOR('',#1624,1.65);
#221=VECTOR('',#1627,1.65);
#222=VECTOR('',#1630,1.65);
#223=VECTOR('',#1633,10.);
#224=VECTOR('',#1634,10.);
#225=VECTOR('',#1637,10.);
#226=VECTOR('',#1640,10.);
#227=VECTOR('',#1643,10.);
#228=VECTOR('',#1646,10.);
#229=VECTOR('',#1649,10.);
#230=VECTOR('',#1652,10.);
#231=VECTOR('',#1657,10.);
#232=VECTOR('',#1660,10.);
#233=CYLINDRICAL_SURFACE('',#1169,1.);
#234=CYLINDRICAL_SURFACE('',#1175,1.);
#235=CYLINDRICAL_SURFACE('',#1181,1.);
#236=CYLINDRICAL_SURFACE('',#1187,1.);
#237=CYLINDRICAL_SURFACE('',#1189,7.);
#238=CYLINDRICAL_SURFACE('',#1192,7.);
#239=CYLINDRICAL_SURFACE('',#1215,1.);
#240=CYLINDRICAL_SURFACE('',#1220,1.);
#241=CYLINDRICAL_SURFACE('',#1226,1.);
#242=CYLINDRICAL_SURFACE('',#1232,1.);
#243=CYLINDRICAL_SURFACE('',#1239,1.);
#244=CYLINDRICAL_SURFACE('',#1242,1.);
#245=CYLINDRICAL_SURFACE('',#1245,1.);
#246=CYLINDRICAL_SURFACE('',#1248,1.);
#247=CYLINDRICAL_SURFACE('',#1251,1.);
#248=CYLINDRICAL_SURFACE('',#1254,1.);
#249=CYLINDRICAL_SURFACE('',#1257,1.);
#250=CYLINDRICAL_SURFACE('',#1260,1.);
#251=CYLINDRICAL_SURFACE('',#1277,3.5);
#252=CYLINDRICAL_SURFACE('',#1279,3.5);
#253=CYLINDRICAL_SURFACE('',#1281,3.5);
#254=CYLINDRICAL_SURFACE('',#1283,3.5);
#255=CYLINDRICAL_SURFACE('',#1284,1.65);
#256=CYLINDRICAL_SURFACE('',#1285,1.65);
#257=CYLINDRICAL_SURFACE('',#1286,1.65);
#258=CYLINDRICAL_SURFACE('',#1287,1.65);
#259=CYLINDRICAL_SURFACE('',#1288,4.5);
#260=CYLINDRICAL_SURFACE('',#1290,4.5);
#261=CYLINDRICAL_SURFACE('',#1292,4.5);
#262=CYLINDRICAL_SURFACE('',#1294,4.5);
#263=CYLINDRICAL_SURFACE('',#1296,7.);
#264=CYLINDRICAL_SURFACE('',#1298,7.);
#265=FACE_OUTER_BOUND('',#328,.T.);
#266=FACE_OUTER_BOUND('',#329,.T.);
#267=FACE_OUTER_BOUND('',#330,.T.);
#268=FACE_OUTER_BOUND('',#331,.T.);
#269=FACE_OUTER_BOUND('',#332,.T.);
#270=FACE_OUTER_BOUND('',#333,.T.);
#271=FACE_OUTER_BOUND('',#334,.T.);
#272=FACE_OUTER_BOUND('',#335,.T.);
#273=FACE_OUTER_BOUND('',#336,.T.);
#274=FACE_OUTER_BOUND('',#337,.T.);
#275=FACE_OUTER_BOUND('',#338,.T.);
#276=FACE_OUTER_BOUND('',#339,.T.);
#277=FACE_OUTER_BOUND('',#340,.T.);
#278=FACE_OUTER_BOUND('',#346,.T.);
#279=FACE_OUTER_BOUND('',#347,.T.);
#280=FACE_OUTER_BOUND('',#348,.T.);
#281=FACE_OUTER_BOUND('',#349,.T.);
#282=FACE_OUTER_BOUND('',#350,.T.);
#283=FACE_OUTER_BOUND('',#351,.T.);
#284=FACE_OUTER_BOUND('',#352,.T.);
#285=FACE_OUTER_BOUND('',#353,.T.);
#286=FACE_OUTER_BOUND('',#354,.T.);
#287=FACE_OUTER_BOUND('',#355,.T.);
#288=FACE_OUTER_BOUND('',#357,.T.);
#289=FACE_OUTER_BOUND('',#358,.T.);
#290=FACE_OUTER_BOUND('',#359,.T.);
#291=FACE_OUTER_BOUND('',#360,.T.);
#292=FACE_OUTER_BOUND('',#361,.T.);
#293=FACE_OUTER_BOUND('',#362,.T.);
#294=FACE_OUTER_BOUND('',#363,.T.);
#295=FACE_OUTER_BOUND('',#364,.T.);
#296=FACE_OUTER_BOUND('',#365,.T.);
#297=FACE_OUTER_BOUND('',#366,.T.);
#298=FACE_OUTER_BOUND('',#367,.T.);
#299=FACE_OUTER_BOUND('',#368,.T.);
#300=FACE_OUTER_BOUND('',#369,.T.);
#301=FACE_OUTER_BOUND('',#370,.T.);
#302=FACE_OUTER_BOUND('',#371,.T.);
#303=FACE_OUTER_BOUND('',#372,.T.);
#304=FACE_OUTER_BOUND('',#373,.T.);
#305=FACE_OUTER_BOUND('',#379,.T.);
#306=FACE_OUTER_BOUND('',#380,.T.);
#307=FACE_OUTER_BOUND('',#381,.T.);
#308=FACE_OUTER_BOUND('',#382,.T.);
#309=FACE_OUTER_BOUND('',#383,.T.);
#310=FACE_OUTER_BOUND('',#384,.T.);
#311=FACE_OUTER_BOUND('',#385,.T.);
#312=FACE_OUTER_BOUND('',#386,.T.);
#313=FACE_OUTER_BOUND('',#387,.T.);
#314=FACE_OUTER_BOUND('',#388,.T.);
#315=FACE_OUTER_BOUND('',#389,.T.);
#316=FACE_OUTER_BOUND('',#390,.T.);
#317=FACE_OUTER_BOUND('',#391,.T.);
#318=FACE_OUTER_BOUND('',#392,.T.);
#319=FACE_OUTER_BOUND('',#393,.T.);
#320=FACE_OUTER_BOUND('',#394,.T.);
#321=FACE_OUTER_BOUND('',#395,.T.);
#322=FACE_OUTER_BOUND('',#396,.T.);
#323=FACE_OUTER_BOUND('',#397,.T.);
#324=FACE_OUTER_BOUND('',#398,.T.);
#325=FACE_OUTER_BOUND('',#399,.T.);
#326=FACE_OUTER_BOUND('',#400,.T.);
#327=FACE_OUTER_BOUND('',#401,.T.);
#328=EDGE_LOOP('',(#742,#743,#744,#745));
#329=EDGE_LOOP('',(#746,#747,#748,#749));
#330=EDGE_LOOP('',(#750,#751,#752,#753));
#331=EDGE_LOOP('',(#754,#755,#756,#757));
#332=EDGE_LOOP('',(#758,#759,#760,#761));
#333=EDGE_LOOP('',(#762,#763,#764,#765));
#334=EDGE_LOOP('',(#766,#767,#768,#769));
#335=EDGE_LOOP('',(#770,#771,#772,#773));
#336=EDGE_LOOP('',(#774,#775,#776,#777));
#337=EDGE_LOOP('',(#778,#779,#780,#781));
#338=EDGE_LOOP('',(#782,#783,#784,#785));
#339=EDGE_LOOP('',(#786,#787,#788,#789));
#340=EDGE_LOOP('',(#790,#791,#792,#793,#794,#795,#796,#797));
#341=EDGE_LOOP('',(#798,#799,#800,#801,#802,#803,#804,#805,#806,#807,#808,
#809,#810,#811,#812,#813,#814,#815,#816,#817,#818,#819,#820,#821));
#342=EDGE_LOOP('',(#822));
#343=EDGE_LOOP('',(#823));
#344=EDGE_LOOP('',(#824));
#345=EDGE_LOOP('',(#825));
#346=EDGE_LOOP('',(#826,#827,#828,#829));
#347=EDGE_LOOP('',(#830,#831,#832,#833));
#348=EDGE_LOOP('',(#834,#835,#836,#837));
#349=EDGE_LOOP('',(#838,#839,#840,#841));
#350=EDGE_LOOP('',(#842,#843,#844,#845));
#351=EDGE_LOOP('',(#846,#847,#848,#849));
#352=EDGE_LOOP('',(#850,#851,#852,#853));
#353=EDGE_LOOP('',(#854,#855,#856,#857));
#354=EDGE_LOOP('',(#858,#859,#860,#861));
#355=EDGE_LOOP('',(#862,#863,#864,#865,#866,#867,#868,#869));
#356=EDGE_LOOP('',(#870,#871,#872,#873,#874,#875,#876,#877));
#357=EDGE_LOOP('',(#878,#879,#880,#881));
#358=EDGE_LOOP('',(#882,#883,#884,#885));
#359=EDGE_LOOP('',(#886,#887,#888,#889));
#360=EDGE_LOOP('',(#890,#891,#892,#893));
#361=EDGE_LOOP('',(#894,#895,#896,#897));
#362=EDGE_LOOP('',(#898,#899,#900,#901));
#363=EDGE_LOOP('',(#902,#903,#904,#905));
#364=EDGE_LOOP('',(#906,#907,#908,#909));
#365=EDGE_LOOP('',(#910,#911,#912,#913));
#366=EDGE_LOOP('',(#914,#915,#916,#917));
#367=EDGE_LOOP('',(#918,#919,#920,#921));
#368=EDGE_LOOP('',(#922,#923,#924,#925));
#369=EDGE_LOOP('',(#926,#927,#928,#929));
#370=EDGE_LOOP('',(#930,#931,#932,#933));
#371=EDGE_LOOP('',(#934,#935,#936,#937));
#372=EDGE_LOOP('',(#938,#939,#940,#941));
#373=EDGE_LOOP('',(#942,#943,#944,#945,#946,#947,#948,#949));
#374=EDGE_LOOP('',(#950,#951,#952,#953,#954,#955,#956,#957,#958,#959,#960,
#961,#962,#963,#964,#965,#966,#967,#968,#969,#970,#971,#972,#973));
#375=EDGE_LOOP('',(#974));
#376=EDGE_LOOP('',(#975));
#377=EDGE_LOOP('',(#976));
#378=EDGE_LOOP('',(#977));
#379=EDGE_LOOP('',(#978,#979,#980,#981));
#380=EDGE_LOOP('',(#982,#983,#984,#985));
#381=EDGE_LOOP('',(#986,#987,#988,#989));
#382=EDGE_LOOP('',(#990,#991,#992,#993));
#383=EDGE_LOOP('',(#994,#995,#996,#997));
#384=EDGE_LOOP('',(#998,#999,#1000,#1001));
#385=EDGE_LOOP('',(#1002,#1003,#1004,#1005));
#386=EDGE_LOOP('',(#1006,#1007,#1008,#1009));
#387=EDGE_LOOP('',(#1010,#1011,#1012,#1013));
#388=EDGE_LOOP('',(#1014,#1015,#1016,#1017));
#389=EDGE_LOOP('',(#1018,#1019,#1020,#1021));
#390=EDGE_LOOP('',(#1022,#1023,#1024,#1025));
#391=EDGE_LOOP('',(#1026,#1027,#1028,#1029));
#392=EDGE_LOOP('',(#1030,#1031,#1032,#1033));
#393=EDGE_LOOP('',(#1034,#1035,#1036,#1037));
#394=EDGE_LOOP('',(#1038,#1039,#1040,#1041));
#395=EDGE_LOOP('',(#1042,#1043,#1044,#1045));
#396=EDGE_LOOP('',(#1046,#1047,#1048,#1049));
#397=EDGE_LOOP('',(#1050,#1051,#1052,#1053));
#398=EDGE_LOOP('',(#1054,#1055,#1056,#1057));
#399=EDGE_LOOP('',(#1058,#1059,#1060,#1061));
#400=EDGE_LOOP('',(#1062,#1063,#1064,#1065));
#401=EDGE_LOOP('',(#1066,#1067,#1068,#1069));
#402=CIRCLE('',#1165,1.);
#403=CIRCLE('',#1166,7.);
#404=CIRCLE('',#1167,0.999999999999988);
#405=CIRCLE('',#1168,6.);
#406=CIRCLE('',#1170,1.);
#407=CIRCLE('',#1172,0.999999999999996);
#408=CIRCLE('',#1173,6.);
#409=CIRCLE('',#1174,7.);
#410=CIRCLE('',#1176,1.);
#411=CIRCLE('',#1178,0.999999999999979);
#412=CIRCLE('',#1179,6.);
#413=CIRCLE('',#1180,7.);
#414=CIRCLE('',#1182,1.);
#415=CIRCLE('',#1184,1.00000000000004);
#416=CIRCLE('',#1185,6.);
#417=CIRCLE('',#1186,7.);
#418=CIRCLE('',#1190,7.);
#419=CIRCLE('',#1193,7.);
#420=CIRCLE('',#1195,1.);
#421=CIRCLE('',#1196,3.5);
#422=CIRCLE('',#1197,1.);
#423=CIRCLE('',#1198,1.);
#424=CIRCLE('',#1199,3.5);
#425=CIRCLE('',#1200,1.);
#426=CIRCLE('',#1201,1.);
#427=CIRCLE('',#1202,3.5);
#428=CIRCLE('',#1203,1.);
#429=CIRCLE('',#1204,1.);
#430=CIRCLE('',#1205,3.5);
#431=CIRCLE('',#1206,1.);
#432=CIRCLE('',#1207,1.65);
#433=CIRCLE('',#1208,1.65);
#434=CIRCLE('',#1209,1.65);
#435=CIRCLE('',#1210,1.65);
#436=CIRCLE('',#1212,1.);
#437=CIRCLE('',#1213,0.999999999999979);
#438=CIRCLE('',#1214,6.);
#439=CIRCLE('',#1216,1.);
#440=CIRCLE('',#1218,0.999999999999961);
#441=CIRCLE('',#1219,6.);
#442=CIRCLE('',#1221,1.);
#443=CIRCLE('',#1223,1.00000000000001);
#444=CIRCLE('',#1224,6.);
#445=CIRCLE('',#1225,7.);
#446=CIRCLE('',#1227,1.);
#447=CIRCLE('',#1229,1.00000000000002);
#448=CIRCLE('',#1230,6.);
#449=CIRCLE('',#1231,7.);
#450=CIRCLE('',#1235,4.5);
#451=CIRCLE('',#1236,4.5);
#452=CIRCLE('',#1237,4.5);
#453=CIRCLE('',#1238,4.5);
#454=CIRCLE('',#1240,1.);
#455=CIRCLE('',#1243,1.);
#456=CIRCLE('',#1246,1.);
#457=CIRCLE('',#1249,1.);
#458=CIRCLE('',#1252,1.);
#459=CIRCLE('',#1255,1.);
#460=CIRCLE('',#1258,1.);
#461=CIRCLE('',#1261,1.);
#462=CIRCLE('',#1264,4.5);
#463=CIRCLE('',#1265,4.5);
#464=CIRCLE('',#1266,4.5);
#465=CIRCLE('',#1267,4.5);
#466=CIRCLE('',#1268,3.5);
#467=CIRCLE('',#1269,3.5);
#468=CIRCLE('',#1270,3.5);
#469=CIRCLE('',#1271,3.5);
#470=CIRCLE('',#1272,1.65);
#471=CIRCLE('',#1273,1.65);
#472=CIRCLE('',#1274,1.65);
#473=CIRCLE('',#1275,1.65);
#474=VERTEX_POINT('',#1665);
#475=VERTEX_POINT('',#1666);
#476=VERTEX_POINT('',#1668);
#477=VERTEX_POINT('',#1670);
#478=VERTEX_POINT('',#1674);
#479=VERTEX_POINT('',#1675);
#480=VERTEX_POINT('',#1680);
#481=VERTEX_POINT('',#1681);
#482=VERTEX_POINT('',#1686);
#483=VERTEX_POINT('',#1687);
#484=VERTEX_POINT('',#1692);
#485=VERTEX_POINT('',#1693);
#486=VERTEX_POINT('',#1698);
#487=VERTEX_POINT('',#1699);
#488=VERTEX_POINT('',#1704);
#489=VERTEX_POINT('',#1705);
#490=VERTEX_POINT('',#1713);
#491=VERTEX_POINT('',#1715);
#492=VERTEX_POINT('',#1719);
#493=VERTEX_POINT('',#1723);
#494=VERTEX_POINT('',#1727);
#495=VERTEX_POINT('',#1731);
#496=VERTEX_POINT('',#1732);
#497=VERTEX_POINT('',#1734);
#498=VERTEX_POINT('',#1736);
#499=VERTEX_POINT('',#1738);
#500=VERTEX_POINT('',#1740);
#501=VERTEX_POINT('',#1742);
#502=VERTEX_POINT('',#1744);
#503=VERTEX_POINT('',#1746);
#504=VERTEX_POINT('',#1748);
#505=VERTEX_POINT('',#1750);
#506=VERTEX_POINT('',#1752);
#507=VERTEX_POINT('',#1754);
#508=VERTEX_POINT('',#1756);
#509=VERTEX_POINT('',#1758);
#510=VERTEX_POINT('',#1760);
#511=VERTEX_POINT('',#1762);
#512=VERTEX_POINT('',#1764);
#513=VERTEX_POINT('',#1766);
#514=VERTEX_POINT('',#1768);
#515=VERTEX_POINT('',#1770);
#516=VERTEX_POINT('',#1772);
#517=VERTEX_POINT('',#1774);
#518=VERTEX_POINT('',#1776);
#519=VERTEX_POINT('',#1779);
#520=VERTEX_POINT('',#1781);
#521=VERTEX_POINT('',#1783);
#522=VERTEX_POINT('',#1785);
#523=VERTEX_POINT('',#1788);
#524=VERTEX_POINT('',#1790);
#525=VERTEX_POINT('',#1794);
#526=VERTEX_POINT('',#1798);
#527=VERTEX_POINT('',#1802);
#528=VERTEX_POINT('',#1803);
#529=VERTEX_POINT('',#1808);
#530=VERTEX_POINT('',#1809);
#531=VERTEX_POINT('',#1814);
#532=VERTEX_POINT('',#1815);
#533=VERTEX_POINT('',#1820);
#534=VERTEX_POINT('',#1829);
#535=VERTEX_POINT('',#1830);
#536=VERTEX_POINT('',#1832);
#537=VERTEX_POINT('',#1834);
#538=VERTEX_POINT('',#1836);
#539=VERTEX_POINT('',#1838);
#540=VERTEX_POINT('',#1840);
#541=VERTEX_POINT('',#1842);
#542=VERTEX_POINT('',#1846);
#543=VERTEX_POINT('',#1847);
#544=VERTEX_POINT('',#1852);
#545=VERTEX_POINT('',#1856);
#546=VERTEX_POINT('',#1857);
#547=VERTEX_POINT('',#1862);
#548=VERTEX_POINT('',#1866);
#549=VERTEX_POINT('',#1870);
#550=VERTEX_POINT('',#1874);
#551=VERTEX_POINT('',#1875);
#552=VERTEX_POINT('',#1880);
#553=VERTEX_POINT('',#1884);
#554=VERTEX_POINT('',#1888);
#555=VERTEX_POINT('',#1892);
#556=VERTEX_POINT('',#1893);
#557=VERTEX_POINT('',#1898);
#558=VERTEX_POINT('',#1902);
#559=VERTEX_POINT('',#1903);
#560=VERTEX_POINT('',#1910);
#561=VERTEX_POINT('',#1914);
#562=VERTEX_POINT('',#1918);
#563=VERTEX_POINT('',#1919);
#564=VERTEX_POINT('',#1921);
#565=VERTEX_POINT('',#1923);
#566=VERTEX_POINT('',#1925);
#567=VERTEX_POINT('',#1927);
#568=VERTEX_POINT('',#1929);
#569=VERTEX_POINT('',#1931);
#570=VERTEX_POINT('',#1934);
#571=VERTEX_POINT('',#1937);
#572=VERTEX_POINT('',#1940);
#573=VERTEX_POINT('',#1943);
#574=VERTEX_POINT('',#1946);
#575=VERTEX_POINT('',#1948);
#576=VERTEX_POINT('',#1950);
#577=VERTEX_POINT('',#1952);
#578=EDGE_CURVE('',#474,#475,#402,.T.);
#579=EDGE_CURVE('',#475,#476,#403,.T.);
#580=EDGE_CURVE('',#476,#477,#404,.T.);
#581=EDGE_CURVE('',#477,#474,#405,.T.);
#582=EDGE_CURVE('',#478,#479,#406,.T.);
#583=EDGE_CURVE('',#479,#477,#49,.T.);
#584=EDGE_CURVE('',#476,#478,#50,.T.);
#585=EDGE_CURVE('',#480,#481,#407,.T.);
#586=EDGE_CURVE('',#481,#479,#408,.T.);
#587=EDGE_CURVE('',#478,#480,#409,.T.);
#588=EDGE_CURVE('',#482,#483,#410,.T.);
#589=EDGE_CURVE('',#483,#481,#51,.T.);
#590=EDGE_CURVE('',#480,#482,#52,.T.);
#591=EDGE_CURVE('',#484,#485,#411,.T.);
#592=EDGE_CURVE('',#485,#483,#412,.T.);
#593=EDGE_CURVE('',#482,#484,#413,.T.);
#594=EDGE_CURVE('',#486,#487,#414,.T.);
#595=EDGE_CURVE('',#487,#485,#53,.T.);
#596=EDGE_CURVE('',#484,#486,#54,.T.);
#597=EDGE_CURVE('',#488,#489,#415,.T.);
#598=EDGE_CURVE('',#489,#487,#416,.T.);
#599=EDGE_CURVE('',#486,#488,#417,.T.);
#600=EDGE_CURVE('',#474,#489,#55,.T.);
#601=EDGE_CURVE('',#488,#475,#56,.T.);
#602=EDGE_CURVE('',#480,#490,#57,.T.);
#603=EDGE_CURVE('',#491,#490,#58,.T.);
#604=EDGE_CURVE('',#482,#491,#59,.T.);
#605=EDGE_CURVE('',#478,#492,#60,.T.);
#606=EDGE_CURVE('',#490,#492,#418,.T.);
#607=EDGE_CURVE('',#493,#476,#61,.T.);
#608=EDGE_CURVE('',#492,#493,#62,.T.);
#609=EDGE_CURVE('',#475,#494,#63,.T.);
#610=EDGE_CURVE('',#493,#494,#419,.T.);
#611=EDGE_CURVE('',#495,#496,#64,.T.);
#612=EDGE_CURVE('',#497,#496,#420,.T.);
#613=EDGE_CURVE('',#497,#498,#65,.T.);
#614=EDGE_CURVE('',#498,#499,#421,.T.);
#615=EDGE_CURVE('',#499,#500,#66,.T.);
#616=EDGE_CURVE('',#501,#500,#422,.T.);
#617=EDGE_CURVE('',#501,#502,#67,.T.);
#618=EDGE_CURVE('',#503,#502,#423,.T.);
#619=EDGE_CURVE('',#503,#504,#68,.T.);
#620=EDGE_CURVE('',#504,#505,#424,.T.);
#621=EDGE_CURVE('',#505,#506,#69,.T.);
#622=EDGE_CURVE('',#507,#506,#425,.T.);
#623=EDGE_CURVE('',#507,#508,#70,.T.);
#624=EDGE_CURVE('',#509,#508,#426,.T.);
#625=EDGE_CURVE('',#509,#510,#71,.T.);
#626=EDGE_CURVE('',#510,#511,#427,.T.);
#627=EDGE_CURVE('',#511,#512,#72,.T.);
#628=EDGE_CURVE('',#513,#512,#428,.T.);
#629=EDGE_CURVE('',#513,#514,#73,.T.);
#630=EDGE_CURVE('',#515,#514,#429,.T.);
#631=EDGE_CURVE('',#515,#516,#74,.T.);
#632=EDGE_CURVE('',#516,#517,#430,.T.);
#633=EDGE_CURVE('',#517,#518,#75,.T.);
#634=EDGE_CURVE('',#495,#518,#431,.T.);
#635=EDGE_CURVE('',#519,#519,#432,.T.);
#636=EDGE_CURVE('',#520,#520,#433,.T.);
#637=EDGE_CURVE('',#521,#521,#434,.T.);
#638=EDGE_CURVE('',#522,#522,#435,.T.);
#639=EDGE_CURVE('',#523,#490,#436,.T.);
#640=EDGE_CURVE('',#492,#524,#437,.T.);
#641=EDGE_CURVE('',#524,#523,#438,.T.);
#642=EDGE_CURVE('',#493,#525,#439,.T.);
#643=EDGE_CURVE('',#525,#524,#76,.T.);
#644=EDGE_CURVE('',#494,#526,#440,.T.);
#645=EDGE_CURVE('',#526,#525,#441,.T.);
#646=EDGE_CURVE('',#527,#528,#442,.T.);
#647=EDGE_CURVE('',#528,#526,#77,.T.);
#648=EDGE_CURVE('',#494,#527,#78,.T.);
#649=EDGE_CURVE('',#529,#530,#443,.T.);
#650=EDGE_CURVE('',#530,#528,#444,.T.);
#651=EDGE_CURVE('',#527,#529,#445,.T.);
#652=EDGE_CURVE('',#531,#532,#446,.T.);
#653=EDGE_CURVE('',#532,#530,#79,.T.);
#654=EDGE_CURVE('',#529,#531,#80,.T.);
#655=EDGE_CURVE('',#491,#533,#447,.T.);
#656=EDGE_CURVE('',#533,#532,#448,.T.);
#657=EDGE_CURVE('',#531,#491,#449,.T.);
#658=EDGE_CURVE('',#523,#533,#81,.T.);
#659=EDGE_CURVE('',#488,#527,#82,.T.);
#660=EDGE_CURVE('',#534,#535,#83,.T.);
#661=EDGE_CURVE('',#535,#536,#450,.T.);
#662=EDGE_CURVE('',#536,#537,#84,.T.);
#663=EDGE_CURVE('',#537,#538,#451,.T.);
#664=EDGE_CURVE('',#538,#539,#85,.T.);
#665=EDGE_CURVE('',#539,#540,#452,.T.);
#666=EDGE_CURVE('',#540,#541,#86,.T.);
#667=EDGE_CURVE('',#541,#534,#453,.T.);
#668=EDGE_CURVE('',#542,#543,#454,.T.);
#669=EDGE_CURVE('',#543,#513,#87,.T.);
#670=EDGE_CURVE('',#512,#542,#88,.T.);
#671=EDGE_CURVE('',#544,#543,#89,.T.);
#672=EDGE_CURVE('',#514,#544,#90,.T.);
#673=EDGE_CURVE('',#545,#546,#455,.T.);
#674=EDGE_CURVE('',#546,#509,#91,.T.);
#675=EDGE_CURVE('',#508,#545,#92,.T.);
#676=EDGE_CURVE('',#547,#546,#93,.T.);
#677=EDGE_CURVE('',#547,#510,#94,.T.);
#678=EDGE_CURVE('',#544,#548,#456,.T.);
#679=EDGE_CURVE('',#548,#515,#95,.T.);
#680=EDGE_CURVE('',#549,#548,#96,.T.);
#681=EDGE_CURVE('',#549,#516,#97,.T.);
#682=EDGE_CURVE('',#550,#551,#457,.T.);
#683=EDGE_CURVE('',#551,#495,#98,.T.);
#684=EDGE_CURVE('',#518,#550,#99,.T.);
#685=EDGE_CURVE('',#552,#551,#100,.T.);
#686=EDGE_CURVE('',#496,#552,#101,.T.);
#687=EDGE_CURVE('',#552,#553,#458,.T.);
#688=EDGE_CURVE('',#553,#497,#102,.T.);
#689=EDGE_CURVE('',#554,#553,#103,.T.);
#690=EDGE_CURVE('',#554,#498,#104,.T.);
#691=EDGE_CURVE('',#555,#556,#459,.T.);
#692=EDGE_CURVE('',#556,#501,#105,.T.);
#693=EDGE_CURVE('',#500,#555,#106,.T.);
#694=EDGE_CURVE('',#557,#556,#107,.T.);
#695=EDGE_CURVE('',#502,#557,#108,.T.);
#696=EDGE_CURVE('',#558,#559,#460,.T.);
#697=EDGE_CURVE('',#559,#507,#109,.T.);
#698=EDGE_CURVE('',#506,#558,#110,.T.);
#699=EDGE_CURVE('',#545,#559,#111,.T.);
#700=EDGE_CURVE('',#557,#560,#461,.T.);
#701=EDGE_CURVE('',#560,#503,#112,.T.);
#702=EDGE_CURVE('',#561,#560,#113,.T.);
#703=EDGE_CURVE('',#561,#504,#114,.T.);
#704=EDGE_CURVE('',#562,#563,#462,.T.);
#705=EDGE_CURVE('',#564,#562,#115,.T.);
#706=EDGE_CURVE('',#565,#564,#463,.T.);
#707=EDGE_CURVE('',#566,#565,#116,.T.);
#708=EDGE_CURVE('',#567,#566,#464,.T.);
#709=EDGE_CURVE('',#568,#567,#117,.T.);
#710=EDGE_CURVE('',#569,#568,#465,.T.);
#711=EDGE_CURVE('',#563,#569,#118,.T.);
#712=EDGE_CURVE('',#550,#570,#119,.T.);
#713=EDGE_CURVE('',#570,#549,#466,.T.);
#714=EDGE_CURVE('',#542,#571,#120,.T.);
#715=EDGE_CURVE('',#571,#547,#467,.T.);
#716=EDGE_CURVE('',#558,#572,#121,.T.);
#717=EDGE_CURVE('',#572,#561,#468,.T.);
#718=EDGE_CURVE('',#555,#573,#122,.T.);
#719=EDGE_CURVE('',#573,#554,#469,.T.);
#720=EDGE_CURVE('',#574,#574,#470,.T.);
#721=EDGE_CURVE('',#575,#575,#471,.T.);
#722=EDGE_CURVE('',#576,#576,#472,.T.);
#723=EDGE_CURVE('',#577,#577,#473,.T.);
#724=EDGE_CURVE('',#570,#517,#123,.T.);
#725=EDGE_CURVE('',#571,#511,#124,.T.);
#726=EDGE_CURVE('',#572,#505,#125,.T.);
#727=EDGE_CURVE('',#573,#499,#126,.T.);
#728=EDGE_CURVE('',#519,#574,#127,.T.);
#729=EDGE_CURVE('',#520,#575,#128,.T.);
#730=EDGE_CURVE('',#521,#576,#129,.T.);
#731=EDGE_CURVE('',#522,#577,#130,.T.);
#732=EDGE_CURVE('',#563,#534,#131,.T.);
#733=EDGE_CURVE('',#562,#541,#132,.T.);
#734=EDGE_CURVE('',#564,#540,#133,.T.);
#735=EDGE_CURVE('',#565,#539,#134,.T.);
#736=EDGE_CURVE('',#566,#538,#135,.T.);
#737=EDGE_CURVE('',#567,#537,#136,.T.);
#738=EDGE_CURVE('',#568,#536,#137,.T.);
#739=EDGE_CURVE('',#569,#535,#138,.T.);
#740=EDGE_CURVE('',#484,#531,#139,.T.);
#741=EDGE_CURVE('',#486,#529,#140,.T.);
#742=ORIENTED_EDGE('',*,*,#578,.T.);
#743=ORIENTED_EDGE('',*,*,#579,.T.);
#744=ORIENTED_EDGE('',*,*,#580,.T.);
#745=ORIENTED_EDGE('',*,*,#581,.T.);
#746=ORIENTED_EDGE('',*,*,#582,.T.);
#747=ORIENTED_EDGE('',*,*,#583,.T.);
#748=ORIENTED_EDGE('',*,*,#580,.F.);
#749=ORIENTED_EDGE('',*,*,#584,.T.);
#750=ORIENTED_EDGE('',*,*,#585,.T.);
#751=ORIENTED_EDGE('',*,*,#586,.T.);
#752=ORIENTED_EDGE('',*,*,#582,.F.);
#753=ORIENTED_EDGE('',*,*,#587,.T.);
#754=ORIENTED_EDGE('',*,*,#588,.T.);
#755=ORIENTED_EDGE('',*,*,#589,.T.);
#756=ORIENTED_EDGE('',*,*,#585,.F.);
#757=ORIENTED_EDGE('',*,*,#590,.T.);
#758=ORIENTED_EDGE('',*,*,#591,.T.);
#759=ORIENTED_EDGE('',*,*,#592,.T.);
#760=ORIENTED_EDGE('',*,*,#588,.F.);
#761=ORIENTED_EDGE('',*,*,#593,.T.);
#762=ORIENTED_EDGE('',*,*,#594,.T.);
#763=ORIENTED_EDGE('',*,*,#595,.T.);
#764=ORIENTED_EDGE('',*,*,#591,.F.);
#765=ORIENTED_EDGE('',*,*,#596,.T.);
#766=ORIENTED_EDGE('',*,*,#597,.T.);
#767=ORIENTED_EDGE('',*,*,#598,.T.);
#768=ORIENTED_EDGE('',*,*,#594,.F.);
#769=ORIENTED_EDGE('',*,*,#599,.T.);
#770=ORIENTED_EDGE('',*,*,#578,.F.);
#771=ORIENTED_EDGE('',*,*,#600,.T.);
#772=ORIENTED_EDGE('',*,*,#597,.F.);
#773=ORIENTED_EDGE('',*,*,#601,.T.);
#774=ORIENTED_EDGE('',*,*,#590,.F.);
#775=ORIENTED_EDGE('',*,*,#602,.T.);
#776=ORIENTED_EDGE('',*,*,#603,.F.);
#777=ORIENTED_EDGE('',*,*,#604,.F.);
#778=ORIENTED_EDGE('',*,*,#587,.F.);
#779=ORIENTED_EDGE('',*,*,#605,.T.);
#780=ORIENTED_EDGE('',*,*,#606,.F.);
#781=ORIENTED_EDGE('',*,*,#602,.F.);
#782=ORIENTED_EDGE('',*,*,#584,.F.);
#783=ORIENTED_EDGE('',*,*,#607,.F.);
#784=ORIENTED_EDGE('',*,*,#608,.F.);
#785=ORIENTED_EDGE('',*,*,#605,.F.);
#786=ORIENTED_EDGE('',*,*,#579,.F.);
#787=ORIENTED_EDGE('',*,*,#609,.T.);
#788=ORIENTED_EDGE('',*,*,#610,.F.);
#789=ORIENTED_EDGE('',*,*,#607,.T.);
#790=ORIENTED_EDGE('',*,*,#581,.F.);
#791=ORIENTED_EDGE('',*,*,#583,.F.);
#792=ORIENTED_EDGE('',*,*,#586,.F.);
#793=ORIENTED_EDGE('',*,*,#589,.F.);
#794=ORIENTED_EDGE('',*,*,#592,.F.);
#795=ORIENTED_EDGE('',*,*,#595,.F.);
#796=ORIENTED_EDGE('',*,*,#598,.F.);
#797=ORIENTED_EDGE('',*,*,#600,.F.);
#798=ORIENTED_EDGE('',*,*,#611,.T.);
#799=ORIENTED_EDGE('',*,*,#612,.F.);
#800=ORIENTED_EDGE('',*,*,#613,.T.);
#801=ORIENTED_EDGE('',*,*,#614,.T.);
#802=ORIENTED_EDGE('',*,*,#615,.T.);
#803=ORIENTED_EDGE('',*,*,#616,.F.);
#804=ORIENTED_EDGE('',*,*,#617,.T.);
#805=ORIENTED_EDGE('',*,*,#618,.F.);
#806=ORIENTED_EDGE('',*,*,#619,.T.);
#807=ORIENTED_EDGE('',*,*,#620,.T.);
#808=ORIENTED_EDGE('',*,*,#621,.T.);
#809=ORIENTED_EDGE('',*,*,#622,.F.);
#810=ORIENTED_EDGE('',*,*,#623,.T.);
#811=ORIENTED_EDGE('',*,*,#624,.F.);
#812=ORIENTED_EDGE('',*,*,#625,.T.);
#813=ORIENTED_EDGE('',*,*,#626,.T.);
#814=ORIENTED_EDGE('',*,*,#627,.T.);
#815=ORIENTED_EDGE('',*,*,#628,.F.);
#816=ORIENTED_EDGE('',*,*,#629,.T.);
#817=ORIENTED_EDGE('',*,*,#630,.F.);
#818=ORIENTED_EDGE('',*,*,#631,.T.);
#819=ORIENTED_EDGE('',*,*,#632,.T.);
#820=ORIENTED_EDGE('',*,*,#633,.T.);
#821=ORIENTED_EDGE('',*,*,#634,.F.);
#822=ORIENTED_EDGE('',*,*,#635,.T.);
#823=ORIENTED_EDGE('',*,*,#636,.T.);
#824=ORIENTED_EDGE('',*,*,#637,.T.);
#825=ORIENTED_EDGE('',*,*,#638,.T.);
#826=ORIENTED_EDGE('',*,*,#639,.T.);
#827=ORIENTED_EDGE('',*,*,#606,.T.);
#828=ORIENTED_EDGE('',*,*,#640,.T.);
#829=ORIENTED_EDGE('',*,*,#641,.T.);
#830=ORIENTED_EDGE('',*,*,#642,.T.);
#831=ORIENTED_EDGE('',*,*,#643,.T.);
#832=ORIENTED_EDGE('',*,*,#640,.F.);
#833=ORIENTED_EDGE('',*,*,#608,.T.);
#834=ORIENTED_EDGE('',*,*,#644,.T.);
#835=ORIENTED_EDGE('',*,*,#645,.T.);
#836=ORIENTED_EDGE('',*,*,#642,.F.);
#837=ORIENTED_EDGE('',*,*,#610,.T.);
#838=ORIENTED_EDGE('',*,*,#646,.T.);
#839=ORIENTED_EDGE('',*,*,#647,.T.);
#840=ORIENTED_EDGE('',*,*,#644,.F.);
#841=ORIENTED_EDGE('',*,*,#648,.T.);
#842=ORIENTED_EDGE('',*,*,#649,.T.);
#843=ORIENTED_EDGE('',*,*,#650,.T.);
#844=ORIENTED_EDGE('',*,*,#646,.F.);
#845=ORIENTED_EDGE('',*,*,#651,.T.);
#846=ORIENTED_EDGE('',*,*,#652,.T.);
#847=ORIENTED_EDGE('',*,*,#653,.T.);
#848=ORIENTED_EDGE('',*,*,#649,.F.);
#849=ORIENTED_EDGE('',*,*,#654,.T.);
#850=ORIENTED_EDGE('',*,*,#655,.T.);
#851=ORIENTED_EDGE('',*,*,#656,.T.);
#852=ORIENTED_EDGE('',*,*,#652,.F.);
#853=ORIENTED_EDGE('',*,*,#657,.T.);
#854=ORIENTED_EDGE('',*,*,#639,.F.);
#855=ORIENTED_EDGE('',*,*,#658,.T.);
#856=ORIENTED_EDGE('',*,*,#655,.F.);
#857=ORIENTED_EDGE('',*,*,#603,.T.);
#858=ORIENTED_EDGE('',*,*,#601,.F.);
#859=ORIENTED_EDGE('',*,*,#659,.T.);
#860=ORIENTED_EDGE('',*,*,#648,.F.);
#861=ORIENTED_EDGE('',*,*,#609,.F.);
#862=ORIENTED_EDGE('',*,*,#641,.F.);
#863=ORIENTED_EDGE('',*,*,#643,.F.);
#864=ORIENTED_EDGE('',*,*,#645,.F.);
#865=ORIENTED_EDGE('',*,*,#647,.F.);
#866=ORIENTED_EDGE('',*,*,#650,.F.);
#867=ORIENTED_EDGE('',*,*,#653,.F.);
#868=ORIENTED_EDGE('',*,*,#656,.F.);
#869=ORIENTED_EDGE('',*,*,#658,.F.);
#870=ORIENTED_EDGE('',*,*,#660,.T.);
#871=ORIENTED_EDGE('',*,*,#661,.T.);
#872=ORIENTED_EDGE('',*,*,#662,.T.);
#873=ORIENTED_EDGE('',*,*,#663,.T.);
#874=ORIENTED_EDGE('',*,*,#664,.T.);
#875=ORIENTED_EDGE('',*,*,#665,.T.);
#876=ORIENTED_EDGE('',*,*,#666,.T.);
#877=ORIENTED_EDGE('',*,*,#667,.T.);
#878=ORIENTED_EDGE('',*,*,#668,.T.);
#879=ORIENTED_EDGE('',*,*,#669,.T.);
#880=ORIENTED_EDGE('',*,*,#628,.T.);
#881=ORIENTED_EDGE('',*,*,#670,.T.);
#882=ORIENTED_EDGE('',*,*,#669,.F.);
#883=ORIENTED_EDGE('',*,*,#671,.F.);
#884=ORIENTED_EDGE('',*,*,#672,.F.);
#885=ORIENTED_EDGE('',*,*,#629,.F.);
#886=ORIENTED_EDGE('',*,*,#673,.T.);
#887=ORIENTED_EDGE('',*,*,#674,.T.);
#888=ORIENTED_EDGE('',*,*,#624,.T.);
#889=ORIENTED_EDGE('',*,*,#675,.T.);
#890=ORIENTED_EDGE('',*,*,#674,.F.);
#891=ORIENTED_EDGE('',*,*,#676,.F.);
#892=ORIENTED_EDGE('',*,*,#677,.T.);
#893=ORIENTED_EDGE('',*,*,#625,.F.);
#894=ORIENTED_EDGE('',*,*,#678,.T.);
#895=ORIENTED_EDGE('',*,*,#679,.T.);
#896=ORIENTED_EDGE('',*,*,#630,.T.);
#897=ORIENTED_EDGE('',*,*,#672,.T.);
#898=ORIENTED_EDGE('',*,*,#679,.F.);
#899=ORIENTED_EDGE('',*,*,#680,.F.);
#900=ORIENTED_EDGE('',*,*,#681,.T.);
#901=ORIENTED_EDGE('',*,*,#631,.F.);
#902=ORIENTED_EDGE('',*,*,#682,.T.);
#903=ORIENTED_EDGE('',*,*,#683,.T.);
#904=ORIENTED_EDGE('',*,*,#634,.T.);
#905=ORIENTED_EDGE('',*,*,#684,.T.);
#906=ORIENTED_EDGE('',*,*,#683,.F.);
#907=ORIENTED_EDGE('',*,*,#685,.F.);
#908=ORIENTED_EDGE('',*,*,#686,.F.);
#909=ORIENTED_EDGE('',*,*,#611,.F.);
#910=ORIENTED_EDGE('',*,*,#687,.T.);
#911=ORIENTED_EDGE('',*,*,#688,.T.);
#912=ORIENTED_EDGE('',*,*,#612,.T.);
#913=ORIENTED_EDGE('',*,*,#686,.T.);
#914=ORIENTED_EDGE('',*,*,#688,.F.);
#915=ORIENTED_EDGE('',*,*,#689,.F.);
#916=ORIENTED_EDGE('',*,*,#690,.T.);
#917=ORIENTED_EDGE('',*,*,#613,.F.);
#918=ORIENTED_EDGE('',*,*,#691,.T.);
#919=ORIENTED_EDGE('',*,*,#692,.T.);
#920=ORIENTED_EDGE('',*,*,#616,.T.);
#921=ORIENTED_EDGE('',*,*,#693,.T.);
#922=ORIENTED_EDGE('',*,*,#692,.F.);
#923=ORIENTED_EDGE('',*,*,#694,.F.);
#924=ORIENTED_EDGE('',*,*,#695,.F.);
#925=ORIENTED_EDGE('',*,*,#617,.F.);
#926=ORIENTED_EDGE('',*,*,#696,.T.);
#927=ORIENTED_EDGE('',*,*,#697,.T.);
#928=ORIENTED_EDGE('',*,*,#622,.T.);
#929=ORIENTED_EDGE('',*,*,#698,.T.);
#930=ORIENTED_EDGE('',*,*,#675,.F.);
#931=ORIENTED_EDGE('',*,*,#623,.F.);
#932=ORIENTED_EDGE('',*,*,#697,.F.);
#933=ORIENTED_EDGE('',*,*,#699,.F.);
#934=ORIENTED_EDGE('',*,*,#700,.T.);
#935=ORIENTED_EDGE('',*,*,#701,.T.);
#936=ORIENTED_EDGE('',*,*,#618,.T.);
#937=ORIENTED_EDGE('',*,*,#695,.T.);
#938=ORIENTED_EDGE('',*,*,#701,.F.);
#939=ORIENTED_EDGE('',*,*,#702,.F.);
#940=ORIENTED_EDGE('',*,*,#703,.T.);
#941=ORIENTED_EDGE('',*,*,#619,.F.);
#942=ORIENTED_EDGE('',*,*,#704,.F.);
#943=ORIENTED_EDGE('',*,*,#705,.F.);
#944=ORIENTED_EDGE('',*,*,#706,.F.);
#945=ORIENTED_EDGE('',*,*,#707,.F.);
#946=ORIENTED_EDGE('',*,*,#708,.F.);
#947=ORIENTED_EDGE('',*,*,#709,.F.);
#948=ORIENTED_EDGE('',*,*,#710,.F.);
#949=ORIENTED_EDGE('',*,*,#711,.F.);
#950=ORIENTED_EDGE('',*,*,#685,.T.);
#951=ORIENTED_EDGE('',*,*,#682,.F.);
#952=ORIENTED_EDGE('',*,*,#712,.T.);
#953=ORIENTED_EDGE('',*,*,#713,.T.);
#954=ORIENTED_EDGE('',*,*,#680,.T.);
#955=ORIENTED_EDGE('',*,*,#678,.F.);
#956=ORIENTED_EDGE('',*,*,#671,.T.);
#957=ORIENTED_EDGE('',*,*,#668,.F.);
#958=ORIENTED_EDGE('',*,*,#714,.T.);
#959=ORIENTED_EDGE('',*,*,#715,.T.);
#960=ORIENTED_EDGE('',*,*,#676,.T.);
#961=ORIENTED_EDGE('',*,*,#673,.F.);
#962=ORIENTED_EDGE('',*,*,#699,.T.);
#963=ORIENTED_EDGE('',*,*,#696,.F.);
#964=ORIENTED_EDGE('',*,*,#716,.T.);
#965=ORIENTED_EDGE('',*,*,#717,.T.);
#966=ORIENTED_EDGE('',*,*,#702,.T.);
#967=ORIENTED_EDGE('',*,*,#700,.F.);
#968=ORIENTED_EDGE('',*,*,#694,.T.);
#969=ORIENTED_EDGE('',*,*,#691,.F.);
#970=ORIENTED_EDGE('',*,*,#718,.T.);
#971=ORIENTED_EDGE('',*,*,#719,.T.);
#972=ORIENTED_EDGE('',*,*,#689,.T.);
#973=ORIENTED_EDGE('',*,*,#687,.F.);
#974=ORIENTED_EDGE('',*,*,#720,.T.);
#975=ORIENTED_EDGE('',*,*,#721,.T.);
#976=ORIENTED_EDGE('',*,*,#722,.T.);
#977=ORIENTED_EDGE('',*,*,#723,.T.);
#978=ORIENTED_EDGE('',*,*,#684,.F.);
#979=ORIENTED_EDGE('',*,*,#633,.F.);
#980=ORIENTED_EDGE('',*,*,#724,.F.);
#981=ORIENTED_EDGE('',*,*,#712,.F.);
#982=ORIENTED_EDGE('',*,*,#713,.F.);
#983=ORIENTED_EDGE('',*,*,#724,.T.);
#984=ORIENTED_EDGE('',*,*,#632,.F.);
#985=ORIENTED_EDGE('',*,*,#681,.F.);
#986=ORIENTED_EDGE('',*,*,#670,.F.);
#987=ORIENTED_EDGE('',*,*,#627,.F.);
#988=ORIENTED_EDGE('',*,*,#725,.F.);
#989=ORIENTED_EDGE('',*,*,#714,.F.);
#990=ORIENTED_EDGE('',*,*,#715,.F.);
#991=ORIENTED_EDGE('',*,*,#725,.T.);
#992=ORIENTED_EDGE('',*,*,#626,.F.);
#993=ORIENTED_EDGE('',*,*,#677,.F.);
#994=ORIENTED_EDGE('',*,*,#698,.F.);
#995=ORIENTED_EDGE('',*,*,#621,.F.);
#996=ORIENTED_EDGE('',*,*,#726,.F.);
#997=ORIENTED_EDGE('',*,*,#716,.F.);
#998=ORIENTED_EDGE('',*,*,#717,.F.);
#999=ORIENTED_EDGE('',*,*,#726,.T.);
#1000=ORIENTED_EDGE('',*,*,#620,.F.);
#1001=ORIENTED_EDGE('',*,*,#703,.F.);
#1002=ORIENTED_EDGE('',*,*,#693,.F.);
#1003=ORIENTED_EDGE('',*,*,#615,.F.);
#1004=ORIENTED_EDGE('',*,*,#727,.F.);
#1005=ORIENTED_EDGE('',*,*,#718,.F.);
#1006=ORIENTED_EDGE('',*,*,#719,.F.);
#1007=ORIENTED_EDGE('',*,*,#727,.T.);
#1008=ORIENTED_EDGE('',*,*,#614,.F.);
#1009=ORIENTED_EDGE('',*,*,#690,.F.);
#1010=ORIENTED_EDGE('',*,*,#635,.F.);
#1011=ORIENTED_EDGE('',*,*,#728,.T.);
#1012=ORIENTED_EDGE('',*,*,#720,.F.);
#1013=ORIENTED_EDGE('',*,*,#728,.F.);
#1014=ORIENTED_EDGE('',*,*,#636,.F.);
#1015=ORIENTED_EDGE('',*,*,#729,.T.);
#1016=ORIENTED_EDGE('',*,*,#721,.F.);
#1017=ORIENTED_EDGE('',*,*,#729,.F.);
#1018=ORIENTED_EDGE('',*,*,#637,.F.);
#1019=ORIENTED_EDGE('',*,*,#730,.T.);
#1020=ORIENTED_EDGE('',*,*,#722,.F.);
#1021=ORIENTED_EDGE('',*,*,#730,.F.);
#1022=ORIENTED_EDGE('',*,*,#638,.F.);
#1023=ORIENTED_EDGE('',*,*,#731,.T.);
#1024=ORIENTED_EDGE('',*,*,#723,.F.);
#1025=ORIENTED_EDGE('',*,*,#731,.F.);
#1026=ORIENTED_EDGE('',*,*,#704,.T.);
#1027=ORIENTED_EDGE('',*,*,#732,.T.);
#1028=ORIENTED_EDGE('',*,*,#667,.F.);
#1029=ORIENTED_EDGE('',*,*,#733,.F.);
#1030=ORIENTED_EDGE('',*,*,#705,.T.);
#1031=ORIENTED_EDGE('',*,*,#733,.T.);
#1032=ORIENTED_EDGE('',*,*,#666,.F.);
#1033=ORIENTED_EDGE('',*,*,#734,.F.);
#1034=ORIENTED_EDGE('',*,*,#706,.T.);
#1035=ORIENTED_EDGE('',*,*,#734,.T.);
#1036=ORIENTED_EDGE('',*,*,#665,.F.);
#1037=ORIENTED_EDGE('',*,*,#735,.F.);
#1038=ORIENTED_EDGE('',*,*,#707,.T.);
#1039=ORIENTED_EDGE('',*,*,#735,.T.);
#1040=ORIENTED_EDGE('',*,*,#664,.F.);
#1041=ORIENTED_EDGE('',*,*,#736,.F.);
#1042=ORIENTED_EDGE('',*,*,#708,.T.);
#1043=ORIENTED_EDGE('',*,*,#736,.T.);
#1044=ORIENTED_EDGE('',*,*,#663,.F.);
#1045=ORIENTED_EDGE('',*,*,#737,.F.);
#1046=ORIENTED_EDGE('',*,*,#709,.T.);
#1047=ORIENTED_EDGE('',*,*,#737,.T.);
#1048=ORIENTED_EDGE('',*,*,#662,.F.);
#1049=ORIENTED_EDGE('',*,*,#738,.F.);
#1050=ORIENTED_EDGE('',*,*,#710,.T.);
#1051=ORIENTED_EDGE('',*,*,#738,.T.);
#1052=ORIENTED_EDGE('',*,*,#661,.F.);
#1053=ORIENTED_EDGE('',*,*,#739,.F.);
#1054=ORIENTED_EDGE('',*,*,#711,.T.);
#1055=ORIENTED_EDGE('',*,*,#739,.T.);
#1056=ORIENTED_EDGE('',*,*,#660,.F.);
#1057=ORIENTED_EDGE('',*,*,#732,.F.);
#1058=ORIENTED_EDGE('',*,*,#593,.F.);
#1059=ORIENTED_EDGE('',*,*,#604,.T.);
#1060=ORIENTED_EDGE('',*,*,#657,.F.);
#1061=ORIENTED_EDGE('',*,*,#740,.F.);
#1062=ORIENTED_EDGE('',*,*,#596,.F.);
#1063=ORIENTED_EDGE('',*,*,#740,.T.);
#1064=ORIENTED_EDGE('',*,*,#654,.F.);
#1065=ORIENTED_EDGE('',*,*,#741,.F.);
#1066=ORIENTED_EDGE('',*,*,#599,.F.);
#1067=ORIENTED_EDGE('',*,*,#741,.T.);
#1068=ORIENTED_EDGE('',*,*,#651,.F.);
#1069=ORIENTED_EDGE('',*,*,#659,.F.);
#1070=TOROIDAL_SURFACE('',#1164,6.,1.);
#1071=TOROIDAL_SURFACE('',#1171,6.,1.);
#1072=TOROIDAL_SURFACE('',#1177,6.,1.);
#1073=TOROIDAL_SURFACE('',#1183,6.,1.);
#1074=TOROIDAL_SURFACE('',#1211,6.,1.);
#1075=TOROIDAL_SURFACE('',#1217,6.,1.);
#1076=TOROIDAL_SURFACE('',#1222,6.,1.);
#1077=TOROIDAL_SURFACE('',#1228,6.,1.);
#1078=ADVANCED_FACE('',(#265),#1070,.T.);
#1079=ADVANCED_FACE('',(#266),#233,.T.);
#1080=ADVANCED_FACE('',(#267),#1071,.T.);
#1081=ADVANCED_FACE('',(#268),#234,.T.);
#1082=ADVANCED_FACE('',(#269),#1072,.T.);
#1083=ADVANCED_FACE('',(#270),#235,.T.);
#1084=ADVANCED_FACE('',(#271),#1073,.T.);
#1085=ADVANCED_FACE('',(#272),#236,.T.);
#1086=ADVANCED_FACE('',(#273),#26,.T.);
#1087=ADVANCED_FACE('',(#274),#237,.T.);
#1088=ADVANCED_FACE('',(#275),#27,.T.);
#1089=ADVANCED_FACE('',(#276),#238,.T.);
#1090=ADVANCED_FACE('',(#277,#15,#16,#17,#18,#19),#28,.F.);
#1091=ADVANCED_FACE('',(#278),#1074,.T.);
#1092=ADVANCED_FACE('',(#279),#239,.T.);
#1093=ADVANCED_FACE('',(#280),#1075,.T.);
#1094=ADVANCED_FACE('',(#281),#240,.T.);
#1095=ADVANCED_FACE('',(#282),#1076,.T.);
#1096=ADVANCED_FACE('',(#283),#241,.T.);
#1097=ADVANCED_FACE('',(#284),#1077,.T.);
#1098=ADVANCED_FACE('',(#285),#242,.T.);
#1099=ADVANCED_FACE('',(#286),#29,.T.);
#1100=ADVANCED_FACE('',(#287,#20),#30,.T.);
#1101=ADVANCED_FACE('',(#288),#243,.F.);
#1102=ADVANCED_FACE('',(#289),#31,.T.);
#1103=ADVANCED_FACE('',(#290),#244,.F.);
#1104=ADVANCED_FACE('',(#291),#32,.T.);
#1105=ADVANCED_FACE('',(#292),#245,.F.);
#1106=ADVANCED_FACE('',(#293),#33,.T.);
#1107=ADVANCED_FACE('',(#294),#246,.F.);
#1108=ADVANCED_FACE('',(#295),#34,.T.);
#1109=ADVANCED_FACE('',(#296),#247,.F.);
#1110=ADVANCED_FACE('',(#297),#35,.T.);
#1111=ADVANCED_FACE('',(#298),#248,.F.);
#1112=ADVANCED_FACE('',(#299),#36,.T.);
#1113=ADVANCED_FACE('',(#300),#249,.F.);
#1114=ADVANCED_FACE('',(#301),#37,.T.);
#1115=ADVANCED_FACE('',(#302),#250,.F.);
#1116=ADVANCED_FACE('',(#303),#38,.T.);
#1117=ADVANCED_FACE('',(#304,#21,#22,#23,#24,#25),#39,.T.);
#1118=ADVANCED_FACE('',(#305),#40,.T.);
#1119=ADVANCED_FACE('',(#306),#251,.T.);
#1120=ADVANCED_FACE('',(#307),#41,.T.);
#1121=ADVANCED_FACE('',(#308),#252,.T.);
#1122=ADVANCED_FACE('',(#309),#42,.T.);
#1123=ADVANCED_FACE('',(#310),#253,.T.);
#1124=ADVANCED_FACE('',(#311),#43,.T.);
#1125=ADVANCED_FACE('',(#312),#254,.T.);
#1126=ADVANCED_FACE('',(#313),#255,.F.);
#1127=ADVANCED_FACE('',(#314),#256,.F.);
#1128=ADVANCED_FACE('',(#315),#257,.F.);
#1129=ADVANCED_FACE('',(#316),#258,.F.);
#1130=ADVANCED_FACE('',(#317),#259,.F.);
#1131=ADVANCED_FACE('',(#318),#44,.T.);
#1132=ADVANCED_FACE('',(#319),#260,.F.);
#1133=ADVANCED_FACE('',(#320),#45,.T.);
#1134=ADVANCED_FACE('',(#321),#261,.F.);
#1135=ADVANCED_FACE('',(#322),#46,.T.);
#1136=ADVANCED_FACE('',(#323),#262,.F.);
#1137=ADVANCED_FACE('',(#324),#47,.T.);
#1138=ADVANCED_FACE('',(#325),#263,.T.);
#1139=ADVANCED_FACE('',(#326),#48,.T.);
#1140=ADVANCED_FACE('',(#327),#264,.T.);
#1141=CLOSED_SHELL('',(#1078,#1079,#1080,#1081,#1082,#1083,#1084,#1085,
#1086,#1087,#1088,#1089,#1090,#1091,#1092,#1093,#1094,#1095,#1096,#1097,
#1098,#1099,#1100,#1101,#1102,#1103,#1104,#1105,#1106,#1107,#1108,#1109,
#1110,#1111,#1112,#1113,#1114,#1115,#1116,#1117,#1118,#1119,#1120,#1121,
#1122,#1123,#1124,#1125,#1126,#1127,#1128,#1129,#1130,#1131,#1132,#1133,
#1134,#1135,#1136,#1137,#1138,#1139,#1140));
#1142=DERIVED_UNIT_ELEMENT(#1145,1.);
#1143=DERIVED_UNIT_ELEMENT(#2000,-3.);
#1144=DIMENSIONAL_EXPONENTS(0.,1.,0.,0.,0.,0.,0.);
#1145=(
CONVERSION_BASED_UNIT('gram',#1147)
MASS_UNIT()
NAMED_UNIT(#1144)
);
#1146=(
MASS_UNIT()
NAMED_UNIT(*)
SI_UNIT(.KILO.,.GRAM.)
);
#1147=MASS_MEASURE_WITH_UNIT(MASS_MEASURE(0.001),#1146);
#1148=DERIVED_UNIT((#1142,#1143));
#1149=MEASURE_REPRESENTATION_ITEM('density measure',
POSITIVE_RATIO_MEASURE(0.93),#1148);
#1150=PROPERTY_DEFINITION_REPRESENTATION(#1155,#1152);
#1151=PROPERTY_DEFINITION_REPRESENTATION(#1156,#1153);
#1152=REPRESENTATION('material name',(#1154),#1997);
#1153=REPRESENTATION('density',(#1149),#1997);
#1154=DESCRIPTIVE_REPRESENTATION_ITEM('Gummi','Gummi');
#1155=PROPERTY_DEFINITION('material property','material name',#2007);
#1156=PROPERTY_DEFINITION('material property','density of part',#2007);
#1157=DATE_TIME_ROLE('creation_date');
#1158=APPLIED_DATE_AND_TIME_ASSIGNMENT(#1159,#1157,(#2007));
#1159=DATE_AND_TIME(#1160,#1161);
#1160=CALENDAR_DATE(2025,25,1);
#1161=LOCAL_TIME(0,0,0.,#1162);
#1162=COORDINATED_UNIVERSAL_TIME_OFFSET(0,0,.BEHIND.);
#1163=AXIS2_PLACEMENT_3D('',#1663,#1299,#1300);
#1164=AXIS2_PLACEMENT_3D('',#1664,#1301,#1302);
#1165=AXIS2_PLACEMENT_3D('',#1667,#1303,#1304);
#1166=AXIS2_PLACEMENT_3D('',#1669,#1305,#1306);
#1167=AXIS2_PLACEMENT_3D('',#1671,#1307,#1308);
#1168=AXIS2_PLACEMENT_3D('',#1672,#1309,#1310);
#1169=AXIS2_PLACEMENT_3D('',#1673,#1311,#1312);
#1170=AXIS2_PLACEMENT_3D('',#1676,#1313,#1314);
#1171=AXIS2_PLACEMENT_3D('',#1679,#1317,#1318);
#1172=AXIS2_PLACEMENT_3D('',#1682,#1319,#1320);
#1173=AXIS2_PLACEMENT_3D('',#1683,#1321,#1322);
#1174=AXIS2_PLACEMENT_3D('',#1684,#1323,#1324);
#1175=AXIS2_PLACEMENT_3D('',#1685,#1325,#1326);
#1176=AXIS2_PLACEMENT_3D('',#1688,#1327,#1328);
#1177=AXIS2_PLACEMENT_3D('',#1691,#1331,#1332);
#1178=AXIS2_PLACEMENT_3D('',#1694,#1333,#1334);
#1179=AXIS2_PLACEMENT_3D('',#1695,#1335,#1336);
#1180=AXIS2_PLACEMENT_3D('',#1696,#1337,#1338);
#1181=AXIS2_PLACEMENT_3D('',#1697,#1339,#1340);
#1182=AXIS2_PLACEMENT_3D('',#1700,#1341,#1342);
#1183=AXIS2_PLACEMENT_3D('',#1703,#1345,#1346);
#1184=AXIS2_PLACEMENT_3D('',#1706,#1347,#1348);
#1185=AXIS2_PLACEMENT_3D('',#1707,#1349,#1350);
#1186=AXIS2_PLACEMENT_3D('',#1708,#1351,#1352);
#1187=AXIS2_PLACEMENT_3D('',#1709,#1353,#1354);
#1188=AXIS2_PLACEMENT_3D('',#1712,#1357,#1358);
#1189=AXIS2_PLACEMENT_3D('',#1718,#1362,#1363);
#1190=AXIS2_PLACEMENT_3D('',#1721,#1365,#1366);
#1191=AXIS2_PLACEMENT_3D('',#1722,#1367,#1368);
#1192=AXIS2_PLACEMENT_3D('',#1726,#1371,#1372);
#1193=AXIS2_PLACEMENT_3D('',#1729,#1374,#1375);
#1194=AXIS2_PLACEMENT_3D('',#1730,#1376,#1377);
#1195=AXIS2_PLACEMENT_3D('',#1735,#1379,#1380);
#1196=AXIS2_PLACEMENT_3D('',#1739,#1382,#1383);
#1197=AXIS2_PLACEMENT_3D('',#1743,#1385,#1386);
#1198=AXIS2_PLACEMENT_3D('',#1747,#1388,#1389);
#1199=AXIS2_PLACEMENT_3D('',#1751,#1391,#1392);
#1200=AXIS2_PLACEMENT_3D('',#1755,#1394,#1395);
#1201=AXIS2_PLACEMENT_3D('',#1759,#1397,#1398);
#1202=AXIS2_PLACEMENT_3D('',#1763,#1400,#1401);
#1203=AXIS2_PLACEMENT_3D('',#1767,#1403,#1404);
#1204=AXIS2_PLACEMENT_3D('',#1771,#1406,#1407);
#1205=AXIS2_PLACEMENT_3D('',#1775,#1409,#1410);
#1206=AXIS2_PLACEMENT_3D('',#1778,#1412,#1413);
#1207=AXIS2_PLACEMENT_3D('',#1780,#1414,#1415);
#1208=AXIS2_PLACEMENT_3D('',#1782,#1416,#1417);
#1209=AXIS2_PLACEMENT_3D('',#1784,#1418,#1419);
#1210=AXIS2_PLACEMENT_3D('',#1786,#1420,#1421);
#1211=AXIS2_PLACEMENT_3D('',#1787,#1422,#1423);
#1212=AXIS2_PLACEMENT_3D('',#1789,#1424,#1425);
#1213=AXIS2_PLACEMENT_3D('',#1791,#1426,#1427);
#1214=AXIS2_PLACEMENT_3D('',#1792,#1428,#1429);
#1215=AXIS2_PLACEMENT_3D('',#1793,#1430,#1431);
#1216=AXIS2_PLACEMENT_3D('',#1795,#1432,#1433);
#1217=AXIS2_PLACEMENT_3D('',#1797,#1435,#1436);
#1218=AXIS2_PLACEMENT_3D('',#1799,#1437,#1438);
#1219=AXIS2_PLACEMENT_3D('',#1800,#1439,#1440);
#1220=AXIS2_PLACEMENT_3D('',#1801,#1441,#1442);
#1221=AXIS2_PLACEMENT_3D('',#1804,#1443,#1444);
#1222=AXIS2_PLACEMENT_3D('',#1807,#1447,#1448);
#1223=AXIS2_PLACEMENT_3D('',#1810,#1449,#1450);
#1224=AXIS2_PLACEMENT_3D('',#1811,#1451,#1452);
#1225=AXIS2_PLACEMENT_3D('',#1812,#1453,#1454);
#1226=AXIS2_PLACEMENT_3D('',#1813,#1455,#1456);
#1227=AXIS2_PLACEMENT_3D('',#1816,#1457,#1458);
#1228=AXIS2_PLACEMENT_3D('',#1819,#1461,#1462);
#1229=AXIS2_PLACEMENT_3D('',#1821,#1463,#1464);
#1230=AXIS2_PLACEMENT_3D('',#1822,#1465,#1466);
#1231=AXIS2_PLACEMENT_3D('',#1823,#1467,#1468);
#1232=AXIS2_PLACEMENT_3D('',#1824,#1469,#1470);
#1233=AXIS2_PLACEMENT_3D('',#1826,#1472,#1473);
#1234=AXIS2_PLACEMENT_3D('',#1828,#1475,#1476);
#1235=AXIS2_PLACEMENT_3D('',#1833,#1478,#1479);
#1236=AXIS2_PLACEMENT_3D('',#1837,#1481,#1482);
#1237=AXIS2_PLACEMENT_3D('',#1841,#1484,#1485);
#1238=AXIS2_PLACEMENT_3D('',#1844,#1487,#1488);
#1239=AXIS2_PLACEMENT_3D('',#1845,#1489,#1490);
#1240=AXIS2_PLACEMENT_3D('',#1848,#1491,#1492);
#1241=AXIS2_PLACEMENT_3D('',#1851,#1495,#1496);
#1242=AXIS2_PLACEMENT_3D('',#1855,#1499,#1500);
#1243=AXIS2_PLACEMENT_3D('',#1858,#1501,#1502);
#1244=AXIS2_PLACEMENT_3D('',#1861,#1505,#1506);
#1245=AXIS2_PLACEMENT_3D('',#1865,#1509,#1510);
#1246=AXIS2_PLACEMENT_3D('',#1867,#1511,#1512);
#1247=AXIS2_PLACEMENT_3D('',#1869,#1514,#1515);
#1248=AXIS2_PLACEMENT_3D('',#1873,#1518,#1519);
#1249=AXIS2_PLACEMENT_3D('',#1876,#1520,#1521);
#1250=AXIS2_PLACEMENT_3D('',#1879,#1524,#1525);
#1251=AXIS2_PLACEMENT_3D('',#1883,#1528,#1529);
#1252=AXIS2_PLACEMENT_3D('',#1885,#1530,#1531);
#1253=AXIS2_PLACEMENT_3D('',#1887,#1533,#1534);
#1254=AXIS2_PLACEMENT_3D('',#1891,#1537,#1538);
#1255=AXIS2_PLACEMENT_3D('',#1894,#1539,#1540);
#1256=AXIS2_PLACEMENT_3D('',#1897,#1543,#1544);
#1257=AXIS2_PLACEMENT_3D('',#1901,#1547,#1548);
#1258=AXIS2_PLACEMENT_3D('',#1904,#1549,#1550);
#1259=AXIS2_PLACEMENT_3D('',#1907,#1553,#1554);
#1260=AXIS2_PLACEMENT_3D('',#1909,#1556,#1557);
#1261=AXIS2_PLACEMENT_3D('',#1911,#1558,#1559);
#1262=AXIS2_PLACEMENT_3D('',#1913,#1561,#1562);
#1263=AXIS2_PLACEMENT_3D('',#1917,#1565,#1566);
#1264=AXIS2_PLACEMENT_3D('',#1920,#1567,#1568);
#1265=AXIS2_PLACEMENT_3D('',#1924,#1570,#1571);
#1266=AXIS2_PLACEMENT_3D('',#1928,#1573,#1574);
#1267=AXIS2_PLACEMENT_3D('',#1932,#1576,#1577);
#1268=AXIS2_PLACEMENT_3D('',#1936,#1580,#1581);
#1269=AXIS2_PLACEMENT_3D('',#1939,#1583,#1584);
#1270=AXIS2_PLACEMENT_3D('',#1942,#1586,#1587);
#1271=AXIS2_PLACEMENT_3D('',#1945,#1589,#1590);
#1272=AXIS2_PLACEMENT_3D('',#1947,#1591,#1592);
#1273=AXIS2_PLACEMENT_3D('',#1949,#1593,#1594);
#1274=AXIS2_PLACEMENT_3D('',#1951,#1595,#1596);
#1275=AXIS2_PLACEMENT_3D('',#1953,#1597,#1598);
#1276=AXIS2_PLACEMENT_3D('',#1954,#1599,#1600);
#1277=AXIS2_PLACEMENT_3D('',#1956,#1602,#1603);
#1278=AXIS2_PLACEMENT_3D('',#1957,#1604,#1605);
#1279=AXIS2_PLACEMENT_3D('',#1959,#1607,#1608);
#1280=AXIS2_PLACEMENT_3D('',#1960,#1609,#1610);
#1281=AXIS2_PLACEMENT_3D('',#1962,#1612,#1613);
#1282=AXIS2_PLACEMENT_3D('',#1963,#1614,#1615);
#1283=AXIS2_PLACEMENT_3D('',#1965,#1617,#1618);
#1284=AXIS2_PLACEMENT_3D('',#1966,#1619,#1620);
#1285=AXIS2_PLACEMENT_3D('',#1968,#1622,#1623);
#1286=AXIS2_PLACEMENT_3D('',#1970,#1625,#1626);
#1287=AXIS2_PLACEMENT_3D('',#1972,#1628,#1629);
#1288=AXIS2_PLACEMENT_3D('',#1974,#1631,#1632);
#1289=AXIS2_PLACEMENT_3D('',#1977,#1635,#1636);
#1290=AXIS2_PLACEMENT_3D('',#1979,#1638,#1639);
#1291=AXIS2_PLACEMENT_3D('',#1981,#1641,#1642);
#1292=AXIS2_PLACEMENT_3D('',#1983,#1644,#1645);
#1293=AXIS2_PLACEMENT_3D('',#1985,#1647,#1648);
#1294=AXIS2_PLACEMENT_3D('',#1987,#1650,#1651);
#1295=AXIS2_PLACEMENT_3D('',#1989,#1653,#1654);
#1296=AXIS2_PLACEMENT_3D('',#1990,#1655,#1656);
#1297=AXIS2_PLACEMENT_3D('',#1992,#1658,#1659);
#1298=AXIS2_PLACEMENT_3D('',#1994,#1661,#1662);
#1299=DIRECTION('axis',(0.,0.,1.));
#1300=DIRECTION('refdir',(1.,0.,0.));
#1301=DIRECTION('center_axis',(0.,-1.,0.));
#1302=DIRECTION('ref_axis',(0.,0.,-1.));
#1303=DIRECTION('center_axis',(-1.33226762955024E-14,0.,1.));
#1304=DIRECTION('ref_axis',(0.,-1.,0.));
#1305=DIRECTION('center_axis',(0.,-1.,0.));
#1306=DIRECTION('ref_axis',(0.707106781186542,0.,0.707106781186553));
#1307=DIRECTION('center_axis',(1.,0.,4.44089209850068E-15));
#1308=DIRECTION('ref_axis',(-4.44089209850068E-15,0.,1.));
#1309=DIRECTION('center_axis',(0.,1.,0.));
#1310=DIRECTION('ref_axis',(0.707106781186542,0.,0.707106781186553));
#1311=DIRECTION('center_axis',(-1.,0.,9.06304509898087E-17));
#1312=DIRECTION('ref_axis',(0.,-0.707106781186546,0.707106781186549));
#1313=DIRECTION('center_axis',(1.,0.,0.));
#1314=DIRECTION('ref_axis',(0.,0.,1.));
#1315=DIRECTION('',(1.,0.,-9.06304509898087E-17));
#1316=DIRECTION('',(-1.,0.,9.06304509898087E-17));
#1317=DIRECTION('center_axis',(0.,-1.,0.));
#1318=DIRECTION('ref_axis',(0.,0.,-1.));
#1319=DIRECTION('center_axis',(8.88178419700128E-15,0.,1.));
#1320=DIRECTION('ref_axis',(-1.,0.,8.88178419700128E-15));
#1321=DIRECTION('center_axis',(0.,1.,0.));
#1322=DIRECTION('ref_axis',(-0.707106781186544,0.,0.707106781186551));
#1323=DIRECTION('center_axis',(0.,-1.,0.));
#1324=DIRECTION('ref_axis',(-0.707106781186544,0.,0.707106781186551));
#1325=DIRECTION('center_axis',(-8.42238156612186E-16,0.,-1.));
#1326=DIRECTION('ref_axis',(-0.707106781186546,-0.707106781186549,0.));
#1327=DIRECTION('center_axis',(0.,0.,1.));
#1328=DIRECTION('ref_axis',(-1.,0.,0.));
#1329=DIRECTION('',(8.42238156612186E-16,0.,1.));
#1330=DIRECTION('',(-8.42238156612186E-16,0.,-1.));
#1331=DIRECTION('center_axis',(0.,-1.,0.));
#1332=DIRECTION('ref_axis',(0.,0.,-1.));
#1333=DIRECTION('center_axis',(-1.,0.,4.44089209850072E-15));
#1334=DIRECTION('ref_axis',(-4.44089209850072E-15,0.,-1.));
#1335=DIRECTION('center_axis',(0.,1.,0.));
#1336=DIRECTION('ref_axis',(-0.707106781186547,0.,-0.707106781186549));
#1337=DIRECTION('center_axis',(0.,-1.,0.));
#1338=DIRECTION('ref_axis',(-0.707106781186546,0.,-0.707106781186548));
#1339=DIRECTION('center_axis',(1.,0.,-1.54071766682675E-15));
#1340=DIRECTION('ref_axis',(-3.14018491736756E-15,-0.707106781186549,-0.707106781186546));
#1341=DIRECTION('center_axis',(-1.,0.,4.44089209850062E-15));
#1342=DIRECTION('ref_axis',(-4.44089209850062E-15,0.,-1.));
#1343=DIRECTION('',(-1.,0.,1.54071766682675E-15));
#1344=DIRECTION('',(1.,0.,-1.54071766682675E-15));
#1345=DIRECTION('center_axis',(0.,-1.,0.));
#1346=DIRECTION('ref_axis',(0.,0.,-1.));
#1347=DIRECTION('center_axis',(0.,0.,-1.));
#1348=DIRECTION('ref_axis',(1.,0.,0.));
#1349=DIRECTION('center_axis',(0.,1.,0.));
#1350=DIRECTION('ref_axis',(0.707106781186543,0.,-0.707106781186552));
#1351=DIRECTION('center_axis',(0.,-1.,0.));
#1352=DIRECTION('ref_axis',(0.707106781186543,0.,-0.707106781186552));
#1353=DIRECTION('center_axis',(-8.42238156612186E-16,0.,1.));
#1354=DIRECTION('ref_axis',(0.707106781186549,-0.707106781186546,0.));
#1355=DIRECTION('',(8.42238156612186E-16,0.,-1.));
#1356=DIRECTION('',(-8.42238156612186E-16,0.,1.));
#1357=DIRECTION('center_axis',(-1.,0.,8.42238156612186E-16));
#1358=DIRECTION('ref_axis',(8.42238156612186E-16,0.,1.));
#1359=DIRECTION('',(0.,1.,0.));
#1360=DIRECTION('',(8.42238156612186E-16,0.,1.));
#1361=DIRECTION('',(0.,1.,0.));
#1362=DIRECTION('center_axis',(0.,1.,0.));
#1363=DIRECTION('ref_axis',(-1.,0.,9.51619735392992E-15));
#1364=DIRECTION('',(0.,1.,0.));
#1365=DIRECTION('center_axis',(0.,1.,0.));
#1366=DIRECTION('ref_axis',(-0.707106781186544,0.,0.707106781186551));
#1367=DIRECTION('center_axis',(9.06304509898087E-17,0.,1.));
#1368=DIRECTION('ref_axis',(1.,0.,-9.06304509898087E-17));
#1369=DIRECTION('',(0.,-1.,0.));
#1370=DIRECTION('',(1.,0.,-9.06304509898087E-17));
#1371=DIRECTION('center_axis',(0.,1.,0.));
#1372=DIRECTION('ref_axis',(-5.70971841235796E-15,0.,1.));
#1373=DIRECTION('',(0.,1.,0.));
#1374=DIRECTION('center_axis',(0.,1.,0.));
#1375=DIRECTION('ref_axis',(0.707106781186542,0.,0.707106781186553));
#1376=DIRECTION('center_axis',(0.,1.,0.));
#1377=DIRECTION('ref_axis',(0.,0.,1.));
#1378=DIRECTION('',(-1.,0.,1.26882631385732E-15));
#1379=DIRECTION('center_axis',(0.,-1.,0.));
#1380=DIRECTION('ref_axis',(-0.707106781186548,0.,-0.707106781186548));
#1381=DIRECTION('',(0.,0.,1.));
#1382=DIRECTION('center_axis',(0.,-1.,0.));
#1383=DIRECTION('ref_axis',(-1.,0.,0.));
#1384=DIRECTION('',(-1.,0.,-1.48029736616687E-15));
#1385=DIRECTION('center_axis',(0.,-1.,0.));
#1386=DIRECTION('ref_axis',(-0.707106781186544,0.,-0.707106781186551));
#1387=DIRECTION('',(1.30164078749156E-15,0.,1.));
#1388=DIRECTION('center_axis',(0.,-1.,0.));
#1389=DIRECTION('ref_axis',(-0.707106781186548,0.,0.707106781186548));
#1390=DIRECTION('',(1.,0.,-4.44089209850062E-15));
#1391=DIRECTION('center_axis',(0.,-1.,0.));
#1392=DIRECTION('ref_axis',(-1.,0.,0.));
#1393=DIRECTION('',(2.96059473233377E-15,0.,1.));
#1394=DIRECTION('center_axis',(0.,-1.,0.));
#1395=DIRECTION('ref_axis',(-0.707106781186546,0.,0.707106781186549));
#1396=DIRECTION('',(1.,0.,-1.26882631385732E-15));
#1397=DIRECTION('center_axis',(0.,-1.,0.));
#1398=DIRECTION('ref_axis',(0.707106781186551,0.,0.707106781186544));
#1399=DIRECTION('',(0.,0.,-1.));
#1400=DIRECTION('center_axis',(0.,-1.,0.));
#1401=DIRECTION('ref_axis',(-1.,0.,0.));
#1402=DIRECTION('',(1.,0.,2.96059473233375E-15));
#1403=DIRECTION('center_axis',(0.,-1.,0.));
#1404=DIRECTION('ref_axis',(0.707106781186544,0.,0.707106781186551));
#1405=DIRECTION('',(-1.14850657719844E-15,0.,-1.));
#1406=DIRECTION('center_axis',(0.,-1.,0.));
#1407=DIRECTION('ref_axis',(0.707106781186541,0.,-0.707106781186554));
#1408=DIRECTION('',(-1.,0.,2.96059473233375E-15));
#1409=DIRECTION('center_axis',(0.,-1.,0.));
#1410=DIRECTION('ref_axis',(-1.,0.,0.));
#1411=DIRECTION('',(-2.96059473233377E-15,0.,-1.));
#1412=DIRECTION('center_axis',(0.,-1.,0.));
#1413=DIRECTION('ref_axis',(0.707106781186546,0.,-0.707106781186549));
#1414=DIRECTION('center_axis',(0.,1.,0.));
#1415=DIRECTION('ref_axis',(1.,0.,0.));
#1416=DIRECTION('center_axis',(0.,1.,0.));
#1417=DIRECTION('ref_axis',(1.,0.,0.));
#1418=DIRECTION('center_axis',(0.,1.,0.));
#1419=DIRECTION('ref_axis',(1.,0.,0.));
#1420=DIRECTION('center_axis',(0.,1.,0.));
#1421=DIRECTION('ref_axis',(1.,0.,0.));
#1422=DIRECTION('center_axis',(0.,1.,0.));
#1423=DIRECTION('ref_axis',(0.,0.,1.));
#1424=DIRECTION('center_axis',(8.88178419700128E-15,0.,1.));
#1425=DIRECTION('ref_axis',(0.,1.,0.));
#1426=DIRECTION('center_axis',(-1.,0.,0.));
#1427=DIRECTION('ref_axis',(0.,0.,1.));
#1428=DIRECTION('center_axis',(0.,-1.,0.));
#1429=DIRECTION('ref_axis',(-0.707106781186544,0.,0.707106781186551));
#1430=DIRECTION('center_axis',(1.,0.,-9.06304509898087E-17));
#1431=DIRECTION('ref_axis',(0.,0.707106781186546,0.707106781186549));
#1432=DIRECTION('center_axis',(-1.,0.,0.));
#1433=DIRECTION('ref_axis',(0.,0.,1.));
#1434=DIRECTION('',(-1.,0.,9.06304509898087E-17));
#1435=DIRECTION('center_axis',(0.,1.,0.));
#1436=DIRECTION('ref_axis',(0.,0.,1.));
#1437=DIRECTION('center_axis',(-1.33226762955024E-14,0.,1.));
#1438=DIRECTION('ref_axis',(1.,0.,1.33226762955024E-14));
#1439=DIRECTION('center_axis',(0.,-1.,0.));
#1440=DIRECTION('ref_axis',(0.707106781186542,0.,0.707106781186553));
#1441=DIRECTION('center_axis',(8.42238156612186E-16,0.,-1.));
#1442=DIRECTION('ref_axis',(0.707106781186549,0.707106781186546,0.));
#1443=DIRECTION('center_axis',(0.,0.,1.));
#1444=DIRECTION('ref_axis',(1.,0.,0.));
#1445=DIRECTION('',(-8.42238156612186E-16,0.,1.));
#1446=DIRECTION('',(8.42238156612186E-16,0.,-1.));
#1447=DIRECTION('center_axis',(0.,1.,0.));
#1448=DIRECTION('ref_axis',(0.,0.,1.));
#1449=DIRECTION('center_axis',(1.,0.,-8.88178419700113E-15));
#1450=DIRECTION('ref_axis',(-8.88178419700113E-15,0.,-1.));
#1451=DIRECTION('center_axis',(0.,-1.,0.));
#1452=DIRECTION('ref_axis',(0.707106781186543,0.,-0.707106781186552));
#1453=DIRECTION('center_axis',(0.,1.,0.));
#1454=DIRECTION('ref_axis',(0.707106781186543,0.,-0.707106781186552));
#1455=DIRECTION('center_axis',(-1.,0.,1.54071766682675E-15));
#1456=DIRECTION('ref_axis',(-3.14018491736756E-15,0.707106781186549,-0.707106781186546));
#1457=DIRECTION('center_axis',(1.,0.,-4.44089209850062E-15));
#1458=DIRECTION('ref_axis',(-4.44089209850062E-15,0.,-1.));
#1459=DIRECTION('',(1.,0.,-1.54071766682675E-15));
#1460=DIRECTION('',(-1.,0.,1.54071766682675E-15));
#1461=DIRECTION('center_axis',(0.,1.,0.));
#1462=DIRECTION('ref_axis',(0.,0.,1.));
#1463=DIRECTION('center_axis',(4.44089209850052E-15,0.,-1.));
#1464=DIRECTION('ref_axis',(-1.,0.,-4.44089209850052E-15));
#1465=DIRECTION('center_axis',(0.,-1.,0.));
#1466=DIRECTION('ref_axis',(-0.707106781186547,0.,-0.707106781186549));
#1467=DIRECTION('center_axis',(0.,1.,0.));
#1468=DIRECTION('ref_axis',(-0.707106781186546,0.,-0.707106781186548));
#1469=DIRECTION('center_axis',(8.42238156612186E-16,0.,1.));
#1470=DIRECTION('ref_axis',(-0.707106781186546,0.707106781186549,0.));
#1471=DIRECTION('',(-8.42238156612186E-16,0.,-1.));
#1472=DIRECTION('center_axis',(1.,0.,8.42238156612186E-16));
#1473=DIRECTION('ref_axis',(8.42238156612186E-16,0.,-1.));
#1474=DIRECTION('',(0.,1.,0.));
#1475=DIRECTION('center_axis',(0.,1.,0.));
#1476=DIRECTION('ref_axis',(0.,0.,1.));
#1477=DIRECTION('',(1.14850657719844E-15,0.,1.));
#1478=DIRECTION('center_axis',(0.,-1.,0.));
#1479=DIRECTION('ref_axis',(-2.96059473233376E-15,0.,-1.));
#1480=DIRECTION('',(-1.,0.,1.26882631385732E-15));
#1481=DIRECTION('center_axis',(0.,-1.,0.));
#1482=DIRECTION('ref_axis',(1.,0.,-7.89491928622338E-15));
#1483=DIRECTION('',(-1.30164078749156E-15,0.,-1.));
#1484=DIRECTION('center_axis',(0.,-1.,0.));
#1485=DIRECTION('ref_axis',(6.90805437544543E-15,0.,1.));
#1486=DIRECTION('',(1.,0.,-1.26882631385732E-15));
#1487=DIRECTION('center_axis',(0.,-1.,0.));
#1488=DIRECTION('ref_axis',(-1.,0.,2.96059473233377E-15));
#1489=DIRECTION('center_axis',(0.,-1.,0.));
#1490=DIRECTION('ref_axis',(0.707106781186544,0.,0.707106781186551));
#1491=DIRECTION('center_axis',(0.,1.,0.));
#1492=DIRECTION('ref_axis',(0.707106781186544,0.,0.707106781186551));
#1493=DIRECTION('',(0.,-1.,0.));
#1494=DIRECTION('',(0.,1.,0.));
#1495=DIRECTION('center_axis',(-1.,0.,1.14850657719844E-15));
#1496=DIRECTION('ref_axis',(-1.14850657719844E-15,0.,-1.));
#1497=DIRECTION('',(1.14850657719844E-15,0.,1.));
#1498=DIRECTION('',(0.,1.,0.));
#1499=DIRECTION('center_axis',(0.,-1.,0.));
#1500=DIRECTION('ref_axis',(0.707106781186551,0.,0.707106781186544));
#1501=DIRECTION('center_axis',(0.,1.,0.));
#1502=DIRECTION('ref_axis',(0.707106781186551,0.,0.707106781186544));
#1503=DIRECTION('',(0.,-1.,0.));
#1504=DIRECTION('',(0.,1.,0.));
#1505=DIRECTION('center_axis',(-1.,0.,0.));
#1506=DIRECTION('ref_axis',(0.,0.,-1.));
#1507=DIRECTION('',(0.,0.,1.));
#1508=DIRECTION('',(0.,-1.,0.));
#1509=DIRECTION('center_axis',(0.,-1.,0.));
#1510=DIRECTION('ref_axis',(0.707106781186541,0.,-0.707106781186554));
#1511=DIRECTION('center_axis',(0.,1.,0.));
#1512=DIRECTION('ref_axis',(0.707106781186541,0.,-0.707106781186554));
#1513=DIRECTION('',(0.,-1.,0.));
#1514=DIRECTION('center_axis',(2.96059473233375E-15,0.,1.));
#1515=DIRECTION('ref_axis',(-1.,0.,2.96059473233375E-15));
#1516=DIRECTION('',(1.,0.,-2.96059473233375E-15));
#1517=DIRECTION('',(0.,-1.,0.));
#1518=DIRECTION('center_axis',(0.,-1.,0.));
#1519=DIRECTION('ref_axis',(0.707106781186546,0.,-0.707106781186549));
#1520=DIRECTION('center_axis',(0.,1.,0.));
#1521=DIRECTION('ref_axis',(0.707106781186546,0.,-0.707106781186549));
#1522=DIRECTION('',(0.,-1.,0.));
#1523=DIRECTION('',(0.,1.,0.));
#1524=DIRECTION('center_axis',(1.26882631385732E-15,0.,1.));
#1525=DIRECTION('ref_axis',(-1.,0.,1.26882631385732E-15));
#1526=DIRECTION('',(1.,0.,-1.26882631385732E-15));
#1527=DIRECTION('',(0.,1.,0.));
#1528=DIRECTION('center_axis',(0.,-1.,0.));
#1529=DIRECTION('ref_axis',(-0.707106781186548,0.,-0.707106781186548));
#1530=DIRECTION('center_axis',(0.,1.,0.));
#1531=DIRECTION('ref_axis',(-0.707106781186548,0.,-0.707106781186548));
#1532=DIRECTION('',(0.,-1.,0.));
#1533=DIRECTION('center_axis',(1.,0.,0.));
#1534=DIRECTION('ref_axis',(0.,0.,1.));
#1535=DIRECTION('',(0.,0.,-1.));
#1536=DIRECTION('',(0.,-1.,0.));
#1537=DIRECTION('center_axis',(0.,-1.,0.));
#1538=DIRECTION('ref_axis',(-0.707106781186544,0.,-0.707106781186551));
#1539=DIRECTION('center_axis',(0.,1.,0.));
#1540=DIRECTION('ref_axis',(-0.707106781186544,0.,-0.707106781186551));
#1541=DIRECTION('',(0.,-1.,0.));
#1542=DIRECTION('',(0.,1.,0.));
#1543=DIRECTION('center_axis',(1.,0.,-1.30164078749156E-15));
#1544=DIRECTION('ref_axis',(1.30164078749156E-15,0.,1.));
#1545=DIRECTION('',(-1.30164078749156E-15,0.,-1.));
#1546=DIRECTION('',(0.,1.,0.));
#1547=DIRECTION('center_axis',(0.,-1.,0.));
#1548=DIRECTION('ref_axis',(-0.707106781186546,0.,0.707106781186549));
#1549=DIRECTION('center_axis',(0.,1.,0.));
#1550=DIRECTION('ref_axis',(-0.707106781186546,0.,0.707106781186549));
#1551=DIRECTION('',(0.,-1.,0.));
#1552=DIRECTION('',(0.,1.,0.));
#1553=DIRECTION('center_axis',(-1.26882631385732E-15,0.,-1.));
#1554=DIRECTION('ref_axis',(1.,0.,-1.26882631385732E-15));
#1555=DIRECTION('',(-1.,0.,1.26882631385732E-15));
#1556=DIRECTION('center_axis',(0.,-1.,0.));
#1557=DIRECTION('ref_axis',(-0.707106781186548,0.,0.707106781186548));
#1558=DIRECTION('center_axis',(0.,1.,0.));
#1559=DIRECTION('ref_axis',(-0.707106781186548,0.,0.707106781186548));
#1560=DIRECTION('',(0.,-1.,0.));
#1561=DIRECTION('center_axis',(-4.44089209850062E-15,0.,-1.));
#1562=DIRECTION('ref_axis',(1.,0.,-4.44089209850062E-15));
#1563=DIRECTION('',(-1.,0.,4.44089209850062E-15));
#1564=DIRECTION('',(0.,-1.,0.));
#1565=DIRECTION('center_axis',(0.,1.,0.));
#1566=DIRECTION('ref_axis',(0.,0.,1.));
#1567=DIRECTION('center_axis',(0.,-1.,0.));
#1568=DIRECTION('ref_axis',(-1.,0.,2.96059473233377E-15));
#1569=DIRECTION('',(1.,0.,-1.26882631385732E-15));
#1570=DIRECTION('center_axis',(0.,-1.,0.));
#1571=DIRECTION('ref_axis',(6.90805437544543E-15,0.,1.));
#1572=DIRECTION('',(-1.30164078749156E-15,0.,-1.));
#1573=DIRECTION('center_axis',(0.,-1.,0.));
#1574=DIRECTION('ref_axis',(1.,0.,-7.89491928622338E-15));
#1575=DIRECTION('',(-1.,0.,1.26882631385732E-15));
#1576=DIRECTION('center_axis',(0.,-1.,0.));
#1577=DIRECTION('ref_axis',(-2.96059473233376E-15,0.,-1.));
#1578=DIRECTION('',(1.14850657719844E-15,0.,1.));
#1579=DIRECTION('',(2.96059473233377E-15,0.,1.));
#1580=DIRECTION('center_axis',(0.,1.,0.));
#1581=DIRECTION('ref_axis',(-1.,0.,0.));
#1582=DIRECTION('',(-1.,0.,-2.96059473233375E-15));
#1583=DIRECTION('center_axis',(0.,1.,0.));
#1584=DIRECTION('ref_axis',(-1.,0.,0.));
#1585=DIRECTION('',(-2.96059473233377E-15,0.,-1.));
#1586=DIRECTION('center_axis',(0.,1.,0.));
#1587=DIRECTION('ref_axis',(-1.,0.,0.));
#1588=DIRECTION('',(1.,0.,1.48029736616687E-15));
#1589=DIRECTION('center_axis',(0.,1.,0.));
#1590=DIRECTION('ref_axis',(-1.,0.,0.));
#1591=DIRECTION('center_axis',(0.,-1.,0.));
#1592=DIRECTION('ref_axis',(1.,0.,0.));
#1593=DIRECTION('center_axis',(0.,-1.,0.));
#1594=DIRECTION('ref_axis',(1.,0.,0.));
#1595=DIRECTION('center_axis',(0.,-1.,0.));
#1596=DIRECTION('ref_axis',(1.,0.,0.));
#1597=DIRECTION('center_axis',(0.,-1.,0.));
#1598=DIRECTION('ref_axis',(1.,0.,0.));
#1599=DIRECTION('center_axis',(-1.,0.,2.96059473233377E-15));
#1600=DIRECTION('ref_axis',(-2.96059473233377E-15,0.,-1.));
#1601=DIRECTION('',(0.,-1.,0.));
#1602=DIRECTION('center_axis',(0.,-1.,0.));
#1603=DIRECTION('ref_axis',(-1.,0.,0.));
#1604=DIRECTION('center_axis',(2.96059473233375E-15,0.,-1.));
#1605=DIRECTION('ref_axis',(1.,0.,2.96059473233375E-15));
#1606=DIRECTION('',(0.,-1.,0.));
#1607=DIRECTION('center_axis',(0.,-1.,0.));
#1608=DIRECTION('ref_axis',(-1.,0.,0.));
#1609=DIRECTION('center_axis',(1.,0.,-2.96059473233377E-15));
#1610=DIRECTION('ref_axis',(2.96059473233377E-15,0.,1.));
#1611=DIRECTION('',(0.,-1.,0.));
#1612=DIRECTION('center_axis',(0.,-1.,0.));
#1613=DIRECTION('ref_axis',(-1.,0.,0.));
#1614=DIRECTION('center_axis',(-1.48029736616687E-15,0.,1.));
#1615=DIRECTION('ref_axis',(-1.,0.,-1.48029736616687E-15));
#1616=DIRECTION('',(0.,-1.,0.));
#1617=DIRECTION('center_axis',(0.,-1.,0.));
#1618=DIRECTION('ref_axis',(-1.,0.,0.));
#1619=DIRECTION('center_axis',(0.,-1.,0.));
#1620=DIRECTION('ref_axis',(1.,0.,0.));
#1621=DIRECTION('',(0.,1.,0.));
#1622=DIRECTION('center_axis',(0.,-1.,0.));
#1623=DIRECTION('ref_axis',(1.,0.,0.));
#1624=DIRECTION('',(0.,1.,0.));
#1625=DIRECTION('center_axis',(0.,-1.,0.));
#1626=DIRECTION('ref_axis',(1.,0.,0.));
#1627=DIRECTION('',(0.,1.,0.));
#1628=DIRECTION('center_axis',(0.,-1.,0.));
#1629=DIRECTION('ref_axis',(1.,0.,0.));
#1630=DIRECTION('',(0.,1.,0.));
#1631=DIRECTION('center_axis',(0.,1.,0.));
#1632=DIRECTION('ref_axis',(-1.,0.,2.96059473233377E-15));
#1633=DIRECTION('',(0.,1.,0.));
#1634=DIRECTION('',(0.,1.,0.));
#1635=DIRECTION('center_axis',(1.26882631385732E-15,0.,1.));
#1636=DIRECTION('ref_axis',(1.,0.,-1.26882631385732E-15));
#1637=DIRECTION('',(0.,1.,0.));
#1638=DIRECTION('center_axis',(0.,1.,0.));
#1639=DIRECTION('ref_axis',(6.90805437544543E-15,0.,1.));
#1640=DIRECTION('',(0.,1.,0.));
#1641=DIRECTION('center_axis',(1.,0.,-1.30164078749156E-15));
#1642=DIRECTION('ref_axis',(-1.30164078749156E-15,0.,-1.));
#1643=DIRECTION('',(0.,1.,0.));
#1644=DIRECTION('center_axis',(0.,1.,0.));
#1645=DIRECTION('ref_axis',(1.,0.,-7.89491928622338E-15));
#1646=DIRECTION('',(0.,1.,0.));
#1647=DIRECTION('center_axis',(-1.26882631385732E-15,0.,-1.));
#1648=DIRECTION('ref_axis',(-1.,0.,1.26882631385732E-15));
#1649=DIRECTION('',(0.,1.,0.));
#1650=DIRECTION('center_axis',(0.,1.,0.));
#1651=DIRECTION('ref_axis',(-2.96059473233376E-15,0.,-1.));
#1652=DIRECTION('',(0.,1.,0.));
#1653=DIRECTION('center_axis',(-1.,0.,1.14850657719844E-15));
#1654=DIRECTION('ref_axis',(1.14850657719844E-15,0.,1.));
#1655=DIRECTION('center_axis',(0.,1.,0.));
#1656=DIRECTION('ref_axis',(-4.44089209850064E-15,0.,-1.));
#1657=DIRECTION('',(0.,1.,0.));
#1658=DIRECTION('center_axis',(-1.54071766682675E-15,0.,-1.));
#1659=DIRECTION('ref_axis',(-1.,0.,1.54071766682675E-15));
#1660=DIRECTION('',(0.,1.,0.));
#1661=DIRECTION('center_axis',(0.,1.,0.));
#1662=DIRECTION('ref_axis',(1.,0.,-1.90323947078597E-15));
#1663=CARTESIAN_POINT('',(0.,0.,0.));
#1664=CARTESIAN_POINT('Origin',(24.5,-2.,29.));
#1665=CARTESIAN_POINT('',(30.5,-3.,29.0000000000001));
#1666=CARTESIAN_POINT('',(31.5,-2.,29.0000000000001));
#1667=CARTESIAN_POINT('Origin',(30.5,-2.,29.0000000000001));
#1668=CARTESIAN_POINT('',(24.5,-2.,36.));
#1669=CARTESIAN_POINT('Origin',(24.5,-2.,29.));
#1670=CARTESIAN_POINT('',(24.5,-3.,35.));
#1671=CARTESIAN_POINT('Origin',(24.5,-2.,35.));
#1672=CARTESIAN_POINT('Origin',(24.5,-3.,29.));
#1673=CARTESIAN_POINT('Origin',(-12.25,-2.,35.));
#1674=CARTESIAN_POINT('',(-24.5,-2.,36.));
#1675=CARTESIAN_POINT('',(-24.5,-3.,35.));
#1676=CARTESIAN_POINT('Origin',(-24.5,-2.,35.));
#1677=CARTESIAN_POINT('',(-12.25,-3.,35.));
#1678=CARTESIAN_POINT('',(-12.25,-2.,36.));
#1679=CARTESIAN_POINT('Origin',(-24.5,-2.,29.));
#1680=CARTESIAN_POINT('',(-31.5,-2.,29.0000000000001));
#1681=CARTESIAN_POINT('',(-30.5,-3.,29.0000000000001));
#1682=CARTESIAN_POINT('Origin',(-30.5,-2.,29.0000000000001));
#1683=CARTESIAN_POINT('Origin',(-24.5,-3.,29.));
#1684=CARTESIAN_POINT('Origin',(-24.5,-2.,29.));
#1685=CARTESIAN_POINT('Origin',(-30.5,-2.,-14.5));
#1686=CARTESIAN_POINT('',(-31.5,-2.,-29.));
#1687=CARTESIAN_POINT('',(-30.5,-3.,-29.));
#1688=CARTESIAN_POINT('Origin',(-30.5,-2.,-29.));
#1689=CARTESIAN_POINT('',(-30.5,-3.,-14.5));
#1690=CARTESIAN_POINT('',(-31.5,-2.,-14.5));
#1691=CARTESIAN_POINT('Origin',(-24.5,-2.,-29.));
#1692=CARTESIAN_POINT('',(-24.5,-2.,-36.));
#1693=CARTESIAN_POINT('',(-24.5,-3.,-35.));
#1694=CARTESIAN_POINT('Origin',(-24.5,-2.,-35.));
#1695=CARTESIAN_POINT('Origin',(-24.5,-3.,-29.));
#1696=CARTESIAN_POINT('Origin',(-24.5,-2.,-29.));
#1697=CARTESIAN_POINT('Origin',(12.2499999999999,-2.,-35.));
#1698=CARTESIAN_POINT('',(24.4999999999999,-2.,-36.));
#1699=CARTESIAN_POINT('',(24.4999999999999,-3.,-35.));
#1700=CARTESIAN_POINT('Origin',(24.4999999999999,-2.,-35.));
#1701=CARTESIAN_POINT('',(12.2499999999999,-3.,-35.));
#1702=CARTESIAN_POINT('',(12.2499999999999,-2.,-36.));
#1703=CARTESIAN_POINT('Origin',(24.5,-2.,-29.));
#1704=CARTESIAN_POINT('',(31.5,-2.,-29.));
#1705=CARTESIAN_POINT('',(30.5,-3.,-29.));
#1706=CARTESIAN_POINT('Origin',(30.5,-2.,-29.));
#1707=CARTESIAN_POINT('Origin',(24.5,-3.,-29.));
#1708=CARTESIAN_POINT('Origin',(24.5,-2.,-29.));
#1709=CARTESIAN_POINT('Origin',(30.5,-2.,14.5));
#1710=CARTESIAN_POINT('',(30.5,-3.,14.5));
#1711=CARTESIAN_POINT('',(31.5,-2.,14.5));
#1712=CARTESIAN_POINT('Origin',(-31.5,0.,-29.));
#1713=CARTESIAN_POINT('',(-31.5,1.,29.0000000000001));
#1714=CARTESIAN_POINT('',(-31.5,0.,29.0000000000001));
#1715=CARTESIAN_POINT('',(-31.5,1.,-29.));
#1716=CARTESIAN_POINT('',(-31.5,1.,-14.5));
#1717=CARTESIAN_POINT('',(-31.5,0.,-29.));
#1718=CARTESIAN_POINT('Origin',(-24.5,0.,29.));
#1719=CARTESIAN_POINT('',(-24.5,1.,36.));
#1720=CARTESIAN_POINT('',(-24.5,0.,36.));
#1721=CARTESIAN_POINT('Origin',(-24.5,1.,29.));
#1722=CARTESIAN_POINT('Origin',(-24.5,0.,36.));
#1723=CARTESIAN_POINT('',(24.5,1.,36.));
#1724=CARTESIAN_POINT('',(24.5,0.,36.));
#1725=CARTESIAN_POINT('',(-12.25,1.,36.));
#1726=CARTESIAN_POINT('Origin',(24.5,0.,29.));
#1727=CARTESIAN_POINT('',(31.5,1.,29.0000000000001));
#1728=CARTESIAN_POINT('',(31.5,0.,29.0000000000001));
#1729=CARTESIAN_POINT('Origin',(24.5,1.,29.));
#1730=CARTESIAN_POINT('Origin',(0.,-3.,-1.33226762955019E-14));
#1731=CARTESIAN_POINT('',(19.9999999999999,-3.,-32.));
#1732=CARTESIAN_POINT('',(-20.,-3.,-32.));
#1733=CARTESIAN_POINT('',(-24.5,-3.,-32.));
#1734=CARTESIAN_POINT('',(-21.,-3.,-31.));
#1735=CARTESIAN_POINT('Origin',(-20.,-3.,-31.));
#1736=CARTESIAN_POINT('',(-21.,-3.,-29.));
#1737=CARTESIAN_POINT('',(-21.,-3.,-29.));
#1738=CARTESIAN_POINT('',(-24.5,-3.,-25.5));
#1739=CARTESIAN_POINT('Origin',(-24.5,-3.,-29.));
#1740=CARTESIAN_POINT('',(-26.5,-3.,-25.5));
#1741=CARTESIAN_POINT('',(-27.5,-3.,-25.5));
#1742=CARTESIAN_POINT('',(-27.5,-3.,-24.5));
#1743=CARTESIAN_POINT('Origin',(-26.5,-3.,-24.5));
#1744=CARTESIAN_POINT('',(-27.4999999999999,-3.,24.5000000000001));
#1745=CARTESIAN_POINT('',(-27.4999999999999,-3.,29.));
#1746=CARTESIAN_POINT('',(-26.4999999999999,-3.,25.5000000000001));
#1747=CARTESIAN_POINT('Origin',(-26.4999999999999,-3.,24.5000000000001));
#1748=CARTESIAN_POINT('',(-24.5,-3.,25.5000000000001));
#1749=CARTESIAN_POINT('',(-24.5,-3.,25.5000000000001));
#1750=CARTESIAN_POINT('',(-20.9999999999999,-3.,29.0000000000001));
#1751=CARTESIAN_POINT('Origin',(-24.5,-3.,29.));
#1752=CARTESIAN_POINT('',(-20.9999999999999,-3.,31.0000000000001));
#1753=CARTESIAN_POINT('',(-20.9999999999999,-3.,32.));
#1754=CARTESIAN_POINT('',(-19.9999999999999,-3.,32.));
#1755=CARTESIAN_POINT('Origin',(-19.9999999999999,-3.,31.));
#1756=CARTESIAN_POINT('',(20.,-3.,32.));
#1757=CARTESIAN_POINT('',(24.5,-3.,32.));
#1758=CARTESIAN_POINT('',(21.,-3.,31.));
#1759=CARTESIAN_POINT('Origin',(20.,-3.,31.));
#1760=CARTESIAN_POINT('',(21.,-3.,29.));
#1761=CARTESIAN_POINT('',(21.,-3.,29.));
#1762=CARTESIAN_POINT('',(24.5,-3.,25.5));
#1763=CARTESIAN_POINT('Origin',(24.5,-3.,29.));
#1764=CARTESIAN_POINT('',(26.5,-3.,25.5));
#1765=CARTESIAN_POINT('',(27.5,-3.,25.5));
#1766=CARTESIAN_POINT('',(27.5,-3.,24.5));
#1767=CARTESIAN_POINT('Origin',(26.5,-3.,24.5));
#1768=CARTESIAN_POINT('',(27.5,-3.,-24.5000000000001));
#1769=CARTESIAN_POINT('',(27.4999999999999,-3.,-29.));
#1770=CARTESIAN_POINT('',(26.5,-3.,-25.5000000000001));
#1771=CARTESIAN_POINT('Origin',(26.5,-3.,-24.5000000000001));
#1772=CARTESIAN_POINT('',(24.5,-3.,-25.5000000000001));
#1773=CARTESIAN_POINT('',(24.5,-3.,-25.5000000000001));
#1774=CARTESIAN_POINT('',(20.9999999999999,-3.,-29.0000000000001));
#1775=CARTESIAN_POINT('Origin',(24.5,-3.,-29.));
#1776=CARTESIAN_POINT('',(20.9999999999999,-3.,-31.0000000000001));
#1777=CARTESIAN_POINT('',(20.9999999999999,-3.,-32.));
#1778=CARTESIAN_POINT('Origin',(19.9999999999999,-3.,-31.));
#1779=CARTESIAN_POINT('',(-26.15,-3.,29.));
#1780=CARTESIAN_POINT('Origin',(-24.5,-3.,29.));
#1781=CARTESIAN_POINT('',(22.85,-3.,29.));
#1782=CARTESIAN_POINT('Origin',(24.5,-3.,29.));
#1783=CARTESIAN_POINT('',(22.85,-3.,-29.));
#1784=CARTESIAN_POINT('Origin',(24.5,-3.,-29.));
#1785=CARTESIAN_POINT('',(-26.15,-3.,-29.));
#1786=CARTESIAN_POINT('Origin',(-24.5,-3.,-29.));
#1787=CARTESIAN_POINT('Origin',(-24.5,1.,29.));
#1788=CARTESIAN_POINT('',(-30.5,2.,29.0000000000001));
#1789=CARTESIAN_POINT('Origin',(-30.5,1.,29.0000000000001));
#1790=CARTESIAN_POINT('',(-24.5,2.,35.));
#1791=CARTESIAN_POINT('Origin',(-24.5,1.,35.));
#1792=CARTESIAN_POINT('Origin',(-24.5,2.,29.));
#1793=CARTESIAN_POINT('Origin',(-12.25,1.,35.));
#1794=CARTESIAN_POINT('',(24.5,2.,35.));
#1795=CARTESIAN_POINT('Origin',(24.5,1.,35.));
#1796=CARTESIAN_POINT('',(-12.25,2.,35.));
#1797=CARTESIAN_POINT('Origin',(24.5,1.,29.));
#1798=CARTESIAN_POINT('',(30.5,2.,29.0000000000001));
#1799=CARTESIAN_POINT('Origin',(30.5,1.,29.0000000000001));
#1800=CARTESIAN_POINT('Origin',(24.5,2.,29.));
#1801=CARTESIAN_POINT('Origin',(30.5,1.,14.5));
#1802=CARTESIAN_POINT('',(31.5,1.,-29.));
#1803=CARTESIAN_POINT('',(30.5,2.,-29.));
#1804=CARTESIAN_POINT('Origin',(30.5,1.,-29.));
#1805=CARTESIAN_POINT('',(30.5,2.,14.5));
#1806=CARTESIAN_POINT('',(31.5,1.,14.5));
#1807=CARTESIAN_POINT('Origin',(24.5,1.,-29.));
#1808=CARTESIAN_POINT('',(24.4999999999999,1.,-36.));
#1809=CARTESIAN_POINT('',(24.4999999999999,2.,-35.));
#1810=CARTESIAN_POINT('Origin',(24.4999999999999,1.,-35.));
#1811=CARTESIAN_POINT('Origin',(24.5,2.,-29.));
#1812=CARTESIAN_POINT('Origin',(24.5,1.,-29.));
#1813=CARTESIAN_POINT('Origin',(12.2499999999999,1.,-35.));
#1814=CARTESIAN_POINT('',(-24.5,1.,-36.));
#1815=CARTESIAN_POINT('',(-24.5,2.,-35.));
#1816=CARTESIAN_POINT('Origin',(-24.5,1.,-35.));
#1817=CARTESIAN_POINT('',(12.2499999999999,2.,-35.));
#1818=CARTESIAN_POINT('',(12.2499999999999,1.,-36.));
#1819=CARTESIAN_POINT('Origin',(-24.5,1.,-29.));
#1820=CARTESIAN_POINT('',(-30.5,2.,-29.));
#1821=CARTESIAN_POINT('Origin',(-30.5,1.,-29.));
#1822=CARTESIAN_POINT('Origin',(-24.5,2.,-29.));
#1823=CARTESIAN_POINT('Origin',(-24.5,1.,-29.));
#1824=CARTESIAN_POINT('Origin',(-30.5,1.,-14.5));
#1825=CARTESIAN_POINT('',(-30.5,2.,-14.5));
#1826=CARTESIAN_POINT('Origin',(31.5,0.,29.0000000000001));
#1827=CARTESIAN_POINT('',(31.5,0.,-29.));
#1828=CARTESIAN_POINT('Origin',(0.,2.,-1.33226762955019E-14));
#1829=CARTESIAN_POINT('',(29.,2.,-29.));
#1830=CARTESIAN_POINT('',(29.,2.,29.));
#1831=CARTESIAN_POINT('',(29.,2.,-29.));
#1832=CARTESIAN_POINT('',(24.5,2.,33.5));
#1833=CARTESIAN_POINT('Origin',(24.5,2.,29.));
#1834=CARTESIAN_POINT('',(-24.5,2.,33.5));
#1835=CARTESIAN_POINT('',(24.5,2.,33.5));
#1836=CARTESIAN_POINT('',(-29.,2.,29.));
#1837=CARTESIAN_POINT('Origin',(-24.5,2.,29.));
#1838=CARTESIAN_POINT('',(-29.,2.,-29.));
#1839=CARTESIAN_POINT('',(-29.,2.,29.));
#1840=CARTESIAN_POINT('',(-24.5,2.,-33.5));
#1841=CARTESIAN_POINT('Origin',(-24.5,2.,-29.));
#1842=CARTESIAN_POINT('',(24.5,2.,-33.5));
#1843=CARTESIAN_POINT('',(-24.5,2.,-33.5));
#1844=CARTESIAN_POINT('Origin',(24.5,2.,-29.));
#1845=CARTESIAN_POINT('Origin',(26.5,0.,24.5));
#1846=CARTESIAN_POINT('',(26.5,0.,25.5));
#1847=CARTESIAN_POINT('',(27.5,0.,24.5));
#1848=CARTESIAN_POINT('Origin',(26.5,0.,24.5));
#1849=CARTESIAN_POINT('',(27.5,0.,24.5));
#1850=CARTESIAN_POINT('',(26.5,0.,25.5));
#1851=CARTESIAN_POINT('Origin',(27.5,0.,25.5));
#1852=CARTESIAN_POINT('',(27.5,0.,-24.5000000000001));
#1853=CARTESIAN_POINT('',(27.4999999999999,0.,-29.));
#1854=CARTESIAN_POINT('',(27.5,0.,-24.5000000000001));
#1855=CARTESIAN_POINT('Origin',(20.,0.,31.));
#1856=CARTESIAN_POINT('',(20.,0.,32.));
#1857=CARTESIAN_POINT('',(21.,0.,31.));
#1858=CARTESIAN_POINT('Origin',(20.,0.,31.));
#1859=CARTESIAN_POINT('',(21.,0.,31.));
#1860=CARTESIAN_POINT('',(20.,0.,32.));
#1861=CARTESIAN_POINT('Origin',(21.,0.,32.));
#1862=CARTESIAN_POINT('',(21.,0.,29.));
#1863=CARTESIAN_POINT('',(21.,0.,29.));
#1864=CARTESIAN_POINT('',(21.,0.,29.));
#1865=CARTESIAN_POINT('Origin',(26.5,0.,-24.5000000000001));
#1866=CARTESIAN_POINT('',(26.5,0.,-25.5000000000001));
#1867=CARTESIAN_POINT('Origin',(26.5,0.,-24.5000000000001));
#1868=CARTESIAN_POINT('',(26.5,0.,-25.5000000000001));
#1869=CARTESIAN_POINT('Origin',(27.5,0.,-25.5000000000001));
#1870=CARTESIAN_POINT('',(24.5,0.,-25.5000000000001));
#1871=CARTESIAN_POINT('',(24.5,0.,-25.5000000000001));
#1872=CARTESIAN_POINT('',(24.5,0.,-25.5000000000001));
#1873=CARTESIAN_POINT('Origin',(19.9999999999999,0.,-31.));
#1874=CARTESIAN_POINT('',(20.9999999999999,0.,-31.0000000000001));
#1875=CARTESIAN_POINT('',(19.9999999999999,0.,-32.));
#1876=CARTESIAN_POINT('Origin',(19.9999999999999,0.,-31.));
#1877=CARTESIAN_POINT('',(19.9999999999999,0.,-32.));
#1878=CARTESIAN_POINT('',(20.9999999999999,0.,-31.0000000000001));
#1879=CARTESIAN_POINT('Origin',(20.9999999999999,0.,-32.));
#1880=CARTESIAN_POINT('',(-20.,0.,-32.));
#1881=CARTESIAN_POINT('',(-24.5,0.,-32.));
#1882=CARTESIAN_POINT('',(-20.,0.,-32.));
#1883=CARTESIAN_POINT('Origin',(-20.,0.,-31.));
#1884=CARTESIAN_POINT('',(-21.,0.,-31.));
#1885=CARTESIAN_POINT('Origin',(-20.,0.,-31.));
#1886=CARTESIAN_POINT('',(-21.,0.,-31.));
#1887=CARTESIAN_POINT('Origin',(-21.,0.,-32.));
#1888=CARTESIAN_POINT('',(-21.,0.,-29.));
#1889=CARTESIAN_POINT('',(-21.,0.,-29.));
#1890=CARTESIAN_POINT('',(-21.,0.,-29.));
#1891=CARTESIAN_POINT('Origin',(-26.5,0.,-24.5));
#1892=CARTESIAN_POINT('',(-26.5,0.,-25.5));
#1893=CARTESIAN_POINT('',(-27.5,0.,-24.5));
#1894=CARTESIAN_POINT('Origin',(-26.5,0.,-24.5));
#1895=CARTESIAN_POINT('',(-27.5,0.,-24.5));
#1896=CARTESIAN_POINT('',(-26.5,0.,-25.5));
#1897=CARTESIAN_POINT('Origin',(-27.5,0.,-25.5));
#1898=CARTESIAN_POINT('',(-27.4999999999999,0.,24.5000000000001));
#1899=CARTESIAN_POINT('',(-27.4999999999999,0.,29.));
#1900=CARTESIAN_POINT('',(-27.4999999999999,0.,24.5000000000001));
#1901=CARTESIAN_POINT('Origin',(-19.9999999999999,0.,31.));
#1902=CARTESIAN_POINT('',(-20.9999999999999,0.,31.0000000000001));
#1903=CARTESIAN_POINT('',(-19.9999999999999,0.,32.));
#1904=CARTESIAN_POINT('Origin',(-19.9999999999999,0.,31.));
#1905=CARTESIAN_POINT('',(-19.9999999999999,0.,32.));
#1906=CARTESIAN_POINT('',(-20.9999999999999,0.,31.0000000000001));
#1907=CARTESIAN_POINT('Origin',(-20.9999999999999,0.,32.));
#1908=CARTESIAN_POINT('',(24.5,0.,32.));
#1909=CARTESIAN_POINT('Origin',(-26.4999999999999,0.,24.5000000000001));
#1910=CARTESIAN_POINT('',(-26.4999999999999,0.,25.5000000000001));
#1911=CARTESIAN_POINT('Origin',(-26.4999999999999,0.,24.5000000000001));
#1912=CARTESIAN_POINT('',(-26.4999999999999,0.,25.5000000000001));
#1913=CARTESIAN_POINT('Origin',(-27.5,0.,25.5000000000001));
#1914=CARTESIAN_POINT('',(-24.5,0.,25.5000000000001));
#1915=CARTESIAN_POINT('',(-24.5,0.,25.5000000000001));
#1916=CARTESIAN_POINT('',(-24.5,0.,25.5000000000001));
#1917=CARTESIAN_POINT('Origin',(0.,0.,-1.33226762955019E-14));
#1918=CARTESIAN_POINT('',(24.5,0.,-33.5));
#1919=CARTESIAN_POINT('',(29.,0.,-29.));
#1920=CARTESIAN_POINT('Origin',(24.5,0.,-29.));
#1921=CARTESIAN_POINT('',(-24.5,0.,-33.5));
#1922=CARTESIAN_POINT('',(-24.5,0.,-33.5));
#1923=CARTESIAN_POINT('',(-29.,0.,-29.));
#1924=CARTESIAN_POINT('Origin',(-24.5,0.,-29.));
#1925=CARTESIAN_POINT('',(-29.,0.,29.));
#1926=CARTESIAN_POINT('',(-29.,0.,29.));
#1927=CARTESIAN_POINT('',(-24.5,0.,33.5));
#1928=CARTESIAN_POINT('Origin',(-24.5,0.,29.));
#1929=CARTESIAN_POINT('',(24.5,0.,33.5));
#1930=CARTESIAN_POINT('',(24.5,0.,33.5));
#1931=CARTESIAN_POINT('',(29.,0.,29.));
#1932=CARTESIAN_POINT('Origin',(24.5,0.,29.));
#1933=CARTESIAN_POINT('',(29.,0.,-29.));
#1934=CARTESIAN_POINT('',(20.9999999999999,0.,-29.0000000000001));
#1935=CARTESIAN_POINT('',(20.9999999999999,0.,-32.));
#1936=CARTESIAN_POINT('Origin',(24.5,0.,-29.));
#1937=CARTESIAN_POINT('',(24.5,0.,25.5));
#1938=CARTESIAN_POINT('',(27.5,0.,25.5));
#1939=CARTESIAN_POINT('Origin',(24.5,0.,29.));
#1940=CARTESIAN_POINT('',(-20.9999999999999,0.,29.0000000000001));
#1941=CARTESIAN_POINT('',(-20.9999999999999,0.,32.));
#1942=CARTESIAN_POINT('Origin',(-24.5,0.,29.));
#1943=CARTESIAN_POINT('',(-24.5,0.,-25.5));
#1944=CARTESIAN_POINT('',(-27.5,0.,-25.5));
#1945=CARTESIAN_POINT('Origin',(-24.5,0.,-29.));
#1946=CARTESIAN_POINT('',(-26.15,0.,29.));
#1947=CARTESIAN_POINT('Origin',(-24.5,0.,29.));
#1948=CARTESIAN_POINT('',(22.85,0.,29.));
#1949=CARTESIAN_POINT('Origin',(24.5,0.,29.));
#1950=CARTESIAN_POINT('',(22.85,0.,-29.));
#1951=CARTESIAN_POINT('Origin',(24.5,0.,-29.));
#1952=CARTESIAN_POINT('',(-26.15,0.,-29.));
#1953=CARTESIAN_POINT('Origin',(-24.5,0.,-29.));
#1954=CARTESIAN_POINT('Origin',(20.9999999999999,0.,-29.0000000000001));
#1955=CARTESIAN_POINT('',(20.9999999999999,0.,-29.0000000000001));
#1956=CARTESIAN_POINT('Origin',(24.5,0.,-29.));
#1957=CARTESIAN_POINT('Origin',(24.5,0.,25.5));
#1958=CARTESIAN_POINT('',(24.5,0.,25.5));
#1959=CARTESIAN_POINT('Origin',(24.5,0.,29.));
#1960=CARTESIAN_POINT('Origin',(-20.9999999999999,0.,29.0000000000001));
#1961=CARTESIAN_POINT('',(-20.9999999999999,0.,29.0000000000001));
#1962=CARTESIAN_POINT('Origin',(-24.5,0.,29.));
#1963=CARTESIAN_POINT('Origin',(-24.5,0.,-25.5));
#1964=CARTESIAN_POINT('',(-24.5,0.,-25.5));
#1965=CARTESIAN_POINT('Origin',(-24.5,0.,-29.));
#1966=CARTESIAN_POINT('Origin',(-24.5,0.,29.));
#1967=CARTESIAN_POINT('',(-26.15,0.,29.));
#1968=CARTESIAN_POINT('Origin',(24.5,0.,29.));
#1969=CARTESIAN_POINT('',(22.85,0.,29.));
#1970=CARTESIAN_POINT('Origin',(24.5,0.,-29.));
#1971=CARTESIAN_POINT('',(22.85,0.,-29.));
#1972=CARTESIAN_POINT('Origin',(-24.5,0.,-29.));
#1973=CARTESIAN_POINT('',(-26.15,0.,-29.));
#1974=CARTESIAN_POINT('Origin',(24.5,0.,-29.));
#1975=CARTESIAN_POINT('',(29.,0.,-29.));
#1976=CARTESIAN_POINT('',(24.5,0.,-33.5));
#1977=CARTESIAN_POINT('Origin',(-24.5,0.,-33.5));
#1978=CARTESIAN_POINT('',(-24.5,0.,-33.5));
#1979=CARTESIAN_POINT('Origin',(-24.5,0.,-29.));
#1980=CARTESIAN_POINT('',(-29.,0.,-29.));
#1981=CARTESIAN_POINT('Origin',(-29.,0.,29.));
#1982=CARTESIAN_POINT('',(-29.,0.,29.));
#1983=CARTESIAN_POINT('Origin',(-24.5,0.,29.));
#1984=CARTESIAN_POINT('',(-24.5,0.,33.5));
#1985=CARTESIAN_POINT('Origin',(24.5,0.,33.5));
#1986=CARTESIAN_POINT('',(24.5,0.,33.5));
#1987=CARTESIAN_POINT('Origin',(24.5,0.,29.));
#1988=CARTESIAN_POINT('',(29.,0.,29.));
#1989=CARTESIAN_POINT('Origin',(29.,0.,-29.));
#1990=CARTESIAN_POINT('Origin',(-24.5,0.,-29.));
#1991=CARTESIAN_POINT('',(-24.5,0.,-36.));
#1992=CARTESIAN_POINT('Origin',(24.4999999999999,0.,-36.));
#1993=CARTESIAN_POINT('',(24.4999999999999,0.,-36.));
#1994=CARTESIAN_POINT('Origin',(24.5,0.,-29.));
#1995=UNCERTAINTY_MEASURE_WITH_UNIT(LENGTH_MEASURE(0.01),#1999,
'DISTANCE_ACCURACY_VALUE',
'Maximum model space distance between geometric entities at asserted c
onnectivities');
#1996=UNCERTAINTY_MEASURE_WITH_UNIT(LENGTH_MEASURE(0.01),#1999,
'DISTANCE_ACCURACY_VALUE',
'Maximum model space distance between geometric entities at asserted c
onnectivities');
#1997=(
GEOMETRIC_REPRESENTATION_CONTEXT(3)
GLOBAL_UNCERTAINTY_ASSIGNED_CONTEXT((#1995))
GLOBAL_UNIT_ASSIGNED_CONTEXT((#1999,#2001,#2002))
REPRESENTATION_CONTEXT('','3D')
);
#1998=(
GEOMETRIC_REPRESENTATION_CONTEXT(3)
GLOBAL_UNCERTAINTY_ASSIGNED_CONTEXT((#1996))
GLOBAL_UNIT_ASSIGNED_CONTEXT((#1999,#2001,#2002))
REPRESENTATION_CONTEXT('','3D')
);
#1999=(
LENGTH_UNIT()
NAMED_UNIT(*)
SI_UNIT(.MILLI.,.METRE.)
);
#2000=(
LENGTH_UNIT()
NAMED_UNIT(*)
SI_UNIT(.CENTI.,.METRE.)
);
#2001=(
NAMED_UNIT(*)
PLANE_ANGLE_UNIT()
SI_UNIT($,.RADIAN.)
);
#2002=(
NAMED_UNIT(*)
SI_UNIT($,.STERADIAN.)
SOLID_ANGLE_UNIT()
);
#2003=SHAPE_DEFINITION_REPRESENTATION(#2004,#2005);
#2004=PRODUCT_DEFINITION_SHAPE('',$,#2007);
#2005=SHAPE_REPRESENTATION('',(#1163),#1997);
#2006=PRODUCT_DEFINITION_CONTEXT('part definition',#2011,'design');
#2007=PRODUCT_DEFINITION('Halterung_PCB','Halterung_PCB',#2008,#2006);
#2008=PRODUCT_DEFINITION_FORMATION('',$,#2013);
#2009=PRODUCT_RELATED_PRODUCT_CATEGORY('Halterung_PCB','Halterung_PCB',
(#2013));
#2010=APPLICATION_PROTOCOL_DEFINITION('international standard',
'automotive_design',2009,#2011);
#2011=APPLICATION_CONTEXT(
'Core Data for Automotive Mechanical Design Process');
#2012=PRODUCT_CONTEXT('part definition',#2011,'mechanical');
#2013=PRODUCT('Halterung_PCB','Halterung_PCB',$,(#2012));
#2014=PRESENTATION_STYLE_ASSIGNMENT((#2015));
#2015=SURFACE_STYLE_USAGE(.BOTH.,#2018);
#2016=SURFACE_STYLE_RENDERING_WITH_PROPERTIES($,#2022,(#2017));
#2017=SURFACE_STYLE_TRANSPARENT(0.);
#2018=SURFACE_SIDE_STYLE('',(#2019,#2016));
#2019=SURFACE_STYLE_FILL_AREA(#2020);
#2020=FILL_AREA_STYLE('',(#2021));
#2021=FILL_AREA_STYLE_COLOUR('',#2022);
#2022=COLOUR_RGB('',0.250980392156863,0.250980392156863,0.250980392156863);
ENDSEC;
END-ISO-10303-21;
