ISO-10303-21;
HEADER;
/* Generated by software containing ST-Developer
 * from STEP Tools, Inc. (www.steptools.com) 
 */

FILE_DESCRIPTION(
/* description */ (''),
/* implementation_level */ '2;1');

FILE_NAME(
/* name */ 'OLED_Halterung.stp',
/* time_stamp */ '2026-07-14T09:58:02+02:00',
/* author */ ('PascalHelfenstein'),
/* organization */ (''),
/* preprocessor_version */ 'ST-DEVELOPER v20.1',
/* originating_system */ 'Autodesk Inventor 2027',
/* authorisation */ '');

FILE_SCHEMA (('AUTOMOTIVE_DESIGN { 1 0 10303 214 3 1 1 }'));
ENDSEC;

DATA;
#10=MECHANICAL_DESIGN_GEOMETRIC_PRESENTATION_REPRESENTATION('',(#13),#1154);
#11=SHAPE_REPRESENTATION_RELATIONSHIP('SRR','None',#1161,#12);
#12=ADVANCED_BREP_SHAPE_REPRESENTATION('',(#14),#1153);
#13=STYLED_ITEM('',(#1170),#14);
#14=MANIFOLD_SOLID_BREP('Volumenk\X\F6rper1',#645);
#15=FACE_BOUND('',#94,.T.);
#16=FACE_BOUND('',#98,.T.);
#17=FACE_BOUND('',#102,.T.);
#18=FACE_BOUND('',#106,.T.);
#19=FACE_BOUND('',#109,.T.);
#20=FACE_BOUND('',#112,.T.);
#21=FACE_BOUND('',#115,.T.);
#22=FACE_BOUND('',#118,.T.);
#23=FACE_BOUND('',#128,.T.);
#24=FACE_BOUND('',#134,.T.);
#25=FACE_BOUND('',#136,.T.);
#26=FACE_BOUND('',#138,.T.);
#27=PLANE('',#675);
#28=PLANE('',#684);
#29=PLANE('',#693);
#30=PLANE('',#702);
#31=PLANE('',#706);
#32=PLANE('',#710);
#33=PLANE('',#714);
#34=PLANE('',#718);
#35=PLANE('',#720);
#36=PLANE('',#723);
#37=PLANE('',#724);
#38=PLANE('',#725);
#39=PLANE('',#728);
#40=PLANE('',#732);
#41=PLANE('',#733);
#42=PLANE('',#734);
#43=PLANE('',#739);
#44=PLANE('',#743);
#45=PLANE('',#744);
#46=PLANE('',#745);
#47=CYLINDRICAL_SURFACE('',#672,0.9);
#48=CYLINDRICAL_SURFACE('',#681,0.9);
#49=CYLINDRICAL_SURFACE('',#690,0.9);
#50=CYLINDRICAL_SURFACE('',#699,0.9);
#51=CYLINDRICAL_SURFACE('',#738,3.25);
#52=CYLINDRICAL_SURFACE('',#749,3.25);
#53=CYLINDRICAL_SURFACE('',#750,3.25);
#54=CYLINDRICAL_SURFACE('',#751,3.25);
#55=FACE_OUTER_BOUND('',#91,.T.);
#56=FACE_OUTER_BOUND('',#92,.T.);
#57=FACE_OUTER_BOUND('',#93,.T.);
#58=FACE_OUTER_BOUND('',#95,.T.);
#59=FACE_OUTER_BOUND('',#96,.T.);
#60=FACE_OUTER_BOUND('',#97,.T.);
#61=FACE_OUTER_BOUND('',#99,.T.);
#62=FACE_OUTER_BOUND('',#100,.T.);
#63=FACE_OUTER_BOUND('',#101,.T.);
#64=FACE_OUTER_BOUND('',#103,.T.);
#65=FACE_OUTER_BOUND('',#104,.T.);
#66=FACE_OUTER_BOUND('',#105,.T.);
#67=FACE_OUTER_BOUND('',#107,.T.);
#68=FACE_OUTER_BOUND('',#108,.T.);
#69=FACE_OUTER_BOUND('',#110,.T.);
#70=FACE_OUTER_BOUND('',#111,.T.);
#71=FACE_OUTER_BOUND('',#113,.T.);
#72=FACE_OUTER_BOUND('',#114,.T.);
#73=FACE_OUTER_BOUND('',#116,.T.);
#74=FACE_OUTER_BOUND('',#117,.T.);
#75=FACE_OUTER_BOUND('',#119,.T.);
#76=FACE_OUTER_BOUND('',#120,.T.);
#77=FACE_OUTER_BOUND('',#121,.T.);
#78=FACE_OUTER_BOUND('',#122,.T.);
#79=FACE_OUTER_BOUND('',#123,.T.);
#80=FACE_OUTER_BOUND('',#124,.T.);
#81=FACE_OUTER_BOUND('',#125,.T.);
#82=FACE_OUTER_BOUND('',#126,.T.);
#83=FACE_OUTER_BOUND('',#127,.T.);
#84=FACE_OUTER_BOUND('',#129,.T.);
#85=FACE_OUTER_BOUND('',#130,.T.);
#86=FACE_OUTER_BOUND('',#131,.T.);
#87=FACE_OUTER_BOUND('',#132,.T.);
#88=FACE_OUTER_BOUND('',#133,.T.);
#89=FACE_OUTER_BOUND('',#135,.T.);
#90=FACE_OUTER_BOUND('',#137,.T.);
#91=EDGE_LOOP('',(#421,#422,#423,#424,#425));
#92=EDGE_LOOP('',(#426,#427,#428,#429,#430,#431));
#93=EDGE_LOOP('',(#432));
#94=EDGE_LOOP('',(#433));
#95=EDGE_LOOP('',(#434,#435,#436,#437,#438));
#96=EDGE_LOOP('',(#439,#440,#441,#442,#443,#444));
#97=EDGE_LOOP('',(#445));
#98=EDGE_LOOP('',(#446));
#99=EDGE_LOOP('',(#447,#448,#449,#450,#451));
#100=EDGE_LOOP('',(#452,#453,#454,#455,#456,#457));
#101=EDGE_LOOP('',(#458));
#102=EDGE_LOOP('',(#459));
#103=EDGE_LOOP('',(#460,#461,#462,#463,#464));
#104=EDGE_LOOP('',(#465,#466,#467,#468,#469,#470));
#105=EDGE_LOOP('',(#471));
#106=EDGE_LOOP('',(#472));
#107=EDGE_LOOP('',(#473,#474,#475,#476,#477));
#108=EDGE_LOOP('',(#478));
#109=EDGE_LOOP('',(#479));
#110=EDGE_LOOP('',(#480,#481,#482,#483,#484));
#111=EDGE_LOOP('',(#485));
#112=EDGE_LOOP('',(#486));
#113=EDGE_LOOP('',(#487,#488,#489,#490,#491));
#114=EDGE_LOOP('',(#492));
#115=EDGE_LOOP('',(#493));
#116=EDGE_LOOP('',(#494,#495,#496,#497,#498));
#117=EDGE_LOOP('',(#499));
#118=EDGE_LOOP('',(#500));
#119=EDGE_LOOP('',(#501,#502,#503,#504));
#120=EDGE_LOOP('',(#505,#506,#507,#508));
#121=EDGE_LOOP('',(#509,#510,#511,#512));
#122=EDGE_LOOP('',(#513,#514,#515,#516));
#123=EDGE_LOOP('',(#517,#518,#519,#520,#521));
#124=EDGE_LOOP('',(#522,#523,#524,#525));
#125=EDGE_LOOP('',(#526,#527,#528,#529));
#126=EDGE_LOOP('',(#530,#531,#532,#533,#534));
#127=EDGE_LOOP('',(#535,#536,#537,#538,#539,#540,#541,#542,#543,#544,#545,
#546));
#128=EDGE_LOOP('',(#547,#548,#549,#550));
#129=EDGE_LOOP('',(#551,#552,#553,#554,#555));
#130=EDGE_LOOP('',(#556,#557,#558,#559));
#131=EDGE_LOOP('',(#560,#561,#562,#563));
#132=EDGE_LOOP('',(#564,#565,#566,#567,#568));
#133=EDGE_LOOP('',(#569,#570,#571,#572,#573,#574,#575,#576,#577,#578,#579,
#580));
#134=EDGE_LOOP('',(#581,#582,#583,#584));
#135=EDGE_LOOP('',(#585,#586,#587,#588));
#136=EDGE_LOOP('',(#589,#590,#591,#592));
#137=EDGE_LOOP('',(#593,#594,#595,#596));
#138=EDGE_LOOP('',(#597,#598,#599,#600));
#139=LINE('',#969,#181);
#140=LINE('',#975,#182);
#141=LINE('',#986,#183);
#142=LINE('',#992,#184);
#143=LINE('',#1003,#185);
#144=LINE('',#1009,#186);
#145=LINE('',#1020,#187);
#146=LINE('',#1026,#188);
#147=LINE('',#1036,#189);
#148=LINE('',#1043,#190);
#149=LINE('',#1050,#191);
#150=LINE('',#1057,#192);
#151=LINE('',#1066,#193);
#152=LINE('',#1069,#194);
#153=LINE('',#1072,#195);
#154=LINE('',#1074,#196);
#155=LINE('',#1075,#197);
#156=LINE('',#1078,#198);
#157=LINE('',#1080,#199);
#158=LINE('',#1081,#200);
#159=LINE('',#1090,#201);
#160=LINE('',#1095,#202);
#161=LINE('',#1098,#203);
#162=LINE('',#1100,#204);
#163=LINE('',#1101,#205);
#164=LINE('',#1104,#206);
#165=LINE('',#1106,#207);
#166=LINE('',#1107,#208);
#167=LINE('',#1114,#209);
#168=LINE('',#1115,#210);
#169=LINE('',#1121,#211);
#170=LINE('',#1125,#212);
#171=LINE('',#1129,#213);
#172=LINE('',#1131,#214);
#173=LINE('',#1132,#215);
#174=LINE('',#1135,#216);
#175=LINE('',#1137,#217);
#176=LINE('',#1138,#218);
#177=LINE('',#1145,#219);
#178=LINE('',#1146,#220);
#179=LINE('',#1148,#221);
#180=LINE('',#1150,#222);
#181=VECTOR('',#758,1.275);
#182=VECTOR('',#765,0.9);
#183=VECTOR('',#778,1.275);
#184=VECTOR('',#785,0.9);
#185=VECTOR('',#798,1.275);
#186=VECTOR('',#805,0.9);
#187=VECTOR('',#818,1.275);
#188=VECTOR('',#825,0.9);
#189=VECTOR('',#838,1.275);
#190=VECTOR('',#847,1.275);
#191=VECTOR('',#856,1.275);
#192=VECTOR('',#865,1.275);
#193=VECTOR('',#874,10.);
#194=VECTOR('',#877,10.);
#195=VECTOR('',#880,10.);
#196=VECTOR('',#881,10.);
#197=VECTOR('',#882,10.);
#198=VECTOR('',#885,10.);
#199=VECTOR('',#886,10.);
#200=VECTOR('',#887,10.);
#201=VECTOR('',#898,10.);
#202=VECTOR('',#903,10.);
#203=VECTOR('',#906,10.);
#204=VECTOR('',#907,10.);
#205=VECTOR('',#908,10.);
#206=VECTOR('',#911,10.);
#207=VECTOR('',#912,10.);
#208=VECTOR('',#913,10.);
#209=VECTOR('',#924,3.25);
#210=VECTOR('',#925,3.25);
#211=VECTOR('',#930,10.);
#212=VECTOR('',#933,10.);
#213=VECTOR('',#938,10.);
#214=VECTOR('',#939,10.);
#215=VECTOR('',#940,10.);
#216=VECTOR('',#943,10.);
#217=VECTOR('',#944,10.);
#218=VECTOR('',#945,10.);
#219=VECTOR('',#956,3.25);
#220=VECTOR('',#957,3.25);
#221=VECTOR('',#960,3.25);
#222=VECTOR('',#963,3.25);
#223=CIRCLE('',#669,1.65);
#224=CIRCLE('',#670,0.9);
#225=CIRCLE('',#671,0.9);
#226=CIRCLE('',#673,0.9);
#227=CIRCLE('',#674,0.9);
#228=CIRCLE('',#676,3.25);
#229=CIRCLE('',#678,1.65);
#230=CIRCLE('',#679,0.9);
#231=CIRCLE('',#680,0.9);
#232=CIRCLE('',#682,0.9);
#233=CIRCLE('',#683,0.9);
#234=CIRCLE('',#685,3.25);
#235=CIRCLE('',#687,1.65);
#236=CIRCLE('',#688,0.9);
#237=CIRCLE('',#689,0.9);
#238=CIRCLE('',#691,0.9);
#239=CIRCLE('',#692,0.9);
#240=CIRCLE('',#694,3.25);
#241=CIRCLE('',#696,1.65);
#242=CIRCLE('',#697,0.9);
#243=CIRCLE('',#698,0.9);
#244=CIRCLE('',#700,0.9);
#245=CIRCLE('',#701,0.9);
#246=CIRCLE('',#703,3.25);
#247=CIRCLE('',#705,1.65);
#248=CIRCLE('',#707,3.25);
#249=CIRCLE('',#709,1.65);
#250=CIRCLE('',#711,3.25);
#251=CIRCLE('',#713,1.65);
#252=CIRCLE('',#715,3.25);
#253=CIRCLE('',#717,1.65);
#254=CIRCLE('',#719,3.25);
#255=CIRCLE('',#721,3.25);
#256=CIRCLE('',#722,3.25);
#257=CIRCLE('',#726,3.25);
#258=CIRCLE('',#727,3.25);
#259=CIRCLE('',#729,3.25);
#260=CIRCLE('',#730,3.25);
#261=CIRCLE('',#731,3.25);
#262=CIRCLE('',#735,3.25);
#263=CIRCLE('',#736,3.25);
#264=CIRCLE('',#737,3.25);
#265=CIRCLE('',#740,3.25);
#266=CIRCLE('',#741,3.25);
#267=CIRCLE('',#742,3.25);
#268=CIRCLE('',#746,3.25);
#269=CIRCLE('',#747,3.25);
#270=CIRCLE('',#748,3.25);
#271=VERTEX_POINT('',#966);
#272=VERTEX_POINT('',#968);
#273=VERTEX_POINT('',#970);
#274=VERTEX_POINT('',#974);
#275=VERTEX_POINT('',#976);
#276=VERTEX_POINT('',#980);
#277=VERTEX_POINT('',#983);
#278=VERTEX_POINT('',#985);
#279=VERTEX_POINT('',#987);
#280=VERTEX_POINT('',#991);
#281=VERTEX_POINT('',#993);
#282=VERTEX_POINT('',#997);
#283=VERTEX_POINT('',#1000);
#284=VERTEX_POINT('',#1002);
#285=VERTEX_POINT('',#1004);
#286=VERTEX_POINT('',#1008);
#287=VERTEX_POINT('',#1010);
#288=VERTEX_POINT('',#1014);
#289=VERTEX_POINT('',#1017);
#290=VERTEX_POINT('',#1019);
#291=VERTEX_POINT('',#1021);
#292=VERTEX_POINT('',#1025);
#293=VERTEX_POINT('',#1027);
#294=VERTEX_POINT('',#1031);
#295=VERTEX_POINT('',#1034);
#296=VERTEX_POINT('',#1038);
#297=VERTEX_POINT('',#1041);
#298=VERTEX_POINT('',#1045);
#299=VERTEX_POINT('',#1048);
#300=VERTEX_POINT('',#1052);
#301=VERTEX_POINT('',#1055);
#302=VERTEX_POINT('',#1059);
#303=VERTEX_POINT('',#1062);
#304=VERTEX_POINT('',#1063);
#305=VERTEX_POINT('',#1065);
#306=VERTEX_POINT('',#1067);
#307=VERTEX_POINT('',#1071);
#308=VERTEX_POINT('',#1073);
#309=VERTEX_POINT('',#1077);
#310=VERTEX_POINT('',#1079);
#311=VERTEX_POINT('',#1086);
#312=VERTEX_POINT('',#1087);
#313=VERTEX_POINT('',#1089);
#314=VERTEX_POINT('',#1091);
#315=VERTEX_POINT('',#1093);
#316=VERTEX_POINT('',#1097);
#317=VERTEX_POINT('',#1099);
#318=VERTEX_POINT('',#1103);
#319=VERTEX_POINT('',#1105);
#320=VERTEX_POINT('',#1110);
#321=VERTEX_POINT('',#1117);
#322=VERTEX_POINT('',#1118);
#323=VERTEX_POINT('',#1120);
#324=VERTEX_POINT('',#1122);
#325=VERTEX_POINT('',#1124);
#326=VERTEX_POINT('',#1128);
#327=VERTEX_POINT('',#1130);
#328=VERTEX_POINT('',#1134);
#329=VERTEX_POINT('',#1136);
#330=VERTEX_POINT('',#1140);
#331=EDGE_CURVE('',#271,#271,#223,.T.);
#332=EDGE_CURVE('',#271,#272,#139,.T.);
#333=EDGE_CURVE('',#272,#273,#224,.T.);
#334=EDGE_CURVE('',#273,#272,#225,.T.);
#335=EDGE_CURVE('',#273,#274,#140,.T.);
#336=EDGE_CURVE('',#275,#274,#226,.T.);
#337=EDGE_CURVE('',#274,#275,#227,.T.);
#338=EDGE_CURVE('',#276,#276,#228,.T.);
#339=EDGE_CURVE('',#277,#277,#229,.T.);
#340=EDGE_CURVE('',#277,#278,#141,.T.);
#341=EDGE_CURVE('',#278,#279,#230,.T.);
#342=EDGE_CURVE('',#279,#278,#231,.T.);
#343=EDGE_CURVE('',#279,#280,#142,.T.);
#344=EDGE_CURVE('',#281,#280,#232,.T.);
#345=EDGE_CURVE('',#280,#281,#233,.T.);
#346=EDGE_CURVE('',#282,#282,#234,.T.);
#347=EDGE_CURVE('',#283,#283,#235,.T.);
#348=EDGE_CURVE('',#283,#284,#143,.T.);
#349=EDGE_CURVE('',#284,#285,#236,.T.);
#350=EDGE_CURVE('',#285,#284,#237,.T.);
#351=EDGE_CURVE('',#285,#286,#144,.T.);
#352=EDGE_CURVE('',#287,#286,#238,.T.);
#353=EDGE_CURVE('',#286,#287,#239,.T.);
#354=EDGE_CURVE('',#288,#288,#240,.T.);
#355=EDGE_CURVE('',#289,#289,#241,.T.);
#356=EDGE_CURVE('',#289,#290,#145,.T.);
#357=EDGE_CURVE('',#290,#291,#242,.T.);
#358=EDGE_CURVE('',#291,#290,#243,.T.);
#359=EDGE_CURVE('',#291,#292,#146,.T.);
#360=EDGE_CURVE('',#293,#292,#244,.T.);
#361=EDGE_CURVE('',#292,#293,#245,.T.);
#362=EDGE_CURVE('',#294,#294,#246,.T.);
#363=EDGE_CURVE('',#295,#295,#247,.T.);
#364=EDGE_CURVE('',#295,#293,#147,.T.);
#365=EDGE_CURVE('',#296,#296,#248,.T.);
#366=EDGE_CURVE('',#297,#297,#249,.T.);
#367=EDGE_CURVE('',#297,#287,#148,.T.);
#368=EDGE_CURVE('',#298,#298,#250,.T.);
#369=EDGE_CURVE('',#299,#299,#251,.T.);
#370=EDGE_CURVE('',#299,#281,#149,.T.);
#371=EDGE_CURVE('',#300,#300,#252,.T.);
#372=EDGE_CURVE('',#301,#301,#253,.T.);
#373=EDGE_CURVE('',#301,#275,#150,.T.);
#374=EDGE_CURVE('',#302,#302,#254,.T.);
#375=EDGE_CURVE('',#303,#304,#255,.T.);
#376=EDGE_CURVE('',#303,#305,#151,.T.);
#377=EDGE_CURVE('',#306,#305,#256,.T.);
#378=EDGE_CURVE('',#306,#304,#152,.T.);
#379=EDGE_CURVE('',#307,#303,#153,.T.);
#380=EDGE_CURVE('',#308,#307,#154,.T.);
#381=EDGE_CURVE('',#305,#308,#155,.T.);
#382=EDGE_CURVE('',#309,#306,#156,.T.);
#383=EDGE_CURVE('',#310,#309,#157,.T.);
#384=EDGE_CURVE('',#304,#310,#158,.T.);
#385=EDGE_CURVE('',#310,#307,#257,.T.);
#386=EDGE_CURVE('',#308,#309,#258,.T.);
#387=EDGE_CURVE('',#311,#312,#259,.T.);
#388=EDGE_CURVE('',#311,#313,#159,.T.);
#389=EDGE_CURVE('',#314,#313,#260,.T.);
#390=EDGE_CURVE('',#315,#314,#261,.T.);
#391=EDGE_CURVE('',#315,#312,#160,.T.);
#392=EDGE_CURVE('',#316,#311,#161,.T.);
#393=EDGE_CURVE('',#317,#316,#162,.T.);
#394=EDGE_CURVE('',#313,#317,#163,.T.);
#395=EDGE_CURVE('',#318,#315,#164,.T.);
#396=EDGE_CURVE('',#319,#318,#165,.T.);
#397=EDGE_CURVE('',#312,#319,#166,.T.);
#398=EDGE_CURVE('',#319,#316,#262,.T.);
#399=EDGE_CURVE('',#320,#318,#263,.T.);
#400=EDGE_CURVE('',#317,#320,#264,.T.);
#401=EDGE_CURVE('',#298,#320,#167,.T.);
#402=EDGE_CURVE('',#314,#288,#168,.T.);
#403=EDGE_CURVE('',#321,#322,#265,.T.);
#404=EDGE_CURVE('',#321,#323,#169,.T.);
#405=EDGE_CURVE('',#324,#323,#266,.T.);
#406=EDGE_CURVE('',#324,#325,#170,.T.);
#407=EDGE_CURVE('',#322,#325,#267,.T.);
#408=EDGE_CURVE('',#326,#321,#171,.T.);
#409=EDGE_CURVE('',#327,#326,#172,.T.);
#410=EDGE_CURVE('',#323,#327,#173,.T.);
#411=EDGE_CURVE('',#328,#324,#174,.T.);
#412=EDGE_CURVE('',#329,#328,#175,.T.);
#413=EDGE_CURVE('',#325,#329,#176,.T.);
#414=EDGE_CURVE('',#329,#330,#268,.T.);
#415=EDGE_CURVE('',#327,#328,#269,.T.);
#416=EDGE_CURVE('',#330,#326,#270,.T.);
#417=EDGE_CURVE('',#300,#330,#177,.T.);
#418=EDGE_CURVE('',#322,#282,#178,.T.);
#419=EDGE_CURVE('',#296,#294,#179,.T.);
#420=EDGE_CURVE('',#302,#276,#180,.T.);
#421=ORIENTED_EDGE('',*,*,#331,.T.);
#422=ORIENTED_EDGE('',*,*,#332,.T.);
#423=ORIENTED_EDGE('',*,*,#333,.T.);
#424=ORIENTED_EDGE('',*,*,#334,.T.);
#425=ORIENTED_EDGE('',*,*,#332,.F.);
#426=ORIENTED_EDGE('',*,*,#333,.F.);
#427=ORIENTED_EDGE('',*,*,#334,.F.);
#428=ORIENTED_EDGE('',*,*,#335,.T.);
#429=ORIENTED_EDGE('',*,*,#336,.F.);
#430=ORIENTED_EDGE('',*,*,#337,.F.);
#431=ORIENTED_EDGE('',*,*,#335,.F.);
#432=ORIENTED_EDGE('',*,*,#338,.T.);
#433=ORIENTED_EDGE('',*,*,#331,.F.);
#434=ORIENTED_EDGE('',*,*,#339,.T.);
#435=ORIENTED_EDGE('',*,*,#340,.T.);
#436=ORIENTED_EDGE('',*,*,#341,.T.);
#437=ORIENTED_EDGE('',*,*,#342,.T.);
#438=ORIENTED_EDGE('',*,*,#340,.F.);
#439=ORIENTED_EDGE('',*,*,#341,.F.);
#440=ORIENTED_EDGE('',*,*,#342,.F.);
#441=ORIENTED_EDGE('',*,*,#343,.T.);
#442=ORIENTED_EDGE('',*,*,#344,.F.);
#443=ORIENTED_EDGE('',*,*,#345,.F.);
#444=ORIENTED_EDGE('',*,*,#343,.F.);
#445=ORIENTED_EDGE('',*,*,#346,.T.);
#446=ORIENTED_EDGE('',*,*,#339,.F.);
#447=ORIENTED_EDGE('',*,*,#347,.T.);
#448=ORIENTED_EDGE('',*,*,#348,.T.);
#449=ORIENTED_EDGE('',*,*,#349,.T.);
#450=ORIENTED_EDGE('',*,*,#350,.T.);
#451=ORIENTED_EDGE('',*,*,#348,.F.);
#452=ORIENTED_EDGE('',*,*,#349,.F.);
#453=ORIENTED_EDGE('',*,*,#350,.F.);
#454=ORIENTED_EDGE('',*,*,#351,.T.);
#455=ORIENTED_EDGE('',*,*,#352,.F.);
#456=ORIENTED_EDGE('',*,*,#353,.F.);
#457=ORIENTED_EDGE('',*,*,#351,.F.);
#458=ORIENTED_EDGE('',*,*,#354,.T.);
#459=ORIENTED_EDGE('',*,*,#347,.F.);
#460=ORIENTED_EDGE('',*,*,#355,.T.);
#461=ORIENTED_EDGE('',*,*,#356,.T.);
#462=ORIENTED_EDGE('',*,*,#357,.T.);
#463=ORIENTED_EDGE('',*,*,#358,.T.);
#464=ORIENTED_EDGE('',*,*,#356,.F.);
#465=ORIENTED_EDGE('',*,*,#357,.F.);
#466=ORIENTED_EDGE('',*,*,#358,.F.);
#467=ORIENTED_EDGE('',*,*,#359,.T.);
#468=ORIENTED_EDGE('',*,*,#360,.F.);
#469=ORIENTED_EDGE('',*,*,#361,.F.);
#470=ORIENTED_EDGE('',*,*,#359,.F.);
#471=ORIENTED_EDGE('',*,*,#362,.T.);
#472=ORIENTED_EDGE('',*,*,#355,.F.);
#473=ORIENTED_EDGE('',*,*,#363,.T.);
#474=ORIENTED_EDGE('',*,*,#364,.T.);
#475=ORIENTED_EDGE('',*,*,#360,.T.);
#476=ORIENTED_EDGE('',*,*,#361,.T.);
#477=ORIENTED_EDGE('',*,*,#364,.F.);
#478=ORIENTED_EDGE('',*,*,#365,.T.);
#479=ORIENTED_EDGE('',*,*,#363,.F.);
#480=ORIENTED_EDGE('',*,*,#366,.T.);
#481=ORIENTED_EDGE('',*,*,#367,.T.);
#482=ORIENTED_EDGE('',*,*,#352,.T.);
#483=ORIENTED_EDGE('',*,*,#353,.T.);
#484=ORIENTED_EDGE('',*,*,#367,.F.);
#485=ORIENTED_EDGE('',*,*,#368,.T.);
#486=ORIENTED_EDGE('',*,*,#366,.F.);
#487=ORIENTED_EDGE('',*,*,#369,.T.);
#488=ORIENTED_EDGE('',*,*,#370,.T.);
#489=ORIENTED_EDGE('',*,*,#344,.T.);
#490=ORIENTED_EDGE('',*,*,#345,.T.);
#491=ORIENTED_EDGE('',*,*,#370,.F.);
#492=ORIENTED_EDGE('',*,*,#371,.T.);
#493=ORIENTED_EDGE('',*,*,#369,.F.);
#494=ORIENTED_EDGE('',*,*,#372,.T.);
#495=ORIENTED_EDGE('',*,*,#373,.T.);
#496=ORIENTED_EDGE('',*,*,#336,.T.);
#497=ORIENTED_EDGE('',*,*,#337,.T.);
#498=ORIENTED_EDGE('',*,*,#373,.F.);
#499=ORIENTED_EDGE('',*,*,#374,.T.);
#500=ORIENTED_EDGE('',*,*,#372,.F.);
#501=ORIENTED_EDGE('',*,*,#375,.F.);
#502=ORIENTED_EDGE('',*,*,#376,.T.);
#503=ORIENTED_EDGE('',*,*,#377,.F.);
#504=ORIENTED_EDGE('',*,*,#378,.T.);
#505=ORIENTED_EDGE('',*,*,#379,.F.);
#506=ORIENTED_EDGE('',*,*,#380,.F.);
#507=ORIENTED_EDGE('',*,*,#381,.F.);
#508=ORIENTED_EDGE('',*,*,#376,.F.);
#509=ORIENTED_EDGE('',*,*,#382,.F.);
#510=ORIENTED_EDGE('',*,*,#383,.F.);
#511=ORIENTED_EDGE('',*,*,#384,.F.);
#512=ORIENTED_EDGE('',*,*,#378,.F.);
#513=ORIENTED_EDGE('',*,*,#385,.F.);
#514=ORIENTED_EDGE('',*,*,#383,.T.);
#515=ORIENTED_EDGE('',*,*,#386,.F.);
#516=ORIENTED_EDGE('',*,*,#380,.T.);
#517=ORIENTED_EDGE('',*,*,#387,.F.);
#518=ORIENTED_EDGE('',*,*,#388,.T.);
#519=ORIENTED_EDGE('',*,*,#389,.F.);
#520=ORIENTED_EDGE('',*,*,#390,.F.);
#521=ORIENTED_EDGE('',*,*,#391,.T.);
#522=ORIENTED_EDGE('',*,*,#392,.F.);
#523=ORIENTED_EDGE('',*,*,#393,.F.);
#524=ORIENTED_EDGE('',*,*,#394,.F.);
#525=ORIENTED_EDGE('',*,*,#388,.F.);
#526=ORIENTED_EDGE('',*,*,#395,.F.);
#527=ORIENTED_EDGE('',*,*,#396,.F.);
#528=ORIENTED_EDGE('',*,*,#397,.F.);
#529=ORIENTED_EDGE('',*,*,#391,.F.);
#530=ORIENTED_EDGE('',*,*,#398,.F.);
#531=ORIENTED_EDGE('',*,*,#396,.T.);
#532=ORIENTED_EDGE('',*,*,#399,.F.);
#533=ORIENTED_EDGE('',*,*,#400,.F.);
#534=ORIENTED_EDGE('',*,*,#393,.T.);
#535=ORIENTED_EDGE('',*,*,#368,.F.);
#536=ORIENTED_EDGE('',*,*,#401,.T.);
#537=ORIENTED_EDGE('',*,*,#399,.T.);
#538=ORIENTED_EDGE('',*,*,#395,.T.);
#539=ORIENTED_EDGE('',*,*,#390,.T.);
#540=ORIENTED_EDGE('',*,*,#402,.T.);
#541=ORIENTED_EDGE('',*,*,#354,.F.);
#542=ORIENTED_EDGE('',*,*,#402,.F.);
#543=ORIENTED_EDGE('',*,*,#389,.T.);
#544=ORIENTED_EDGE('',*,*,#394,.T.);
#545=ORIENTED_EDGE('',*,*,#400,.T.);
#546=ORIENTED_EDGE('',*,*,#401,.F.);
#547=ORIENTED_EDGE('',*,*,#375,.T.);
#548=ORIENTED_EDGE('',*,*,#384,.T.);
#549=ORIENTED_EDGE('',*,*,#385,.T.);
#550=ORIENTED_EDGE('',*,*,#379,.T.);
#551=ORIENTED_EDGE('',*,*,#403,.F.);
#552=ORIENTED_EDGE('',*,*,#404,.T.);
#553=ORIENTED_EDGE('',*,*,#405,.F.);
#554=ORIENTED_EDGE('',*,*,#406,.T.);
#555=ORIENTED_EDGE('',*,*,#407,.F.);
#556=ORIENTED_EDGE('',*,*,#408,.F.);
#557=ORIENTED_EDGE('',*,*,#409,.F.);
#558=ORIENTED_EDGE('',*,*,#410,.F.);
#559=ORIENTED_EDGE('',*,*,#404,.F.);
#560=ORIENTED_EDGE('',*,*,#411,.F.);
#561=ORIENTED_EDGE('',*,*,#412,.F.);
#562=ORIENTED_EDGE('',*,*,#413,.F.);
#563=ORIENTED_EDGE('',*,*,#406,.F.);
#564=ORIENTED_EDGE('',*,*,#414,.F.);
#565=ORIENTED_EDGE('',*,*,#412,.T.);
#566=ORIENTED_EDGE('',*,*,#415,.F.);
#567=ORIENTED_EDGE('',*,*,#409,.T.);
#568=ORIENTED_EDGE('',*,*,#416,.F.);
#569=ORIENTED_EDGE('',*,*,#371,.F.);
#570=ORIENTED_EDGE('',*,*,#417,.T.);
#571=ORIENTED_EDGE('',*,*,#416,.T.);
#572=ORIENTED_EDGE('',*,*,#408,.T.);
#573=ORIENTED_EDGE('',*,*,#403,.T.);
#574=ORIENTED_EDGE('',*,*,#418,.T.);
#575=ORIENTED_EDGE('',*,*,#346,.F.);
#576=ORIENTED_EDGE('',*,*,#418,.F.);
#577=ORIENTED_EDGE('',*,*,#407,.T.);
#578=ORIENTED_EDGE('',*,*,#413,.T.);
#579=ORIENTED_EDGE('',*,*,#414,.T.);
#580=ORIENTED_EDGE('',*,*,#417,.F.);
#581=ORIENTED_EDGE('',*,*,#377,.T.);
#582=ORIENTED_EDGE('',*,*,#381,.T.);
#583=ORIENTED_EDGE('',*,*,#386,.T.);
#584=ORIENTED_EDGE('',*,*,#382,.T.);
#585=ORIENTED_EDGE('',*,*,#365,.F.);
#586=ORIENTED_EDGE('',*,*,#419,.T.);
#587=ORIENTED_EDGE('',*,*,#362,.F.);
#588=ORIENTED_EDGE('',*,*,#419,.F.);
#589=ORIENTED_EDGE('',*,*,#387,.T.);
#590=ORIENTED_EDGE('',*,*,#397,.T.);
#591=ORIENTED_EDGE('',*,*,#398,.T.);
#592=ORIENTED_EDGE('',*,*,#392,.T.);
#593=ORIENTED_EDGE('',*,*,#374,.F.);
#594=ORIENTED_EDGE('',*,*,#420,.T.);
#595=ORIENTED_EDGE('',*,*,#338,.F.);
#596=ORIENTED_EDGE('',*,*,#420,.F.);
#597=ORIENTED_EDGE('',*,*,#405,.T.);
#598=ORIENTED_EDGE('',*,*,#410,.T.);
#599=ORIENTED_EDGE('',*,*,#415,.T.);
#600=ORIENTED_EDGE('',*,*,#411,.T.);
#601=CONICAL_SURFACE('',#668,1.275,0.785398163397448);
#602=CONICAL_SURFACE('',#677,1.275,0.785398163397448);
#603=CONICAL_SURFACE('',#686,1.275,0.785398163397448);
#604=CONICAL_SURFACE('',#695,1.275,0.785398163397448);
#605=CONICAL_SURFACE('',#704,1.275,0.785398163397448);
#606=CONICAL_SURFACE('',#708,1.275,0.785398163397448);
#607=CONICAL_SURFACE('',#712,1.275,0.785398163397448);
#608=CONICAL_SURFACE('',#716,1.275,0.785398163397448);
#609=ADVANCED_FACE('',(#55),#601,.F.);
#610=ADVANCED_FACE('',(#56),#47,.F.);
#611=ADVANCED_FACE('',(#57,#15),#27,.F.);
#612=ADVANCED_FACE('',(#58),#602,.F.);
#613=ADVANCED_FACE('',(#59),#48,.F.);
#614=ADVANCED_FACE('',(#60,#16),#28,.F.);
#615=ADVANCED_FACE('',(#61),#603,.F.);
#616=ADVANCED_FACE('',(#62),#49,.F.);
#617=ADVANCED_FACE('',(#63,#17),#29,.F.);
#618=ADVANCED_FACE('',(#64),#604,.F.);
#619=ADVANCED_FACE('',(#65),#50,.F.);
#620=ADVANCED_FACE('',(#66,#18),#30,.F.);
#621=ADVANCED_FACE('',(#67),#605,.F.);
#622=ADVANCED_FACE('',(#68,#19),#31,.T.);
#623=ADVANCED_FACE('',(#69),#606,.F.);
#624=ADVANCED_FACE('',(#70,#20),#32,.T.);
#625=ADVANCED_FACE('',(#71),#607,.F.);
#626=ADVANCED_FACE('',(#72,#21),#33,.T.);
#627=ADVANCED_FACE('',(#73),#608,.F.);
#628=ADVANCED_FACE('',(#74,#22),#34,.T.);
#629=ADVANCED_FACE('',(#75),#35,.F.);
#630=ADVANCED_FACE('',(#76),#36,.T.);
#631=ADVANCED_FACE('',(#77),#37,.T.);
#632=ADVANCED_FACE('',(#78),#38,.T.);
#633=ADVANCED_FACE('',(#79),#39,.F.);
#634=ADVANCED_FACE('',(#80),#40,.T.);
#635=ADVANCED_FACE('',(#81),#41,.T.);
#636=ADVANCED_FACE('',(#82),#42,.T.);
#637=ADVANCED_FACE('',(#83,#23),#51,.T.);
#638=ADVANCED_FACE('',(#84),#43,.F.);
#639=ADVANCED_FACE('',(#85),#44,.T.);
#640=ADVANCED_FACE('',(#86),#45,.T.);
#641=ADVANCED_FACE('',(#87),#46,.T.);
#642=ADVANCED_FACE('',(#88,#24),#52,.T.);
#643=ADVANCED_FACE('',(#89,#25),#53,.T.);
#644=ADVANCED_FACE('',(#90,#26),#54,.T.);
#645=CLOSED_SHELL('',(#609,#610,#611,#612,#613,#614,#615,#616,#617,#618,
#619,#620,#621,#622,#623,#624,#625,#626,#627,#628,#629,#630,#631,#632,#633,
#634,#635,#636,#637,#638,#639,#640,#641,#642,#643,#644));
#646=DERIVED_UNIT_ELEMENT(#649,1.);
#647=DERIVED_UNIT_ELEMENT(#1156,-3.);
#648=DIMENSIONAL_EXPONENTS(0.,1.,0.,0.,0.,0.,0.);
#649=(
CONVERSION_BASED_UNIT('gram',#651)
MASS_UNIT()
NAMED_UNIT(#648)
);
#650=(
MASS_UNIT()
NAMED_UNIT(*)
SI_UNIT(.KILO.,.GRAM.)
);
#651=MASS_MEASURE_WITH_UNIT(MASS_MEASURE(0.001),#650);
#652=DERIVED_UNIT((#646,#647));
#653=MEASURE_REPRESENTATION_ITEM('density measure',
POSITIVE_RATIO_MEASURE(0.93),#652);
#654=PROPERTY_DEFINITION_REPRESENTATION(#659,#656);
#655=PROPERTY_DEFINITION_REPRESENTATION(#660,#657);
#656=REPRESENTATION('material name',(#658),#1153);
#657=REPRESENTATION('density',(#653),#1153);
#658=DESCRIPTIVE_REPRESENTATION_ITEM('Gummi','Gummi');
#659=PROPERTY_DEFINITION('material property','material name',#1163);
#660=PROPERTY_DEFINITION('material property','density of part',#1163);
#661=DATE_TIME_ROLE('creation_date');
#662=APPLIED_DATE_AND_TIME_ASSIGNMENT(#663,#661,(#1163));
#663=DATE_AND_TIME(#664,#665);
#664=CALENDAR_DATE(2024,23,12);
#665=LOCAL_TIME(0,0,0.,#666);
#666=COORDINATED_UNIVERSAL_TIME_OFFSET(0,0,.BEHIND.);
#667=AXIS2_PLACEMENT_3D('',#964,#752,#753);
#668=AXIS2_PLACEMENT_3D('',#965,#754,#755);
#669=AXIS2_PLACEMENT_3D('',#967,#756,#757);
#670=AXIS2_PLACEMENT_3D('',#971,#759,#760);
#671=AXIS2_PLACEMENT_3D('',#972,#761,#762);
#672=AXIS2_PLACEMENT_3D('',#973,#763,#764);
#673=AXIS2_PLACEMENT_3D('',#977,#766,#767);
#674=AXIS2_PLACEMENT_3D('',#978,#768,#769);
#675=AXIS2_PLACEMENT_3D('',#979,#770,#771);
#676=AXIS2_PLACEMENT_3D('',#981,#772,#773);
#677=AXIS2_PLACEMENT_3D('',#982,#774,#775);
#678=AXIS2_PLACEMENT_3D('',#984,#776,#777);
#679=AXIS2_PLACEMENT_3D('',#988,#779,#780);
#680=AXIS2_PLACEMENT_3D('',#989,#781,#782);
#681=AXIS2_PLACEMENT_3D('',#990,#783,#784);
#682=AXIS2_PLACEMENT_3D('',#994,#786,#787);
#683=AXIS2_PLACEMENT_3D('',#995,#788,#789);
#684=AXIS2_PLACEMENT_3D('',#996,#790,#791);
#685=AXIS2_PLACEMENT_3D('',#998,#792,#793);
#686=AXIS2_PLACEMENT_3D('',#999,#794,#795);
#687=AXIS2_PLACEMENT_3D('',#1001,#796,#797);
#688=AXIS2_PLACEMENT_3D('',#1005,#799,#800);
#689=AXIS2_PLACEMENT_3D('',#1006,#801,#802);
#690=AXIS2_PLACEMENT_3D('',#1007,#803,#804);
#691=AXIS2_PLACEMENT_3D('',#1011,#806,#807);
#692=AXIS2_PLACEMENT_3D('',#1012,#808,#809);
#693=AXIS2_PLACEMENT_3D('',#1013,#810,#811);
#694=AXIS2_PLACEMENT_3D('',#1015,#812,#813);
#695=AXIS2_PLACEMENT_3D('',#1016,#814,#815);
#696=AXIS2_PLACEMENT_3D('',#1018,#816,#817);
#697=AXIS2_PLACEMENT_3D('',#1022,#819,#820);
#698=AXIS2_PLACEMENT_3D('',#1023,#821,#822);
#699=AXIS2_PLACEMENT_3D('',#1024,#823,#824);
#700=AXIS2_PLACEMENT_3D('',#1028,#826,#827);
#701=AXIS2_PLACEMENT_3D('',#1029,#828,#829);
#702=AXIS2_PLACEMENT_3D('',#1030,#830,#831);
#703=AXIS2_PLACEMENT_3D('',#1032,#832,#833);
#704=AXIS2_PLACEMENT_3D('',#1033,#834,#835);
#705=AXIS2_PLACEMENT_3D('',#1035,#836,#837);
#706=AXIS2_PLACEMENT_3D('',#1037,#839,#840);
#707=AXIS2_PLACEMENT_3D('',#1039,#841,#842);
#708=AXIS2_PLACEMENT_3D('',#1040,#843,#844);
#709=AXIS2_PLACEMENT_3D('',#1042,#845,#846);
#710=AXIS2_PLACEMENT_3D('',#1044,#848,#849);
#711=AXIS2_PLACEMENT_3D('',#1046,#850,#851);
#712=AXIS2_PLACEMENT_3D('',#1047,#852,#853);
#713=AXIS2_PLACEMENT_3D('',#1049,#854,#855);
#714=AXIS2_PLACEMENT_3D('',#1051,#857,#858);
#715=AXIS2_PLACEMENT_3D('',#1053,#859,#860);
#716=AXIS2_PLACEMENT_3D('',#1054,#861,#862);
#717=AXIS2_PLACEMENT_3D('',#1056,#863,#864);
#718=AXIS2_PLACEMENT_3D('',#1058,#866,#867);
#719=AXIS2_PLACEMENT_3D('',#1060,#868,#869);
#720=AXIS2_PLACEMENT_3D('',#1061,#870,#871);
#721=AXIS2_PLACEMENT_3D('',#1064,#872,#873);
#722=AXIS2_PLACEMENT_3D('',#1068,#875,#876);
#723=AXIS2_PLACEMENT_3D('',#1070,#878,#879);
#724=AXIS2_PLACEMENT_3D('',#1076,#883,#884);
#725=AXIS2_PLACEMENT_3D('',#1082,#888,#889);
#726=AXIS2_PLACEMENT_3D('',#1083,#890,#891);
#727=AXIS2_PLACEMENT_3D('',#1084,#892,#893);
#728=AXIS2_PLACEMENT_3D('',#1085,#894,#895);
#729=AXIS2_PLACEMENT_3D('',#1088,#896,#897);
#730=AXIS2_PLACEMENT_3D('',#1092,#899,#900);
#731=AXIS2_PLACEMENT_3D('',#1094,#901,#902);
#732=AXIS2_PLACEMENT_3D('',#1096,#904,#905);
#733=AXIS2_PLACEMENT_3D('',#1102,#909,#910);
#734=AXIS2_PLACEMENT_3D('',#1108,#914,#915);
#735=AXIS2_PLACEMENT_3D('',#1109,#916,#917);
#736=AXIS2_PLACEMENT_3D('',#1111,#918,#919);
#737=AXIS2_PLACEMENT_3D('',#1112,#920,#921);
#738=AXIS2_PLACEMENT_3D('',#1113,#922,#923);
#739=AXIS2_PLACEMENT_3D('',#1116,#926,#927);
#740=AXIS2_PLACEMENT_3D('',#1119,#928,#929);
#741=AXIS2_PLACEMENT_3D('',#1123,#931,#932);
#742=AXIS2_PLACEMENT_3D('',#1126,#934,#935);
#743=AXIS2_PLACEMENT_3D('',#1127,#936,#937);
#744=AXIS2_PLACEMENT_3D('',#1133,#941,#942);
#745=AXIS2_PLACEMENT_3D('',#1139,#946,#947);
#746=AXIS2_PLACEMENT_3D('',#1141,#948,#949);
#747=AXIS2_PLACEMENT_3D('',#1142,#950,#951);
#748=AXIS2_PLACEMENT_3D('',#1143,#952,#953);
#749=AXIS2_PLACEMENT_3D('',#1144,#954,#955);
#750=AXIS2_PLACEMENT_3D('',#1147,#958,#959);
#751=AXIS2_PLACEMENT_3D('',#1149,#961,#962);
#752=DIRECTION('axis',(0.,0.,1.));
#753=DIRECTION('refdir',(1.,0.,0.));
#754=DIRECTION('center_axis',(0.,0.,-1.));
#755=DIRECTION('ref_axis',(-1.,0.,0.));
#756=DIRECTION('center_axis',(0.,0.,-1.));
#757=DIRECTION('ref_axis',(-1.,0.,0.));
#758=DIRECTION('',(-0.707106781186548,8.65956056235493E-17,0.707106781186547));
#759=DIRECTION('center_axis',(0.,0.,1.));
#760=DIRECTION('ref_axis',(-1.,0.,0.));
#761=DIRECTION('center_axis',(0.,0.,1.));
#762=DIRECTION('ref_axis',(-1.,0.,0.));
#763=DIRECTION('center_axis',(0.,0.,1.));
#764=DIRECTION('ref_axis',(1.,0.,0.));
#765=DIRECTION('',(0.,0.,1.));
#766=DIRECTION('center_axis',(0.,0.,-1.));
#767=DIRECTION('ref_axis',(-1.,0.,0.));
#768=DIRECTION('center_axis',(0.,0.,-1.));
#769=DIRECTION('ref_axis',(-1.,0.,0.));
#770=DIRECTION('center_axis',(0.,0.,1.));
#771=DIRECTION('ref_axis',(1.,0.,0.));
#772=DIRECTION('center_axis',(0.,0.,-1.));
#773=DIRECTION('ref_axis',(1.,0.,0.));
#774=DIRECTION('center_axis',(0.,0.,-1.));
#775=DIRECTION('ref_axis',(-1.,0.,0.));
#776=DIRECTION('center_axis',(0.,0.,-1.));
#777=DIRECTION('ref_axis',(-1.,0.,0.));
#778=DIRECTION('',(-0.707106781186548,8.65956056235493E-17,0.707106781186547));
#779=DIRECTION('center_axis',(0.,0.,1.));
#780=DIRECTION('ref_axis',(-1.,0.,0.));
#781=DIRECTION('center_axis',(0.,0.,1.));
#782=DIRECTION('ref_axis',(-1.,0.,0.));
#783=DIRECTION('center_axis',(0.,0.,1.));
#784=DIRECTION('ref_axis',(1.,0.,0.));
#785=DIRECTION('',(0.,0.,1.));
#786=DIRECTION('center_axis',(0.,0.,-1.));
#787=DIRECTION('ref_axis',(-1.,0.,0.));
#788=DIRECTION('center_axis',(0.,0.,-1.));
#789=DIRECTION('ref_axis',(-1.,0.,0.));
#790=DIRECTION('center_axis',(0.,0.,1.));
#791=DIRECTION('ref_axis',(1.,0.,0.));
#792=DIRECTION('center_axis',(0.,0.,-1.));
#793=DIRECTION('ref_axis',(1.,0.,0.));
#794=DIRECTION('center_axis',(0.,0.,-1.));
#795=DIRECTION('ref_axis',(-1.,0.,0.));
#796=DIRECTION('center_axis',(0.,0.,-1.));
#797=DIRECTION('ref_axis',(-1.,0.,0.));
#798=DIRECTION('',(-0.707106781186548,8.65956056235493E-17,0.707106781186547));
#799=DIRECTION('center_axis',(0.,0.,1.));
#800=DIRECTION('ref_axis',(-1.,0.,0.));
#801=DIRECTION('center_axis',(0.,0.,1.));
#802=DIRECTION('ref_axis',(-1.,0.,0.));
#803=DIRECTION('center_axis',(0.,0.,1.));
#804=DIRECTION('ref_axis',(1.,0.,0.));
#805=DIRECTION('',(0.,0.,1.));
#806=DIRECTION('center_axis',(0.,0.,-1.));
#807=DIRECTION('ref_axis',(-1.,0.,0.));
#808=DIRECTION('center_axis',(0.,0.,-1.));
#809=DIRECTION('ref_axis',(-1.,0.,0.));
#810=DIRECTION('center_axis',(0.,0.,1.));
#811=DIRECTION('ref_axis',(1.,0.,0.));
#812=DIRECTION('center_axis',(0.,0.,-1.));
#813=DIRECTION('ref_axis',(1.,0.,0.));
#814=DIRECTION('center_axis',(0.,0.,-1.));
#815=DIRECTION('ref_axis',(-1.,0.,0.));
#816=DIRECTION('center_axis',(0.,0.,-1.));
#817=DIRECTION('ref_axis',(-1.,0.,0.));
#818=DIRECTION('',(-0.707106781186548,8.65956056235493E-17,0.707106781186547));
#819=DIRECTION('center_axis',(0.,0.,1.));
#820=DIRECTION('ref_axis',(-1.,0.,0.));
#821=DIRECTION('center_axis',(0.,0.,1.));
#822=DIRECTION('ref_axis',(-1.,0.,0.));
#823=DIRECTION('center_axis',(0.,0.,1.));
#824=DIRECTION('ref_axis',(1.,0.,0.));
#825=DIRECTION('',(0.,0.,1.));
#826=DIRECTION('center_axis',(0.,0.,-1.));
#827=DIRECTION('ref_axis',(-1.,0.,0.));
#828=DIRECTION('center_axis',(0.,0.,-1.));
#829=DIRECTION('ref_axis',(-1.,0.,0.));
#830=DIRECTION('center_axis',(0.,0.,1.));
#831=DIRECTION('ref_axis',(1.,0.,0.));
#832=DIRECTION('center_axis',(0.,0.,-1.));
#833=DIRECTION('ref_axis',(1.,0.,0.));
#834=DIRECTION('center_axis',(0.,0.,1.));
#835=DIRECTION('ref_axis',(-1.,0.,0.));
#836=DIRECTION('center_axis',(0.,0.,1.));
#837=DIRECTION('ref_axis',(-1.,0.,0.));
#838=DIRECTION('',(-0.707106781186548,-8.65956056235493E-17,-0.707106781186547));
#839=DIRECTION('center_axis',(0.,0.,1.));
#840=DIRECTION('ref_axis',(1.,0.,0.));
#841=DIRECTION('center_axis',(0.,0.,1.));
#842=DIRECTION('ref_axis',(1.,0.,0.));
#843=DIRECTION('center_axis',(0.,0.,1.));
#844=DIRECTION('ref_axis',(-1.,0.,0.));
#845=DIRECTION('center_axis',(0.,0.,1.));
#846=DIRECTION('ref_axis',(-1.,0.,0.));
#847=DIRECTION('',(-0.707106781186548,-8.65956056235493E-17,-0.707106781186547));
#848=DIRECTION('center_axis',(0.,0.,1.));
#849=DIRECTION('ref_axis',(1.,0.,0.));
#850=DIRECTION('center_axis',(0.,0.,1.));
#851=DIRECTION('ref_axis',(1.,0.,0.));
#852=DIRECTION('center_axis',(0.,0.,1.));
#853=DIRECTION('ref_axis',(-1.,0.,0.));
#854=DIRECTION('center_axis',(0.,0.,1.));
#855=DIRECTION('ref_axis',(-1.,0.,0.));
#856=DIRECTION('',(-0.707106781186548,-8.65956056235493E-17,-0.707106781186547));
#857=DIRECTION('center_axis',(0.,0.,1.));
#858=DIRECTION('ref_axis',(1.,0.,0.));
#859=DIRECTION('center_axis',(0.,0.,1.));
#860=DIRECTION('ref_axis',(1.,0.,0.));
#861=DIRECTION('center_axis',(0.,0.,1.));
#862=DIRECTION('ref_axis',(-1.,0.,0.));
#863=DIRECTION('center_axis',(0.,0.,1.));
#864=DIRECTION('ref_axis',(-1.,0.,0.));
#865=DIRECTION('',(-0.707106781186548,-8.65956056235493E-17,-0.707106781186547));
#866=DIRECTION('center_axis',(0.,0.,1.));
#867=DIRECTION('ref_axis',(1.,0.,0.));
#868=DIRECTION('center_axis',(0.,0.,1.));
#869=DIRECTION('ref_axis',(1.,0.,0.));
#870=DIRECTION('center_axis',(0.,0.,1.));
#871=DIRECTION('ref_axis',(1.,0.,0.));
#872=DIRECTION('center_axis',(0.,0.,-1.));
#873=DIRECTION('ref_axis',(1.,0.,0.));
#874=DIRECTION('',(-1.85037170770859E-16,1.,0.));
#875=DIRECTION('center_axis',(0.,0.,-1.));
#876=DIRECTION('ref_axis',(1.,0.,0.));
#877=DIRECTION('',(1.70803542250024E-16,-1.,0.));
#878=DIRECTION('center_axis',(-1.,-1.85037170770859E-16,0.));
#879=DIRECTION('ref_axis',(1.85037170770859E-16,-1.,0.));
#880=DIRECTION('',(0.,0.,-1.));
#881=DIRECTION('',(1.85037170770859E-16,-1.,0.));
#882=DIRECTION('',(0.,0.,1.));
#883=DIRECTION('center_axis',(1.,1.70803542250024E-16,0.));
#884=DIRECTION('ref_axis',(-1.70803542250024E-16,1.,0.));
#885=DIRECTION('',(0.,0.,-1.));
#886=DIRECTION('',(-1.70803542250024E-16,1.,0.));
#887=DIRECTION('',(0.,0.,1.));
#888=DIRECTION('center_axis',(0.,0.,1.));
#889=DIRECTION('ref_axis',(1.,0.,0.));
#890=DIRECTION('center_axis',(0.,0.,1.));
#891=DIRECTION('ref_axis',(1.,0.,0.));
#892=DIRECTION('center_axis',(0.,0.,1.));
#893=DIRECTION('ref_axis',(1.,0.,0.));
#894=DIRECTION('center_axis',(0.,0.,1.));
#895=DIRECTION('ref_axis',(1.,0.,0.));
#896=DIRECTION('center_axis',(0.,0.,-1.));
#897=DIRECTION('ref_axis',(1.,0.,0.));
#898=DIRECTION('',(1.,1.8503717077086E-16,0.));
#899=DIRECTION('center_axis',(0.,0.,-1.));
#900=DIRECTION('ref_axis',(1.,0.,0.));
#901=DIRECTION('center_axis',(0.,0.,-1.));
#902=DIRECTION('ref_axis',(1.,0.,0.));
#903=DIRECTION('',(-1.,-1.70803542250024E-16,0.));
#904=DIRECTION('center_axis',(-1.8503717077086E-16,1.,0.));
#905=DIRECTION('ref_axis',(-1.,-1.8503717077086E-16,0.));
#906=DIRECTION('',(0.,0.,-1.));
#907=DIRECTION('',(-1.,-1.8503717077086E-16,0.));
#908=DIRECTION('',(0.,0.,1.));
#909=DIRECTION('center_axis',(1.70803542250024E-16,-1.,0.));
#910=DIRECTION('ref_axis',(1.,1.70803542250024E-16,0.));
#911=DIRECTION('',(0.,0.,-1.));
#912=DIRECTION('',(1.,1.70803542250024E-16,0.));
#913=DIRECTION('',(0.,0.,1.));
#914=DIRECTION('center_axis',(0.,0.,1.));
#915=DIRECTION('ref_axis',(1.,0.,0.));
#916=DIRECTION('center_axis',(0.,0.,1.));
#917=DIRECTION('ref_axis',(1.,0.,0.));
#918=DIRECTION('center_axis',(0.,0.,1.));
#919=DIRECTION('ref_axis',(1.,0.,0.));
#920=DIRECTION('center_axis',(0.,0.,1.));
#921=DIRECTION('ref_axis',(1.,0.,0.));
#922=DIRECTION('center_axis',(0.,0.,1.));
#923=DIRECTION('ref_axis',(1.,0.,0.));
#924=DIRECTION('',(0.,0.,-1.));
#925=DIRECTION('',(0.,0.,-1.));
#926=DIRECTION('center_axis',(0.,0.,1.));
#927=DIRECTION('ref_axis',(1.,0.,0.));
#928=DIRECTION('center_axis',(0.,0.,-1.));
#929=DIRECTION('ref_axis',(1.,0.,0.));
#930=DIRECTION('',(-1.,-6.16790569236198E-17,0.));
#931=DIRECTION('center_axis',(0.,0.,-1.));
#932=DIRECTION('ref_axis',(1.,0.,0.));
#933=DIRECTION('',(1.,1.70803542250024E-16,0.));
#934=DIRECTION('center_axis',(0.,0.,-1.));
#935=DIRECTION('ref_axis',(1.,0.,0.));
#936=DIRECTION('center_axis',(6.16790569236198E-17,-1.,0.));
#937=DIRECTION('ref_axis',(1.,6.16790569236198E-17,0.));
#938=DIRECTION('',(0.,0.,-1.));
#939=DIRECTION('',(1.,6.16790569236198E-17,0.));
#940=DIRECTION('',(0.,0.,1.));
#941=DIRECTION('center_axis',(-1.70803542250024E-16,1.,0.));
#942=DIRECTION('ref_axis',(-1.,-1.70803542250024E-16,0.));
#943=DIRECTION('',(0.,0.,-1.));
#944=DIRECTION('',(-1.,-1.70803542250024E-16,0.));
#945=DIRECTION('',(0.,0.,1.));
#946=DIRECTION('center_axis',(0.,0.,1.));
#947=DIRECTION('ref_axis',(1.,0.,0.));
#948=DIRECTION('center_axis',(0.,0.,1.));
#949=DIRECTION('ref_axis',(1.,0.,0.));
#950=DIRECTION('center_axis',(0.,0.,1.));
#951=DIRECTION('ref_axis',(1.,0.,0.));
#952=DIRECTION('center_axis',(0.,0.,1.));
#953=DIRECTION('ref_axis',(1.,0.,0.));
#954=DIRECTION('center_axis',(0.,0.,1.));
#955=DIRECTION('ref_axis',(1.,0.,0.));
#956=DIRECTION('',(0.,0.,-1.));
#957=DIRECTION('',(0.,0.,-1.));
#958=DIRECTION('center_axis',(0.,0.,1.));
#959=DIRECTION('ref_axis',(1.,0.,0.));
#960=DIRECTION('',(0.,0.,-1.));
#961=DIRECTION('center_axis',(0.,0.,1.));
#962=DIRECTION('ref_axis',(1.,0.,0.));
#963=DIRECTION('',(0.,0.,-1.));
#964=CARTESIAN_POINT('',(0.,0.,0.));
#965=CARTESIAN_POINT('Origin',(-11.,11.,-5.625));
#966=CARTESIAN_POINT('',(-9.35,11.,-6.));
#967=CARTESIAN_POINT('Origin',(-11.,11.,-6.));
#968=CARTESIAN_POINT('',(-10.1,11.,-5.25));
#969=CARTESIAN_POINT('',(-9.725,11.,-5.625));
#970=CARTESIAN_POINT('',(-11.9,11.,-5.25));
#971=CARTESIAN_POINT('Origin',(-11.,11.,-5.25));
#972=CARTESIAN_POINT('Origin',(-11.,11.,-5.25));
#973=CARTESIAN_POINT('Origin',(-11.,11.,0.));
#974=CARTESIAN_POINT('',(-11.9,11.,5.25));
#975=CARTESIAN_POINT('',(-11.9,11.,0.));
#976=CARTESIAN_POINT('',(-10.1,11.,5.25));
#977=CARTESIAN_POINT('Origin',(-11.,11.,5.25));
#978=CARTESIAN_POINT('Origin',(-11.,11.,5.25));
#979=CARTESIAN_POINT('Origin',(-11.,11.,-6.));
#980=CARTESIAN_POINT('',(-14.25,11.,-6.));
#981=CARTESIAN_POINT('Origin',(-11.,11.,-6.));
#982=CARTESIAN_POINT('Origin',(11.,11.,-5.625));
#983=CARTESIAN_POINT('',(12.65,11.,-6.));
#984=CARTESIAN_POINT('Origin',(11.,11.,-6.));
#985=CARTESIAN_POINT('',(11.9,11.,-5.25));
#986=CARTESIAN_POINT('',(12.275,11.,-5.625));
#987=CARTESIAN_POINT('',(10.1,11.,-5.25));
#988=CARTESIAN_POINT('Origin',(11.,11.,-5.25));
#989=CARTESIAN_POINT('Origin',(11.,11.,-5.25));
#990=CARTESIAN_POINT('Origin',(11.,11.,0.));
#991=CARTESIAN_POINT('',(10.1,11.,5.25));
#992=CARTESIAN_POINT('',(10.1,11.,0.));
#993=CARTESIAN_POINT('',(11.9,11.,5.25));
#994=CARTESIAN_POINT('Origin',(11.,11.,5.25));
#995=CARTESIAN_POINT('Origin',(11.,11.,5.25));
#996=CARTESIAN_POINT('Origin',(11.,11.,-6.));
#997=CARTESIAN_POINT('',(7.75,11.,-6.));
#998=CARTESIAN_POINT('Origin',(11.,11.,-6.));
#999=CARTESIAN_POINT('Origin',(11.,-11.,-5.625));
#1000=CARTESIAN_POINT('',(12.65,-11.,-6.));
#1001=CARTESIAN_POINT('Origin',(11.,-11.,-6.));
#1002=CARTESIAN_POINT('',(11.9,-11.,-5.25));
#1003=CARTESIAN_POINT('',(12.275,-11.,-5.625));
#1004=CARTESIAN_POINT('',(10.1,-11.,-5.25));
#1005=CARTESIAN_POINT('Origin',(11.,-11.,-5.25));
#1006=CARTESIAN_POINT('Origin',(11.,-11.,-5.25));
#1007=CARTESIAN_POINT('Origin',(11.,-11.,0.));
#1008=CARTESIAN_POINT('',(10.1,-11.,5.25));
#1009=CARTESIAN_POINT('',(10.1,-11.,0.));
#1010=CARTESIAN_POINT('',(11.9,-11.,5.25));
#1011=CARTESIAN_POINT('Origin',(11.,-11.,5.25));
#1012=CARTESIAN_POINT('Origin',(11.,-11.,5.25));
#1013=CARTESIAN_POINT('Origin',(11.,-11.,-6.));
#1014=CARTESIAN_POINT('',(7.75,-11.,-6.));
#1015=CARTESIAN_POINT('Origin',(11.,-11.,-6.));
#1016=CARTESIAN_POINT('Origin',(-11.,-11.,-5.625));
#1017=CARTESIAN_POINT('',(-9.35,-11.,-6.));
#1018=CARTESIAN_POINT('Origin',(-11.,-11.,-6.));
#1019=CARTESIAN_POINT('',(-10.1,-11.,-5.25));
#1020=CARTESIAN_POINT('',(-9.725,-11.,-5.625));
#1021=CARTESIAN_POINT('',(-11.9,-11.,-5.25));
#1022=CARTESIAN_POINT('Origin',(-11.,-11.,-5.25));
#1023=CARTESIAN_POINT('Origin',(-11.,-11.,-5.25));
#1024=CARTESIAN_POINT('Origin',(-11.,-11.,0.));
#1025=CARTESIAN_POINT('',(-11.9,-11.,5.25));
#1026=CARTESIAN_POINT('',(-11.9,-11.,0.));
#1027=CARTESIAN_POINT('',(-10.1,-11.,5.25));
#1028=CARTESIAN_POINT('Origin',(-11.,-11.,5.25));
#1029=CARTESIAN_POINT('Origin',(-11.,-11.,5.25));
#1030=CARTESIAN_POINT('Origin',(-11.,-11.,-6.));
#1031=CARTESIAN_POINT('',(-14.25,-11.,-6.));
#1032=CARTESIAN_POINT('Origin',(-11.,-11.,-6.));
#1033=CARTESIAN_POINT('Origin',(-11.,-11.,5.625));
#1034=CARTESIAN_POINT('',(-9.35,-11.,6.));
#1035=CARTESIAN_POINT('Origin',(-11.,-11.,6.));
#1036=CARTESIAN_POINT('',(-9.725,-11.,5.625));
#1037=CARTESIAN_POINT('Origin',(-11.,-11.,6.));
#1038=CARTESIAN_POINT('',(-14.25,-11.,6.));
#1039=CARTESIAN_POINT('Origin',(-11.,-11.,6.));
#1040=CARTESIAN_POINT('Origin',(11.,-11.,5.625));
#1041=CARTESIAN_POINT('',(12.65,-11.,6.));
#1042=CARTESIAN_POINT('Origin',(11.,-11.,6.));
#1043=CARTESIAN_POINT('',(12.275,-11.,5.625));
#1044=CARTESIAN_POINT('Origin',(11.,-11.,6.));
#1045=CARTESIAN_POINT('',(7.75,-11.,6.));
#1046=CARTESIAN_POINT('Origin',(11.,-11.,6.));
#1047=CARTESIAN_POINT('Origin',(11.,11.,5.625));
#1048=CARTESIAN_POINT('',(12.65,11.,6.));
#1049=CARTESIAN_POINT('Origin',(11.,11.,6.));
#1050=CARTESIAN_POINT('',(12.275,11.,5.625));
#1051=CARTESIAN_POINT('Origin',(11.,11.,6.));
#1052=CARTESIAN_POINT('',(7.75,11.,6.));
#1053=CARTESIAN_POINT('Origin',(11.,11.,6.));
#1054=CARTESIAN_POINT('Origin',(-11.,11.,5.625));
#1055=CARTESIAN_POINT('',(-9.35,11.,6.));
#1056=CARTESIAN_POINT('Origin',(-11.,11.,6.));
#1057=CARTESIAN_POINT('',(-9.725,11.,5.625));
#1058=CARTESIAN_POINT('Origin',(-11.,11.,6.));
#1059=CARTESIAN_POINT('',(-14.25,11.,6.));
#1060=CARTESIAN_POINT('Origin',(-11.,11.,6.));
#1061=CARTESIAN_POINT('Origin',(11.,5.55111512312578E-16,-2.5));
#1062=CARTESIAN_POINT('',(9.,-8.4382623085101,-2.5));
#1063=CARTESIAN_POINT('',(13.,-8.4382623085101,-2.5));
#1064=CARTESIAN_POINT('Origin',(11.,-11.,-2.5));
#1065=CARTESIAN_POINT('',(8.99999999999999,8.43826230851011,-2.5));
#1066=CARTESIAN_POINT('',(8.99999999999999,9.,-2.5));
#1067=CARTESIAN_POINT('',(13.,8.43826230851009,-2.5));
#1068=CARTESIAN_POINT('Origin',(11.,11.,-2.5));
#1069=CARTESIAN_POINT('',(13.,-13.,-2.5));
#1070=CARTESIAN_POINT('Origin',(8.99999999999999,8.43826230851011,0.));
#1071=CARTESIAN_POINT('',(9.,-8.4382623085101,2.5));
#1072=CARTESIAN_POINT('',(9.,-8.4382623085101,0.));
#1073=CARTESIAN_POINT('',(8.99999999999999,8.43826230851011,2.5));
#1074=CARTESIAN_POINT('',(8.99999999999999,9.,2.5));
#1075=CARTESIAN_POINT('',(8.99999999999999,8.43826230851011,0.));
#1076=CARTESIAN_POINT('Origin',(13.,-8.4382623085101,0.));
#1077=CARTESIAN_POINT('',(13.,8.43826230851009,2.5));
#1078=CARTESIAN_POINT('',(13.,8.43826230851009,0.));
#1079=CARTESIAN_POINT('',(13.,-8.4382623085101,2.5));
#1080=CARTESIAN_POINT('',(13.,-13.,2.5));
#1081=CARTESIAN_POINT('',(13.,-8.4382623085101,0.));
#1082=CARTESIAN_POINT('Origin',(11.,5.55111512312578E-16,2.5));
#1083=CARTESIAN_POINT('Origin',(11.,-11.,2.5));
#1084=CARTESIAN_POINT('Origin',(11.,11.,2.5));
#1085=CARTESIAN_POINT('Origin',(1.11022302462516E-15,-11.,-2.5));
#1086=CARTESIAN_POINT('',(-8.4382623085101,-9.,-2.5));
#1087=CARTESIAN_POINT('',(-8.4382623085101,-13.,-2.5));
#1088=CARTESIAN_POINT('Origin',(-11.,-11.,-2.5));
#1089=CARTESIAN_POINT('',(8.4382623085101,-9.,-2.5));
#1090=CARTESIAN_POINT('',(9.,-9.,-2.5));
#1091=CARTESIAN_POINT('',(7.75,-11.,-2.5));
#1092=CARTESIAN_POINT('Origin',(11.,-11.,-2.5));
#1093=CARTESIAN_POINT('',(8.43826230851009,-13.,-2.5));
#1094=CARTESIAN_POINT('Origin',(11.,-11.,-2.5));
#1095=CARTESIAN_POINT('',(-13.,-13.,-2.5));
#1096=CARTESIAN_POINT('Origin',(8.4382623085101,-9.,0.));
#1097=CARTESIAN_POINT('',(-8.4382623085101,-9.,2.5));
#1098=CARTESIAN_POINT('',(-8.4382623085101,-9.,0.));
#1099=CARTESIAN_POINT('',(8.4382623085101,-9.,2.5));
#1100=CARTESIAN_POINT('',(9.,-9.,2.5));
#1101=CARTESIAN_POINT('',(8.4382623085101,-9.,0.));
#1102=CARTESIAN_POINT('Origin',(-8.4382623085101,-13.,0.));
#1103=CARTESIAN_POINT('',(8.43826230851009,-13.,2.5));
#1104=CARTESIAN_POINT('',(8.43826230851009,-13.,0.));
#1105=CARTESIAN_POINT('',(-8.4382623085101,-13.,2.5));
#1106=CARTESIAN_POINT('',(-13.,-13.,2.5));
#1107=CARTESIAN_POINT('',(-8.4382623085101,-13.,0.));
#1108=CARTESIAN_POINT('Origin',(1.11022302462516E-15,-11.,2.5));
#1109=CARTESIAN_POINT('Origin',(-11.,-11.,2.5));
#1110=CARTESIAN_POINT('',(7.75,-11.,2.5));
#1111=CARTESIAN_POINT('Origin',(11.,-11.,2.5));
#1112=CARTESIAN_POINT('Origin',(11.,-11.,2.5));
#1113=CARTESIAN_POINT('Origin',(11.,-11.,0.));
#1114=CARTESIAN_POINT('',(7.75,-11.,0.));
#1115=CARTESIAN_POINT('',(7.75,-11.,0.));
#1116=CARTESIAN_POINT('Origin',(-1.11022302462516E-15,11.,-2.5));
#1117=CARTESIAN_POINT('',(8.4382623085101,9.,-2.5));
#1118=CARTESIAN_POINT('',(7.75,11.,-2.5));
#1119=CARTESIAN_POINT('Origin',(11.,11.,-2.5));
#1120=CARTESIAN_POINT('',(-8.4382623085101,9.,-2.5));
#1121=CARTESIAN_POINT('',(-9.,9.,-2.5));
#1122=CARTESIAN_POINT('',(-8.4382623085101,13.,-2.5));
#1123=CARTESIAN_POINT('Origin',(-11.,11.,-2.5));
#1124=CARTESIAN_POINT('',(8.4382623085101,13.,-2.5));
#1125=CARTESIAN_POINT('',(13.,13.,-2.5));
#1126=CARTESIAN_POINT('Origin',(11.,11.,-2.5));
#1127=CARTESIAN_POINT('Origin',(-8.4382623085101,9.,0.));
#1128=CARTESIAN_POINT('',(8.4382623085101,9.,2.5));
#1129=CARTESIAN_POINT('',(8.4382623085101,9.,0.));
#1130=CARTESIAN_POINT('',(-8.4382623085101,9.,2.5));
#1131=CARTESIAN_POINT('',(-9.,9.,2.5));
#1132=CARTESIAN_POINT('',(-8.4382623085101,9.,0.));
#1133=CARTESIAN_POINT('Origin',(8.4382623085101,13.,0.));
#1134=CARTESIAN_POINT('',(-8.4382623085101,13.,2.5));
#1135=CARTESIAN_POINT('',(-8.4382623085101,13.,0.));
#1136=CARTESIAN_POINT('',(8.4382623085101,13.,2.5));
#1137=CARTESIAN_POINT('',(13.,13.,2.5));
#1138=CARTESIAN_POINT('',(8.4382623085101,13.,0.));
#1139=CARTESIAN_POINT('Origin',(-1.11022302462516E-15,11.,2.5));
#1140=CARTESIAN_POINT('',(7.75,11.,2.5));
#1141=CARTESIAN_POINT('Origin',(11.,11.,2.5));
#1142=CARTESIAN_POINT('Origin',(-11.,11.,2.5));
#1143=CARTESIAN_POINT('Origin',(11.,11.,2.5));
#1144=CARTESIAN_POINT('Origin',(11.,11.,0.));
#1145=CARTESIAN_POINT('',(7.75,11.,0.));
#1146=CARTESIAN_POINT('',(7.75,11.,0.));
#1147=CARTESIAN_POINT('Origin',(-11.,-11.,0.));
#1148=CARTESIAN_POINT('',(-14.25,-11.,0.));
#1149=CARTESIAN_POINT('Origin',(-11.,11.,0.));
#1150=CARTESIAN_POINT('',(-14.25,11.,0.));
#1151=UNCERTAINTY_MEASURE_WITH_UNIT(LENGTH_MEASURE(0.01),#1155,
'DISTANCE_ACCURACY_VALUE',
'Maximum model space distance between geometric entities at asserted c
onnectivities');
#1152=UNCERTAINTY_MEASURE_WITH_UNIT(LENGTH_MEASURE(0.01),#1155,
'DISTANCE_ACCURACY_VALUE',
'Maximum model space distance between geometric entities at asserted c
onnectivities');
#1153=(
GEOMETRIC_REPRESENTATION_CONTEXT(3)
GLOBAL_UNCERTAINTY_ASSIGNED_CONTEXT((#1151))
GLOBAL_UNIT_ASSIGNED_CONTEXT((#1155,#1157,#1158))
REPRESENTATION_CONTEXT('','3D')
);
#1154=(
GEOMETRIC_REPRESENTATION_CONTEXT(3)
GLOBAL_UNCERTAINTY_ASSIGNED_CONTEXT((#1152))
GLOBAL_UNIT_ASSIGNED_CONTEXT((#1155,#1157,#1158))
REPRESENTATION_CONTEXT('','3D')
);
#1155=(
LENGTH_UNIT()
NAMED_UNIT(*)
SI_UNIT(.MILLI.,.METRE.)
);
#1156=(
LENGTH_UNIT()
NAMED_UNIT(*)
SI_UNIT(.CENTI.,.METRE.)
);
#1157=(
NAMED_UNIT(*)
PLANE_ANGLE_UNIT()
SI_UNIT($,.RADIAN.)
);
#1158=(
NAMED_UNIT(*)
SI_UNIT($,.STERADIAN.)
SOLID_ANGLE_UNIT()
);
#1159=SHAPE_DEFINITION_REPRESENTATION(#1160,#1161);
#1160=PRODUCT_DEFINITION_SHAPE('',$,#1163);
#1161=SHAPE_REPRESENTATION('',(#667),#1153);
#1162=PRODUCT_DEFINITION_CONTEXT('part definition',#1167,'design');
#1163=PRODUCT_DEFINITION('OLED_Halterung','OLED_Halterung',#1164,#1162);
#1164=PRODUCT_DEFINITION_FORMATION('',$,#1169);
#1165=PRODUCT_RELATED_PRODUCT_CATEGORY('OLED_Halterung',
'OLED_Halterung',(#1169));
#1166=APPLICATION_PROTOCOL_DEFINITION('international standard',
'automotive_design',2009,#1167);
#1167=APPLICATION_CONTEXT(
'Core Data for Automotive Mechanical Design Process');
#1168=PRODUCT_CONTEXT('part definition',#1167,'mechanical');
#1169=PRODUCT('OLED_Halterung','OLED_Halterung',$,(#1168));
#1170=PRESENTATION_STYLE_ASSIGNMENT((#1171));
#1171=SURFACE_STYLE_USAGE(.BOTH.,#1174);
#1172=SURFACE_STYLE_RENDERING_WITH_PROPERTIES($,#1178,(#1173));
#1173=SURFACE_STYLE_TRANSPARENT(0.);
#1174=SURFACE_SIDE_STYLE('',(#1175,#1172));
#1175=SURFACE_STYLE_FILL_AREA(#1176);
#1176=FILL_AREA_STYLE('',(#1177));
#1177=FILL_AREA_STYLE_COLOUR('',#1178);
#1178=COLOUR_RGB('',0.250980392156863,0.250980392156863,0.250980392156863);
ENDSEC;
END-ISO-10303-21;
