ISO-10303-21;
HEADER;
/* Generated by software containing ST-Developer
 * from STEP Tools, Inc. (www.steptools.com) 
 */

FILE_DESCRIPTION(
/* description */ (''),
/* implementation_level */ '2;1');

FILE_NAME(
/* name */ 'Schraubfuesse_5_12_5.stp',
/* time_stamp */ '2026-07-14T10:23:11+02:00',
/* author */ ('PascalHelfenstein'),
/* organization */ (''),
/* preprocessor_version */ 'ST-DEVELOPER v20.1',
/* originating_system */ 'Autodesk Inventor 2027',
/* authorisation */ '');

FILE_SCHEMA (('AUTOMOTIVE_DESIGN { 1 0 10303 214 3 1 1 }'));
ENDSEC;

DATA;
#10=MECHANICAL_DESIGN_GEOMETRIC_PRESENTATION_REPRESENTATION('',(#13),#251);
#11=SHAPE_REPRESENTATION_RELATIONSHIP('SRR','None',#258,#12);
#12=ADVANCED_BREP_SHAPE_REPRESENTATION('',(#14),#250);
#13=STYLED_ITEM('',(#267),#14);
#14=MANIFOLD_SOLID_BREP('Volumenk\X\F6rper1',#126);
#15=FACE_BOUND('',#41,.T.);
#16=FACE_BOUND('',#44,.T.);
#17=FACE_BOUND('',#48,.T.);
#18=PLANE('',#157);
#19=PLANE('',#162);
#20=PLANE('',#168);
#21=LINE('',#225,#24);
#22=LINE('',#241,#25);
#23=LINE('',#245,#26);
#24=VECTOR('',#183,5.);
#25=VECTOR('',#204,3.);
#26=VECTOR('',#209,1.9);
#27=CYLINDRICAL_SURFACE('',#154,5.);
#28=CYLINDRICAL_SURFACE('',#164,3.);
#29=CYLINDRICAL_SURFACE('',#166,1.9);
#30=FACE_OUTER_BOUND('',#38,.T.);
#31=FACE_OUTER_BOUND('',#39,.T.);
#32=FACE_OUTER_BOUND('',#40,.T.);
#33=FACE_OUTER_BOUND('',#42,.T.);
#34=FACE_OUTER_BOUND('',#43,.T.);
#35=FACE_OUTER_BOUND('',#45,.T.);
#36=FACE_OUTER_BOUND('',#46,.T.);
#37=FACE_OUTER_BOUND('',#47,.T.);
#38=EDGE_LOOP('',(#86,#87,#88,#89,#90));
#39=EDGE_LOOP('',(#91,#92,#93,#94,#95,#96));
#40=EDGE_LOOP('',(#97));
#41=EDGE_LOOP('',(#98));
#42=EDGE_LOOP('',(#99,#100,#101,#102,#103));
#43=EDGE_LOOP('',(#104));
#44=EDGE_LOOP('',(#105));
#45=EDGE_LOOP('',(#106,#107,#108,#109));
#46=EDGE_LOOP('',(#110,#111,#112,#113));
#47=EDGE_LOOP('',(#114));
#48=EDGE_LOOP('',(#115));
#49=CIRCLE('',#150,4.);
#50=CIRCLE('',#151,1.);
#51=CIRCLE('',#152,5.);
#52=CIRCLE('',#153,5.);
#53=CIRCLE('',#155,5.);
#54=CIRCLE('',#156,5.);
#55=CIRCLE('',#158,1.9);
#56=CIRCLE('',#160,4.);
#57=CIRCLE('',#161,1.);
#58=CIRCLE('',#163,3.);
#59=CIRCLE('',#165,3.);
#60=CIRCLE('',#167,1.9);
#61=VERTEX_POINT('',#216);
#62=VERTEX_POINT('',#218);
#63=VERTEX_POINT('',#220);
#64=VERTEX_POINT('',#224);
#65=VERTEX_POINT('',#226);
#66=VERTEX_POINT('',#230);
#67=VERTEX_POINT('',#233);
#68=VERTEX_POINT('',#237);
#69=VERTEX_POINT('',#240);
#70=VERTEX_POINT('',#244);
#71=EDGE_CURVE('',#61,#61,#49,.T.);
#72=EDGE_CURVE('',#61,#62,#50,.T.);
#73=EDGE_CURVE('',#62,#63,#51,.T.);
#74=EDGE_CURVE('',#63,#62,#52,.T.);
#75=EDGE_CURVE('',#63,#64,#21,.T.);
#76=EDGE_CURVE('',#65,#64,#53,.T.);
#77=EDGE_CURVE('',#64,#65,#54,.T.);
#78=EDGE_CURVE('',#66,#66,#55,.T.);
#79=EDGE_CURVE('',#67,#67,#56,.T.);
#80=EDGE_CURVE('',#67,#65,#57,.T.);
#81=EDGE_CURVE('',#68,#68,#58,.T.);
#82=EDGE_CURVE('',#68,#69,#22,.T.);
#83=EDGE_CURVE('',#69,#69,#59,.T.);
#84=EDGE_CURVE('',#66,#70,#23,.T.);
#85=EDGE_CURVE('',#70,#70,#60,.T.);
#86=ORIENTED_EDGE('',*,*,#71,.T.);
#87=ORIENTED_EDGE('',*,*,#72,.T.);
#88=ORIENTED_EDGE('',*,*,#73,.T.);
#89=ORIENTED_EDGE('',*,*,#74,.T.);
#90=ORIENTED_EDGE('',*,*,#72,.F.);
#91=ORIENTED_EDGE('',*,*,#73,.F.);
#92=ORIENTED_EDGE('',*,*,#74,.F.);
#93=ORIENTED_EDGE('',*,*,#75,.T.);
#94=ORIENTED_EDGE('',*,*,#76,.F.);
#95=ORIENTED_EDGE('',*,*,#77,.F.);
#96=ORIENTED_EDGE('',*,*,#75,.F.);
#97=ORIENTED_EDGE('',*,*,#71,.F.);
#98=ORIENTED_EDGE('',*,*,#78,.T.);
#99=ORIENTED_EDGE('',*,*,#79,.T.);
#100=ORIENTED_EDGE('',*,*,#80,.T.);
#101=ORIENTED_EDGE('',*,*,#76,.T.);
#102=ORIENTED_EDGE('',*,*,#77,.T.);
#103=ORIENTED_EDGE('',*,*,#80,.F.);
#104=ORIENTED_EDGE('',*,*,#79,.F.);
#105=ORIENTED_EDGE('',*,*,#81,.T.);
#106=ORIENTED_EDGE('',*,*,#81,.F.);
#107=ORIENTED_EDGE('',*,*,#82,.T.);
#108=ORIENTED_EDGE('',*,*,#83,.F.);
#109=ORIENTED_EDGE('',*,*,#82,.F.);
#110=ORIENTED_EDGE('',*,*,#78,.F.);
#111=ORIENTED_EDGE('',*,*,#84,.T.);
#112=ORIENTED_EDGE('',*,*,#85,.F.);
#113=ORIENTED_EDGE('',*,*,#84,.F.);
#114=ORIENTED_EDGE('',*,*,#83,.T.);
#115=ORIENTED_EDGE('',*,*,#85,.T.);
#116=TOROIDAL_SURFACE('',#149,4.,1.);
#117=TOROIDAL_SURFACE('',#159,4.,1.);
#118=ADVANCED_FACE('',(#30),#116,.T.);
#119=ADVANCED_FACE('',(#31),#27,.T.);
#120=ADVANCED_FACE('',(#32,#15),#18,.F.);
#121=ADVANCED_FACE('',(#33),#117,.T.);
#122=ADVANCED_FACE('',(#34,#16),#19,.T.);
#123=ADVANCED_FACE('',(#35),#28,.F.);
#124=ADVANCED_FACE('',(#36),#29,.F.);
#125=ADVANCED_FACE('',(#37,#17),#20,.T.);
#126=CLOSED_SHELL('',(#118,#119,#120,#121,#122,#123,#124,#125));
#127=DERIVED_UNIT_ELEMENT(#130,1.);
#128=DERIVED_UNIT_ELEMENT(#253,-3.);
#129=DIMENSIONAL_EXPONENTS(0.,1.,0.,0.,0.,0.,0.);
#130=(
CONVERSION_BASED_UNIT('gram',#132)
MASS_UNIT()
NAMED_UNIT(#129)
);
#131=(
MASS_UNIT()
NAMED_UNIT(*)
SI_UNIT(.KILO.,.GRAM.)
);
#132=MASS_MEASURE_WITH_UNIT(MASS_MEASURE(0.001),#131);
#133=DERIVED_UNIT((#127,#128));
#134=MEASURE_REPRESENTATION_ITEM('density measure',
POSITIVE_RATIO_MEASURE(0.93),#133);
#135=PROPERTY_DEFINITION_REPRESENTATION(#140,#137);
#136=PROPERTY_DEFINITION_REPRESENTATION(#141,#138);
#137=REPRESENTATION('material name',(#139),#250);
#138=REPRESENTATION('density',(#134),#250);
#139=DESCRIPTIVE_REPRESENTATION_ITEM('Gummi','Gummi');
#140=PROPERTY_DEFINITION('material property','material name',#260);
#141=PROPERTY_DEFINITION('material property','density of part',#260);
#142=DATE_TIME_ROLE('creation_date');
#143=APPLIED_DATE_AND_TIME_ASSIGNMENT(#144,#142,(#260));
#144=DATE_AND_TIME(#145,#146);
#145=CALENDAR_DATE(2025,26,1);
#146=LOCAL_TIME(0,0,0.,#147);
#147=COORDINATED_UNIVERSAL_TIME_OFFSET(0,0,.BEHIND.);
#148=AXIS2_PLACEMENT_3D('',#214,#169,#170);
#149=AXIS2_PLACEMENT_3D('',#215,#171,#172);
#150=AXIS2_PLACEMENT_3D('',#217,#173,#174);
#151=AXIS2_PLACEMENT_3D('',#219,#175,#176);
#152=AXIS2_PLACEMENT_3D('',#221,#177,#178);
#153=AXIS2_PLACEMENT_3D('',#222,#179,#180);
#154=AXIS2_PLACEMENT_3D('',#223,#181,#182);
#155=AXIS2_PLACEMENT_3D('',#227,#184,#185);
#156=AXIS2_PLACEMENT_3D('',#228,#186,#187);
#157=AXIS2_PLACEMENT_3D('',#229,#188,#189);
#158=AXIS2_PLACEMENT_3D('',#231,#190,#191);
#159=AXIS2_PLACEMENT_3D('',#232,#192,#193);
#160=AXIS2_PLACEMENT_3D('',#234,#194,#195);
#161=AXIS2_PLACEMENT_3D('',#235,#196,#197);
#162=AXIS2_PLACEMENT_3D('',#236,#198,#199);
#163=AXIS2_PLACEMENT_3D('',#238,#200,#201);
#164=AXIS2_PLACEMENT_3D('',#239,#202,#203);
#165=AXIS2_PLACEMENT_3D('',#242,#205,#206);
#166=AXIS2_PLACEMENT_3D('',#243,#207,#208);
#167=AXIS2_PLACEMENT_3D('',#246,#210,#211);
#168=AXIS2_PLACEMENT_3D('',#247,#212,#213);
#169=DIRECTION('axis',(0.,0.,1.));
#170=DIRECTION('refdir',(1.,0.,0.));
#171=DIRECTION('center_axis',(0.,-1.,0.));
#172=DIRECTION('ref_axis',(0.,0.,-1.));
#173=DIRECTION('center_axis',(0.,1.,0.));
#174=DIRECTION('ref_axis',(1.,0.,1.22464679914735E-16));
#175=DIRECTION('center_axis',(-1.,0.,-1.22464679914735E-16));
#176=DIRECTION('ref_axis',(-1.22464679914735E-16,0.,1.));
#177=DIRECTION('center_axis',(0.,-1.,0.));
#178=DIRECTION('ref_axis',(1.,0.,1.22464679914735E-16));
#179=DIRECTION('center_axis',(0.,-1.,0.));
#180=DIRECTION('ref_axis',(1.,0.,1.22464679914735E-16));
#181=DIRECTION('center_axis',(0.,-1.,0.));
#182=DIRECTION('ref_axis',(-1.,0.,0.));
#183=DIRECTION('',(0.,1.,0.));
#184=DIRECTION('center_axis',(0.,1.,0.));
#185=DIRECTION('ref_axis',(1.,0.,1.22464679914735E-16));
#186=DIRECTION('center_axis',(0.,1.,0.));
#187=DIRECTION('ref_axis',(1.,0.,1.22464679914735E-16));
#188=DIRECTION('center_axis',(0.,1.,0.));
#189=DIRECTION('ref_axis',(0.,0.,1.));
#190=DIRECTION('center_axis',(0.,1.,0.));
#191=DIRECTION('ref_axis',(1.,0.,0.));
#192=DIRECTION('center_axis',(0.,1.,0.));
#193=DIRECTION('ref_axis',(0.,0.,1.));
#194=DIRECTION('center_axis',(0.,-1.,0.));
#195=DIRECTION('ref_axis',(1.,0.,1.22464679914735E-16));
#196=DIRECTION('center_axis',(-1.,0.,1.22464679914735E-16));
#197=DIRECTION('ref_axis',(-1.22464679914735E-16,0.,-1.));
#198=DIRECTION('center_axis',(0.,1.,0.));
#199=DIRECTION('ref_axis',(0.,0.,1.));
#200=DIRECTION('center_axis',(0.,-1.,0.));
#201=DIRECTION('ref_axis',(1.,0.,0.));
#202=DIRECTION('center_axis',(0.,1.,0.));
#203=DIRECTION('ref_axis',(1.,0.,0.));
#204=DIRECTION('',(0.,-1.,0.));
#205=DIRECTION('center_axis',(0.,1.,0.));
#206=DIRECTION('ref_axis',(1.,0.,0.));
#207=DIRECTION('center_axis',(0.,-1.,0.));
#208=DIRECTION('ref_axis',(1.,0.,0.));
#209=DIRECTION('',(0.,1.,0.));
#210=DIRECTION('center_axis',(0.,-1.,0.));
#211=DIRECTION('ref_axis',(1.,0.,0.));
#212=DIRECTION('center_axis',(0.,1.,0.));
#213=DIRECTION('ref_axis',(0.,0.,1.));
#214=CARTESIAN_POINT('',(0.,0.,0.));
#215=CARTESIAN_POINT('Origin',(0.,-1.5,0.));
#216=CARTESIAN_POINT('',(-4.89858719658941E-16,-2.5,4.));
#217=CARTESIAN_POINT('Origin',(0.,-2.5,0.));
#218=CARTESIAN_POINT('',(-6.12323399573677E-16,-1.5,5.));
#219=CARTESIAN_POINT('Origin',(-4.89858719658941E-16,-1.5,4.));
#220=CARTESIAN_POINT('',(5.,-1.5,6.12323399573677E-16));
#221=CARTESIAN_POINT('Origin',(0.,-1.5,0.));
#222=CARTESIAN_POINT('Origin',(0.,-1.5,0.));
#223=CARTESIAN_POINT('Origin',(0.,0.,0.));
#224=CARTESIAN_POINT('',(5.,9.,6.12323399573677E-16));
#225=CARTESIAN_POINT('',(5.,0.,6.12323399573677E-16));
#226=CARTESIAN_POINT('',(-6.12323399573677E-16,9.,-5.));
#227=CARTESIAN_POINT('Origin',(0.,9.,0.));
#228=CARTESIAN_POINT('Origin',(0.,9.,0.));
#229=CARTESIAN_POINT('Origin',(0.,-2.5,0.));
#230=CARTESIAN_POINT('',(-1.9,-2.5,2.32682891837997E-16));
#231=CARTESIAN_POINT('Origin',(0.,-2.5,0.));
#232=CARTESIAN_POINT('Origin',(0.,9.,0.));
#233=CARTESIAN_POINT('',(-4.89858719658941E-16,10.,-4.));
#234=CARTESIAN_POINT('Origin',(0.,10.,0.));
#235=CARTESIAN_POINT('Origin',(-4.89858719658941E-16,9.,-4.));
#236=CARTESIAN_POINT('Origin',(0.,10.,0.));
#237=CARTESIAN_POINT('',(-3.,10.,3.67394039744206E-16));
#238=CARTESIAN_POINT('Origin',(0.,10.,0.));
#239=CARTESIAN_POINT('Origin',(0.,0.,0.));
#240=CARTESIAN_POINT('',(-3.,0.,3.67394039744206E-16));
#241=CARTESIAN_POINT('',(-3.,0.,3.67394039744206E-16));
#242=CARTESIAN_POINT('Origin',(0.,0.,0.));
#243=CARTESIAN_POINT('Origin',(0.,0.,0.));
#244=CARTESIAN_POINT('',(-1.9,0.,2.32682891837997E-16));
#245=CARTESIAN_POINT('',(-1.9,0.,-2.32682891837997E-16));
#246=CARTESIAN_POINT('Origin',(0.,0.,0.));
#247=CARTESIAN_POINT('Origin',(0.,0.,0.));
#248=UNCERTAINTY_MEASURE_WITH_UNIT(LENGTH_MEASURE(0.01),#252,
'DISTANCE_ACCURACY_VALUE',
'Maximum model space distance between geometric entities at asserted c
onnectivities');
#249=UNCERTAINTY_MEASURE_WITH_UNIT(LENGTH_MEASURE(0.01),#252,
'DISTANCE_ACCURACY_VALUE',
'Maximum model space distance between geometric entities at asserted c
onnectivities');
#250=(
GEOMETRIC_REPRESENTATION_CONTEXT(3)
GLOBAL_UNCERTAINTY_ASSIGNED_CONTEXT((#248))
GLOBAL_UNIT_ASSIGNED_CONTEXT((#252,#254,#255))
REPRESENTATION_CONTEXT('','3D')
);
#251=(
GEOMETRIC_REPRESENTATION_CONTEXT(3)
GLOBAL_UNCERTAINTY_ASSIGNED_CONTEXT((#249))
GLOBAL_UNIT_ASSIGNED_CONTEXT((#252,#254,#255))
REPRESENTATION_CONTEXT('','3D')
);
#252=(
LENGTH_UNIT()
NAMED_UNIT(*)
SI_UNIT(.MILLI.,.METRE.)
);
#253=(
LENGTH_UNIT()
NAMED_UNIT(*)
SI_UNIT(.CENTI.,.METRE.)
);
#254=(
NAMED_UNIT(*)
PLANE_ANGLE_UNIT()
SI_UNIT($,.RADIAN.)
);
#255=(
NAMED_UNIT(*)
SI_UNIT($,.STERADIAN.)
SOLID_ANGLE_UNIT()
);
#256=SHAPE_DEFINITION_REPRESENTATION(#257,#258);
#257=PRODUCT_DEFINITION_SHAPE('',$,#260);
#258=SHAPE_REPRESENTATION('',(#148),#250);
#259=PRODUCT_DEFINITION_CONTEXT('part definition',#264,'design');
#260=PRODUCT_DEFINITION('Schraubfuesse_5','Schraubfuesse_5_12_5',#261,#259);
#261=PRODUCT_DEFINITION_FORMATION('',$,#266);
#262=PRODUCT_RELATED_PRODUCT_CATEGORY('Schraubfuesse_5_12_5',
'Schraubfuesse_5_12_5',(#266));
#263=APPLICATION_PROTOCOL_DEFINITION('international standard',
'automotive_design',2009,#264);
#264=APPLICATION_CONTEXT(
'Core Data for Automotive Mechanical Design Process');
#265=PRODUCT_CONTEXT('part definition',#264,'mechanical');
#266=PRODUCT('Schraubfuesse_5','Schraubfuesse_5_12_5',$,(#265));
#267=PRESENTATION_STYLE_ASSIGNMENT((#268));
#268=SURFACE_STYLE_USAGE(.BOTH.,#271);
#269=SURFACE_STYLE_RENDERING_WITH_PROPERTIES($,#275,(#270));
#270=SURFACE_STYLE_TRANSPARENT(0.);
#271=SURFACE_SIDE_STYLE('',(#272,#269));
#272=SURFACE_STYLE_FILL_AREA(#273);
#273=FILL_AREA_STYLE('',(#274));
#274=FILL_AREA_STYLE_COLOUR('',#275);
#275=COLOUR_RGB('',0.250980392156863,0.250980392156863,0.250980392156863);
ENDSEC;
END-ISO-10303-21;
