ISO-10303-21;
HEADER;
/* Generated by software containing ST-Developer
 * from STEP Tools, Inc. (www.steptools.com) 
 */

FILE_DESCRIPTION(
/* description */ (''),
/* implementation_level */ '2;1');

FILE_NAME(
/* name */ 'xLH_base_PCB_Montagehilfe.stp',
/* time_stamp */ '2026-01-11T09:55:18+01:00',
/* author */ ('phe'),
/* organization */ (''),
/* preprocessor_version */ 'ST-DEVELOPER v20',
/* originating_system */ 'Autodesk Inventor 2025',
/* authorisation */ '');

FILE_SCHEMA (('AUTOMOTIVE_DESIGN { 1 0 10303 214 3 1 1 }'));
ENDSEC;

DATA;
#10=MECHANICAL_DESIGN_GEOMETRIC_PRESENTATION_REPRESENTATION('',(#13),#1854);
#11=SHAPE_REPRESENTATION_RELATIONSHIP('SRR','None',#1861,#12);
#12=ADVANCED_BREP_SHAPE_REPRESENTATION('',(#14),#1853);
#13=STYLED_ITEM('',(#1870),#14);
#14=MANIFOLD_SOLID_BREP('Volumenk\X\F6rper1',#1101);
#15=FACE_BOUND('',#416,.T.);
#16=PLANE('',#1168);
#17=PLANE('',#1169);
#18=PLANE('',#1170);
#19=PLANE('',#1171);
#20=PLANE('',#1172);
#21=PLANE('',#1173);
#22=PLANE('',#1178);
#23=PLANE('',#1182);
#24=PLANE('',#1183);
#25=PLANE('',#1187);
#26=PLANE('',#1188);
#27=PLANE('',#1192);
#28=PLANE('',#1196);
#29=PLANE('',#1197);
#30=PLANE('',#1198);
#31=PLANE('',#1199);
#32=PLANE('',#1200);
#33=PLANE('',#1201);
#34=PLANE('',#1202);
#35=PLANE('',#1203);
#36=PLANE('',#1204);
#37=PLANE('',#1205);
#38=PLANE('',#1206);
#39=PLANE('',#1207);
#40=PLANE('',#1208);
#41=PLANE('',#1209);
#42=PLANE('',#1210);
#43=PLANE('',#1211);
#44=PLANE('',#1212);
#45=PLANE('',#1213);
#46=PLANE('',#1214);
#47=PLANE('',#1215);
#48=PLANE('',#1216);
#49=PLANE('',#1217);
#50=PLANE('',#1218);
#51=PLANE('',#1219);
#52=PLANE('',#1220);
#53=ELLIPSE('',#1134,2.82842712474619,2.);
#54=ELLIPSE('',#1136,2.82842712474619,2.);
#55=ELLIPSE('',#1138,2.82842712474619,2.);
#56=ELLIPSE('',#1139,2.82842712474619,2.);
#57=ELLIPSE('',#1141,2.82842712474619,2.);
#58=ELLIPSE('',#1142,2.82842712474619,2.);
#59=ELLIPSE('',#1152,2.82842712474619,2.);
#60=ELLIPSE('',#1160,2.82842712474619,2.);
#61=ELLIPSE('',#1180,2.82842712474619,2.);
#62=ELLIPSE('',#1181,2.82842712474619,2.);
#63=ELLIPSE('',#1185,2.82842712474619,2.);
#64=ELLIPSE('',#1186,2.82842712474619,2.);
#65=ELLIPSE('',#1190,2.82842712474619,2.);
#66=ELLIPSE('',#1191,2.82842712474619,2.);
#67=ELLIPSE('',#1194,2.82842712474619,2.);
#68=ELLIPSE('',#1195,2.82842712474619,2.);
#69=LINE('',#1553,#189);
#70=LINE('',#1554,#190);
#71=LINE('',#1557,#191);
#72=LINE('',#1559,#192);
#73=LINE('',#1563,#193);
#74=LINE('',#1566,#194);
#75=LINE('',#1570,#195);
#76=LINE('',#1574,#196);
#77=LINE('',#1579,#197);
#78=LINE('',#1583,#198);
#79=LINE('',#1601,#199);
#80=LINE('',#1603,#200);
#81=LINE('',#1606,#201);
#82=LINE('',#1607,#202);
#83=LINE('',#1612,#203);
#84=LINE('',#1613,#204);
#85=LINE('',#1615,#205);
#86=LINE('',#1616,#206);
#87=LINE('',#1621,#207);
#88=LINE('',#1622,#208);
#89=LINE('',#1625,#209);
#90=LINE('',#1627,#210);
#91=LINE('',#1630,#211);
#92=LINE('',#1631,#212);
#93=LINE('',#1633,#213);
#94=LINE('',#1634,#214);
#95=LINE('',#1636,#215);
#96=LINE('',#1637,#216);
#97=LINE('',#1642,#217);
#98=LINE('',#1643,#218);
#99=LINE('',#1648,#219);
#100=LINE('',#1649,#220);
#101=LINE('',#1652,#221);
#102=LINE('',#1654,#222);
#103=LINE('',#1656,#223);
#104=LINE('',#1658,#224);
#105=LINE('',#1660,#225);
#106=LINE('',#1662,#226);
#107=LINE('',#1663,#227);
#108=LINE('',#1666,#228);
#109=LINE('',#1667,#229);
#110=LINE('',#1670,#230);
#111=LINE('',#1672,#231);
#112=LINE('',#1674,#232);
#113=LINE('',#1676,#233);
#114=LINE('',#1678,#234);
#115=LINE('',#1679,#235);
#116=LINE('',#1682,#236);
#117=LINE('',#1684,#237);
#118=LINE('',#1686,#238);
#119=LINE('',#1687,#239);
#120=LINE('',#1689,#240);
#121=LINE('',#1691,#241);
#122=LINE('',#1692,#242);
#123=LINE('',#1693,#243);
#124=LINE('',#1696,#244);
#125=LINE('',#1700,#245);
#126=LINE('',#1704,#246);
#127=LINE('',#1708,#247);
#128=LINE('',#1715,#248);
#129=LINE('',#1717,#249);
#130=LINE('',#1721,#250);
#131=LINE('',#1723,#251);
#132=LINE('',#1725,#252);
#133=LINE('',#1726,#253);
#134=LINE('',#1729,#254);
#135=LINE('',#1731,#255);
#136=LINE('',#1733,#256);
#137=LINE('',#1735,#257);
#138=LINE('',#1736,#258);
#139=LINE('',#1741,#259);
#140=LINE('',#1743,#260);
#141=LINE('',#1746,#261);
#142=LINE('',#1748,#262);
#143=LINE('',#1749,#263);
#144=LINE('',#1752,#264);
#145=LINE('',#1753,#265);
#146=LINE('',#1758,#266);
#147=LINE('',#1762,#267);
#148=LINE('',#1763,#268);
#149=LINE('',#1768,#269);
#150=LINE('',#1772,#270);
#151=LINE('',#1774,#271);
#152=LINE('',#1775,#272);
#153=LINE('',#1777,#273);
#154=LINE('',#1778,#274);
#155=LINE('',#1781,#275);
#156=LINE('',#1782,#276);
#157=LINE('',#1785,#277);
#158=LINE('',#1786,#278);
#159=LINE('',#1789,#279);
#160=LINE('',#1791,#280);
#161=LINE('',#1793,#281);
#162=LINE('',#1794,#282);
#163=LINE('',#1797,#283);
#164=LINE('',#1799,#284);
#165=LINE('',#1800,#285);
#166=LINE('',#1803,#286);
#167=LINE('',#1804,#287);
#168=LINE('',#1807,#288);
#169=LINE('',#1809,#289);
#170=LINE('',#1810,#290);
#171=LINE('',#1813,#291);
#172=LINE('',#1814,#292);
#173=LINE('',#1817,#293);
#174=LINE('',#1818,#294);
#175=LINE('',#1821,#295);
#176=LINE('',#1822,#296);
#177=LINE('',#1823,#297);
#178=LINE('',#1826,#298);
#179=LINE('',#1827,#299);
#180=LINE('',#1830,#300);
#181=LINE('',#1831,#301);
#182=LINE('',#1833,#302);
#183=LINE('',#1838,#303);
#184=LINE('',#1839,#304);
#185=LINE('',#1841,#305);
#186=LINE('',#1844,#306);
#187=LINE('',#1845,#307);
#188=LINE('',#1847,#308);
#189=VECTOR('',#1241,10.);
#190=VECTOR('',#1242,10.);
#191=VECTOR('',#1245,10.);
#192=VECTOR('',#1246,10.);
#193=VECTOR('',#1251,10.);
#194=VECTOR('',#1254,10.);
#195=VECTOR('',#1257,10.);
#196=VECTOR('',#1260,10.);
#197=VECTOR('',#1265,10.);
#198=VECTOR('',#1268,10.);
#199=VECTOR('',#1289,10.);
#200=VECTOR('',#1290,10.);
#201=VECTOR('',#1295,10.);
#202=VECTOR('',#1296,10.);
#203=VECTOR('',#1301,10.);
#204=VECTOR('',#1302,10.);
#205=VECTOR('',#1305,10.);
#206=VECTOR('',#1306,10.);
#207=VECTOR('',#1311,10.);
#208=VECTOR('',#1312,10.);
#209=VECTOR('',#1315,10.);
#210=VECTOR('',#1316,10.);
#211=VECTOR('',#1321,10.);
#212=VECTOR('',#1322,10.);
#213=VECTOR('',#1325,10.);
#214=VECTOR('',#1326,10.);
#215=VECTOR('',#1329,10.);
#216=VECTOR('',#1330,10.);
#217=VECTOR('',#1335,10.);
#218=VECTOR('',#1336,10.);
#219=VECTOR('',#1341,10.);
#220=VECTOR('',#1342,10.);
#221=VECTOR('',#1345,10.);
#222=VECTOR('',#1346,10.);
#223=VECTOR('',#1347,10.);
#224=VECTOR('',#1348,10.);
#225=VECTOR('',#1349,10.);
#226=VECTOR('',#1350,10.);
#227=VECTOR('',#1351,10.);
#228=VECTOR('',#1354,10.);
#229=VECTOR('',#1355,10.);
#230=VECTOR('',#1358,10.);
#231=VECTOR('',#1359,10.);
#232=VECTOR('',#1360,10.);
#233=VECTOR('',#1361,10.);
#234=VECTOR('',#1362,10.);
#235=VECTOR('',#1363,10.);
#236=VECTOR('',#1366,10.);
#237=VECTOR('',#1367,10.);
#238=VECTOR('',#1368,10.);
#239=VECTOR('',#1369,10.);
#240=VECTOR('',#1372,10.);
#241=VECTOR('',#1375,10.);
#242=VECTOR('',#1376,10.);
#243=VECTOR('',#1377,10.);
#244=VECTOR('',#1378,10.);
#245=VECTOR('',#1381,10.);
#246=VECTOR('',#1384,10.);
#247=VECTOR('',#1387,10.);
#248=VECTOR('',#1396,10.);
#249=VECTOR('',#1397,10.);
#250=VECTOR('',#1402,10.);
#251=VECTOR('',#1403,10.);
#252=VECTOR('',#1404,10.);
#253=VECTOR('',#1405,10.);
#254=VECTOR('',#1408,10.);
#255=VECTOR('',#1409,10.);
#256=VECTOR('',#1410,10.);
#257=VECTOR('',#1411,10.);
#258=VECTOR('',#1412,10.);
#259=VECTOR('',#1417,10.);
#260=VECTOR('',#1418,10.);
#261=VECTOR('',#1423,10.);
#262=VECTOR('',#1424,10.);
#263=VECTOR('',#1425,10.);
#264=VECTOR('',#1428,10.);
#265=VECTOR('',#1429,10.);
#266=VECTOR('',#1434,10.);
#267=VECTOR('',#1439,10.);
#268=VECTOR('',#1440,10.);
#269=VECTOR('',#1445,10.);
#270=VECTOR('',#1450,10.);
#271=VECTOR('',#1451,10.);
#272=VECTOR('',#1452,10.);
#273=VECTOR('',#1455,10.);
#274=VECTOR('',#1456,10.);
#275=VECTOR('',#1461,10.);
#276=VECTOR('',#1462,10.);
#277=VECTOR('',#1467,10.);
#278=VECTOR('',#1468,10.);
#279=VECTOR('',#1471,10.);
#280=VECTOR('',#1472,10.);
#281=VECTOR('',#1473,10.);
#282=VECTOR('',#1474,10.);
#283=VECTOR('',#1477,10.);
#284=VECTOR('',#1478,10.);
#285=VECTOR('',#1479,10.);
#286=VECTOR('',#1482,10.);
#287=VECTOR('',#1483,10.);
#288=VECTOR('',#1486,10.);
#289=VECTOR('',#1487,10.);
#290=VECTOR('',#1488,10.);
#291=VECTOR('',#1491,10.);
#292=VECTOR('',#1492,10.);
#293=VECTOR('',#1495,10.);
#294=VECTOR('',#1496,10.);
#295=VECTOR('',#1499,10.);
#296=VECTOR('',#1500,10.);
#297=VECTOR('',#1501,10.);
#298=VECTOR('',#1504,10.);
#299=VECTOR('',#1505,10.);
#300=VECTOR('',#1508,10.);
#301=VECTOR('',#1509,10.);
#302=VECTOR('',#1512,10.);
#303=VECTOR('',#1519,10.);
#304=VECTOR('',#1520,10.);
#305=VECTOR('',#1523,10.);
#306=VECTOR('',#1526,10.);
#307=VECTOR('',#1527,10.);
#308=VECTOR('',#1530,10.);
#309=CYLINDRICAL_SURFACE('',#1132,2.);
#310=CYLINDRICAL_SURFACE('',#1133,2.);
#311=CYLINDRICAL_SURFACE('',#1135,2.);
#312=CYLINDRICAL_SURFACE('',#1137,2.);
#313=CYLINDRICAL_SURFACE('',#1140,2.);
#314=CYLINDRICAL_SURFACE('',#1151,2.);
#315=CYLINDRICAL_SURFACE('',#1153,2.);
#316=CYLINDRICAL_SURFACE('',#1154,2.);
#317=CYLINDRICAL_SURFACE('',#1156,2.);
#318=CYLINDRICAL_SURFACE('',#1157,2.);
#319=CYLINDRICAL_SURFACE('',#1159,2.);
#320=CYLINDRICAL_SURFACE('',#1161,2.);
#321=CYLINDRICAL_SURFACE('',#1162,2.);
#322=CYLINDRICAL_SURFACE('',#1163,2.);
#323=CYLINDRICAL_SURFACE('',#1164,2.);
#324=CYLINDRICAL_SURFACE('',#1166,2.);
#325=CYLINDRICAL_SURFACE('',#1179,2.);
#326=CYLINDRICAL_SURFACE('',#1184,2.);
#327=CYLINDRICAL_SURFACE('',#1189,2.);
#328=CYLINDRICAL_SURFACE('',#1193,2.);
#329=FACE_OUTER_BOUND('',#390,.T.);
#330=FACE_OUTER_BOUND('',#391,.T.);
#331=FACE_OUTER_BOUND('',#392,.T.);
#332=FACE_OUTER_BOUND('',#393,.T.);
#333=FACE_OUTER_BOUND('',#394,.T.);
#334=FACE_OUTER_BOUND('',#395,.T.);
#335=FACE_OUTER_BOUND('',#396,.T.);
#336=FACE_OUTER_BOUND('',#397,.T.);
#337=FACE_OUTER_BOUND('',#398,.T.);
#338=FACE_OUTER_BOUND('',#399,.T.);
#339=FACE_OUTER_BOUND('',#400,.T.);
#340=FACE_OUTER_BOUND('',#401,.T.);
#341=FACE_OUTER_BOUND('',#402,.T.);
#342=FACE_OUTER_BOUND('',#403,.T.);
#343=FACE_OUTER_BOUND('',#404,.T.);
#344=FACE_OUTER_BOUND('',#405,.T.);
#345=FACE_OUTER_BOUND('',#406,.T.);
#346=FACE_OUTER_BOUND('',#407,.T.);
#347=FACE_OUTER_BOUND('',#408,.T.);
#348=FACE_OUTER_BOUND('',#409,.T.);
#349=FACE_OUTER_BOUND('',#410,.T.);
#350=FACE_OUTER_BOUND('',#411,.T.);
#351=FACE_OUTER_BOUND('',#412,.T.);
#352=FACE_OUTER_BOUND('',#413,.T.);
#353=FACE_OUTER_BOUND('',#414,.T.);
#354=FACE_OUTER_BOUND('',#415,.T.);
#355=FACE_OUTER_BOUND('',#417,.T.);
#356=FACE_OUTER_BOUND('',#418,.T.);
#357=FACE_OUTER_BOUND('',#419,.T.);
#358=FACE_OUTER_BOUND('',#420,.T.);
#359=FACE_OUTER_BOUND('',#421,.T.);
#360=FACE_OUTER_BOUND('',#422,.T.);
#361=FACE_OUTER_BOUND('',#423,.T.);
#362=FACE_OUTER_BOUND('',#424,.T.);
#363=FACE_OUTER_BOUND('',#425,.T.);
#364=FACE_OUTER_BOUND('',#426,.T.);
#365=FACE_OUTER_BOUND('',#427,.T.);
#366=FACE_OUTER_BOUND('',#428,.T.);
#367=FACE_OUTER_BOUND('',#429,.T.);
#368=FACE_OUTER_BOUND('',#430,.T.);
#369=FACE_OUTER_BOUND('',#431,.T.);
#370=FACE_OUTER_BOUND('',#432,.T.);
#371=FACE_OUTER_BOUND('',#433,.T.);
#372=FACE_OUTER_BOUND('',#434,.T.);
#373=FACE_OUTER_BOUND('',#435,.T.);
#374=FACE_OUTER_BOUND('',#436,.T.);
#375=FACE_OUTER_BOUND('',#437,.T.);
#376=FACE_OUTER_BOUND('',#438,.T.);
#377=FACE_OUTER_BOUND('',#439,.T.);
#378=FACE_OUTER_BOUND('',#440,.T.);
#379=FACE_OUTER_BOUND('',#441,.T.);
#380=FACE_OUTER_BOUND('',#442,.T.);
#381=FACE_OUTER_BOUND('',#443,.T.);
#382=FACE_OUTER_BOUND('',#444,.T.);
#383=FACE_OUTER_BOUND('',#445,.T.);
#384=FACE_OUTER_BOUND('',#446,.T.);
#385=FACE_OUTER_BOUND('',#447,.T.);
#386=FACE_OUTER_BOUND('',#448,.T.);
#387=FACE_OUTER_BOUND('',#449,.T.);
#388=FACE_OUTER_BOUND('',#450,.T.);
#389=FACE_OUTER_BOUND('',#451,.T.);
#390=EDGE_LOOP('',(#724,#725,#726));
#391=EDGE_LOOP('',(#727,#728,#729));
#392=EDGE_LOOP('',(#730,#731,#732,#733));
#393=EDGE_LOOP('',(#734,#735,#736,#737));
#394=EDGE_LOOP('',(#738,#739,#740,#741));
#395=EDGE_LOOP('',(#742,#743,#744,#745));
#396=EDGE_LOOP('',(#746,#747,#748,#749));
#397=EDGE_LOOP('',(#750,#751,#752));
#398=EDGE_LOOP('',(#753,#754,#755));
#399=EDGE_LOOP('',(#756,#757,#758,#759));
#400=EDGE_LOOP('',(#760,#761,#762,#763));
#401=EDGE_LOOP('',(#764,#765,#766,#767));
#402=EDGE_LOOP('',(#768,#769,#770,#771));
#403=EDGE_LOOP('',(#772,#773,#774,#775));
#404=EDGE_LOOP('',(#776,#777,#778,#779));
#405=EDGE_LOOP('',(#780,#781,#782,#783));
#406=EDGE_LOOP('',(#784,#785,#786,#787));
#407=EDGE_LOOP('',(#788,#789,#790,#791));
#408=EDGE_LOOP('',(#792,#793,#794,#795));
#409=EDGE_LOOP('',(#796,#797,#798,#799));
#410=EDGE_LOOP('',(#800,#801,#802,#803,#804,#805,#806,#807));
#411=EDGE_LOOP('',(#808,#809,#810,#811));
#412=EDGE_LOOP('',(#812,#813,#814,#815,#816,#817,#818,#819));
#413=EDGE_LOOP('',(#820,#821,#822,#823,#824,#825,#826,#827));
#414=EDGE_LOOP('',(#828,#829,#830,#831,#832,#833,#834,#835));
#415=EDGE_LOOP('',(#836,#837,#838,#839,#840,#841,#842,#843));
#416=EDGE_LOOP('',(#844,#845,#846,#847,#848,#849,#850,#851));
#417=EDGE_LOOP('',(#852,#853,#854,#855));
#418=EDGE_LOOP('',(#856,#857,#858,#859,#860));
#419=EDGE_LOOP('',(#861,#862,#863,#864,#865));
#420=EDGE_LOOP('',(#866,#867,#868,#869,#870,#871,#872,#873));
#421=EDGE_LOOP('',(#874,#875,#876,#877,#878));
#422=EDGE_LOOP('',(#879,#880,#881,#882,#883,#884,#885,#886));
#423=EDGE_LOOP('',(#887,#888,#889,#890,#891));
#424=EDGE_LOOP('',(#892,#893,#894,#895,#896));
#425=EDGE_LOOP('',(#897,#898,#899,#900,#901));
#426=EDGE_LOOP('',(#902,#903,#904,#905,#906));
#427=EDGE_LOOP('',(#907,#908,#909,#910,#911));
#428=EDGE_LOOP('',(#912,#913,#914,#915,#916,#917));
#429=EDGE_LOOP('',(#918,#919,#920,#921));
#430=EDGE_LOOP('',(#922,#923,#924,#925,#926,#927));
#431=EDGE_LOOP('',(#928,#929,#930,#931));
#432=EDGE_LOOP('',(#932,#933,#934,#935));
#433=EDGE_LOOP('',(#936,#937,#938,#939,#940,#941,#942,#943));
#434=EDGE_LOOP('',(#944,#945,#946,#947,#948,#949,#950,#951));
#435=EDGE_LOOP('',(#952,#953,#954,#955));
#436=EDGE_LOOP('',(#956,#957,#958,#959));
#437=EDGE_LOOP('',(#960,#961,#962,#963));
#438=EDGE_LOOP('',(#964,#965,#966,#967));
#439=EDGE_LOOP('',(#968,#969,#970,#971,#972,#973,#974,#975));
#440=EDGE_LOOP('',(#976,#977,#978,#979));
#441=EDGE_LOOP('',(#980,#981,#982,#983));
#442=EDGE_LOOP('',(#984,#985,#986,#987,#988,#989,#990,#991));
#443=EDGE_LOOP('',(#992,#993,#994,#995,#996,#997,#998,#999));
#444=EDGE_LOOP('',(#1000,#1001,#1002,#1003));
#445=EDGE_LOOP('',(#1004,#1005,#1006,#1007));
#446=EDGE_LOOP('',(#1008,#1009,#1010,#1011));
#447=EDGE_LOOP('',(#1012,#1013,#1014,#1015,#1016,#1017,#1018,#1019));
#448=EDGE_LOOP('',(#1020,#1021,#1022,#1023));
#449=EDGE_LOOP('',(#1024,#1025,#1026,#1027));
#450=EDGE_LOOP('',(#1028,#1029,#1030,#1031));
#451=EDGE_LOOP('',(#1032,#1033,#1034,#1035));
#452=CIRCLE('',#1125,2.);
#453=CIRCLE('',#1126,2.);
#454=CIRCLE('',#1127,2.);
#455=CIRCLE('',#1129,1.99999999999999);
#456=CIRCLE('',#1130,2.);
#457=CIRCLE('',#1131,2.);
#458=CIRCLE('',#1144,2.);
#459=CIRCLE('',#1145,2.);
#460=CIRCLE('',#1146,2.);
#461=CIRCLE('',#1148,2.00000000000001);
#462=CIRCLE('',#1149,2.);
#463=CIRCLE('',#1150,2.00000000000001);
#464=CIRCLE('',#1155,2.);
#465=CIRCLE('',#1158,2.);
#466=CIRCLE('',#1165,2.);
#467=CIRCLE('',#1167,2.);
#468=CIRCLE('',#1174,2.);
#469=CIRCLE('',#1175,2.);
#470=CIRCLE('',#1176,2.);
#471=CIRCLE('',#1177,2.);
#472=VERTEX_POINT('',#1539);
#473=VERTEX_POINT('',#1540);
#474=VERTEX_POINT('',#1542);
#475=VERTEX_POINT('',#1546);
#476=VERTEX_POINT('',#1547);
#477=VERTEX_POINT('',#1549);
#478=VERTEX_POINT('',#1556);
#479=VERTEX_POINT('',#1558);
#480=VERTEX_POINT('',#1562);
#481=VERTEX_POINT('',#1564);
#482=VERTEX_POINT('',#1568);
#483=VERTEX_POINT('',#1569);
#484=VERTEX_POINT('',#1571);
#485=VERTEX_POINT('',#1573);
#486=VERTEX_POINT('',#1577);
#487=VERTEX_POINT('',#1578);
#488=VERTEX_POINT('',#1580);
#489=VERTEX_POINT('',#1582);
#490=VERTEX_POINT('',#1586);
#491=VERTEX_POINT('',#1587);
#492=VERTEX_POINT('',#1589);
#493=VERTEX_POINT('',#1593);
#494=VERTEX_POINT('',#1594);
#495=VERTEX_POINT('',#1596);
#496=VERTEX_POINT('',#1600);
#497=VERTEX_POINT('',#1602);
#498=VERTEX_POINT('',#1609);
#499=VERTEX_POINT('',#1610);
#500=VERTEX_POINT('',#1618);
#501=VERTEX_POINT('',#1619);
#502=VERTEX_POINT('',#1624);
#503=VERTEX_POINT('',#1626);
#504=VERTEX_POINT('',#1639);
#505=VERTEX_POINT('',#1640);
#506=VERTEX_POINT('',#1645);
#507=VERTEX_POINT('',#1646);
#508=VERTEX_POINT('',#1651);
#509=VERTEX_POINT('',#1653);
#510=VERTEX_POINT('',#1655);
#511=VERTEX_POINT('',#1657);
#512=VERTEX_POINT('',#1659);
#513=VERTEX_POINT('',#1661);
#514=VERTEX_POINT('',#1665);
#515=VERTEX_POINT('',#1669);
#516=VERTEX_POINT('',#1671);
#517=VERTEX_POINT('',#1673);
#518=VERTEX_POINT('',#1675);
#519=VERTEX_POINT('',#1677);
#520=VERTEX_POINT('',#1681);
#521=VERTEX_POINT('',#1683);
#522=VERTEX_POINT('',#1685);
#523=VERTEX_POINT('',#1694);
#524=VERTEX_POINT('',#1695);
#525=VERTEX_POINT('',#1697);
#526=VERTEX_POINT('',#1699);
#527=VERTEX_POINT('',#1701);
#528=VERTEX_POINT('',#1703);
#529=VERTEX_POINT('',#1705);
#530=VERTEX_POINT('',#1707);
#531=VERTEX_POINT('',#1712);
#532=VERTEX_POINT('',#1713);
#533=VERTEX_POINT('',#1716);
#534=VERTEX_POINT('',#1720);
#535=VERTEX_POINT('',#1722);
#536=VERTEX_POINT('',#1724);
#537=VERTEX_POINT('',#1728);
#538=VERTEX_POINT('',#1730);
#539=VERTEX_POINT('',#1732);
#540=VERTEX_POINT('',#1734);
#541=VERTEX_POINT('',#1738);
#542=VERTEX_POINT('',#1739);
#543=VERTEX_POINT('',#1742);
#544=VERTEX_POINT('',#1747);
#545=VERTEX_POINT('',#1751);
#546=VERTEX_POINT('',#1755);
#547=VERTEX_POINT('',#1756);
#548=VERTEX_POINT('',#1761);
#549=VERTEX_POINT('',#1765);
#550=VERTEX_POINT('',#1767);
#551=VERTEX_POINT('',#1771);
#552=VERTEX_POINT('',#1773);
#553=VERTEX_POINT('',#1788);
#554=VERTEX_POINT('',#1790);
#555=VERTEX_POINT('',#1792);
#556=VERTEX_POINT('',#1796);
#557=VERTEX_POINT('',#1798);
#558=VERTEX_POINT('',#1802);
#559=VERTEX_POINT('',#1806);
#560=VERTEX_POINT('',#1808);
#561=VERTEX_POINT('',#1812);
#562=VERTEX_POINT('',#1816);
#563=VERTEX_POINT('',#1820);
#564=VERTEX_POINT('',#1825);
#565=VERTEX_POINT('',#1829);
#566=VERTEX_POINT('',#1837);
#567=VERTEX_POINT('',#1843);
#568=EDGE_CURVE('',#472,#473,#452,.F.);
#569=EDGE_CURVE('',#474,#472,#453,.F.);
#570=EDGE_CURVE('',#473,#474,#454,.F.);
#571=EDGE_CURVE('',#475,#476,#455,.F.);
#572=EDGE_CURVE('',#477,#475,#456,.F.);
#573=EDGE_CURVE('',#476,#477,#457,.F.);
#574=EDGE_CURVE('',#475,#474,#69,.T.);
#575=EDGE_CURVE('',#472,#477,#70,.T.);
#576=EDGE_CURVE('',#478,#472,#71,.T.);
#577=EDGE_CURVE('',#473,#479,#72,.T.);
#578=EDGE_CURVE('',#479,#478,#53,.T.);
#579=EDGE_CURVE('',#479,#480,#73,.T.);
#580=EDGE_CURVE('',#480,#481,#54,.T.);
#581=EDGE_CURVE('',#481,#478,#74,.T.);
#582=EDGE_CURVE('',#482,#483,#75,.T.);
#583=EDGE_CURVE('',#483,#484,#55,.T.);
#584=EDGE_CURVE('',#484,#485,#76,.T.);
#585=EDGE_CURVE('',#485,#482,#56,.T.);
#586=EDGE_CURVE('',#486,#487,#77,.T.);
#587=EDGE_CURVE('',#487,#488,#57,.T.);
#588=EDGE_CURVE('',#488,#489,#78,.T.);
#589=EDGE_CURVE('',#489,#486,#58,.T.);
#590=EDGE_CURVE('',#490,#491,#458,.F.);
#591=EDGE_CURVE('',#492,#490,#459,.F.);
#592=EDGE_CURVE('',#491,#492,#460,.F.);
#593=EDGE_CURVE('',#493,#494,#461,.F.);
#594=EDGE_CURVE('',#495,#493,#462,.F.);
#595=EDGE_CURVE('',#494,#495,#463,.F.);
#596=EDGE_CURVE('',#496,#495,#79,.T.);
#597=EDGE_CURVE('',#493,#497,#80,.T.);
#598=EDGE_CURVE('',#497,#496,#59,.T.);
#599=EDGE_CURVE('',#490,#494,#81,.T.);
#600=EDGE_CURVE('',#495,#492,#82,.T.);
#601=EDGE_CURVE('',#498,#499,#464,.T.);
#602=EDGE_CURVE('',#499,#493,#83,.T.);
#603=EDGE_CURVE('',#494,#498,#84,.T.);
#604=EDGE_CURVE('',#487,#491,#85,.T.);
#605=EDGE_CURVE('',#492,#488,#86,.T.);
#606=EDGE_CURVE('',#500,#501,#465,.T.);
#607=EDGE_CURVE('',#501,#490,#87,.T.);
#608=EDGE_CURVE('',#491,#500,#88,.T.);
#609=EDGE_CURVE('',#502,#496,#89,.T.);
#610=EDGE_CURVE('',#497,#503,#90,.T.);
#611=EDGE_CURVE('',#503,#502,#60,.T.);
#612=EDGE_CURVE('',#483,#502,#91,.T.);
#613=EDGE_CURVE('',#503,#484,#92,.T.);
#614=EDGE_CURVE('',#480,#486,#93,.T.);
#615=EDGE_CURVE('',#489,#481,#94,.T.);
#616=EDGE_CURVE('',#485,#476,#95,.T.);
#617=EDGE_CURVE('',#477,#482,#96,.T.);
#618=EDGE_CURVE('',#504,#505,#466,.T.);
#619=EDGE_CURVE('',#505,#475,#97,.T.);
#620=EDGE_CURVE('',#476,#504,#98,.T.);
#621=EDGE_CURVE('',#506,#507,#467,.T.);
#622=EDGE_CURVE('',#507,#473,#99,.T.);
#623=EDGE_CURVE('',#474,#506,#100,.T.);
#624=EDGE_CURVE('',#481,#508,#101,.T.);
#625=EDGE_CURVE('',#509,#508,#102,.T.);
#626=EDGE_CURVE('',#510,#509,#103,.T.);
#627=EDGE_CURVE('',#511,#510,#104,.T.);
#628=EDGE_CURVE('',#512,#511,#105,.T.);
#629=EDGE_CURVE('',#513,#512,#106,.T.);
#630=EDGE_CURVE('',#478,#513,#107,.T.);
#631=EDGE_CURVE('',#514,#489,#108,.T.);
#632=EDGE_CURVE('',#508,#514,#109,.T.);
#633=EDGE_CURVE('',#515,#488,#110,.T.);
#634=EDGE_CURVE('',#516,#515,#111,.T.);
#635=EDGE_CURVE('',#517,#516,#112,.T.);
#636=EDGE_CURVE('',#518,#517,#113,.T.);
#637=EDGE_CURVE('',#519,#518,#114,.T.);
#638=EDGE_CURVE('',#514,#519,#115,.T.);
#639=EDGE_CURVE('',#496,#520,#116,.T.);
#640=EDGE_CURVE('',#520,#521,#117,.T.);
#641=EDGE_CURVE('',#521,#522,#118,.T.);
#642=EDGE_CURVE('',#522,#515,#119,.T.);
#643=EDGE_CURVE('',#504,#499,#120,.T.);
#644=EDGE_CURVE('',#498,#501,#121,.T.);
#645=EDGE_CURVE('',#500,#507,#122,.T.);
#646=EDGE_CURVE('',#506,#505,#123,.T.);
#647=EDGE_CURVE('',#523,#524,#124,.T.);
#648=EDGE_CURVE('',#525,#524,#468,.T.);
#649=EDGE_CURVE('',#525,#526,#125,.T.);
#650=EDGE_CURVE('',#527,#526,#469,.T.);
#651=EDGE_CURVE('',#527,#528,#126,.T.);
#652=EDGE_CURVE('',#529,#528,#470,.T.);
#653=EDGE_CURVE('',#529,#530,#127,.T.);
#654=EDGE_CURVE('',#523,#530,#471,.T.);
#655=EDGE_CURVE('',#531,#532,#61,.T.);
#656=EDGE_CURVE('',#531,#529,#128,.T.);
#657=EDGE_CURVE('',#528,#533,#129,.T.);
#658=EDGE_CURVE('',#532,#533,#62,.T.);
#659=EDGE_CURVE('',#533,#534,#130,.T.);
#660=EDGE_CURVE('',#534,#535,#131,.T.);
#661=EDGE_CURVE('',#535,#536,#132,.T.);
#662=EDGE_CURVE('',#536,#532,#133,.T.);
#663=EDGE_CURVE('',#537,#527,#134,.T.);
#664=EDGE_CURVE('',#538,#537,#135,.T.);
#665=EDGE_CURVE('',#538,#539,#136,.T.);
#666=EDGE_CURVE('',#539,#540,#137,.T.);
#667=EDGE_CURVE('',#540,#534,#138,.T.);
#668=EDGE_CURVE('',#541,#542,#63,.T.);
#669=EDGE_CURVE('',#541,#523,#139,.T.);
#670=EDGE_CURVE('',#530,#543,#140,.T.);
#671=EDGE_CURVE('',#542,#543,#64,.T.);
#672=EDGE_CURVE('',#509,#541,#141,.T.);
#673=EDGE_CURVE('',#544,#519,#142,.T.);
#674=EDGE_CURVE('',#524,#544,#143,.T.);
#675=EDGE_CURVE('',#545,#542,#144,.T.);
#676=EDGE_CURVE('',#545,#510,#145,.T.);
#677=EDGE_CURVE('',#546,#547,#65,.T.);
#678=EDGE_CURVE('',#546,#525,#146,.T.);
#679=EDGE_CURVE('',#547,#544,#66,.T.);
#680=EDGE_CURVE('',#518,#548,#147,.T.);
#681=EDGE_CURVE('',#548,#547,#148,.T.);
#682=EDGE_CURVE('',#537,#549,#67,.T.);
#683=EDGE_CURVE('',#526,#550,#149,.T.);
#684=EDGE_CURVE('',#549,#550,#68,.T.);
#685=EDGE_CURVE('',#551,#549,#150,.T.);
#686=EDGE_CURVE('',#551,#552,#151,.T.);
#687=EDGE_CURVE('',#552,#538,#152,.T.);
#688=EDGE_CURVE('',#536,#545,#153,.T.);
#689=EDGE_CURVE('',#543,#531,#154,.T.);
#690=EDGE_CURVE('',#548,#551,#155,.T.);
#691=EDGE_CURVE('',#550,#546,#156,.T.);
#692=EDGE_CURVE('',#540,#483,#157,.T.);
#693=EDGE_CURVE('',#502,#539,#158,.T.);
#694=EDGE_CURVE('',#553,#482,#159,.T.);
#695=EDGE_CURVE('',#554,#553,#160,.T.);
#696=EDGE_CURVE('',#555,#554,#161,.T.);
#697=EDGE_CURVE('',#535,#555,#162,.T.);
#698=EDGE_CURVE('',#556,#552,#163,.T.);
#699=EDGE_CURVE('',#557,#556,#164,.T.);
#700=EDGE_CURVE('',#520,#557,#165,.T.);
#701=EDGE_CURVE('',#555,#558,#166,.T.);
#702=EDGE_CURVE('',#558,#536,#167,.T.);
#703=EDGE_CURVE('',#559,#553,#168,.T.);
#704=EDGE_CURVE('',#559,#560,#169,.T.);
#705=EDGE_CURVE('',#560,#554,#170,.T.);
#706=EDGE_CURVE('',#561,#545,#171,.T.);
#707=EDGE_CURVE('',#561,#511,#172,.T.);
#708=EDGE_CURVE('',#517,#562,#173,.T.);
#709=EDGE_CURVE('',#562,#548,#174,.T.);
#710=EDGE_CURVE('',#563,#560,#175,.T.);
#711=EDGE_CURVE('',#512,#563,#176,.T.);
#712=EDGE_CURVE('',#558,#561,#177,.T.);
#713=EDGE_CURVE('',#564,#563,#178,.T.);
#714=EDGE_CURVE('',#513,#564,#179,.T.);
#715=EDGE_CURVE('',#522,#565,#180,.T.);
#716=EDGE_CURVE('',#565,#516,#181,.T.);
#717=EDGE_CURVE('',#564,#559,#182,.T.);
#718=EDGE_CURVE('',#521,#566,#183,.T.);
#719=EDGE_CURVE('',#566,#565,#184,.T.);
#720=EDGE_CURVE('',#557,#566,#185,.T.);
#721=EDGE_CURVE('',#567,#556,#186,.T.);
#722=EDGE_CURVE('',#562,#567,#187,.T.);
#723=EDGE_CURVE('',#567,#551,#188,.T.);
#724=ORIENTED_EDGE('',*,*,#568,.F.);
#725=ORIENTED_EDGE('',*,*,#569,.F.);
#726=ORIENTED_EDGE('',*,*,#570,.F.);
#727=ORIENTED_EDGE('',*,*,#571,.F.);
#728=ORIENTED_EDGE('',*,*,#572,.F.);
#729=ORIENTED_EDGE('',*,*,#573,.F.);
#730=ORIENTED_EDGE('',*,*,#572,.T.);
#731=ORIENTED_EDGE('',*,*,#574,.T.);
#732=ORIENTED_EDGE('',*,*,#569,.T.);
#733=ORIENTED_EDGE('',*,*,#575,.T.);
#734=ORIENTED_EDGE('',*,*,#576,.T.);
#735=ORIENTED_EDGE('',*,*,#568,.T.);
#736=ORIENTED_EDGE('',*,*,#577,.T.);
#737=ORIENTED_EDGE('',*,*,#578,.T.);
#738=ORIENTED_EDGE('',*,*,#579,.T.);
#739=ORIENTED_EDGE('',*,*,#580,.T.);
#740=ORIENTED_EDGE('',*,*,#581,.T.);
#741=ORIENTED_EDGE('',*,*,#578,.F.);
#742=ORIENTED_EDGE('',*,*,#582,.T.);
#743=ORIENTED_EDGE('',*,*,#583,.T.);
#744=ORIENTED_EDGE('',*,*,#584,.T.);
#745=ORIENTED_EDGE('',*,*,#585,.T.);
#746=ORIENTED_EDGE('',*,*,#586,.T.);
#747=ORIENTED_EDGE('',*,*,#587,.T.);
#748=ORIENTED_EDGE('',*,*,#588,.T.);
#749=ORIENTED_EDGE('',*,*,#589,.T.);
#750=ORIENTED_EDGE('',*,*,#590,.F.);
#751=ORIENTED_EDGE('',*,*,#591,.F.);
#752=ORIENTED_EDGE('',*,*,#592,.F.);
#753=ORIENTED_EDGE('',*,*,#593,.F.);
#754=ORIENTED_EDGE('',*,*,#594,.F.);
#755=ORIENTED_EDGE('',*,*,#595,.F.);
#756=ORIENTED_EDGE('',*,*,#596,.T.);
#757=ORIENTED_EDGE('',*,*,#594,.T.);
#758=ORIENTED_EDGE('',*,*,#597,.T.);
#759=ORIENTED_EDGE('',*,*,#598,.T.);
#760=ORIENTED_EDGE('',*,*,#591,.T.);
#761=ORIENTED_EDGE('',*,*,#599,.T.);
#762=ORIENTED_EDGE('',*,*,#595,.T.);
#763=ORIENTED_EDGE('',*,*,#600,.T.);
#764=ORIENTED_EDGE('',*,*,#601,.T.);
#765=ORIENTED_EDGE('',*,*,#602,.T.);
#766=ORIENTED_EDGE('',*,*,#593,.T.);
#767=ORIENTED_EDGE('',*,*,#603,.T.);
#768=ORIENTED_EDGE('',*,*,#604,.T.);
#769=ORIENTED_EDGE('',*,*,#592,.T.);
#770=ORIENTED_EDGE('',*,*,#605,.T.);
#771=ORIENTED_EDGE('',*,*,#587,.F.);
#772=ORIENTED_EDGE('',*,*,#606,.T.);
#773=ORIENTED_EDGE('',*,*,#607,.T.);
#774=ORIENTED_EDGE('',*,*,#590,.T.);
#775=ORIENTED_EDGE('',*,*,#608,.T.);
#776=ORIENTED_EDGE('',*,*,#609,.T.);
#777=ORIENTED_EDGE('',*,*,#598,.F.);
#778=ORIENTED_EDGE('',*,*,#610,.T.);
#779=ORIENTED_EDGE('',*,*,#611,.T.);
#780=ORIENTED_EDGE('',*,*,#612,.T.);
#781=ORIENTED_EDGE('',*,*,#611,.F.);
#782=ORIENTED_EDGE('',*,*,#613,.T.);
#783=ORIENTED_EDGE('',*,*,#583,.F.);
#784=ORIENTED_EDGE('',*,*,#614,.T.);
#785=ORIENTED_EDGE('',*,*,#589,.F.);
#786=ORIENTED_EDGE('',*,*,#615,.T.);
#787=ORIENTED_EDGE('',*,*,#580,.F.);
#788=ORIENTED_EDGE('',*,*,#616,.T.);
#789=ORIENTED_EDGE('',*,*,#573,.T.);
#790=ORIENTED_EDGE('',*,*,#617,.T.);
#791=ORIENTED_EDGE('',*,*,#585,.F.);
#792=ORIENTED_EDGE('',*,*,#618,.T.);
#793=ORIENTED_EDGE('',*,*,#619,.T.);
#794=ORIENTED_EDGE('',*,*,#571,.T.);
#795=ORIENTED_EDGE('',*,*,#620,.T.);
#796=ORIENTED_EDGE('',*,*,#621,.T.);
#797=ORIENTED_EDGE('',*,*,#622,.T.);
#798=ORIENTED_EDGE('',*,*,#570,.T.);
#799=ORIENTED_EDGE('',*,*,#623,.T.);
#800=ORIENTED_EDGE('',*,*,#581,.F.);
#801=ORIENTED_EDGE('',*,*,#624,.T.);
#802=ORIENTED_EDGE('',*,*,#625,.F.);
#803=ORIENTED_EDGE('',*,*,#626,.F.);
#804=ORIENTED_EDGE('',*,*,#627,.F.);
#805=ORIENTED_EDGE('',*,*,#628,.F.);
#806=ORIENTED_EDGE('',*,*,#629,.F.);
#807=ORIENTED_EDGE('',*,*,#630,.F.);
#808=ORIENTED_EDGE('',*,*,#615,.F.);
#809=ORIENTED_EDGE('',*,*,#631,.F.);
#810=ORIENTED_EDGE('',*,*,#632,.F.);
#811=ORIENTED_EDGE('',*,*,#624,.F.);
#812=ORIENTED_EDGE('',*,*,#588,.F.);
#813=ORIENTED_EDGE('',*,*,#633,.F.);
#814=ORIENTED_EDGE('',*,*,#634,.F.);
#815=ORIENTED_EDGE('',*,*,#635,.F.);
#816=ORIENTED_EDGE('',*,*,#636,.F.);
#817=ORIENTED_EDGE('',*,*,#637,.F.);
#818=ORIENTED_EDGE('',*,*,#638,.F.);
#819=ORIENTED_EDGE('',*,*,#631,.T.);
#820=ORIENTED_EDGE('',*,*,#605,.F.);
#821=ORIENTED_EDGE('',*,*,#600,.F.);
#822=ORIENTED_EDGE('',*,*,#596,.F.);
#823=ORIENTED_EDGE('',*,*,#639,.T.);
#824=ORIENTED_EDGE('',*,*,#640,.T.);
#825=ORIENTED_EDGE('',*,*,#641,.T.);
#826=ORIENTED_EDGE('',*,*,#642,.T.);
#827=ORIENTED_EDGE('',*,*,#633,.T.);
#828=ORIENTED_EDGE('',*,*,#620,.F.);
#829=ORIENTED_EDGE('',*,*,#616,.F.);
#830=ORIENTED_EDGE('',*,*,#584,.F.);
#831=ORIENTED_EDGE('',*,*,#613,.F.);
#832=ORIENTED_EDGE('',*,*,#610,.F.);
#833=ORIENTED_EDGE('',*,*,#597,.F.);
#834=ORIENTED_EDGE('',*,*,#602,.F.);
#835=ORIENTED_EDGE('',*,*,#643,.F.);
#836=ORIENTED_EDGE('',*,*,#618,.F.);
#837=ORIENTED_EDGE('',*,*,#643,.T.);
#838=ORIENTED_EDGE('',*,*,#601,.F.);
#839=ORIENTED_EDGE('',*,*,#644,.T.);
#840=ORIENTED_EDGE('',*,*,#606,.F.);
#841=ORIENTED_EDGE('',*,*,#645,.T.);
#842=ORIENTED_EDGE('',*,*,#621,.F.);
#843=ORIENTED_EDGE('',*,*,#646,.T.);
#844=ORIENTED_EDGE('',*,*,#647,.T.);
#845=ORIENTED_EDGE('',*,*,#648,.F.);
#846=ORIENTED_EDGE('',*,*,#649,.T.);
#847=ORIENTED_EDGE('',*,*,#650,.F.);
#848=ORIENTED_EDGE('',*,*,#651,.T.);
#849=ORIENTED_EDGE('',*,*,#652,.F.);
#850=ORIENTED_EDGE('',*,*,#653,.T.);
#851=ORIENTED_EDGE('',*,*,#654,.F.);
#852=ORIENTED_EDGE('',*,*,#603,.F.);
#853=ORIENTED_EDGE('',*,*,#599,.F.);
#854=ORIENTED_EDGE('',*,*,#607,.F.);
#855=ORIENTED_EDGE('',*,*,#644,.F.);
#856=ORIENTED_EDGE('',*,*,#655,.F.);
#857=ORIENTED_EDGE('',*,*,#656,.T.);
#858=ORIENTED_EDGE('',*,*,#652,.T.);
#859=ORIENTED_EDGE('',*,*,#657,.T.);
#860=ORIENTED_EDGE('',*,*,#658,.F.);
#861=ORIENTED_EDGE('',*,*,#658,.T.);
#862=ORIENTED_EDGE('',*,*,#659,.T.);
#863=ORIENTED_EDGE('',*,*,#660,.T.);
#864=ORIENTED_EDGE('',*,*,#661,.T.);
#865=ORIENTED_EDGE('',*,*,#662,.T.);
#866=ORIENTED_EDGE('',*,*,#657,.F.);
#867=ORIENTED_EDGE('',*,*,#651,.F.);
#868=ORIENTED_EDGE('',*,*,#663,.F.);
#869=ORIENTED_EDGE('',*,*,#664,.F.);
#870=ORIENTED_EDGE('',*,*,#665,.T.);
#871=ORIENTED_EDGE('',*,*,#666,.T.);
#872=ORIENTED_EDGE('',*,*,#667,.T.);
#873=ORIENTED_EDGE('',*,*,#659,.F.);
#874=ORIENTED_EDGE('',*,*,#668,.F.);
#875=ORIENTED_EDGE('',*,*,#669,.T.);
#876=ORIENTED_EDGE('',*,*,#654,.T.);
#877=ORIENTED_EDGE('',*,*,#670,.T.);
#878=ORIENTED_EDGE('',*,*,#671,.F.);
#879=ORIENTED_EDGE('',*,*,#669,.F.);
#880=ORIENTED_EDGE('',*,*,#672,.F.);
#881=ORIENTED_EDGE('',*,*,#625,.T.);
#882=ORIENTED_EDGE('',*,*,#632,.T.);
#883=ORIENTED_EDGE('',*,*,#638,.T.);
#884=ORIENTED_EDGE('',*,*,#673,.F.);
#885=ORIENTED_EDGE('',*,*,#674,.F.);
#886=ORIENTED_EDGE('',*,*,#647,.F.);
#887=ORIENTED_EDGE('',*,*,#668,.T.);
#888=ORIENTED_EDGE('',*,*,#675,.F.);
#889=ORIENTED_EDGE('',*,*,#676,.T.);
#890=ORIENTED_EDGE('',*,*,#626,.T.);
#891=ORIENTED_EDGE('',*,*,#672,.T.);
#892=ORIENTED_EDGE('',*,*,#677,.F.);
#893=ORIENTED_EDGE('',*,*,#678,.T.);
#894=ORIENTED_EDGE('',*,*,#648,.T.);
#895=ORIENTED_EDGE('',*,*,#674,.T.);
#896=ORIENTED_EDGE('',*,*,#679,.F.);
#897=ORIENTED_EDGE('',*,*,#679,.T.);
#898=ORIENTED_EDGE('',*,*,#673,.T.);
#899=ORIENTED_EDGE('',*,*,#637,.T.);
#900=ORIENTED_EDGE('',*,*,#680,.T.);
#901=ORIENTED_EDGE('',*,*,#681,.T.);
#902=ORIENTED_EDGE('',*,*,#682,.F.);
#903=ORIENTED_EDGE('',*,*,#663,.T.);
#904=ORIENTED_EDGE('',*,*,#650,.T.);
#905=ORIENTED_EDGE('',*,*,#683,.T.);
#906=ORIENTED_EDGE('',*,*,#684,.F.);
#907=ORIENTED_EDGE('',*,*,#682,.T.);
#908=ORIENTED_EDGE('',*,*,#685,.F.);
#909=ORIENTED_EDGE('',*,*,#686,.T.);
#910=ORIENTED_EDGE('',*,*,#687,.T.);
#911=ORIENTED_EDGE('',*,*,#664,.T.);
#912=ORIENTED_EDGE('',*,*,#655,.T.);
#913=ORIENTED_EDGE('',*,*,#662,.F.);
#914=ORIENTED_EDGE('',*,*,#688,.T.);
#915=ORIENTED_EDGE('',*,*,#675,.T.);
#916=ORIENTED_EDGE('',*,*,#671,.T.);
#917=ORIENTED_EDGE('',*,*,#689,.T.);
#918=ORIENTED_EDGE('',*,*,#656,.F.);
#919=ORIENTED_EDGE('',*,*,#689,.F.);
#920=ORIENTED_EDGE('',*,*,#670,.F.);
#921=ORIENTED_EDGE('',*,*,#653,.F.);
#922=ORIENTED_EDGE('',*,*,#677,.T.);
#923=ORIENTED_EDGE('',*,*,#681,.F.);
#924=ORIENTED_EDGE('',*,*,#690,.T.);
#925=ORIENTED_EDGE('',*,*,#685,.T.);
#926=ORIENTED_EDGE('',*,*,#684,.T.);
#927=ORIENTED_EDGE('',*,*,#691,.T.);
#928=ORIENTED_EDGE('',*,*,#678,.F.);
#929=ORIENTED_EDGE('',*,*,#691,.F.);
#930=ORIENTED_EDGE('',*,*,#683,.F.);
#931=ORIENTED_EDGE('',*,*,#649,.F.);
#932=ORIENTED_EDGE('',*,*,#612,.F.);
#933=ORIENTED_EDGE('',*,*,#692,.F.);
#934=ORIENTED_EDGE('',*,*,#666,.F.);
#935=ORIENTED_EDGE('',*,*,#693,.F.);
#936=ORIENTED_EDGE('',*,*,#582,.F.);
#937=ORIENTED_EDGE('',*,*,#694,.F.);
#938=ORIENTED_EDGE('',*,*,#695,.F.);
#939=ORIENTED_EDGE('',*,*,#696,.F.);
#940=ORIENTED_EDGE('',*,*,#697,.F.);
#941=ORIENTED_EDGE('',*,*,#660,.F.);
#942=ORIENTED_EDGE('',*,*,#667,.F.);
#943=ORIENTED_EDGE('',*,*,#692,.T.);
#944=ORIENTED_EDGE('',*,*,#609,.F.);
#945=ORIENTED_EDGE('',*,*,#693,.T.);
#946=ORIENTED_EDGE('',*,*,#665,.F.);
#947=ORIENTED_EDGE('',*,*,#687,.F.);
#948=ORIENTED_EDGE('',*,*,#698,.F.);
#949=ORIENTED_EDGE('',*,*,#699,.F.);
#950=ORIENTED_EDGE('',*,*,#700,.F.);
#951=ORIENTED_EDGE('',*,*,#639,.F.);
#952=ORIENTED_EDGE('',*,*,#697,.T.);
#953=ORIENTED_EDGE('',*,*,#701,.T.);
#954=ORIENTED_EDGE('',*,*,#702,.T.);
#955=ORIENTED_EDGE('',*,*,#661,.F.);
#956=ORIENTED_EDGE('',*,*,#695,.T.);
#957=ORIENTED_EDGE('',*,*,#703,.F.);
#958=ORIENTED_EDGE('',*,*,#704,.T.);
#959=ORIENTED_EDGE('',*,*,#705,.T.);
#960=ORIENTED_EDGE('',*,*,#627,.T.);
#961=ORIENTED_EDGE('',*,*,#676,.F.);
#962=ORIENTED_EDGE('',*,*,#706,.F.);
#963=ORIENTED_EDGE('',*,*,#707,.T.);
#964=ORIENTED_EDGE('',*,*,#636,.T.);
#965=ORIENTED_EDGE('',*,*,#708,.T.);
#966=ORIENTED_EDGE('',*,*,#709,.T.);
#967=ORIENTED_EDGE('',*,*,#680,.F.);
#968=ORIENTED_EDGE('',*,*,#696,.T.);
#969=ORIENTED_EDGE('',*,*,#705,.F.);
#970=ORIENTED_EDGE('',*,*,#710,.F.);
#971=ORIENTED_EDGE('',*,*,#711,.F.);
#972=ORIENTED_EDGE('',*,*,#628,.T.);
#973=ORIENTED_EDGE('',*,*,#707,.F.);
#974=ORIENTED_EDGE('',*,*,#712,.F.);
#975=ORIENTED_EDGE('',*,*,#701,.F.);
#976=ORIENTED_EDGE('',*,*,#629,.T.);
#977=ORIENTED_EDGE('',*,*,#711,.T.);
#978=ORIENTED_EDGE('',*,*,#713,.F.);
#979=ORIENTED_EDGE('',*,*,#714,.F.);
#980=ORIENTED_EDGE('',*,*,#634,.T.);
#981=ORIENTED_EDGE('',*,*,#642,.F.);
#982=ORIENTED_EDGE('',*,*,#715,.T.);
#983=ORIENTED_EDGE('',*,*,#716,.T.);
#984=ORIENTED_EDGE('',*,*,#576,.F.);
#985=ORIENTED_EDGE('',*,*,#630,.T.);
#986=ORIENTED_EDGE('',*,*,#714,.T.);
#987=ORIENTED_EDGE('',*,*,#717,.T.);
#988=ORIENTED_EDGE('',*,*,#703,.T.);
#989=ORIENTED_EDGE('',*,*,#694,.T.);
#990=ORIENTED_EDGE('',*,*,#617,.F.);
#991=ORIENTED_EDGE('',*,*,#575,.F.);
#992=ORIENTED_EDGE('',*,*,#622,.F.);
#993=ORIENTED_EDGE('',*,*,#645,.F.);
#994=ORIENTED_EDGE('',*,*,#608,.F.);
#995=ORIENTED_EDGE('',*,*,#604,.F.);
#996=ORIENTED_EDGE('',*,*,#586,.F.);
#997=ORIENTED_EDGE('',*,*,#614,.F.);
#998=ORIENTED_EDGE('',*,*,#579,.F.);
#999=ORIENTED_EDGE('',*,*,#577,.F.);
#1000=ORIENTED_EDGE('',*,*,#717,.F.);
#1001=ORIENTED_EDGE('',*,*,#713,.T.);
#1002=ORIENTED_EDGE('',*,*,#710,.T.);
#1003=ORIENTED_EDGE('',*,*,#704,.F.);
#1004=ORIENTED_EDGE('',*,*,#641,.F.);
#1005=ORIENTED_EDGE('',*,*,#718,.T.);
#1006=ORIENTED_EDGE('',*,*,#719,.T.);
#1007=ORIENTED_EDGE('',*,*,#715,.F.);
#1008=ORIENTED_EDGE('',*,*,#700,.T.);
#1009=ORIENTED_EDGE('',*,*,#720,.T.);
#1010=ORIENTED_EDGE('',*,*,#718,.F.);
#1011=ORIENTED_EDGE('',*,*,#640,.F.);
#1012=ORIENTED_EDGE('',*,*,#699,.T.);
#1013=ORIENTED_EDGE('',*,*,#721,.F.);
#1014=ORIENTED_EDGE('',*,*,#722,.F.);
#1015=ORIENTED_EDGE('',*,*,#708,.F.);
#1016=ORIENTED_EDGE('',*,*,#635,.T.);
#1017=ORIENTED_EDGE('',*,*,#716,.F.);
#1018=ORIENTED_EDGE('',*,*,#719,.F.);
#1019=ORIENTED_EDGE('',*,*,#720,.F.);
#1020=ORIENTED_EDGE('',*,*,#722,.T.);
#1021=ORIENTED_EDGE('',*,*,#723,.T.);
#1022=ORIENTED_EDGE('',*,*,#690,.F.);
#1023=ORIENTED_EDGE('',*,*,#709,.F.);
#1024=ORIENTED_EDGE('',*,*,#698,.T.);
#1025=ORIENTED_EDGE('',*,*,#686,.F.);
#1026=ORIENTED_EDGE('',*,*,#723,.F.);
#1027=ORIENTED_EDGE('',*,*,#721,.T.);
#1028=ORIENTED_EDGE('',*,*,#712,.T.);
#1029=ORIENTED_EDGE('',*,*,#706,.T.);
#1030=ORIENTED_EDGE('',*,*,#688,.F.);
#1031=ORIENTED_EDGE('',*,*,#702,.F.);
#1032=ORIENTED_EDGE('',*,*,#619,.F.);
#1033=ORIENTED_EDGE('',*,*,#646,.F.);
#1034=ORIENTED_EDGE('',*,*,#623,.F.);
#1035=ORIENTED_EDGE('',*,*,#574,.F.);
#1036=SPHERICAL_SURFACE('',#1124,2.);
#1037=SPHERICAL_SURFACE('',#1128,2.);
#1038=SPHERICAL_SURFACE('',#1143,2.);
#1039=SPHERICAL_SURFACE('',#1147,2.);
#1040=ADVANCED_FACE('',(#329),#1036,.T.);
#1041=ADVANCED_FACE('',(#330),#1037,.T.);
#1042=ADVANCED_FACE('',(#331),#309,.T.);
#1043=ADVANCED_FACE('',(#332),#310,.T.);
#1044=ADVANCED_FACE('',(#333),#311,.T.);
#1045=ADVANCED_FACE('',(#334),#312,.T.);
#1046=ADVANCED_FACE('',(#335),#313,.T.);
#1047=ADVANCED_FACE('',(#336),#1038,.T.);
#1048=ADVANCED_FACE('',(#337),#1039,.T.);
#1049=ADVANCED_FACE('',(#338),#314,.T.);
#1050=ADVANCED_FACE('',(#339),#315,.T.);
#1051=ADVANCED_FACE('',(#340),#316,.T.);
#1052=ADVANCED_FACE('',(#341),#317,.T.);
#1053=ADVANCED_FACE('',(#342),#318,.T.);
#1054=ADVANCED_FACE('',(#343),#319,.T.);
#1055=ADVANCED_FACE('',(#344),#320,.T.);
#1056=ADVANCED_FACE('',(#345),#321,.T.);
#1057=ADVANCED_FACE('',(#346),#322,.T.);
#1058=ADVANCED_FACE('',(#347),#323,.T.);
#1059=ADVANCED_FACE('',(#348),#324,.T.);
#1060=ADVANCED_FACE('',(#349),#16,.F.);
#1061=ADVANCED_FACE('',(#350),#17,.F.);
#1062=ADVANCED_FACE('',(#351),#18,.F.);
#1063=ADVANCED_FACE('',(#352),#19,.F.);
#1064=ADVANCED_FACE('',(#353),#20,.T.);
#1065=ADVANCED_FACE('',(#354,#15),#21,.T.);
#1066=ADVANCED_FACE('',(#355),#22,.T.);
#1067=ADVANCED_FACE('',(#356),#325,.F.);
#1068=ADVANCED_FACE('',(#357),#23,.T.);
#1069=ADVANCED_FACE('',(#358),#24,.T.);
#1070=ADVANCED_FACE('',(#359),#326,.F.);
#1071=ADVANCED_FACE('',(#360),#25,.T.);
#1072=ADVANCED_FACE('',(#361),#26,.T.);
#1073=ADVANCED_FACE('',(#362),#327,.F.);
#1074=ADVANCED_FACE('',(#363),#27,.T.);
#1075=ADVANCED_FACE('',(#364),#328,.F.);
#1076=ADVANCED_FACE('',(#365),#28,.T.);
#1077=ADVANCED_FACE('',(#366),#29,.T.);
#1078=ADVANCED_FACE('',(#367),#30,.T.);
#1079=ADVANCED_FACE('',(#368),#31,.T.);
#1080=ADVANCED_FACE('',(#369),#32,.T.);
#1081=ADVANCED_FACE('',(#370),#33,.F.);
#1082=ADVANCED_FACE('',(#371),#34,.F.);
#1083=ADVANCED_FACE('',(#372),#35,.F.);
#1084=ADVANCED_FACE('',(#373),#36,.T.);
#1085=ADVANCED_FACE('',(#374),#37,.F.);
#1086=ADVANCED_FACE('',(#375),#38,.T.);
#1087=ADVANCED_FACE('',(#376),#39,.T.);
#1088=ADVANCED_FACE('',(#377),#40,.F.);
#1089=ADVANCED_FACE('',(#378),#41,.F.);
#1090=ADVANCED_FACE('',(#379),#42,.F.);
#1091=ADVANCED_FACE('',(#380),#43,.F.);
#1092=ADVANCED_FACE('',(#381),#44,.T.);
#1093=ADVANCED_FACE('',(#382),#45,.F.);
#1094=ADVANCED_FACE('',(#383),#46,.F.);
#1095=ADVANCED_FACE('',(#384),#47,.F.);
#1096=ADVANCED_FACE('',(#385),#48,.F.);
#1097=ADVANCED_FACE('',(#386),#49,.T.);
#1098=ADVANCED_FACE('',(#387),#50,.T.);
#1099=ADVANCED_FACE('',(#388),#51,.T.);
#1100=ADVANCED_FACE('',(#389),#52,.T.);
#1101=CLOSED_SHELL('',(#1040,#1041,#1042,#1043,#1044,#1045,#1046,#1047,
#1048,#1049,#1050,#1051,#1052,#1053,#1054,#1055,#1056,#1057,#1058,#1059,
#1060,#1061,#1062,#1063,#1064,#1065,#1066,#1067,#1068,#1069,#1070,#1071,
#1072,#1073,#1074,#1075,#1076,#1077,#1078,#1079,#1080,#1081,#1082,#1083,
#1084,#1085,#1086,#1087,#1088,#1089,#1090,#1091,#1092,#1093,#1094,#1095,
#1096,#1097,#1098,#1099,#1100));
#1102=DERIVED_UNIT_ELEMENT(#1105,1.);
#1103=DERIVED_UNIT_ELEMENT(#1856,-3.);
#1104=DIMENSIONAL_EXPONENTS(0.,1.,0.,0.,0.,0.,0.);
#1105=(
CONVERSION_BASED_UNIT('gram',#1107)
MASS_UNIT()
NAMED_UNIT(#1104)
);
#1106=(
MASS_UNIT()
NAMED_UNIT(*)
SI_UNIT(.KILO.,.GRAM.)
);
#1107=MASS_MEASURE_WITH_UNIT(MASS_MEASURE(0.001),#1106);
#1108=DERIVED_UNIT((#1102,#1103));
#1109=MEASURE_REPRESENTATION_ITEM('density measure',
POSITIVE_RATIO_MEASURE(0.93),#1108);
#1110=PROPERTY_DEFINITION_REPRESENTATION(#1115,#1112);
#1111=PROPERTY_DEFINITION_REPRESENTATION(#1116,#1113);
#1112=REPRESENTATION('material name',(#1114),#1853);
#1113=REPRESENTATION('density',(#1109),#1853);
#1114=DESCRIPTIVE_REPRESENTATION_ITEM('Gummi','Gummi');
#1115=PROPERTY_DEFINITION('material property','material name',#1863);
#1116=PROPERTY_DEFINITION('material property','density of part',#1863);
#1117=DATE_TIME_ROLE('creation_date');
#1118=APPLIED_DATE_AND_TIME_ASSIGNMENT(#1119,#1117,(#1863));
#1119=DATE_AND_TIME(#1120,#1121);
#1120=CALENDAR_DATE(2026,11,1);
#1121=LOCAL_TIME(0,0,0.,#1122);
#1122=COORDINATED_UNIVERSAL_TIME_OFFSET(0,0,.BEHIND.);
#1123=AXIS2_PLACEMENT_3D('',#1537,#1221,#1222);
#1124=AXIS2_PLACEMENT_3D('',#1538,#1223,#1224);
#1125=AXIS2_PLACEMENT_3D('',#1541,#1225,#1226);
#1126=AXIS2_PLACEMENT_3D('',#1543,#1227,#1228);
#1127=AXIS2_PLACEMENT_3D('',#1544,#1229,#1230);
#1128=AXIS2_PLACEMENT_3D('',#1545,#1231,#1232);
#1129=AXIS2_PLACEMENT_3D('',#1548,#1233,#1234);
#1130=AXIS2_PLACEMENT_3D('',#1550,#1235,#1236);
#1131=AXIS2_PLACEMENT_3D('',#1551,#1237,#1238);
#1132=AXIS2_PLACEMENT_3D('',#1552,#1239,#1240);
#1133=AXIS2_PLACEMENT_3D('',#1555,#1243,#1244);
#1134=AXIS2_PLACEMENT_3D('',#1560,#1247,#1248);
#1135=AXIS2_PLACEMENT_3D('',#1561,#1249,#1250);
#1136=AXIS2_PLACEMENT_3D('',#1565,#1252,#1253);
#1137=AXIS2_PLACEMENT_3D('',#1567,#1255,#1256);
#1138=AXIS2_PLACEMENT_3D('',#1572,#1258,#1259);
#1139=AXIS2_PLACEMENT_3D('',#1575,#1261,#1262);
#1140=AXIS2_PLACEMENT_3D('',#1576,#1263,#1264);
#1141=AXIS2_PLACEMENT_3D('',#1581,#1266,#1267);
#1142=AXIS2_PLACEMENT_3D('',#1584,#1269,#1270);
#1143=AXIS2_PLACEMENT_3D('',#1585,#1271,#1272);
#1144=AXIS2_PLACEMENT_3D('',#1588,#1273,#1274);
#1145=AXIS2_PLACEMENT_3D('',#1590,#1275,#1276);
#1146=AXIS2_PLACEMENT_3D('',#1591,#1277,#1278);
#1147=AXIS2_PLACEMENT_3D('',#1592,#1279,#1280);
#1148=AXIS2_PLACEMENT_3D('',#1595,#1281,#1282);
#1149=AXIS2_PLACEMENT_3D('',#1597,#1283,#1284);
#1150=AXIS2_PLACEMENT_3D('',#1598,#1285,#1286);
#1151=AXIS2_PLACEMENT_3D('',#1599,#1287,#1288);
#1152=AXIS2_PLACEMENT_3D('',#1604,#1291,#1292);
#1153=AXIS2_PLACEMENT_3D('',#1605,#1293,#1294);
#1154=AXIS2_PLACEMENT_3D('',#1608,#1297,#1298);
#1155=AXIS2_PLACEMENT_3D('',#1611,#1299,#1300);
#1156=AXIS2_PLACEMENT_3D('',#1614,#1303,#1304);
#1157=AXIS2_PLACEMENT_3D('',#1617,#1307,#1308);
#1158=AXIS2_PLACEMENT_3D('',#1620,#1309,#1310);
#1159=AXIS2_PLACEMENT_3D('',#1623,#1313,#1314);
#1160=AXIS2_PLACEMENT_3D('',#1628,#1317,#1318);
#1161=AXIS2_PLACEMENT_3D('',#1629,#1319,#1320);
#1162=AXIS2_PLACEMENT_3D('',#1632,#1323,#1324);
#1163=AXIS2_PLACEMENT_3D('',#1635,#1327,#1328);
#1164=AXIS2_PLACEMENT_3D('',#1638,#1331,#1332);
#1165=AXIS2_PLACEMENT_3D('',#1641,#1333,#1334);
#1166=AXIS2_PLACEMENT_3D('',#1644,#1337,#1338);
#1167=AXIS2_PLACEMENT_3D('',#1647,#1339,#1340);
#1168=AXIS2_PLACEMENT_3D('',#1650,#1343,#1344);
#1169=AXIS2_PLACEMENT_3D('',#1664,#1352,#1353);
#1170=AXIS2_PLACEMENT_3D('',#1668,#1356,#1357);
#1171=AXIS2_PLACEMENT_3D('',#1680,#1364,#1365);
#1172=AXIS2_PLACEMENT_3D('',#1688,#1370,#1371);
#1173=AXIS2_PLACEMENT_3D('',#1690,#1373,#1374);
#1174=AXIS2_PLACEMENT_3D('',#1698,#1379,#1380);
#1175=AXIS2_PLACEMENT_3D('',#1702,#1382,#1383);
#1176=AXIS2_PLACEMENT_3D('',#1706,#1385,#1386);
#1177=AXIS2_PLACEMENT_3D('',#1709,#1388,#1389);
#1178=AXIS2_PLACEMENT_3D('',#1710,#1390,#1391);
#1179=AXIS2_PLACEMENT_3D('',#1711,#1392,#1393);
#1180=AXIS2_PLACEMENT_3D('',#1714,#1394,#1395);
#1181=AXIS2_PLACEMENT_3D('',#1718,#1398,#1399);
#1182=AXIS2_PLACEMENT_3D('',#1719,#1400,#1401);
#1183=AXIS2_PLACEMENT_3D('',#1727,#1406,#1407);
#1184=AXIS2_PLACEMENT_3D('',#1737,#1413,#1414);
#1185=AXIS2_PLACEMENT_3D('',#1740,#1415,#1416);
#1186=AXIS2_PLACEMENT_3D('',#1744,#1419,#1420);
#1187=AXIS2_PLACEMENT_3D('',#1745,#1421,#1422);
#1188=AXIS2_PLACEMENT_3D('',#1750,#1426,#1427);
#1189=AXIS2_PLACEMENT_3D('',#1754,#1430,#1431);
#1190=AXIS2_PLACEMENT_3D('',#1757,#1432,#1433);
#1191=AXIS2_PLACEMENT_3D('',#1759,#1435,#1436);
#1192=AXIS2_PLACEMENT_3D('',#1760,#1437,#1438);
#1193=AXIS2_PLACEMENT_3D('',#1764,#1441,#1442);
#1194=AXIS2_PLACEMENT_3D('',#1766,#1443,#1444);
#1195=AXIS2_PLACEMENT_3D('',#1769,#1446,#1447);
#1196=AXIS2_PLACEMENT_3D('',#1770,#1448,#1449);
#1197=AXIS2_PLACEMENT_3D('',#1776,#1453,#1454);
#1198=AXIS2_PLACEMENT_3D('',#1779,#1457,#1458);
#1199=AXIS2_PLACEMENT_3D('',#1780,#1459,#1460);
#1200=AXIS2_PLACEMENT_3D('',#1783,#1463,#1464);
#1201=AXIS2_PLACEMENT_3D('',#1784,#1465,#1466);
#1202=AXIS2_PLACEMENT_3D('',#1787,#1469,#1470);
#1203=AXIS2_PLACEMENT_3D('',#1795,#1475,#1476);
#1204=AXIS2_PLACEMENT_3D('',#1801,#1480,#1481);
#1205=AXIS2_PLACEMENT_3D('',#1805,#1484,#1485);
#1206=AXIS2_PLACEMENT_3D('',#1811,#1489,#1490);
#1207=AXIS2_PLACEMENT_3D('',#1815,#1493,#1494);
#1208=AXIS2_PLACEMENT_3D('',#1819,#1497,#1498);
#1209=AXIS2_PLACEMENT_3D('',#1824,#1502,#1503);
#1210=AXIS2_PLACEMENT_3D('',#1828,#1506,#1507);
#1211=AXIS2_PLACEMENT_3D('',#1832,#1510,#1511);
#1212=AXIS2_PLACEMENT_3D('',#1834,#1513,#1514);
#1213=AXIS2_PLACEMENT_3D('',#1835,#1515,#1516);
#1214=AXIS2_PLACEMENT_3D('',#1836,#1517,#1518);
#1215=AXIS2_PLACEMENT_3D('',#1840,#1521,#1522);
#1216=AXIS2_PLACEMENT_3D('',#1842,#1524,#1525);
#1217=AXIS2_PLACEMENT_3D('',#1846,#1528,#1529);
#1218=AXIS2_PLACEMENT_3D('',#1848,#1531,#1532);
#1219=AXIS2_PLACEMENT_3D('',#1849,#1533,#1534);
#1220=AXIS2_PLACEMENT_3D('',#1850,#1535,#1536);
#1221=DIRECTION('axis',(0.,0.,1.));
#1222=DIRECTION('refdir',(1.,0.,0.));
#1223=DIRECTION('center_axis',(0.408248290463863,-0.816496580927726,0.408248290463864));
#1224=DIRECTION('ref_axis',(-0.577350269189625,-0.577350269189625,-0.577350269189627));
#1225=DIRECTION('center_axis',(-1.,0.,0.));
#1226=DIRECTION('ref_axis',(0.,-1.,0.));
#1227=DIRECTION('center_axis',(0.,2.22044604925031E-15,-1.));
#1228=DIRECTION('ref_axis',(-1.,0.,0.));
#1229=DIRECTION('center_axis',(0.,-1.,0.));
#1230=DIRECTION('ref_axis',(0.,0.,-1.));
#1231=DIRECTION('center_axis',(-0.408248290463863,-0.408248290463862,-0.816496580927727));
#1232=DIRECTION('ref_axis',(-0.577350269189627,-0.577350269189625,0.577350269189625));
#1233=DIRECTION('center_axis',(0.,-1.,0.));
#1234=DIRECTION('ref_axis',(-1.,0.,0.));
#1235=DIRECTION('center_axis',(0.,0.,1.));
#1236=DIRECTION('ref_axis',(0.,-1.,0.));
#1237=DIRECTION('center_axis',(-1.,-4.44089209850063E-15,0.));
#1238=DIRECTION('ref_axis',(0.,0.,1.));
#1239=DIRECTION('center_axis',(0.,0.,1.));
#1240=DIRECTION('ref_axis',(-0.707106781186549,-0.707106781186546,0.));
#1241=DIRECTION('',(0.,0.,-1.));
#1242=DIRECTION('',(0.,0.,1.));
#1243=DIRECTION('center_axis',(-1.,0.,8.02455263899757E-16));
#1244=DIRECTION('ref_axis',(0.,-0.707106781186549,-0.707106781186546));
#1245=DIRECTION('',(-1.,0.,8.02455263899757E-16));
#1246=DIRECTION('',(1.,0.,-8.02455263899757E-16));
#1247=DIRECTION('center_axis',(-0.707106781186548,-0.707106781186547,7.85046229341889E-16));
#1248=DIRECTION('ref_axis',(0.707106781186547,-0.707106781186548,-3.49796888062829E-16));
#1249=DIRECTION('center_axis',(0.,-1.,0.));
#1250=DIRECTION('ref_axis',(0.707106781186548,0.,-0.707106781186548));
#1251=DIRECTION('',(0.,1.,0.));
#1252=DIRECTION('center_axis',(-0.707106781186548,-0.707106781186548,1.57009245868378E-15));
#1253=DIRECTION('ref_axis',(-0.707106781186548,0.707106781186548,1.57009245868378E-15));
#1254=DIRECTION('',(0.,-1.,0.));
#1255=DIRECTION('center_axis',(0.,1.,0.));
#1256=DIRECTION('ref_axis',(0.707106781186548,0.,0.707106781186548));
#1257=DIRECTION('',(0.,1.,0.));
#1258=DIRECTION('center_axis',(-0.707106781186548,-0.707106781186547,0.));
#1259=DIRECTION('ref_axis',(0.707106781186547,-0.707106781186548,0.));
#1260=DIRECTION('',(0.,-1.,0.));
#1261=DIRECTION('center_axis',(0.707106781186548,0.707106781186547,0.));
#1262=DIRECTION('ref_axis',(0.707106781186547,-0.707106781186548,0.));
#1263=DIRECTION('center_axis',(0.,1.,0.));
#1264=DIRECTION('ref_axis',(-0.707106781186546,0.,-0.707106781186549));
#1265=DIRECTION('',(0.,-1.,0.));
#1266=DIRECTION('center_axis',(-0.707106781186547,0.707106781186548,7.85046229341886E-16));
#1267=DIRECTION('ref_axis',(-0.707106781186548,-0.707106781186547,7.85046229341887E-16));
#1268=DIRECTION('',(0.,1.,0.));
#1269=DIRECTION('center_axis',(0.707106781186548,-0.707106781186548,-7.85046229341887E-16));
#1270=DIRECTION('ref_axis',(-0.707106781186548,-0.707106781186548,7.85046229341887E-16));
#1271=DIRECTION('center_axis',(-0.408248290463863,0.408248290463862,-0.816496580927727));
#1272=DIRECTION('ref_axis',(0.577350269189627,-0.577350269189625,-0.577350269189625));
#1273=DIRECTION('center_axis',(0.,-1.,0.));
#1274=DIRECTION('ref_axis',(1.,0.,0.));
#1275=DIRECTION('center_axis',(0.,0.,-1.));
#1276=DIRECTION('ref_axis',(0.,-1.,0.));
#1277=DIRECTION('center_axis',(1.,0.,0.));
#1278=DIRECTION('ref_axis',(0.,0.,-1.));
#1279=DIRECTION('center_axis',(0.408248290463863,-0.408248290463858,-0.816496580927728));
#1280=DIRECTION('ref_axis',(0.57735026918963,-0.577350269189624,0.577350269189623));
#1281=DIRECTION('center_axis',(0.,-1.,0.));
#1282=DIRECTION('ref_axis',(0.,0.,1.));
#1283=DIRECTION('center_axis',(1.,0.,-8.88178419700124E-15));
#1284=DIRECTION('ref_axis',(0.,-1.,0.));
#1285=DIRECTION('center_axis',(0.,2.22044604925031E-15,1.));
#1286=DIRECTION('ref_axis',(1.,0.,0.));
#1287=DIRECTION('center_axis',(1.,0.,5.23340389499842E-16));
#1288=DIRECTION('ref_axis',(0.,-0.707106781186547,0.707106781186548));
#1289=DIRECTION('',(1.,0.,5.23340389499842E-16));
#1290=DIRECTION('',(-1.,0.,-5.23340389499842E-16));
#1291=DIRECTION('center_axis',(0.707106781186548,-0.707106781186547,0.));
#1292=DIRECTION('ref_axis',(-0.707106781186547,-0.707106781186548,-7.40115076568294E-16));
#1293=DIRECTION('center_axis',(-3.43456465467673E-16,0.,-1.));
#1294=DIRECTION('ref_axis',(0.707106781186549,-0.707106781186546,0.));
#1295=DIRECTION('',(3.43456465467673E-16,0.,1.));
#1296=DIRECTION('',(-3.43456465467673E-16,0.,-1.));
#1297=DIRECTION('center_axis',(0.,1.,0.));
#1298=DIRECTION('ref_axis',(0.707106781186548,0.,0.707106781186548));
#1299=DIRECTION('center_axis',(0.,-1.,0.));
#1300=DIRECTION('ref_axis',(0.707106781186548,0.,0.707106781186548));
#1301=DIRECTION('',(0.,-1.,0.));
#1302=DIRECTION('',(0.,1.,0.));
#1303=DIRECTION('center_axis',(-1.,0.,8.02455263899757E-16));
#1304=DIRECTION('ref_axis',(0.,-0.707106781186549,-0.707106781186546));
#1305=DIRECTION('',(1.,0.,-8.02455263899757E-16));
#1306=DIRECTION('',(-1.,0.,8.02455263899757E-16));
#1307=DIRECTION('center_axis',(0.,1.,0.));
#1308=DIRECTION('ref_axis',(0.707106781186549,0.,-0.707106781186546));
#1309=DIRECTION('center_axis',(0.,-1.,0.));
#1310=DIRECTION('ref_axis',(0.707106781186549,0.,-0.707106781186546));
#1311=DIRECTION('',(0.,-1.,0.));
#1312=DIRECTION('',(0.,1.,0.));
#1313=DIRECTION('center_axis',(0.,-1.,0.));
#1314=DIRECTION('ref_axis',(-0.707106781186548,0.,0.707106781186548));
#1315=DIRECTION('',(0.,-1.,0.));
#1316=DIRECTION('',(0.,1.,0.));
#1317=DIRECTION('center_axis',(0.707106781186548,-0.707106781186547,-1.57009245868377E-15));
#1318=DIRECTION('ref_axis',(0.707106781186547,0.707106781186548,-1.57009245868377E-15));
#1319=DIRECTION('center_axis',(1.,0.,5.23340389499842E-16));
#1320=DIRECTION('ref_axis',(0.,-0.707106781186548,0.707106781186548));
#1321=DIRECTION('',(1.,0.,5.23340389499842E-16));
#1322=DIRECTION('',(-1.,0.,-5.23340389499842E-16));
#1323=DIRECTION('center_axis',(-1.,0.,8.02455263899757E-16));
#1324=DIRECTION('ref_axis',(0.,-0.707106781186549,-0.707106781186546));
#1325=DIRECTION('',(1.,0.,-8.02455263899757E-16));
#1326=DIRECTION('',(-1.,0.,8.02455263899757E-16));
#1327=DIRECTION('center_axis',(1.,0.,5.23340389499842E-16));
#1328=DIRECTION('ref_axis',(0.,-0.707106781186547,0.707106781186548));
#1329=DIRECTION('',(-1.,0.,-5.23340389499842E-16));
#1330=DIRECTION('',(1.,0.,5.23340389499842E-16));
#1331=DIRECTION('center_axis',(0.,1.,0.));
#1332=DIRECTION('ref_axis',(-0.707106781186546,0.,0.707106781186549));
#1333=DIRECTION('center_axis',(0.,-1.,0.));
#1334=DIRECTION('ref_axis',(-0.707106781186546,0.,0.707106781186549));
#1335=DIRECTION('',(0.,-1.,0.));
#1336=DIRECTION('',(0.,1.,0.));
#1337=DIRECTION('center_axis',(0.,1.,0.));
#1338=DIRECTION('ref_axis',(-0.707106781186549,0.,-0.707106781186546));
#1339=DIRECTION('center_axis',(0.,-1.,0.));
#1340=DIRECTION('ref_axis',(-0.707106781186549,0.,-0.707106781186546));
#1341=DIRECTION('',(0.,-1.,0.));
#1342=DIRECTION('',(0.,1.,0.));
#1343=DIRECTION('center_axis',(-1.,0.,1.28796174550377E-16));
#1344=DIRECTION('ref_axis',(1.28796174550377E-16,0.,1.));
#1345=DIRECTION('',(1.28796174550377E-16,0.,1.));
#1346=DIRECTION('',(0.,1.,0.));
#1347=DIRECTION('',(-9.10726484154581E-17,0.707106781186547,-0.707106781186548));
#1348=DIRECTION('',(0.,1.,0.));
#1349=DIRECTION('',(1.28796174550377E-16,0.,1.));
#1350=DIRECTION('',(0.,1.,0.));
#1351=DIRECTION('',(1.28796174550377E-16,0.,1.));
#1352=DIRECTION('center_axis',(0.,1.,0.));
#1353=DIRECTION('ref_axis',(0.,0.,1.));
#1354=DIRECTION('',(-1.28796174550377E-16,0.,-1.));
#1355=DIRECTION('',(1.,0.,-7.98950207850442E-16));
#1356=DIRECTION('center_axis',(1.,0.,-1.28796174550377E-16));
#1357=DIRECTION('ref_axis',(-1.28796174550377E-16,0.,-1.));
#1358=DIRECTION('',(-1.28796174550377E-16,0.,-1.));
#1359=DIRECTION('',(0.,-1.,0.));
#1360=DIRECTION('',(-1.28796174550377E-16,0.,-1.));
#1361=DIRECTION('',(0.,-1.,0.));
#1362=DIRECTION('',(9.10726484154581E-17,-0.707106781186547,0.707106781186548));
#1363=DIRECTION('',(0.,-1.,0.));
#1364=DIRECTION('center_axis',(0.,1.,0.));
#1365=DIRECTION('ref_axis',(0.,0.,1.));
#1366=DIRECTION('',(-1.28796174550377E-16,0.,-1.));
#1367=DIRECTION('',(1.,0.,-7.98950207850443E-16));
#1368=DIRECTION('',(0.,0.,-1.));
#1369=DIRECTION('',(-1.,0.,7.98950207850442E-16));
#1370=DIRECTION('center_axis',(-5.23340389499842E-16,0.,1.));
#1371=DIRECTION('ref_axis',(1.,0.,5.23340389499842E-16));
#1372=DIRECTION('',(1.,0.,5.23340389499842E-16));
#1373=DIRECTION('center_axis',(0.,1.,0.));
#1374=DIRECTION('ref_axis',(0.,0.,1.));
#1375=DIRECTION('',(-3.43456465467673E-16,0.,-1.));
#1376=DIRECTION('',(-1.,0.,8.02455263899757E-16));
#1377=DIRECTION('',(0.,0.,1.));
#1378=DIRECTION('',(1.,0.,-7.98950207850442E-16));
#1379=DIRECTION('center_axis',(0.,1.,0.));
#1380=DIRECTION('ref_axis',(0.707106781186549,0.,-0.707106781186546));
#1381=DIRECTION('',(0.,0.,1.));
#1382=DIRECTION('center_axis',(0.,1.,0.));
#1383=DIRECTION('ref_axis',(0.707106781186546,0.,0.707106781186549));
#1384=DIRECTION('',(-1.,0.,7.98950207850443E-16));
#1385=DIRECTION('center_axis',(0.,1.,0.));
#1386=DIRECTION('ref_axis',(-0.707106781186548,0.,0.707106781186548));
#1387=DIRECTION('',(-1.52085345838971E-15,0.,-1.));
#1388=DIRECTION('center_axis',(0.,1.,0.));
#1389=DIRECTION('ref_axis',(-0.707106781186549,0.,-0.707106781186546));
#1390=DIRECTION('center_axis',(1.,0.,-3.43456465467673E-16));
#1391=DIRECTION('ref_axis',(-3.43456465467673E-16,0.,-1.));
#1392=DIRECTION('center_axis',(0.,1.,0.));
#1393=DIRECTION('ref_axis',(-0.707106781186548,0.,0.707106781186548));
#1394=DIRECTION('center_axis',(0.707106781186547,0.707106781186548,-1.07540579361838E-15));
#1395=DIRECTION('ref_axis',(-0.707106781186548,0.707106781186547,1.12850395467896E-15));
#1396=DIRECTION('',(0.,1.,0.));
#1397=DIRECTION('',(0.,-1.,0.));
#1398=DIRECTION('center_axis',(-5.6494310980145E-16,0.707106781186548,-0.707106781186547));
#1399=DIRECTION('ref_axis',(5.39719282672548E-16,0.707106781186547,0.707106781186548));
#1400=DIRECTION('center_axis',(-5.6494310980145E-16,0.707106781186548,-0.707106781186547));
#1401=DIRECTION('ref_axis',(-1.,0.,7.98950207850443E-16));
#1402=DIRECTION('',(1.,0.,-7.98950207850443E-16));
#1403=DIRECTION('',(-9.10726484154581E-17,-0.707106781186547,-0.707106781186548));
#1404=DIRECTION('',(-1.,0.,-6.19949067047905E-13));
#1405=DIRECTION('',(-0.577350269189626,0.577350269189625,0.577350269189627));
#1406=DIRECTION('center_axis',(-7.98950207850443E-16,0.,-1.));
#1407=DIRECTION('ref_axis',(-1.,0.,7.98950207850443E-16));
#1408=DIRECTION('',(0.,1.,0.));
#1409=DIRECTION('',(1.,0.,-7.98950207850443E-16));
#1410=DIRECTION('',(0.,1.,0.));
#1411=DIRECTION('',(-1.,0.,7.98950207850443E-16));
#1412=DIRECTION('',(0.,-1.,0.));
#1413=DIRECTION('center_axis',(0.,1.,0.));
#1414=DIRECTION('ref_axis',(-0.707106781186549,0.,-0.707106781186546));
#1415=DIRECTION('center_axis',(5.64943109801449E-16,0.707106781186548,0.707106781186547));
#1416=DIRECTION('ref_axis',(-5.88784672006416E-16,0.707106781186547,-0.707106781186547));
#1417=DIRECTION('',(0.,1.,0.));
#1418=DIRECTION('',(0.,-1.,0.));
#1419=DIRECTION('center_axis',(0.707106781186547,0.707106781186548,-1.07540579361838E-15));
#1420=DIRECTION('ref_axis',(-0.707106781186547,0.707106781186547,9.81307786677359E-16));
#1421=DIRECTION('center_axis',(7.98950207850442E-16,0.,1.));
#1422=DIRECTION('ref_axis',(1.,0.,-7.98950207850442E-16));
#1423=DIRECTION('',(-1.,0.,7.98950207850442E-16));
#1424=DIRECTION('',(-1.,0.,7.98950207850442E-16));
#1425=DIRECTION('',(0.,-1.,0.));
#1426=DIRECTION('center_axis',(5.64943109801449E-16,0.707106781186548,0.707106781186547));
#1427=DIRECTION('ref_axis',(1.,0.,-7.98950207850442E-16));
#1428=DIRECTION('',(-0.577350269189626,0.577350269189626,-0.577350269189626));
#1429=DIRECTION('',(1.,0.,-6.20100523487213E-13));
#1430=DIRECTION('center_axis',(0.,1.,0.));
#1431=DIRECTION('ref_axis',(0.707106781186549,0.,-0.707106781186546));
#1432=DIRECTION('center_axis',(-0.707106781186547,0.707106781186548,0.));
#1433=DIRECTION('ref_axis',(0.707106781186548,0.707106781186547,0.));
#1434=DIRECTION('',(0.,1.,0.));
#1435=DIRECTION('center_axis',(5.64943109801449E-16,0.707106781186548,0.707106781186547));
#1436=DIRECTION('ref_axis',(-5.88784672006416E-16,0.707106781186547,-0.707106781186547));
#1437=DIRECTION('center_axis',(5.64943109801449E-16,0.707106781186548,0.707106781186547));
#1438=DIRECTION('ref_axis',(1.,0.,-7.98950207850442E-16));
#1439=DIRECTION('',(1.,0.,-6.20100523487213E-13));
#1440=DIRECTION('',(0.577350269189626,0.577350269189625,-0.577350269189627));
#1441=DIRECTION('center_axis',(0.,1.,0.));
#1442=DIRECTION('ref_axis',(0.707106781186546,0.,0.707106781186549));
#1443=DIRECTION('center_axis',(-5.6494310980145E-16,0.707106781186548,-0.707106781186547));
#1444=DIRECTION('ref_axis',(5.88784672006416E-16,0.707106781186547,0.707106781186547));
#1445=DIRECTION('',(0.,-1.,0.));
#1446=DIRECTION('center_axis',(-0.707106781186547,0.707106781186548,0.));
#1447=DIRECTION('ref_axis',(0.707106781186548,0.707106781186547,0.));
#1448=DIRECTION('center_axis',(-5.6494310980145E-16,0.707106781186548,-0.707106781186547));
#1449=DIRECTION('ref_axis',(-1.,0.,7.98950207850443E-16));
#1450=DIRECTION('',(0.577350269189626,0.577350269189626,0.577350269189626));
#1451=DIRECTION('',(-1.,0.,-6.19949067047905E-13));
#1452=DIRECTION('',(9.10726484154581E-17,0.707106781186547,0.707106781186548));
#1453=DIRECTION('center_axis',(0.707106781186547,0.707106781186548,-1.07540579361838E-15));
#1454=DIRECTION('ref_axis',(-1.52085345838971E-15,0.,-1.));
#1455=DIRECTION('',(1.74378462027115E-12,0.,-1.));
#1456=DIRECTION('',(1.52085345838971E-15,0.,1.));
#1457=DIRECTION('center_axis',(1.,0.,-1.52085345838971E-15));
#1458=DIRECTION('ref_axis',(-1.52085345838971E-15,0.,-1.));
#1459=DIRECTION('center_axis',(-0.707106781186547,0.707106781186548,0.));
#1460=DIRECTION('ref_axis',(0.,0.,1.));
#1461=DIRECTION('',(1.74442329122842E-12,0.,1.));
#1462=DIRECTION('',(0.,0.,-1.));
#1463=DIRECTION('center_axis',(-1.,0.,0.));
#1464=DIRECTION('ref_axis',(0.,0.,1.));
#1465=DIRECTION('center_axis',(0.,1.,0.));
#1466=DIRECTION('ref_axis',(0.,0.,1.));
#1467=DIRECTION('',(1.28796174550377E-16,0.,1.));
#1468=DIRECTION('',(-1.28796174550377E-16,0.,-1.));
#1469=DIRECTION('center_axis',(-1.,0.,1.28796174550377E-16));
#1470=DIRECTION('ref_axis',(1.28796174550377E-16,0.,1.));
#1471=DIRECTION('',(1.28796174550377E-16,0.,1.));
#1472=DIRECTION('',(0.,-1.,0.));
#1473=DIRECTION('',(1.28796174550377E-16,0.,1.));
#1474=DIRECTION('',(0.,-1.,0.));
#1475=DIRECTION('center_axis',(1.,0.,-1.28796174550377E-16));
#1476=DIRECTION('ref_axis',(-1.28796174550377E-16,0.,-1.));
#1477=DIRECTION('',(0.,1.,0.));
#1478=DIRECTION('',(-1.28796174550377E-16,0.,-1.));
#1479=DIRECTION('',(0.,1.,0.));
#1480=DIRECTION('center_axis',(6.19949067047905E-13,0.,-1.));
#1481=DIRECTION('ref_axis',(-1.,0.,-6.19949067047905E-13));
#1482=DIRECTION('',(-1.,0.,-6.19949067047905E-13));
#1483=DIRECTION('',(0.,1.,0.));
#1484=DIRECTION('center_axis',(7.98950207850443E-16,0.,1.));
#1485=DIRECTION('ref_axis',(1.,0.,-7.98950207850443E-16));
#1486=DIRECTION('',(1.,0.,-7.98950207850443E-16));
#1487=DIRECTION('',(0.,1.,0.));
#1488=DIRECTION('',(1.,0.,-7.98950207850443E-16));
#1489=DIRECTION('center_axis',(6.20100523487213E-13,0.,1.));
#1490=DIRECTION('ref_axis',(1.,0.,-6.20100523487213E-13));
#1491=DIRECTION('',(0.,1.,0.));
#1492=DIRECTION('',(1.,0.,-6.20100523487213E-13));
#1493=DIRECTION('center_axis',(6.20100523487213E-13,0.,1.));
#1494=DIRECTION('ref_axis',(1.,0.,-6.20100523487213E-13));
#1495=DIRECTION('',(1.,0.,-6.20100523487213E-13));
#1496=DIRECTION('',(0.,1.,0.));
#1497=DIRECTION('center_axis',(0.,1.,0.));
#1498=DIRECTION('ref_axis',(0.,0.,1.));
#1499=DIRECTION('',(1.52085345838971E-15,0.,1.));
#1500=DIRECTION('',(-1.,0.,7.98950207850442E-16));
#1501=DIRECTION('',(1.74378462027115E-12,0.,-1.));
#1502=DIRECTION('center_axis',(-7.98950207850442E-16,0.,-1.));
#1503=DIRECTION('ref_axis',(-1.,0.,7.98950207850442E-16));
#1504=DIRECTION('',(0.,1.,0.));
#1505=DIRECTION('',(-1.,0.,7.98950207850442E-16));
#1506=DIRECTION('center_axis',(-7.98950207850442E-16,0.,-1.));
#1507=DIRECTION('ref_axis',(-1.,0.,7.98950207850442E-16));
#1508=DIRECTION('',(0.,1.,0.));
#1509=DIRECTION('',(-1.,0.,7.98950207850442E-16));
#1510=DIRECTION('center_axis',(0.,1.,0.));
#1511=DIRECTION('ref_axis',(0.,0.,1.));
#1512=DIRECTION('',(1.52085345838971E-15,0.,1.));
#1513=DIRECTION('center_axis',(-8.02455263899757E-16,0.,-1.));
#1514=DIRECTION('ref_axis',(-1.,0.,8.02455263899757E-16));
#1515=DIRECTION('center_axis',(-1.,0.,1.52085345838971E-15));
#1516=DIRECTION('ref_axis',(1.52085345838971E-15,0.,1.));
#1517=DIRECTION('center_axis',(1.,0.,0.));
#1518=DIRECTION('ref_axis',(0.,0.,-1.));
#1519=DIRECTION('',(0.,1.,0.));
#1520=DIRECTION('',(0.,0.,-1.));
#1521=DIRECTION('center_axis',(7.98950207850443E-16,0.,1.));
#1522=DIRECTION('ref_axis',(1.,0.,-7.98950207850443E-16));
#1523=DIRECTION('',(1.,0.,-7.98950207850443E-16));
#1524=DIRECTION('center_axis',(0.,1.,0.));
#1525=DIRECTION('ref_axis',(0.,0.,1.));
#1526=DIRECTION('',(-1.,0.,-6.19949067047905E-13));
#1527=DIRECTION('',(1.74442329122842E-12,0.,1.));
#1528=DIRECTION('center_axis',(-1.,0.,1.74442329122842E-12));
#1529=DIRECTION('ref_axis',(1.74442329122842E-12,0.,1.));
#1530=DIRECTION('',(0.,1.,0.));
#1531=DIRECTION('center_axis',(6.19949067047905E-13,0.,-1.));
#1532=DIRECTION('ref_axis',(-1.,0.,-6.19949067047905E-13));
#1533=DIRECTION('center_axis',(1.,0.,1.74378462027115E-12));
#1534=DIRECTION('ref_axis',(1.74378462027115E-12,0.,-1.));
#1535=DIRECTION('center_axis',(-1.,0.,0.));
#1536=DIRECTION('ref_axis',(0.,0.,1.));
#1537=CARTESIAN_POINT('',(0.,0.,0.));
#1538=CARTESIAN_POINT('Origin',(-61.6425000000211,2.,-23.860000000021));
#1539=CARTESIAN_POINT('',(-61.6425000000211,0.,-23.860000000021));
#1540=CARTESIAN_POINT('',(-61.6425000000211,2.,-25.860000000021));
#1541=CARTESIAN_POINT('Origin',(-61.6425000000211,2.,-23.860000000021));
#1542=CARTESIAN_POINT('',(-63.6425000000211,2.,-23.860000000021));
#1543=CARTESIAN_POINT('Origin',(-61.6425000000211,2.,-23.860000000021));
#1544=CARTESIAN_POINT('Origin',(-61.6425000000211,2.,-23.860000000021));
#1545=CARTESIAN_POINT('Origin',(-61.6425000000211,2.,23.860000000021));
#1546=CARTESIAN_POINT('',(-63.6425000000211,2.,23.860000000021));
#1547=CARTESIAN_POINT('',(-61.6425000000211,2.,25.860000000021));
#1548=CARTESIAN_POINT('Origin',(-61.6425000000211,2.,23.860000000021));
#1549=CARTESIAN_POINT('',(-61.6425000000211,0.,23.860000000021));
#1550=CARTESIAN_POINT('Origin',(-61.6425000000211,2.,23.860000000021));
#1551=CARTESIAN_POINT('Origin',(-61.6425000000211,2.,23.860000000021));
#1552=CARTESIAN_POINT('Origin',(-61.6425000000211,2.,-12.9300000000105));
#1553=CARTESIAN_POINT('',(-63.6425000000211,2.,-12.9300000000105));
#1554=CARTESIAN_POINT('',(-61.6425000000211,0.,-12.9300000000105));
#1555=CARTESIAN_POINT('Origin',(31.8212500000105,2.,-23.8600000000211));
#1556=CARTESIAN_POINT('',(-15.,0.,-23.860000000021));
#1557=CARTESIAN_POINT('',(31.8212500000105,0.,-23.8600000000211));
#1558=CARTESIAN_POINT('',(-17.,2.,-25.860000000021));
#1559=CARTESIAN_POINT('',(31.8212500000105,2.,-25.8600000000211));
#1560=CARTESIAN_POINT('Origin',(-17.,2.,-23.860000000021));
#1561=CARTESIAN_POINT('Origin',(-17.,0.,-23.860000000021));
#1562=CARTESIAN_POINT('',(-17.,27.,-25.860000000021));
#1563=CARTESIAN_POINT('',(-17.,0.,-25.860000000021));
#1564=CARTESIAN_POINT('',(-15.,25.,-23.860000000021));
#1565=CARTESIAN_POINT('Origin',(-17.,27.,-23.860000000021));
#1566=CARTESIAN_POINT('',(-15.,0.,-23.860000000021));
#1567=CARTESIAN_POINT('Origin',(-17.,0.,23.860000000021));
#1568=CARTESIAN_POINT('',(-15.,0.,23.860000000021));
#1569=CARTESIAN_POINT('',(-15.,25.,23.860000000021));
#1570=CARTESIAN_POINT('',(-15.,0.,23.860000000021));
#1571=CARTESIAN_POINT('',(-17.,27.,25.860000000021));
#1572=CARTESIAN_POINT('Origin',(-17.,27.,23.860000000021));
#1573=CARTESIAN_POINT('',(-17.,2.,25.860000000021));
#1574=CARTESIAN_POINT('',(-17.,0.,25.860000000021));
#1575=CARTESIAN_POINT('Origin',(-17.,2.,23.860000000021));
#1576=CARTESIAN_POINT('Origin',(17.,0.,-23.860000000021));
#1577=CARTESIAN_POINT('',(17.,27.,-25.860000000021));
#1578=CARTESIAN_POINT('',(17.,2.,-25.860000000021));
#1579=CARTESIAN_POINT('',(17.,0.,-25.860000000021));
#1580=CARTESIAN_POINT('',(15.,0.,-23.860000000021));
#1581=CARTESIAN_POINT('Origin',(17.,2.,-23.860000000021));
#1582=CARTESIAN_POINT('',(15.,25.,-23.860000000021));
#1583=CARTESIAN_POINT('',(15.,0.,-23.860000000021));
#1584=CARTESIAN_POINT('Origin',(17.,27.,-23.860000000021));
#1585=CARTESIAN_POINT('Origin',(61.642500000021,2.,-23.8600000000211));
#1586=CARTESIAN_POINT('',(63.642500000021,2.,-23.8600000000211));
#1587=CARTESIAN_POINT('',(61.642500000021,2.,-25.8600000000211));
#1588=CARTESIAN_POINT('Origin',(61.642500000021,2.,-23.8600000000211));
#1589=CARTESIAN_POINT('',(61.642500000021,0.,-23.8600000000211));
#1590=CARTESIAN_POINT('Origin',(61.642500000021,2.,-23.8600000000211));
#1591=CARTESIAN_POINT('Origin',(61.642500000021,2.,-23.8600000000211));
#1592=CARTESIAN_POINT('Origin',(61.642500000021,2.,23.8600000000211));
#1593=CARTESIAN_POINT('',(61.6425000000211,2.,25.8600000000211));
#1594=CARTESIAN_POINT('',(63.6425000000211,2.,23.8600000000211));
#1595=CARTESIAN_POINT('Origin',(61.6425000000211,2.,23.8600000000211));
#1596=CARTESIAN_POINT('',(61.642500000021,0.,23.8600000000211));
#1597=CARTESIAN_POINT('Origin',(61.642500000021,2.,23.8600000000211));
#1598=CARTESIAN_POINT('Origin',(61.642500000021,2.,23.8600000000211));
#1599=CARTESIAN_POINT('Origin',(-31.8212500000105,2.,23.860000000021));
#1600=CARTESIAN_POINT('',(15.,0.,23.860000000021));
#1601=CARTESIAN_POINT('',(-31.8212500000105,0.,23.860000000021));
#1602=CARTESIAN_POINT('',(17.,2.,25.860000000021));
#1603=CARTESIAN_POINT('',(-31.8212500000105,2.,25.860000000021));
#1604=CARTESIAN_POINT('Origin',(17.,2.,23.860000000021));
#1605=CARTESIAN_POINT('Origin',(61.642500000021,2.,12.9300000000105));
#1606=CARTESIAN_POINT('',(63.6425000000211,2.,12.9300000000105));
#1607=CARTESIAN_POINT('',(61.642500000021,0.,12.9300000000105));
#1608=CARTESIAN_POINT('Origin',(61.6425000000211,0.,23.8600000000211));
#1609=CARTESIAN_POINT('',(63.6425000000211,45.,23.8600000000211));
#1610=CARTESIAN_POINT('',(61.642500000021,45.,25.8600000000211));
#1611=CARTESIAN_POINT('Origin',(61.6425000000211,45.,23.8600000000211));
#1612=CARTESIAN_POINT('',(61.6425000000211,0.,25.8600000000211));
#1613=CARTESIAN_POINT('',(63.6425000000211,0.,23.8600000000211));
#1614=CARTESIAN_POINT('Origin',(31.8212500000105,2.,-23.8600000000211));
#1615=CARTESIAN_POINT('',(31.8212500000105,2.,-25.8600000000211));
#1616=CARTESIAN_POINT('',(31.8212500000105,0.,-23.8600000000211));
#1617=CARTESIAN_POINT('Origin',(61.642500000021,0.,-23.8600000000211));
#1618=CARTESIAN_POINT('',(61.642500000021,45.,-25.8600000000211));
#1619=CARTESIAN_POINT('',(63.642500000021,45.,-23.8600000000211));
#1620=CARTESIAN_POINT('Origin',(61.642500000021,45.,-23.8600000000211));
#1621=CARTESIAN_POINT('',(63.642500000021,0.,-23.8600000000211));
#1622=CARTESIAN_POINT('',(61.642500000021,0.,-25.8600000000211));
#1623=CARTESIAN_POINT('Origin',(17.,0.,23.860000000021));
#1624=CARTESIAN_POINT('',(15.,25.,23.860000000021));
#1625=CARTESIAN_POINT('',(15.,0.,23.860000000021));
#1626=CARTESIAN_POINT('',(17.,27.,25.860000000021));
#1627=CARTESIAN_POINT('',(17.,0.,25.860000000021));
#1628=CARTESIAN_POINT('Origin',(17.,27.,23.860000000021));
#1629=CARTESIAN_POINT('Origin',(-31.8212500000105,27.,23.860000000021));
#1630=CARTESIAN_POINT('',(-31.8212500000105,25.,23.860000000021));
#1631=CARTESIAN_POINT('',(-31.8212500000105,27.,25.860000000021));
#1632=CARTESIAN_POINT('Origin',(31.8212500000105,27.,-23.8600000000211));
#1633=CARTESIAN_POINT('',(31.8212500000105,27.,-25.8600000000211));
#1634=CARTESIAN_POINT('',(31.8212500000105,25.,-23.8600000000211));
#1635=CARTESIAN_POINT('Origin',(-31.8212500000105,2.,23.860000000021));
#1636=CARTESIAN_POINT('',(-31.8212500000105,2.,25.860000000021));
#1637=CARTESIAN_POINT('',(-31.8212500000105,0.,23.860000000021));
#1638=CARTESIAN_POINT('Origin',(-61.6425000000211,0.,23.860000000021));
#1639=CARTESIAN_POINT('',(-61.6425000000211,45.,25.860000000021));
#1640=CARTESIAN_POINT('',(-63.6425000000211,45.,23.860000000021));
#1641=CARTESIAN_POINT('Origin',(-61.6425000000211,45.,23.860000000021));
#1642=CARTESIAN_POINT('',(-63.6425000000211,0.,23.860000000021));
#1643=CARTESIAN_POINT('',(-61.6425000000211,0.,25.860000000021));
#1644=CARTESIAN_POINT('Origin',(-61.6425000000211,0.,-23.860000000021));
#1645=CARTESIAN_POINT('',(-63.6425000000211,45.,-23.860000000021));
#1646=CARTESIAN_POINT('',(-61.6425000000211,45.,-25.860000000021));
#1647=CARTESIAN_POINT('Origin',(-61.6425000000211,45.,-23.860000000021));
#1648=CARTESIAN_POINT('',(-61.6425000000211,0.,-25.860000000021));
#1649=CARTESIAN_POINT('',(-63.6425000000211,0.,-23.860000000021));
#1650=CARTESIAN_POINT('Origin',(-15.,0.,-25.860000000021));
#1651=CARTESIAN_POINT('',(-15.,25.,-23.360000000014));
#1652=CARTESIAN_POINT('',(-15.,25.,-25.860000000021));
#1653=CARTESIAN_POINT('',(-15.,7.,-23.360000000014));
#1654=CARTESIAN_POINT('',(-15.,0.,-23.360000000014));
#1655=CARTESIAN_POINT('',(-15.,4.5,-20.8600000000056));
#1656=CARTESIAN_POINT('',(-15.,5.25000000000176,-21.6100000000158));
#1657=CARTESIAN_POINT('',(-15.,2.,-20.8600000000056));
#1658=CARTESIAN_POINT('',(-15.,0.,-20.8600000000056));
#1659=CARTESIAN_POINT('',(-15.,2.,-23.360000000014));
#1660=CARTESIAN_POINT('',(-15.,2.,-12.9300000000105));
#1661=CARTESIAN_POINT('',(-15.,0.,-23.360000000014));
#1662=CARTESIAN_POINT('',(-15.,0.,-23.360000000014));
#1663=CARTESIAN_POINT('',(-15.,0.,-12.9300000000105));
#1664=CARTESIAN_POINT('Origin',(-4.44089209850063E-15,25.,0.));
#1665=CARTESIAN_POINT('',(15.,25.,-23.360000000014));
#1666=CARTESIAN_POINT('',(15.,25.,25.8600000000211));
#1667=CARTESIAN_POINT('',(-30.571250000007,25.,-23.360000000014));
#1668=CARTESIAN_POINT('Origin',(15.,0.,25.8600000000211));
#1669=CARTESIAN_POINT('',(15.,0.,-23.360000000014));
#1670=CARTESIAN_POINT('',(15.,0.,12.9300000000105));
#1671=CARTESIAN_POINT('',(15.,2.,-23.360000000014));
#1672=CARTESIAN_POINT('',(15.,0.,-23.360000000014));
#1673=CARTESIAN_POINT('',(15.,2.,-20.8600000000242));
#1674=CARTESIAN_POINT('',(15.,2.,12.9300000000105));
#1675=CARTESIAN_POINT('',(15.,4.5,-20.8600000000242));
#1676=CARTESIAN_POINT('',(15.,0.,-20.8600000000242));
#1677=CARTESIAN_POINT('',(15.,7.,-23.360000000014));
#1678=CARTESIAN_POINT('',(15.,-7.68000000000878,-8.68000000000526));
#1679=CARTESIAN_POINT('',(15.,0.,-23.360000000014));
#1680=CARTESIAN_POINT('Origin',(-8.88178419700125E-15,0.,-8.88178419700125E-15));
#1681=CARTESIAN_POINT('',(15.,0.,23.3600000000141));
#1682=CARTESIAN_POINT('',(15.,0.,12.9300000000105));
#1683=CARTESIAN_POINT('',(61.142500000014,0.,23.3600000000141));
#1684=CARTESIAN_POINT('',(-30.571250000007,0.,23.3600000000141));
#1685=CARTESIAN_POINT('',(61.142500000014,0.,-23.3600000000141));
#1686=CARTESIAN_POINT('',(61.142500000014,0.,11.680000000007));
#1687=CARTESIAN_POINT('',(30.571250000007,0.,-23.3600000000141));
#1688=CARTESIAN_POINT('Origin',(-63.6425000000211,0.,25.860000000021));
#1689=CARTESIAN_POINT('',(-63.6425000000211,45.,25.860000000021));
#1690=CARTESIAN_POINT('Origin',(-8.88178419700125E-15,45.,-8.88178419700125E-15));
#1691=CARTESIAN_POINT('',(63.6425000000211,45.,25.8600000000211));
#1692=CARTESIAN_POINT('',(63.642500000021,45.,-25.8600000000211));
#1693=CARTESIAN_POINT('',(-63.6425000000211,45.,-25.860000000021));
#1694=CARTESIAN_POINT('',(-59.1425000000141,45.,-23.360000000014));
#1695=CARTESIAN_POINT('',(59.142500000014,45.,-23.3600000000141));
#1696=CARTESIAN_POINT('',(-61.1425000000141,45.,-23.360000000014));
#1697=CARTESIAN_POINT('',(61.142500000014,45.,-21.3600000000141));
#1698=CARTESIAN_POINT('Origin',(59.142500000014,45.,-21.3600000000141));
#1699=CARTESIAN_POINT('',(61.142500000014,45.,21.3600000000141));
#1700=CARTESIAN_POINT('',(61.142500000014,45.,-23.3600000000141));
#1701=CARTESIAN_POINT('',(59.142500000014,45.,23.3600000000141));
#1702=CARTESIAN_POINT('Origin',(59.142500000014,45.,21.3600000000141));
#1703=CARTESIAN_POINT('',(-59.142500000014,45.,23.3600000000142));
#1704=CARTESIAN_POINT('',(61.142500000014,45.,23.3600000000141));
#1705=CARTESIAN_POINT('',(-61.142500000014,45.,21.3600000000142));
#1706=CARTESIAN_POINT('Origin',(-59.142500000014,45.,21.3600000000141));
#1707=CARTESIAN_POINT('',(-61.1425000000141,45.,-21.360000000014));
#1708=CARTESIAN_POINT('',(-61.142500000014,45.,23.3600000000142));
#1709=CARTESIAN_POINT('Origin',(-59.1425000000141,45.,-21.360000000014));
#1710=CARTESIAN_POINT('Origin',(63.6425000000211,0.,25.8600000000211));
#1711=CARTESIAN_POINT('Origin',(-59.142500000014,0.,21.3600000000141));
#1712=CARTESIAN_POINT('',(-61.142500000014,7.,21.3600000000142));
#1713=CARTESIAN_POINT('',(-60.5567135623871,6.41421356237309,22.7742135623872));
#1714=CARTESIAN_POINT('Origin',(-59.142500000014,4.99999999999999,21.3600000000141));
#1715=CARTESIAN_POINT('',(-61.142500000014,0.,21.3600000000142));
#1716=CARTESIAN_POINT('',(-59.142500000014,7.,23.3600000000142));
#1717=CARTESIAN_POINT('',(-59.142500000014,0.,23.3600000000142));
#1718=CARTESIAN_POINT('Origin',(-59.142500000014,5.,21.3600000000141));
#1719=CARTESIAN_POINT('Origin',(30.571250000007,5.75,22.1100000000141));
#1720=CARTESIAN_POINT('',(-15.,7.,23.3600000000141));
#1721=CARTESIAN_POINT('',(30.571250000007,7.,23.3600000000141));
#1722=CARTESIAN_POINT('',(-15.,4.5,20.8600000000056));
#1723=CARTESIAN_POINT('',(-15.,-7.6800000000088,8.68000000000532));
#1724=CARTESIAN_POINT('',(-58.6425000000664,4.5,20.8599999999785));
#1725=CARTESIAN_POINT('',(58.6424999999936,4.5,20.8600000000512));
#1726=CARTESIAN_POINT('',(-58.642500000014,4.5,20.8600000000142));
#1727=CARTESIAN_POINT('Origin',(61.142500000014,0.,23.3600000000141));
#1728=CARTESIAN_POINT('',(59.142500000014,7.,23.3600000000141));
#1729=CARTESIAN_POINT('',(59.142500000014,0.,23.3600000000141));
#1730=CARTESIAN_POINT('',(15.,7.,23.3600000000141));
#1731=CARTESIAN_POINT('',(30.571250000007,7.,23.3600000000141));
#1732=CARTESIAN_POINT('',(15.,25.,23.3600000000141));
#1733=CARTESIAN_POINT('',(15.,0.,23.3600000000141));
#1734=CARTESIAN_POINT('',(-15.,25.,23.3600000000141));
#1735=CARTESIAN_POINT('',(30.571250000007,25.,23.3600000000141));
#1736=CARTESIAN_POINT('',(-15.,0.,23.3600000000141));
#1737=CARTESIAN_POINT('Origin',(-59.1425000000141,0.,-21.360000000014));
#1738=CARTESIAN_POINT('',(-59.1425000000141,7.,-23.360000000014));
#1739=CARTESIAN_POINT('',(-60.5567135623871,6.41421356237309,-22.7742135623871));
#1740=CARTESIAN_POINT('Origin',(-59.1425000000141,5.,-21.360000000014));
#1741=CARTESIAN_POINT('',(-59.1425000000141,0.,-23.360000000014));
#1742=CARTESIAN_POINT('',(-61.1425000000141,7.,-21.360000000014));
#1743=CARTESIAN_POINT('',(-61.1425000000141,0.,-21.360000000014));
#1744=CARTESIAN_POINT('Origin',(-59.1425000000141,5.,-21.360000000014));
#1745=CARTESIAN_POINT('Origin',(-61.1425000000141,0.,-23.360000000014));
#1746=CARTESIAN_POINT('',(-30.571250000007,7.,-23.360000000014));
#1747=CARTESIAN_POINT('',(59.142500000014,7.,-23.3600000000141));
#1748=CARTESIAN_POINT('',(-30.571250000007,7.,-23.360000000014));
#1749=CARTESIAN_POINT('',(59.142500000014,0.,-23.3600000000141));
#1750=CARTESIAN_POINT('Origin',(-30.571250000007,5.75,-22.110000000014));
#1751=CARTESIAN_POINT('',(-58.6424999999936,4.5,-20.8599999999785));
#1752=CARTESIAN_POINT('',(-58.6425000000141,4.5,-20.860000000014));
#1753=CARTESIAN_POINT('',(-58.6424999999936,4.5,-20.8599999999785));
#1754=CARTESIAN_POINT('Origin',(59.142500000014,0.,-21.3600000000141));
#1755=CARTESIAN_POINT('',(61.142500000014,7.,-21.3600000000141));
#1756=CARTESIAN_POINT('',(60.5567135623871,6.41421356237309,-22.7742135623872));
#1757=CARTESIAN_POINT('Origin',(59.142500000014,5.,-21.3600000000141));
#1758=CARTESIAN_POINT('',(61.142500000014,0.,-21.3600000000141));
#1759=CARTESIAN_POINT('Origin',(59.142500000014,5.,-21.3600000000141));
#1760=CARTESIAN_POINT('Origin',(-30.571250000007,5.75,-22.110000000014));
#1761=CARTESIAN_POINT('',(58.6424999999208,4.5,-20.8600000000512));
#1762=CARTESIAN_POINT('',(-58.6424999999936,4.5,-20.8599999999785));
#1763=CARTESIAN_POINT('',(58.642500000014,4.5,-20.8600000000141));
#1764=CARTESIAN_POINT('Origin',(59.142500000014,0.,21.3600000000141));
#1765=CARTESIAN_POINT('',(60.5567135623871,6.4142135623731,22.7742135623872));
#1766=CARTESIAN_POINT('Origin',(59.142500000014,5.,21.3600000000141));
#1767=CARTESIAN_POINT('',(61.142500000014,7.,21.3600000000141));
#1768=CARTESIAN_POINT('',(61.142500000014,0.,21.3600000000141));
#1769=CARTESIAN_POINT('Origin',(59.142500000014,5.00000000000001,21.3600000000141));
#1770=CARTESIAN_POINT('Origin',(30.571250000007,5.75,22.1100000000141));
#1771=CARTESIAN_POINT('',(58.6424999999936,4.5,20.8600000000512));
#1772=CARTESIAN_POINT('',(58.642500000014,4.5,20.8600000000141));
#1773=CARTESIAN_POINT('',(15.,4.5,20.8600000000242));
#1774=CARTESIAN_POINT('',(58.6424999999936,4.5,20.8600000000512));
#1775=CARTESIAN_POINT('',(15.,5.25000000000174,21.6100000000158));
#1776=CARTESIAN_POINT('Origin',(-59.892500000014,5.75,11.6800000000071));
#1777=CARTESIAN_POINT('',(-58.6425000000664,4.5,20.8599999999785));
#1778=CARTESIAN_POINT('',(-61.142500000014,7.,11.6800000000071));
#1779=CARTESIAN_POINT('Origin',(-61.142500000014,0.,23.3600000000142));
#1780=CARTESIAN_POINT('Origin',(59.892500000014,5.75,-11.680000000007));
#1781=CARTESIAN_POINT('',(58.6424999999208,4.5,-20.8600000000512));
#1782=CARTESIAN_POINT('',(61.142500000014,7.,-11.680000000007));
#1783=CARTESIAN_POINT('Origin',(61.142500000014,0.,-23.3600000000141));
#1784=CARTESIAN_POINT('Origin',(-4.44089209850063E-15,25.,0.));
#1785=CARTESIAN_POINT('',(-15.,25.,-25.860000000021));
#1786=CARTESIAN_POINT('',(15.,25.,25.8600000000211));
#1787=CARTESIAN_POINT('Origin',(-15.,0.,-25.860000000021));
#1788=CARTESIAN_POINT('',(-15.,0.,23.3600000000141));
#1789=CARTESIAN_POINT('',(-15.,0.,-12.9300000000105));
#1790=CARTESIAN_POINT('',(-15.,2.,23.3600000000141));
#1791=CARTESIAN_POINT('',(-15.,0.,23.3600000000141));
#1792=CARTESIAN_POINT('',(-15.,2.,20.8600000000056));
#1793=CARTESIAN_POINT('',(-15.,2.,-12.9300000000105));
#1794=CARTESIAN_POINT('',(-15.,0.,20.8600000000056));
#1795=CARTESIAN_POINT('Origin',(15.,0.,25.8600000000211));
#1796=CARTESIAN_POINT('',(15.,2.,20.8600000000242));
#1797=CARTESIAN_POINT('',(15.,0.,20.8600000000242));
#1798=CARTESIAN_POINT('',(15.,2.,23.3600000000141));
#1799=CARTESIAN_POINT('',(15.,2.,12.9300000000105));
#1800=CARTESIAN_POINT('',(15.,0.,23.3600000000141));
#1801=CARTESIAN_POINT('Origin',(58.6424999999936,0.,20.8600000000512));
#1802=CARTESIAN_POINT('',(-58.6425000000664,2.,20.8599999999785));
#1803=CARTESIAN_POINT('',(29.3212499999903,2.,20.860000000033));
#1804=CARTESIAN_POINT('',(-58.6425000000664,0.,20.8599999999785));
#1805=CARTESIAN_POINT('Origin',(-61.142500000014,0.,23.3600000000142));
#1806=CARTESIAN_POINT('',(-61.142500000014,0.,23.3600000000142));
#1807=CARTESIAN_POINT('',(-30.571250000007,0.,23.3600000000141));
#1808=CARTESIAN_POINT('',(-61.142500000014,2.,23.3600000000142));
#1809=CARTESIAN_POINT('',(-61.142500000014,0.,23.3600000000142));
#1810=CARTESIAN_POINT('',(-61.142500000014,2.,23.3600000000142));
#1811=CARTESIAN_POINT('Origin',(-58.6424999999936,0.,-20.8599999999785));
#1812=CARTESIAN_POINT('',(-58.6424999999936,2.,-20.8599999999785));
#1813=CARTESIAN_POINT('',(-58.6424999999936,0.,-20.8599999999785));
#1814=CARTESIAN_POINT('',(-29.3212500000033,2.,-20.8599999999967));
#1815=CARTESIAN_POINT('Origin',(-58.6424999999936,0.,-20.8599999999785));
#1816=CARTESIAN_POINT('',(58.6424999999208,2.,-20.8600000000512));
#1817=CARTESIAN_POINT('',(-29.3212500000033,2.,-20.8599999999967));
#1818=CARTESIAN_POINT('',(58.6424999999208,0.,-20.8600000000512));
#1819=CARTESIAN_POINT('Origin',(-1.77635683940025E-14,2.,3.99680288865056E-14));
#1820=CARTESIAN_POINT('',(-61.1425000000141,2.,-23.360000000014));
#1821=CARTESIAN_POINT('',(-61.1425000000141,2.,-23.360000000014));
#1822=CARTESIAN_POINT('',(61.142500000014,2.,-23.3600000000141));
#1823=CARTESIAN_POINT('',(-58.6425000000482,2.,10.4299999999381));
#1824=CARTESIAN_POINT('Origin',(61.142500000014,0.,-23.3600000000141));
#1825=CARTESIAN_POINT('',(-61.1425000000141,0.,-23.360000000014));
#1826=CARTESIAN_POINT('',(-61.1425000000141,0.,-23.360000000014));
#1827=CARTESIAN_POINT('',(30.571250000007,0.,-23.3600000000141));
#1828=CARTESIAN_POINT('Origin',(61.142500000014,0.,-23.3600000000141));
#1829=CARTESIAN_POINT('',(61.142500000014,2.,-23.3600000000141));
#1830=CARTESIAN_POINT('',(61.142500000014,0.,-23.3600000000141));
#1831=CARTESIAN_POINT('',(61.142500000014,2.,-23.3600000000141));
#1832=CARTESIAN_POINT('Origin',(-8.88178419700125E-15,0.,-8.88178419700125E-15));
#1833=CARTESIAN_POINT('',(-61.142500000014,0.,-11.6800000000069));
#1834=CARTESIAN_POINT('Origin',(63.642500000021,0.,-25.8600000000211));
#1835=CARTESIAN_POINT('Origin',(-61.1425000000141,0.,-23.360000000014));
#1836=CARTESIAN_POINT('Origin',(61.142500000014,0.,23.3600000000141));
#1837=CARTESIAN_POINT('',(61.142500000014,2.,23.3600000000141));
#1838=CARTESIAN_POINT('',(61.142500000014,0.,23.3600000000141));
#1839=CARTESIAN_POINT('',(61.142500000014,2.,23.3600000000141));
#1840=CARTESIAN_POINT('Origin',(-61.142500000014,0.,23.3600000000142));
#1841=CARTESIAN_POINT('',(-61.142500000014,2.,23.3600000000142));
#1842=CARTESIAN_POINT('Origin',(-1.77635683940025E-14,2.,3.99680288865056E-14));
#1843=CARTESIAN_POINT('',(58.6424999999936,2.,20.8600000000512));
#1844=CARTESIAN_POINT('',(29.3212499999903,2.,20.860000000033));
#1845=CARTESIAN_POINT('',(58.642499999939,2.,-10.4300000000767));
#1846=CARTESIAN_POINT('Origin',(58.6424999999208,0.,-20.8600000000512));
#1847=CARTESIAN_POINT('',(58.6424999999936,0.,20.8600000000512));
#1848=CARTESIAN_POINT('Origin',(58.6424999999936,0.,20.8600000000512));
#1849=CARTESIAN_POINT('Origin',(-58.6425000000664,0.,20.8599999999785));
#1850=CARTESIAN_POINT('Origin',(-63.6425000000211,0.,-25.860000000021));
#1851=UNCERTAINTY_MEASURE_WITH_UNIT(LENGTH_MEASURE(0.01),#1855,
'DISTANCE_ACCURACY_VALUE',
'Maximum model space distance between geometric entities at asserted c
onnectivities');
#1852=UNCERTAINTY_MEASURE_WITH_UNIT(LENGTH_MEASURE(0.01),#1855,
'DISTANCE_ACCURACY_VALUE',
'Maximum model space distance between geometric entities at asserted c
onnectivities');
#1853=(
GEOMETRIC_REPRESENTATION_CONTEXT(3)
GLOBAL_UNCERTAINTY_ASSIGNED_CONTEXT((#1851))
GLOBAL_UNIT_ASSIGNED_CONTEXT((#1855,#1857,#1858))
REPRESENTATION_CONTEXT('','3D')
);
#1854=(
GEOMETRIC_REPRESENTATION_CONTEXT(3)
GLOBAL_UNCERTAINTY_ASSIGNED_CONTEXT((#1852))
GLOBAL_UNIT_ASSIGNED_CONTEXT((#1855,#1857,#1858))
REPRESENTATION_CONTEXT('','3D')
);
#1855=(
LENGTH_UNIT()
NAMED_UNIT(*)
SI_UNIT(.MILLI.,.METRE.)
);
#1856=(
LENGTH_UNIT()
NAMED_UNIT(*)
SI_UNIT(.CENTI.,.METRE.)
);
#1857=(
NAMED_UNIT(*)
PLANE_ANGLE_UNIT()
SI_UNIT($,.RADIAN.)
);
#1858=(
NAMED_UNIT(*)
SI_UNIT($,.STERADIAN.)
SOLID_ANGLE_UNIT()
);
#1859=SHAPE_DEFINITION_REPRESENTATION(#1860,#1861);
#1860=PRODUCT_DEFINITION_SHAPE('',$,#1863);
#1861=SHAPE_REPRESENTATION('',(#1123),#1853);
#1862=PRODUCT_DEFINITION_CONTEXT('part definition',#1867,'design');
#1863=PRODUCT_DEFINITION('xLH_base_PCB_Montagehilfe',
'xLH_base_PCB_Montagehilfe',#1864,#1862);
#1864=PRODUCT_DEFINITION_FORMATION('',$,#1869);
#1865=PRODUCT_RELATED_PRODUCT_CATEGORY('xLH_base_PCB_Montagehilfe',
'xLH_base_PCB_Montagehilfe',(#1869));
#1866=APPLICATION_PROTOCOL_DEFINITION('international standard',
'automotive_design',2009,#1867);
#1867=APPLICATION_CONTEXT(
'Core Data for Automotive Mechanical Design Process');
#1868=PRODUCT_CONTEXT('part definition',#1867,'mechanical');
#1869=PRODUCT('xLH_base_PCB_Montagehilfe','xLH_base_PCB_Montagehilfe',$,
(#1868));
#1870=PRESENTATION_STYLE_ASSIGNMENT((#1871));
#1871=SURFACE_STYLE_USAGE(.BOTH.,#1874);
#1872=SURFACE_STYLE_RENDERING_WITH_PROPERTIES($,#1878,(#1873));
#1873=SURFACE_STYLE_TRANSPARENT(0.);
#1874=SURFACE_SIDE_STYLE('',(#1875,#1872));
#1875=SURFACE_STYLE_FILL_AREA(#1876);
#1876=FILL_AREA_STYLE('',(#1877));
#1877=FILL_AREA_STYLE_COLOUR('',#1878);
#1878=COLOUR_RGB('',0.250980392156863,0.250980392156863,0.250980392156863);
ENDSEC;
END-ISO-10303-21;
